<?xml version="1.0" standalone="no"?>
<!DOCTYPE svg PUBLIC "-//W3C//DTD SVG 1.1//EN" "http://www.w3.org/Graphics/SVG/1.1/DTD/svg11.dtd" >
<svg xmlns="http://www.w3.org/2000/svg" xmlns:xlink="http://www.w3.org/1999/xlink" version="1.1">
<metadata>
Created by FontForge 20170731 at Wed Sep  9 18:28:15 2015
 By Aleksey,,,
Copyright [c] 1997, 2002, 2005, 2011, 2015 Luc(as) de Groot, published by LucasFonts.
</metadata>
<defs>
<font id="CorpidE3SCd-Regular" horiz-adv-x="2048" >
  <font-face 
    font-family="Corpid E3 SCd"
    font-weight="400"
    font-stretch="normal"
    units-per-em="4096"
    panose-1="2 11 5 3 4 5 2 6 2 4"
    ascent="3191"
    descent="-905"
    x-height="2087"
    cap-height="2859"
    bbox="-508 -905 4204 4010"
    underline-thickness="205"
    underline-position="-1211"
    unicode-range="U+000D-FB06"
  />
<missing-glyph horiz-adv-x="2253" 
d="M614 614v1024h205v-819h410v-205h-615zM205 205v1843h1843v-1843h-1843zM1434 614v410h-410v205h410v205h-410v204h614v-1024h-204zM1843 1843h-1433v-1433h1433v1433z" />
    <glyph glyph-name="f_b" unicode="fb" horiz-adv-x="3414" 
d="M1528 2799q-53 8 -101 13t-93 8.5t-86.5 5t-80.5 1.5q-88 0 -154.5 -19.5t-113.5 -54.5t-78 -84.5t-49 -111t-25.5 -132.5t-7.5 -149v-189h429v-278h-429v-1809h-357v1809h-296v278h296v174q0 132 16.5 246.5t54 209.5t97.5 169t148.5 125t206.5 77.5t271 26.5
q89 0 179 -4.5t179 -12.5t177 -19t174 -23v-1242q65 78 133 138t143.5 100.5t161.5 61.5t187 21q129 0 232.5 -37t184 -103.5t139 -160t96 -206.5t55.5 -242.5t18 -268.5q0 -156 -24.5 -302.5t-76 -274t-130 -232.5t-186.5 -180t-246 -116.5t-309 -41.5q-92 0 -187 8.5
t-188 24t-184 37.5t-176 50v2709zM1885 337q44 -20 91.5 -35.5t98.5 -26t105 -16t112 -5.5q143 0 249 56.5t176 164t104.5 262.5t34.5 351q0 94 -8 186.5t-27 176t-50.5 155t-78 123.5t-110.5 81.5t-147 29.5q-70 0 -134.5 -19t-130 -62.5t-135 -115t-150.5 -177.5v-1129z
" />
    <glyph glyph-name="f_h" unicode="fh" horiz-adv-x="3435" 
d="M2793 0v1266q0 85 -7.5 160.5t-25 138.5t-45.5 113.5t-68 85.5t-94 53.5t-122 18.5q-80 0 -147 -21.5t-131 -66.5t-128.5 -113t-139.5 -161v-1474h-357v2799q-53 8 -101 13t-93 8.5t-86.5 5t-80.5 1.5q-88 0 -154.5 -19.5t-113.5 -55t-78 -85.5t-49 -111.5t-25.5 -133
t-7.5 -149.5v-186h429v-278h-429v-1809h-357v1809h-296v278h296v172q0 132 16.5 247t54 210t97.5 169t148.5 125t206.5 78t271 27q89 0 179 -4.5t179 -12.5t177 -19t174 -23v-1251q67 80 135 141.5t143.5 103.5t160 63.5t183.5 21.5q118 0 211.5 -28.5t165 -81t122 -125.5
t82.5 -162t47 -191t15 -211v-1336h-357z" />
    <glyph glyph-name="f_j" unicode="fj" horiz-adv-x="2185" 
d="M1711 2500q-52 0 -96 18t-76.5 50.5t-50.5 77.5t-18 98t18 97.5t50.5 77t76.5 50.5t96 18q54 0 98 -18.5t76 -51t50 -77t18 -96.5q0 -53 -18 -98t-50.5 -77.5t-76.5 -50.5t-97 -18zM1102 -590h175q65 0 113 25.5t79.5 81.5t47 145t15.5 214v1933h-793v-1809h-357v1809
h-296v278h296v203q0 126 12 235.5t39 201t72.5 163.5t114 121.5t160.5 75.5t213 26q42 0 73 -1.5t58.5 -4.5t53 -8t55.5 -12v-260h-158q-78 0 -133.5 -18.5t-92.5 -51.5t-59 -79.5t-33 -104t-14.5 -123.5t-3.5 -138v-225h1150v-2170q0 -162 -18 -284.5t-52 -212.5
t-83.5 -150t-111 -95.5t-135 -50.5t-156.5 -15q-31 0 -63 2t-63 6t-61 10t-55 13z" />
    <glyph glyph-name="f_k" unicode="fk" horiz-adv-x="3199" 
d="M2706 0l-671 1067l-150 -154v-913h-357v2799q-53 8 -101 13t-93 8.5t-86.5 5t-80.5 1.5q-88 0 -154.5 -19.5t-113.5 -54.5t-78 -84.5t-49 -111t-25.5 -132.5t-7.5 -149v-189h429v-278h-429v-1809h-357v1809h-296v278h296v174q0 132 16.5 246.5t54 209.5t97.5 169
t148.5 125t206.5 77.5t271 26.5q89 0 179 -4.5t179 -12.5t177 -19t174 -23v-1776q179 197 360 400t358 407h448l-754 -769l843 -1318h-434z" />
    <glyph glyph-name="f_f" unicode="ff" horiz-adv-x="2408" 
d="M1533 0v1809h-794v-1809h-357v1809h-296v278h296v203q0 126 12 235.5t39 201t72.5 163.5t114 121.5t160.5 75.5t213 26q39 0 73 -1.5t65 -4.5t59.5 -8t56.5 -12v-260h-172q-80 0 -135.5 -19t-93 -53t-59 -81.5t-32 -105t-13.5 -122.5t-3 -134v-225h794v203
q0 126 12 235.5t39.5 201t72.5 163.5t113.5 121.5t160.5 75.5t213 26q39 0 73 -1.5t65.5 -4.5t60 -8t55.5 -12v-260h-171q-80 0 -136 -19t-93.5 -53t-59 -81.5t-32 -105t-13 -122.5t-2.5 -134v-225h441v-278h-441v-1809h-358z" />
    <glyph glyph-name="f_i" unicode="fi" horiz-adv-x="2193" 
d="M1708 2500q-52 0 -96.5 18.5t-76.5 50.5t-50.5 77t-18.5 98t18.5 97.5t50.5 76.5t76.5 50.5t96.5 18.5q51 0 95.5 -18.5t77 -50.5t50.5 -76.5t18 -97.5t-18 -98t-50.5 -77t-77 -50.5t-95.5 -18.5zM1532 0v1809h-793v-1809h-357v1809h-296v278h296v203q0 126 12 235.5
t39 201t72.5 163.5t114 121.5t160.5 75.5t213 26q38 0 69.5 -1.5t60 -4.5t54.5 -8t53 -12v-260h-155q-80 0 -135.5 -19t-93 -53t-59 -81.5t-32 -105t-13.5 -122.5t-3 -134v-225h1150v-2087h-357z" />
    <glyph glyph-name="f_l" unicode="fl" horiz-adv-x="2257" 
d="M2179 0q-22 -6 -49 -11t-57.5 -9t-64 -6t-67.5 -2q-90 0 -166.5 21.5t-132 72.5t-87 134t-31.5 206v2393q-52 8 -99.5 13t-92.5 8.5t-86.5 5t-80.5 1.5q-88 0 -154 -19.5t-113.5 -54.5t-78 -84.5t-48.5 -111t-25 -132.5t-7 -149v-189h429v-278h-429v-1809h-357v1809h-296
v278h296v174q0 132 16 246.5t53.5 209.5t97.5 169t148 125t206 77.5t271 26.5q89 0 179 -4.5t179 -12.5t176.5 -19t172.5 -23v-2562q0 -53 7.5 -95t25.5 -71.5t48 -45t75 -15.5h142v-267z" />
    <glyph glyph-name="f_f_i" unicode="ffi" horiz-adv-x="3344" 
d="M2857 2500q-52 0 -96.5 18.5t-76.5 51t-50 77.5t-18 97t18 96.5t50.5 77t76.5 51t96 18.5q53 0 97 -18.5t76.5 -51t50.5 -77t18 -96.5q0 -53 -18 -97.5t-50.5 -77t-76.5 -51t-97 -18.5zM2683 0v1809h-792v-1809h-358v1809h-794v-1809h-357v1809h-296v278h296v203
q0 126 12 235.5t39 201t72.5 163.5t114 121.5t160.5 75.5t213 26q39 0 73 -1.5t65 -4.5t59.5 -8t56.5 -12v-260h-172q-80 0 -135.5 -19t-93 -53t-59 -81.5t-32 -105t-13.5 -122.5t-3 -134v-225h794v203q0 126 12 235.5t39.5 201t72.5 163.5t113.5 121.5t160.5 75.5t213 26
q39 0 72 -1.5t62.5 -4.5t57 -8t55.5 -12v-260h-164q-80 0 -136 -19t-93.5 -53t-59 -81.5t-32 -105t-13 -122.5t-2.5 -134v-225h1149v-2087h-357z" />
    <glyph glyph-name="f_f_l" unicode="ffl" horiz-adv-x="3412" 
d="M3334 0q-22 -6 -49 -11t-57.5 -9t-64 -6t-67.5 -2q-90 0 -166.5 21.5t-132 72.5t-87 134t-31.5 206v2393q-53 8 -101 13t-93 8.5t-86.5 5t-80.5 1.5q-88 0 -154.5 -19.5t-113.5 -54.5t-78 -84.5t-49 -111t-25 -132.5t-7 -149v-189h428v-278h-428v-1809h-358v1809h-794
v-1809h-357v1809h-296v278h296v203q0 126 12 235.5t39 201t72.5 163.5t114 121.5t160.5 75.5t213 26q39 0 73 -1.5t65 -4.5t59.5 -8t56.5 -12v-260h-172q-80 0 -135.5 -19t-93 -53t-59 -81.5t-32 -105t-13.5 -122.5t-3 -134v-225h794v174q0 132 16.5 246.5t54 209.5t98 169
t148.5 125t206 77.5t271 26.5q89 0 179 -4.5t179.5 -12.5t177 -19t173.5 -23v-2562q0 -53 7.5 -95t25.5 -71.5t48 -45t75 -15.5h142v-267z" />
    <glyph glyph-name=".notdef" horiz-adv-x="2253" 
d="M614 614v1024h205v-819h410v-205h-615zM205 205v1843h1843v-1843h-1843zM1434 614v410h-410v205h410v205h-410v204h614v-1024h-204zM1843 1843h-1433v-1433h1433v1433z" />
    <glyph glyph-name=".null" horiz-adv-x="0" 
 />
    <glyph glyph-name=".null" horiz-adv-x="0" 
 />
    <glyph glyph-name="nonmarkingreturn" unicode="&#xd;" 
 />
    <glyph glyph-name="space" unicode=" " horiz-adv-x="995" 
 />
    <glyph glyph-name="space" unicode="&#xa0;" horiz-adv-x="995" 
 />
    <glyph glyph-name="exclam" unicode="!" horiz-adv-x="1327" 
d="M585 762l-48 2310h401l-48 -2310h-305zM737 -44q-53 0 -98 19.5t-78.5 53.5t-52.5 80.5t-19 100.5t19.5 100t53 80.5t78.5 53.5t97 19q53 0 98 -19t78.5 -53.5t52.5 -80.5t19 -99q0 -55 -19 -101.5t-52.5 -80.5t-79 -53.5t-97.5 -19.5z" />
    <glyph glyph-name="quotedbl" unicode="&#x22;" horiz-adv-x="1645" 
d="M1040 1937l-51 1135h365l-49 -1135h-265zM319 1937l-49 1135h364l-50 -1135h-265z" />
    <glyph glyph-name="numbersign" unicode="#" 
d="M1104 0l92 816h-478l-92 -816h-293l91 816h-290v270h319l83 731h-300v270h329l87 772h294l-87 -772h479l86 772h293l-87 -772h290v-270h-319l-83 -731h294v-270h-323l-92 -816h-293zM1307 1817h-478l-82 -731h477z" />
    <glyph glyph-name="dollar" unicode="$" 
d="M895 -475v477q-84 1 -166 10t-162 25.5t-158 41t-153 55.5l71 306q70 -32 142.5 -57t148.5 -42.5t156.5 -27t165.5 -9.5q109 0 198 32t153 88.5t99 135t35 171.5q0 81 -18 142.5t-52.5 110t-85 86t-116 70.5t-145 64t-171.5 66q-83 31 -159 66t-141 78t-117 96.5t-89 120
t-57.5 148.5t-20.5 183q0 88 20.5 169.5t59 154.5t94.5 135.5t127.5 110.5t157 81t183.5 47v432h283v-421q59 -4 120 -13t120.5 -23t116 -32.5t106.5 -40.5l-76 -282q-54 23 -115.5 41t-126 31t-128.5 20t-123 7q-112 0 -194 -31t-135.5 -83.5t-79 -121t-25.5 -143.5
q0 -68 16.5 -121t49 -96t79.5 -77.5t107.5 -65t134 -59.5t158.5 -60q85 -32 164.5 -67t149.5 -79.5t127.5 -100t99 -127.5t64.5 -162.5t23 -203.5q0 -105 -23 -196t-65 -167.5t-100 -139t-128.5 -110.5t-150.5 -82t-166 -54v-507h-283z" />
    <glyph glyph-name="percent" unicode="%" horiz-adv-x="3081" 
d="M732 1409q-155 0 -264 51t-178.5 146.5t-101.5 233.5t-32 312q0 180 40 320.5t116.5 236t187.5 145.5t255 50q152 0 261 -49.5t179 -144.5t103 -233.5t33 -316.5q0 -122 -18.5 -225t-53.5 -186.5t-86.5 -147t-118 -106.5t-148 -64.5t-174.5 -21.5zM2325 -44
q-154 0 -263.5 51t-178.5 147t-101 234t-32 312q0 180 39.5 320t116 236t188 145.5t254.5 49.5q152 0 261 -49.5t179.5 -144.5t103.5 -233t33 -316q0 -122 -18.5 -225t-54 -186.5t-86.5 -147.5t-118 -106.5t-148 -64.5t-175 -22zM745 1641q77 0 130.5 35t87 101t49 161.5
t15.5 216.5q0 148 -19.5 247t-56.5 158.5t-90 85t-119 25.5q-77 0 -131 -35t-87.5 -101t-48.5 -161.5t-15 -216.5q0 -141 18.5 -239t54.5 -159.5t89.5 -89.5t122.5 -28zM2339 189q77 0 130.5 35t87 101t49 161.5t15.5 216.5q0 148 -20 246.5t-57 158.5t-89.5 85.5
t-118.5 25.5q-78 0 -131.5 -35t-87 -101t-49 -161.5t-15.5 -216.5q0 -141 18.5 -239.5t55 -160t89.5 -89t123 -27.5zM492 18l1859 2961l222 -137l-1859 -2959z" />
    <glyph glyph-name="ampersand" unicode="&#x26;" horiz-adv-x="2681" 
d="M2388 -53q-62 49 -123.5 97t-122 95.5t-119.5 95.5t-114 96q-77 -86 -168 -156t-194.5 -119t-220 -75.5t-245.5 -26.5q-134 0 -248.5 24.5t-209 70.5t-167 112t-122 149t-75.5 180.5t-26 207.5q0 130 30.5 243t90.5 213.5t147.5 191t202.5 175.5q-66 89 -119.5 180
t-91.5 181.5t-58.5 179.5t-20.5 174q0 150 47.5 273t135 211t211.5 136.5t277 48.5q89 0 170.5 -17.5t152.5 -52t128 -85.5t97.5 -116t63 -145t22.5 -174q0 -73 -12 -141t-39 -133t-70.5 -128.5t-107 -129.5t-148.5 -135.5t-195 -145.5q44 -54 95 -111.5t107 -117
t116.5 -121t124 -122.5t129 -121.5t132.5 -117.5q39 83 69.5 176.5t51 195t31 209.5t10.5 221h335q-1 -146 -18.5 -283.5t-49.5 -264.5t-77 -241.5t-102 -215.5q56 -46 114.5 -92.5t118.5 -93t122 -93.5t126 -95zM977 1715q111 80 187.5 150t124.5 138t70 136t22 143
q0 48 -8 93t-24 84.5t-41.5 72.5t-60.5 57t-80 37.5t-100 13.5q-77 0 -135.5 -30.5t-97 -82.5t-58 -120.5t-19.5 -144.5q0 -58 12 -118t39 -126.5t68.5 -141t100.5 -161.5zM889 1296q-70 -60 -123 -123.5t-89 -131.5t-54 -140.5t-18 -152.5q0 -120 36 -213.5t104.5 -158
t166 -98.5t220.5 -34q84 0 160 20.5t144.5 57.5t127.5 88.5t108 114.5q-71 62 -143 126.5t-142.5 130.5t-138.5 132t-131 131.5t-121 128t-107 122.5z" />
    <glyph glyph-name="quotesingle" unicode="'" horiz-adv-x="911" 
d="M319 1937l-49 1135h371l-51 -1135h-271z" />
    <glyph glyph-name="parenleft" unicode="(" horiz-adv-x="1244" 
d="M729 -790q-117 233 -205 474t-147.5 488.5t-89.5 501t-30 512.5q0 260 30 514.5t89.5 503t147.5 490t205 473.5l275 -106q-94 -225 -165 -456t-119 -466t-72 -472.5t-24 -474.5q0 -240 24 -478t72 -473.5t119 -467t165 -457.5z" />
    <glyph glyph-name="parenright" unicode=")" horiz-adv-x="1244" 
d="M240 -684q94 225 165 456.5t118.5 466t71.5 472t24 475.5q0 239 -24 477.5t-71.5 473.5t-118.5 466.5t-165 457.5l275 106q116 -232 204.5 -473.5t148 -489t89.5 -501.5t30 -511q0 -261 -30 -516t-89.5 -503t-148 -489t-204.5 -474z" />
    <glyph glyph-name="asterisk" unicode="*" 
d="M1131 2131l64 -616h-342l65 614l-466 -366l-175 292l542 247l-542 253l175 293l466 -368l-65 616h342l-65 -615l467 367l175 -293l-543 -246l543 -254l-175 -292z" />
    <glyph glyph-name="plus" unicode="+" 
d="M864 316v806h-698v300h698v809h319v-809h699v-300h-699v-806h-319z" />
    <glyph glyph-name="comma" unicode="," horiz-adv-x="1021" 
d="M106 -526q74 93 121.5 166t74.5 130.5t37.5 101.5t10.5 78q0 28 -6.5 51.5t-16 44.5t-21.5 41.5t-21.5 43t-16 48.5t-6.5 59q0 55 17 102t49 82t78.5 55t104.5 20q52 0 97.5 -20.5t79.5 -59.5t53.5 -96.5t19.5 -129.5q0 -77 -25.5 -170.5t-82 -202.5t-149 -231
t-225.5 -256z" />
    <glyph glyph-name="hyphen" unicode="-" horiz-adv-x="1100" 
d="M143 978v293h949v-293h-949z" />
    <glyph glyph-name="hyphen" unicode="&#x2011;" horiz-adv-x="1100" 
d="M143 978v293h949v-293h-949z" />
    <glyph glyph-name="hyphen" unicode="&#x2010;" horiz-adv-x="1100" 
d="M143 978v293h949v-293h-949z" />
    <glyph glyph-name="hyphen" unicode="&#xad;" horiz-adv-x="1100" 
d="M143 978v293h949v-293h-949z" />
    <glyph glyph-name="period" unicode="." horiz-adv-x="1021" 
d="M510 -28q-55 0 -102 21t-81.5 56.5t-54 84t-19.5 103.5q0 56 19.5 104t54 84t82 56.5t102.5 20.5t102 -20.5t81.5 -56t54 -83.5t19.5 -104t-19.5 -104.5t-54 -84t-82 -56.5t-102.5 -21z" />
    <glyph glyph-name="slash" unicode="/" horiz-adv-x="1601" 
d="M7 -526l1244 3791l325 -94l-1243 -3791z" />
    <glyph glyph-name="zero" unicode="0" 
d="M1008 -47q-168 0 -299 48t-229 138t-166 219.5t-110 292.5t-61 357t-19 414q0 225 23.5 423t71.5 362.5t122 294.5t175.5 220t231.5 137t290 47q171 0 303.5 -48.5t231 -139.5t165.5 -221t108.5 -293t59.5 -356t18 -409q0 -225 -23.5 -423t-72 -363t-122.5 -295
t-175.5 -220t-232 -137.5t-290.5 -47.5zM1029 248q91 0 164.5 32t130.5 96t98.5 161t68 227t39.5 292t13 358q0 201 -11.5 367.5t-37 299.5t-66.5 233t-99 166t-135 99t-174 33q-91 0 -164.5 -31.5t-131 -96t-99 -160.5t-68 -225.5t-39.5 -291.5t-13 -358q0 -200 11.5 -367
t37 -300.5t66.5 -233.5t99 -167t135 -100t175 -33z" />
    <glyph glyph-name="one" unicode="1" 
d="M350 0v299h617v2178l-549 -341l-119 227l708 506h327v-2570h495v-299h-1479z" />
    <glyph glyph-name="two" unicode="2" 
d="M192 0v287l522 608q113 131 202 247.5t156.5 222t114.5 201.5t76.5 186t43 176t13.5 171q0 118 -28 210.5t-86 156.5t-147 98t-211 34q-56 0 -117.5 -7t-128 -22.5t-139 -39t-149.5 -57.5l-63 294q83 34 165.5 60t166 43.5t170 27t177.5 9.5q199 0 348 -52.5t249 -150.5
t150.5 -239.5t50.5 -319.5q0 -109 -21 -218.5t-61.5 -219.5t-100 -222t-137 -228t-172.5 -236t-206 -247l-401 -465h1227v-308h-1664z" />
    <glyph glyph-name="three" unicode="3" 
d="M170 288q66 -8 138 -14t144.5 -10t143.5 -6t137 -2q156 0 274 37.5t197.5 106t120 166.5t40.5 219q0 104 -26.5 184.5t-73 141t-110 102t-137.5 67t-156 37t-164 11.5h-217v284h194q158 0 278.5 40t202 111t123 169t41.5 215q0 103 -27.5 188t-85 146t-144.5 94t-207 33
q-60 0 -127.5 -7t-139.5 -22t-146.5 -38.5t-146.5 -55.5l-56 282q79 33 161.5 58.5t168.5 43.5t176.5 27.5t186.5 9.5q185 0 329.5 -50t244 -143.5t151.5 -226.5t52 -298q0 -123 -38.5 -233.5t-108 -200.5t-167 -154t-216.5 -93v-8q91 -10 170.5 -39.5t145 -75t118 -106.5
t88 -135.5t55 -160.5t19.5 -180q0 -134 -32.5 -248t-94 -208t-151.5 -166t-204 -121.5t-251.5 -75t-295.5 -25.5q-53 0 -122.5 3.5t-146 10.5t-156 18.5t-152.5 27.5v270z" />
    <glyph glyph-name="four" unicode="4" 
d="M1218 0v673h-1122v295l952 1891h532v-1878h348v-308h-348v-673h-362zM1218 2568h-7l-796 -1587h803v1587z" />
    <glyph glyph-name="five" unicode="5" 
d="M202 288q51 -6 110 -12t128 -10.5t149.5 -7.5t174.5 -3q157 0 281 38t210 116t131.5 197.5t45.5 281.5q0 140 -38 243t-117 171.5t-200 102.5t-288 34q-67 0 -129.5 -3.5t-121.5 -9t-114.5 -11.5t-110.5 -11l24 1455h1302v-309h-978l-16 -829q32 3 65 6t69.5 5t76.5 3
t86 1q144 0 266 -27t220 -77.5t172.5 -123t124.5 -162.5t75.5 -197t25.5 -226q0 -230 -71.5 -409t-205 -302.5t-325 -188.5t-430.5 -65q-51 0 -122 3.5t-151.5 10.5t-163.5 18.5t-155 26.5v271z" />
    <glyph glyph-name="six" unicode="6" 
d="M569 1577q56 43 123 79.5t141 63t154 41.5t163 15q143 0 253.5 -34.5t193 -95t138.5 -142t91 -176t50 -196.5t15 -204q0 -127 -25 -248.5t-74 -230t-121.5 -199.5t-168.5 -157t-214.5 -103.5t-258.5 -37.5q-156 0 -278 43.5t-214 126t-156.5 202t-105 271.5t-58.5 335.5
t-18 393.5q0 148 11 294.5t36 285.5t65.5 267t100.5 239.5t141 202.5t186 156t235.5 100.5t289.5 35.5q65 0 133.5 -7t134.5 -20t127 -30t110 -36l-63 -271q-54 19 -110.5 33.5t-114.5 25t-117 16t-120 5.5q-121 0 -217 -39.5t-170.5 -109.5t-128 -167t-88.5 -212.5
t-53 -246t-22 -265.5zM570 1295q1 -196 15 -349.5t41.5 -270.5t68 -199t94 -133.5t119 -75.5t143.5 -24q73 0 136 24t115 66.5t91.5 102.5t67 132t41.5 154.5t14 170.5q0 85 -10 162t-31.5 143t-56 119.5t-83.5 91t-113 58t-146 20.5q-62 0 -128.5 -14.5t-132.5 -40
t-128.5 -60.5t-116.5 -77z" />
    <glyph glyph-name="seven" unicode="7" 
d="M512 65q26 46 55 101.5t59.5 119.5t62.5 136.5t64.5 152t65.5 166.5t66 180l576 1627h-1275v311h1668v-302l-699 -1894q-38 -100 -82.5 -198t-94.5 -191.5t-104 -180.5t-110 -166z" />
    <glyph glyph-name="eight" unicode="8" 
d="M718 1457q-116 69 -206.5 146t-152.5 167t-94 194.5t-32 227.5q0 96 22.5 186.5t67 170.5t111.5 145.5t157 113t202.5 74t248.5 26.5q129 0 236 -24t192 -68t148.5 -104.5t105.5 -134t63.5 -156.5t21.5 -172q0 -121 -35 -225.5t-100 -196.5t-159.5 -172.5t-213.5 -153.5
q133 -72 243 -151.5t188 -173.5t121.5 -205t43.5 -247q0 -180 -60.5 -323t-175.5 -243t-280.5 -153.5t-375.5 -53.5q-199 0 -358 43t-271 131t-171.5 220t-59.5 311q0 92 18 173.5t53 154t85 136.5t114 122.5t140 111.5t163 103zM1030 1645q88 53 163 112.5t130.5 128.5
t87 148t31.5 173q0 99 -28.5 176.5t-83 131.5t-133 82t-177.5 28q-108 0 -187.5 -32.5t-131 -88.5t-76.5 -132t-25 -163q0 -84 24 -158t76 -142.5t133.5 -133.5t196.5 -130zM985 1304q-94 -60 -179 -123.5t-148.5 -136.5t-101 -159t-37.5 -189q0 -117 34 -203.5t99.5 -143.5
t162 -85t221.5 -28q115 0 205.5 34t153 93.5t95.5 141t33 178.5q0 103 -34.5 186t-102 155t-168.5 139.5t-233 140.5z" />
    <glyph glyph-name="nine" unicode="9" 
d="M246 303q69 -17 138 -28.5t138 -19t136 -11t133 -3.5q118 0 212.5 33t168 95t127.5 152t91 205.5t58.5 254t28.5 297.5l-3 5q-57 -43 -124.5 -79.5t-142.5 -62.5t-155 -41t-162 -15q-137 0 -244.5 31.5t-190 88.5t-140.5 136t-95 173.5t-54 201t-17 219.5q0 125 24 245.5
t72.5 228.5t120 199t167 157.5t214 103.5t260.5 37q150 0 270.5 -39t213.5 -116.5t159.5 -192.5t109 -267t62.5 -341.5t20 -413.5q0 -167 -13 -324t-41.5 -299.5t-73 -269t-107 -233.5t-144.5 -191.5t-185.5 -143.5t-229.5 -90.5t-276 -31.5q-66 0 -137.5 4.5t-143 14
t-141.5 23t-133 31.5zM1473 1566q-1 193 -15.5 346.5t-42 270t-68.5 198.5t-94.5 134.5t-119.5 76t-144 23.5q-81 0 -147.5 -25.5t-118.5 -71t-90 -107t-62.5 -133t-36.5 -149.5t-12 -156q0 -84 9.5 -161.5t31 -144t55.5 -120.5t83 -92t114 -59t147 -21q62 0 129 14t134 39
t130 60t118 78z" />
    <glyph glyph-name="colon" unicode=":" horiz-adv-x="1095" 
d="M584 1510q-55 0 -102.5 21t-82 56.5t-54 84t-19.5 104.5q0 55 19.5 103.5t54.5 84t82 56.5t103 21q55 0 102 -21t81.5 -56.5t54 -83.5t19.5 -103q0 -56 -20 -104.5t-54.5 -84.5t-81.5 -57t-102 -21zM584 -28q-55 0 -102.5 21t-82 56.5t-54 84t-19.5 103.5q0 56 19.5 104
t54.5 84t82 56.5t103 20.5q55 0 102 -20.5t81.5 -56t54 -83.5t19.5 -104t-20 -104.5t-54.5 -84t-81.5 -56.5t-102 -21z" />
    <glyph glyph-name="semicolon" unicode=";" horiz-adv-x="1095" 
d="M584 1510q-55 0 -102.5 21t-82 56.5t-54 84t-19.5 104.5q0 55 19.5 103.5t54.5 84t82 56.5t103 21q55 0 102 -21t81.5 -56.5t54 -83.5t19.5 -103q0 -56 -20 -104.5t-54.5 -84.5t-81.5 -57t-102 -21zM181 -526q74 93 121.5 166t74.5 130.5t37.5 101.5t10.5 78
q0 28 -6.5 51.5t-16.5 44.5t-21.5 41.5t-21 43t-16 48.5t-6.5 59q0 55 17 102t49 82t78.5 55t104.5 20q51 0 96.5 -20.5t79.5 -59.5t54 -96.5t20 -129.5q0 -77 -25.5 -170.5t-82 -202.5t-149 -231t-225.5 -256z" />
    <glyph glyph-name="semicolon" unicode="&#x37e;" horiz-adv-x="1095" 
d="M584 1510q-55 0 -102.5 21t-82 56.5t-54 84t-19.5 104.5q0 55 19.5 103.5t54.5 84t82 56.5t103 21q55 0 102 -21t81.5 -56.5t54 -83.5t19.5 -103q0 -56 -20 -104.5t-54.5 -84.5t-81.5 -57t-102 -21zM181 -526q74 93 121.5 166t74.5 130.5t37.5 101.5t10.5 78
q0 28 -6.5 51.5t-16.5 44.5t-21.5 41.5t-21 43t-16 48.5t-6.5 59q0 55 17 102t49 82t78.5 55t104.5 20q51 0 96.5 -20.5t79.5 -59.5t54 -96.5t20 -129.5q0 -77 -25.5 -170.5t-82 -202.5t-149 -231t-225.5 -256z" />
    <glyph glyph-name="less" unicode="&#x3c;" 
d="M166 1120v306l1654 927v-354l-1329 -726l1329 -722v-358z" />
    <glyph glyph-name="equal" unicode="=" 
d="M212 1551v299h1624v-299h-1624zM212 698v299h1624v-299h-1624z" />
    <glyph glyph-name="greater" unicode="&#x3e;" 
d="M228 193v353l1329 722l-1329 726v359l1654 -927v-307z" />
    <glyph glyph-name="question" unicode="?" horiz-adv-x="1712" 
d="M583 762q-18 153 -5 280t48 235t85.5 201t106 177.5t110.5 164.5t99 162t71.5 169.5t27.5 187.5q0 106 -24.5 192.5t-80.5 147t-147 94t-223 33.5q-110 0 -212 -8t-190 -20v276q53 13 111.5 23t118 17t115.5 10.5t103 3.5q222 0 377.5 -53.5t253 -149t142 -227.5
t44.5 -289q0 -124 -29 -229.5t-76.5 -199.5t-107 -180.5t-120 -173t-116.5 -176.5t-97 -192t-60.5 -219t-6.5 -257h-318zM746 -44q-53 0 -98 19.5t-78.5 53.5t-52.5 80.5t-19 100.5t19 100t53 80.5t79 53.5t97 19q53 0 98 -19t78.5 -53.5t52.5 -80.5t19 -99
q0 -55 -19 -101.5t-52.5 -80.5t-79 -53.5t-97.5 -19.5z" />
    <glyph glyph-name="at" unicode="@" horiz-adv-x="3230" 
d="M2849 -281q-111 -58 -222.5 -101.5t-231 -72.5t-249.5 -43t-277 -14q-233 0 -438.5 56t-377.5 160t-307.5 252t-229.5 332t-143.5 399.5t-49.5 455.5q0 277 55.5 515t157 433.5t246 346.5t322.5 254t384.5 156.5t434.5 53.5q149 0 273 -26t223 -73.5t173.5 -115.5
t123.5 -152.5t74 -184t25 -210.5v-1461h-264l-33 243q-50 -56 -110.5 -108t-135.5 -92.5t-165 -65t-196 -24.5q-149 0 -265.5 41t-198.5 118.5t-125 189t-43 253.5q0 170 64 294.5t180 205t279 119t362 38.5h299v187q0 121 -30.5 220.5t-100 170.5t-182.5 110t-277 39
q-167 0 -322.5 -42.5t-290.5 -126t-246 -206t-190 -282t-122.5 -356t-43.5 -426.5q0 -197 37 -377.5t109.5 -337t180 -283.5t248 -217t313 -139t376.5 -49q108 0 214.5 11.5t211.5 36t208.5 63t205.5 94.5zM2463 1639h-316q-126 0 -220.5 -25t-157 -73.5t-93.5 -119
t-31 -161.5q0 -79 21 -144t63 -110.5t104 -70.5t145 -25q73 0 137 19.5t123 55t114.5 84t110.5 107.5v463z" />
    <glyph glyph-name="A" unicode="A" horiz-adv-x="2454" 
d="M1947 0q-23 91 -47 185.5t-49 190.5t-50.5 191.5t-52.5 189.5h-1070q-27 -94 -53.5 -190t-51.5 -192t-49.5 -190.5t-47.5 -184.5h-381q103 381 212 749.5t224.5 725.5t236 702.5t247.5 681.5h420q137 -359 263 -718t241 -717.5t220 -714.5t199 -709h-411zM1671 1054
q-41 137 -85 279t-90 286t-94 288.5t-96 286.5q-12 36 -24 74t-24.5 76.5t-23.5 76.5t-22 72h-4q-11 -34 -23.5 -72t-25 -76.5t-24.5 -76t-23 -71.5q-47 -140 -93 -283.5t-91.5 -288.5t-89 -288.5t-84.5 -282.5h917z" />
    <glyph glyph-name="B" unicode="B" horiz-adv-x="2173" 
d="M333 0v2859h692q135 0 248 -21.5t204 -63.5t159.5 -102.5t115 -139.5t69.5 -175t23 -206q0 -112 -23.5 -209t-67 -176t-106.5 -138t-142 -97q107 -24 198.5 -83.5t158 -149t104 -206t37.5 -253.5q0 -139 -31.5 -255.5t-90 -209.5t-141.5 -163.5t-186 -117t-223 -70
t-253 -23.5h-745zM1053 1625q114 0 192.5 36t127 99.5t70 151t21.5 190.5q0 70 -11.5 131t-35.5 112.5t-61.5 92.5t-89 69.5t-119 44t-151.5 15.5h-297v-942h354zM1110 297q74 0 140.5 15t122.5 44t100.5 72t75.5 99.5t47.5 127t16.5 153.5q0 122 -32.5 220.5t-101 167.5
t-175 106t-254.5 37h-351v-1042h411z" />
    <glyph glyph-name="C" unicode="C" horiz-adv-x="2146" 
d="M2056 126q-72 -37 -152 -67t-165.5 -51.5t-174 -33.5t-178.5 -12q-277 0 -497 93.5t-373.5 275t-235.5 448.5t-82 614q0 232 37.5 433.5t108.5 368.5t174.5 297.5t236 220.5t292 137t343.5 47q90 0 174.5 -9.5t165.5 -28.5t159 -48.5t155 -68.5l-120 -292
q-62 31 -126 54.5t-130 40t-135.5 24.5t-142.5 8q-128 0 -236.5 -38t-196.5 -109t-155.5 -173t-112.5 -229.5t-68.5 -279t-23.5 -320.5q0 -281 57.5 -494t166 -357t264.5 -217.5t354 -73.5q72 0 142 10.5t136 28.5t126.5 42.5t115.5 51.5l97 -293v0z" />
    <glyph glyph-name="D" unicode="D" horiz-adv-x="2576" 
d="M333 0v2859h809q202 0 372.5 -43.5t309 -126t243.5 -203t176.5 -275t107.5 -341t36 -401.5q0 -242 -39 -445.5t-114.5 -366.5t-186.5 -286t-254.5 -205.5t-319 -124t-379.5 -41.5h-761zM1114 303q221 0 386 70.5t274.5 212.5t164 358.5t54.5 507.5q0 158 -21.5 301.5
t-67.5 266.5t-116.5 222.5t-168 170t-222.5 108.5t-280 38h-413v-2256h410z" />
    <glyph glyph-name="E" unicode="E" horiz-adv-x="2011" 
d="M333 0v2859h1421v-300h-1051v-923h916v-296h-916v-1038h1067v-302h-1437z" />
    <glyph glyph-name="F" unicode="F" horiz-adv-x="1854" 
d="M333 0v2859h1364v-300h-993v-985h889v-297h-889v-1277h-371z" />
    <glyph glyph-name="G" unicode="G" horiz-adv-x="2528" 
d="M1857 1494h371v-1387q-87 -35 -182.5 -63t-196 -47t-206 -29.5t-209.5 -10.5q-204 0 -375 46t-309 133t-242.5 213t-174.5 286.5t-105.5 352.5t-35.5 411q0 228 38.5 427.5t113.5 365.5t184 297t250 221.5t311.5 138.5t368.5 48q110 0 215.5 -16t206 -45.5t195 -72
t180.5 -94.5l-128 -289q-78 48 -161 86t-169 64.5t-174 40.5t-175 14q-146 0 -266.5 -39.5t-216.5 -112.5t-167.5 -177t-119.5 -232.5t-71.5 -279t-23.5 -316.5q0 -277 59 -492t170.5 -362t273 -223.5t364.5 -76.5q103 0 203.5 16t203.5 47v1157z" />
    <glyph glyph-name="H" unicode="H" horiz-adv-x="2553" 
d="M1850 0v1330h-1146v-1330h-371v2859h371v-1210h1146v1210h371v-2859h-371z" />
    <glyph glyph-name="I" unicode="I" horiz-adv-x="1038" 
d="M333 0v2859h371v-2859h-371z" />
    <glyph glyph-name="J" unicode="J" horiz-adv-x="1260" 
d="M75 283h186q56 0 99 10.5t76.5 34.5t56.5 63t37.5 95t21.5 131t7 171v2071h371v-2043q0 -129 -10.5 -242.5t-36 -208t-68.5 -168.5t-108 -125.5t-154 -78.5t-207 -27q-30 0 -65 1.5t-71 5t-71 8.5t-64 13v289z" />
    <glyph glyph-name="K" unicode="K" horiz-adv-x="2256" 
d="M1735 0l-855 1424l-176 -199v-1225h-371v2859h371v-1213q125 149 250.5 300.5t250.5 303.5t249 304.5t247 304.5h465l-1026 -1165l1040 -1694h-445z" />
    <glyph glyph-name="L" unicode="L" horiz-adv-x="1714" 
d="M333 0v2859h371v-2550h958v-309h-1329z" />
    <glyph glyph-name="M" unicode="M" horiz-adv-x="3408" 
d="M2736 0q-3 210 -8 418.5t-13 414t-19 408.5t-25.5 403.5t-33 397.5t-41.5 392h-4l-724 -2434h-365l-722 2434h-6q-17 -192 -33.5 -389t-30 -397.5t-24.5 -405t-19 -411t-13.5 -414.5t-7.5 -417h-349q3 232 10 468.5t18.5 475t27.5 478.5t37.5 480t46.5 479.5t56 477.5
h539l676 -2285h7l674 2285h533q30 -241 54.5 -479.5t44.5 -476t35 -474t26.5 -474t19 -476t10.5 -479.5h-377z" />
    <glyph glyph-name="N" unicode="N" horiz-adv-x="2636" 
d="M1812 0l-1134 2369h-6v-2369h-339v2859h520l1105 -2306h6v2306h339v-2859h-491z" />
    <glyph glyph-name="O" unicode="O" horiz-adv-x="2810" 
d="M1389 -48q-199 0 -364.5 46.5t-297.5 134.5t-231 215t-164.5 289t-98.5 357t-33 417t35 419t104.5 363t172.5 298.5t238 224.5t303 141.5t366 49.5q196 0 360.5 -47.5t297 -136.5t232.5 -216.5t167 -289t101 -354t34 -410.5q0 -225 -35 -423.5t-103.5 -365.5t-171 -299
t-238.5 -223.5t-304.5 -140.5t-369.5 -49zM1421 261q146 0 261.5 43t203.5 120.5t150.5 184t102 234t57.5 271.5t18 296q0 171 -19.5 326t-62 287t-108 238.5t-157.5 181t-211 115t-268 40.5q-145 0 -260 -43t-203 -120t-150.5 -183t-102 -233.5t-58 -270.5t-18.5 -293
q0 -175 19.5 -331.5t62 -289.5t108 -239t157.5 -180t210.5 -114t267.5 -40z" />
    <glyph glyph-name="P" unicode="P" horiz-adv-x="2119" 
d="M333 0v2859h692q91 0 176 -8t161 -27q136 -33 244.5 -103.5t185 -173.5t117 -236t40.5 -291q0 -215 -62 -386t-180 -290t-289 -182.5t-390 -63.5h-324v-1098h-371zM1053 1396q124 0 217.5 43t156.5 121.5t95 188.5t32 244q0 101 -21.5 189.5t-63 159t-101.5 120
t-136 71.5q-27 8 -56 13.5t-60 9t-61 5t-58 1.5h-293v-1166h349z" />
    <glyph glyph-name="Q" unicode="Q" horiz-adv-x="2814" 
d="M2556 -281l-445 467q-68 -56 -148 -99.5t-170 -73.5t-191.5 -45.5t-212.5 -15.5q-199 0 -364.5 46.5t-297.5 134.5t-231 215t-164.5 289t-98.5 357t-33 417t35 419t104.5 363t172.5 298.5t238 224.5t303 141.5t366 49.5q196 0 360.5 -47.5t297 -136.5t232.5 -216.5
t167 -289t101 -354t34 -410.5q0 -159 -17.5 -306.5t-53 -280t-88.5 -249.5t-123 -214l440 -463zM1403 933l214 221l447 -471q38 69 66.5 152t47.5 176t28 193.5t9 205.5q0 171 -20 326t-62 287t-108 238.5t-158 181t-211 115t-268 40.5q-145 0 -260 -43t-203.5 -120
t-151 -183t-102 -233.5t-58 -270.5t-18.5 -293q0 -175 20 -331.5t62 -289.5t107.5 -239t157.5 -180t211 -114t268 -40q71 0 135 11.5t121 33.5t107 53.5t92 72.5z" />
    <glyph glyph-name="R" unicode="R" horiz-adv-x="2169" 
d="M1614 0l-616 1280h-294v-1280h-371v2859h708q140 0 258.5 -24t214 -69.5t168 -111t121.5 -149t73.5 -183.5t24.5 -213q0 -105 -19 -194.5t-54 -165t-84 -137t-109 -110.5t-128.5 -85t-142.5 -60l687 -1357h-437zM990 1572q133 0 230.5 38.5t161 106t94 158t30.5 195.5
q0 61 -11 121.5t-35 115.5t-63 101.5t-95 80.5t-129.5 53.5t-168.5 19.5h-300v-990h286z" />
    <glyph glyph-name="S" unicode="S" horiz-adv-x="1857" 
d="M235 359q65 -23 131.5 -40.5t135 -29.5t138.5 -18.5t142 -6.5q130 0 227.5 35t162.5 98t97.5 151.5t32.5 194.5q0 72 -16.5 131.5t-47 110.5t-75 96t-102.5 87t-128 84.5t-152 89.5q-95 54 -175.5 107.5t-145 111t-113.5 119.5t-81.5 133t-49 152.5t-16.5 176.5
q0 116 28.5 218t81 187t128 152t170 113t206 70.5t236.5 24.5q61 0 126.5 -5.5t129 -15.5t123 -24t109.5 -32l-60 -300q-51 18 -105 32t-110 23.5t-111.5 14t-109.5 4.5q-113 0 -197 -33.5t-140 -91t-83.5 -133.5t-27.5 -161q0 -71 15.5 -129.5t45.5 -109t73 -95t98 -85.5
t120 -81.5t140 -83.5q98 -57 181.5 -112t152 -113t120.5 -120.5t87.5 -134t53.5 -153t18 -177.5q0 -134 -30 -248t-87 -207t-139 -164.5t-186.5 -120t-230 -74t-268.5 -25.5q-49 0 -98 3t-96.5 8t-95.5 12t-95.5 17t-95 22t-95.5 26z" />
    <glyph glyph-name="T" unicode="T" horiz-adv-x="1977" 
d="M802 0v2551h-759v308h1891v-308h-759v-2551h-373z" />
    <glyph glyph-name="U" unicode="U" horiz-adv-x="2614" 
d="M1927 2859h361v-1809q0 -273 -69.5 -478.5t-197.5 -342.5t-311 -206t-410 -69q-224 0 -404 65.5t-306.5 197.5t-194.5 329.5t-68 461.5v1851h371v-1823q0 -130 19.5 -238t56.5 -194t90.5 -150.5t121.5 -107.5t150.5 -64t176.5 -21q141 0 255 48.5t193.5 145t122.5 241.5
t43 337v1826z" />
    <glyph glyph-name="V" unicode="V" horiz-adv-x="2379" 
d="M977 0q-137 359 -261.5 717.5t-238.5 716.5t-217.5 714.5t-198.5 710.5h410q43 -179 90.5 -359.5t98.5 -363t105 -365t110.5 -364t114.5 -361.5t118 -356l95 -305h5l102 319q88 270 172 542.5t163 543.5t151.5 539t135.5 530h386q-95 -355 -199 -709.5t-218 -711
t-239 -716t-262 -722.5h-423z" />
    <glyph glyph-name="W" unicode="W" horiz-adv-x="3727" 
d="M2404 0l-475 2040l-71 352h-7l-67 -350l-465 -2042h-475q-111 360 -210.5 719.5t-189.5 718t-169.5 714t-149.5 707.5h405q33 -178 68.5 -359.5t74.5 -364t80 -365.5t85 -364t89 -359.5t92 -351.5q8 -35 18.5 -75.5t20.5 -82t19.5 -81t16.5 -71.5h6l84 407l465 2067h443
l485 -2066l83 -408h6q9 37 19 80.5t20.5 87.5t21 87t19.5 79q46 179 91.5 359.5t88.5 360t83.5 359t78 357t72.5 354t66 350.5h377q-72 -354 -152.5 -707.5t-170.5 -710t-189.5 -716t-210.5 -725.5h-476z" />
    <glyph glyph-name="X" unicode="X" horiz-adv-x="2284" 
d="M1792 0l-660 1207l-654 -1207h-433l860 1483l-780 1376h440l590 -1085l585 1085h422l-780 -1359l857 -1500h-447z" />
    <glyph glyph-name="Y" unicode="Y" horiz-adv-x="2155" 
d="M893 0v1219q-126 198 -243 401.5t-225 409.5t-208 414t-192 415h415q46 -111 95.5 -222.5t102 -224t108 -224t113.5 -221t119 -216.5t124 -209q59 102 117.5 210t115.5 219t111.5 224t106 225.5t98 222.5t87.5 216h391q-58 -134 -120 -270t-128.5 -272.5t-137.5 -274
t-147.5 -275t-159 -275t-171.5 -273.5v-1219h-372z" />
    <glyph glyph-name="Z" unicode="Z" horiz-adv-x="1910" 
d="M114 0v299l1247 2258h-1203v302h1609v-297l-1242 -2258h1265v-304h-1676z" />
    <glyph glyph-name="bracketleft" unicode="[" horiz-adv-x="1260" 
d="M367 -706v3801h704v-265h-369v-3271h369v-265h-704z" />
    <glyph glyph-name="backslash" unicode="\" horiz-adv-x="1601" 
d="M1269 -620l-1244 3788l326 97l1243 -3789z" />
    <glyph glyph-name="bracketright" unicode="]" horiz-adv-x="1260" 
d="M191 -706v265h368v3271h-368v265h703v-3801h-703z" />
    <glyph glyph-name="asciicircum" unicode="^" 
d="M1505 1446l-474 1137l-435 -1137h-367l590 1413h444l618 -1413h-376z" />
    <glyph glyph-name="underscore" unicode="_" 
d="M0 -905v272h2048v-272h-2048z" />
    <glyph glyph-name="grave" unicode="`" horiz-adv-x="1006" 
d="M492 2394l-492 530l271 186l420 -568z" />
    <glyph glyph-name="a" unicode="a" horiz-adv-x="1997" 
d="M1431 0l-28 227q-62 -62 -128 -113t-140 -87t-157.5 -56t-179.5 -20q-146 0 -263 40.5t-199.5 118t-126.5 190.5t-44 259q0 169 64.5 292t181 203.5t279.5 119.5t361 39h304v164q0 120 -21.5 209t-72 148.5t-133.5 88.5t-206 29q-67 0 -136 -8.5t-139 -24.5t-139.5 -38.5
t-135.5 -50.5l-69 272q73 30 155 54.5t168.5 42t175 27t175.5 9.5q137 0 244 -24.5t188 -69.5t138 -108t93 -139t52 -164t16 -183v-1447h-277zM1355 959h-321q-126 0 -220.5 -25t-156.5 -74t-93 -120t-31 -162q0 -80 21 -144.5t63.5 -110t105 -70.5t146.5 -25q73 0 137.5 20
t123.5 55t114.5 83t110.5 105v468z" />
    <glyph glyph-name="b" unicode="b" horiz-adv-x="2181" 
d="M2002 1117q0 -156 -24.5 -302.5t-76 -274t-130 -232.5t-186.5 -180t-246 -116.5t-308 -41.5q-93 0 -187.5 8.5t-188 24t-184.5 37.5t-176 50v2982h357v-1258q65 78 133 138t143.5 100.5t161.5 61.5t187 21q129 0 232.5 -37t184 -103.5t139 -160t96 -206.5t55.5 -242.5
t18 -268.5zM1624 1088q0 94 -8 186.5t-27.5 176t-51 155t-78.5 123.5t-110.5 81.5t-145.5 29.5q-70 0 -135 -19t-130.5 -62.5t-135 -115t-150.5 -177.5v-1129q44 -20 91.5 -35.5t98.5 -26t105.5 -16t111.5 -5.5q143 0 249 56.5t176 164t105 262.5t35 351z" />
    <glyph glyph-name="c" unicode="c" horiz-adv-x="1683" 
d="M1565 74q-70 -32 -139 -54t-136 -35t-131 -18.5t-125 -5.5q-224 0 -386.5 74.5t-268 211.5t-156 330.5t-50.5 432.5q0 269 65 477t183.5 349.5t284.5 215t369 73.5q63 0 125.5 -6.5t123 -19.5t119 -33.5t114.5 -48.5l-81 -273q-44 19 -90.5 35.5t-94.5 28t-97.5 18.5
t-99.5 7q-143 0 -246 -57.5t-169 -161t-97.5 -249t-31.5 -320.5q0 -197 34 -344t102.5 -244.5t171.5 -146.5t242 -49q55 0 106.5 5t101.5 16t98 27.5t97 38.5z" />
    <glyph glyph-name="d" unicode="d" horiz-adv-x="2181" 
d="M1608 0l-31 313q-74 -91 -148 -159t-154 -113t-169 -67t-194 -22q-130 0 -235.5 37t-186.5 103.5t-140 159.5t-97 206.5t-56 243.5t-18 269q0 153 24 298t74 272t126.5 233t181.5 181.5t239.5 117.5t298.5 42q54 0 105.5 -2.5t102.5 -8t100 -13.5t98 -19v1000h357v-3072
h-278zM1529 1749q-88 40 -190.5 62t-220.5 22q-142 0 -247 -56.5t-174.5 -163.5t-104 -262t-34.5 -352q0 -94 8 -186t27 -176t51 -155.5t79 -123.5t110.5 -81.5t147.5 -29.5q47 0 90.5 8t86.5 26t86 47t88.5 70.5t93.5 96.5t103 126v1128z" />
    <glyph glyph-name="e" unicode="e" horiz-adv-x="2033" 
d="M1787 65q-76 -25 -159 -46t-172.5 -35.5t-184 -23t-194.5 -8.5q-230 0 -399 68t-280.5 204t-166 338t-54.5 472q0 252 58 455.5t171.5 347t280 221t384.5 77.5q135 0 245 -31t196 -89t148.5 -141t103 -187t60.5 -226.5t20 -260.5q0 -16 -1 -41t-2 -53.5t-2 -57.5t-1 -54
h-1287q0 -116 12.5 -217t40.5 -184.5t73 -148.5t109.5 -109.5t151 -67.5t198.5 -23q88 0 167 7t153 20t144.5 31t141.5 39zM1483 1251q4 141 -22 254.5t-81 193t-138 122.5t-192 43q-86 0 -155.5 -25t-124.5 -69t-95 -103t-67 -127t-41 -142t-16 -147h932z" />
    <glyph glyph-name="f" unicode="f" horiz-adv-x="1257" 
d="M382 0v1809h-296v278h296v213q0 124 12 231.5t39 198t72.5 161.5t114 120.5t160.5 75.5t213 26q40 0 74 -1.5t65 -4.5t59 -8t56 -12v-260h-178q-79 0 -133.5 -19t-91 -53t-57.5 -81.5t-31.5 -105t-13.5 -122.5t-3 -134v-225h438v-278h-438v-1809h-357z" />
    <glyph glyph-name="g" unicode="g" horiz-adv-x="2181" 
d="M1529 299q-71 -83 -142 -143.5t-146.5 -99t-157 -57t-173.5 -18.5q-130 0 -235 36t-186 102t-139.5 158t-96.5 204t-56 240t-18 266q0 153 24.5 297t76.5 269.5t131 229.5t186.5 178t246 115t307.5 41q89 0 185 -8.5t191.5 -24t187 -37.5t171.5 -50v-1951
q0 -164 -22 -297.5t-68.5 -238t-119 -180.5t-173.5 -126t-232.5 -74t-295.5 -24q-57 0 -123 3t-136 8.5t-142.5 15t-142.5 23.5l12 266q61 -5 125.5 -8.5t129.5 -6t130 -4t127 -1.5q105 0 188 12t147 40.5t109 75t74 116t42.5 163.5t13.5 217v273zM1529 1752q-44 19 -92 34
t-99 25.5t-105.5 16t-112.5 5.5q-141 0 -246.5 -56t-175.5 -161.5t-105 -257.5t-35 -344q0 -92 8 -183t26.5 -173t50.5 -152t79 -121.5t112 -80.5t150 -29q70 0 134.5 18.5t129.5 61t133.5 113t147.5 174.5v1110z" />
    <glyph glyph-name="h" unicode="h" horiz-adv-x="2202" 
d="M1560 0v1266q0 85 -7.5 160.5t-25 138.5t-45.5 113.5t-68 85.5t-94 53.5t-122 18.5q-80 0 -147 -21.5t-131 -66.5t-128.5 -113t-139.5 -161v-1474h-357v3072h357v-1267q67 80 135 141.5t143.5 103.5t160 63.5t183.5 21.5q118 0 211.5 -28.5t164.5 -81t122 -125.5t83 -162
t47 -191t15 -211v-1336h-357z" />
    <glyph glyph-name="i" unicode="i" horiz-adv-x="1037" 
d="M546 2500q-53 0 -97 18.5t-76 50.5t-50 77t-18 98t18 97.5t50 76.5t76 50.5t97 18.5t97 -18.5t76 -50.5t50 -76.5t18 -97.5t-18 -98t-50 -77t-76 -50.5t-97 -18.5zM385 0v1809h-310v278h667v-2087h-357z" />
    <glyph glyph-name="j" unicode="j" horiz-adv-x="989" 
d="M515 2500q-52 0 -96.5 18.5t-76.5 50.5t-50 77t-18 98t18 97.5t50 76.5t76.5 50.5t96.5 18.5q53 0 97 -18.5t76.5 -50.5t50.5 -76.5t18 -97.5t-18 -98t-50.5 -77t-76.5 -50.5t-97 -18.5zM-93 -590h175q65 0 112.5 25.5t79 81.5t47.5 144.5t16 214.5v2211h357v-2170
q0 -162 -18.5 -284.5t-52 -212.5t-83 -150t-111 -95.5t-135.5 -50.5t-156 -15q-31 0 -63 2t-63.5 6t-61 10t-54.5 13z" />
    <glyph glyph-name="k" unicode="k" horiz-adv-x="1966" 
d="M1473 0l-671 1067l-150 -154v-913h-357v3072h357v-1792q179 197 360.5 400t357.5 407h449l-755 -769l844 -1318h-435z" />
    <glyph glyph-name="l" unicode="l" horiz-adv-x="1028" 
d="M950 -2q-21 -5 -48 -10.5t-58 -9t-64.5 -6t-68.5 -2.5q-90 0 -166 22t-131.5 72.5t-87 134t-31.5 206.5v2667h357v-2580q0 -53 7.5 -94.5t25.5 -71.5t47.5 -45.5t73.5 -15.5h144v-267z" />
    <glyph glyph-name="m" unicode="m" horiz-adv-x="3295" 
d="M2653 0v1264q0 86 -5 161.5t-18 139t-36 114t-58.5 85.5t-85.5 53.5t-117 18.5q-77 0 -138 -21.5t-118.5 -66.5t-116.5 -113t-130 -161v-1474h-355v1265q0 84 -5 160t-18 139.5t-36 114t-58.5 85.5t-85.5 53.5t-116 18.5q-77 0 -138.5 -21.5t-119 -66.5t-116.5 -113
t-130 -161v-1474h-357v2087h277l40 -306q70 89 137 155t140 110.5t154.5 66.5t180.5 22q107 0 193.5 -25t154 -73.5t116.5 -120.5t80 -167q76 101 147.5 173.5t147 120t158.5 70t182 22.5q118 0 209 -28.5t158.5 -81t113.5 -125.5t74 -162t40 -191t12 -211v-1336h-357z" />
    <glyph glyph-name="n" unicode="n" horiz-adv-x="2202" 
d="M1560 0v1266q0 127 -18 232.5t-60.5 180.5t-111.5 116t-172 41q-80 0 -147 -21.5t-131 -66.5t-128.5 -113t-139.5 -161v-1474h-357v2087h277l40 -304q76 89 149.5 155.5t152 110t165.5 65t188 21.5q120 0 215 -28.5t167 -81t123 -125.5t83 -162t47 -191t15 -211v-1336
h-357z" />
    <glyph glyph-name="o" unicode="o" horiz-adv-x="2201" 
d="M1084 -48q-219 0 -388.5 74t-286 212.5t-176.5 335.5t-60 444q0 170 28 319t83 273t135.5 221.5t185.5 165t233.5 103t278.5 35.5q219 0 388.5 -74.5t286 -213.5t177 -338t60.5 -447q0 -168 -28.5 -315.5t-83 -271t-135 -220.5t-185.5 -164t-233.5 -103t-279.5 -36z
M1107 245q92 0 167.5 26t136 74.5t105.5 117t75 155t45 187.5t15 215q0 121 -14 229t-44 199.5t-75 164.5t-107 124t-141.5 78t-176.5 27q-137 0 -239 -57t-169 -160.5t-101 -246t-34 -313.5q0 -121 14.5 -229t43.5 -199t74.5 -163.5t107 -123.5t141 -78t176.5 -27z" />
    <glyph glyph-name="p" unicode="p" horiz-adv-x="2181" 
d="M295 -850v2937h277l32 -313q74 91 148 159t154 112.5t169 67t194 22.5q130 0 235 -36.5t186.5 -103.5t140.5 -160t97 -206t56 -243t18 -269q0 -154 -24 -299t-74 -272t-126.5 -232.5t-181.5 -181.5t-239.5 -118t-298.5 -42q-55 0 -108.5 3t-104.5 9.5t-99.5 15
t-93.5 18.5v-868h-357zM652 339q44 -21 91 -36.5t98 -26.5t106.5 -16.5t115.5 -5.5q142 0 247 56.5t175 163.5t104.5 262t34.5 352q0 94 -8 186.5t-27.5 176t-51.5 155t-79 123.5t-110.5 81.5t-147.5 29.5q-47 0 -90.5 -8t-86.5 -26t-86 -47t-88.5 -70.5t-94 -96.5
t-102.5 -126v-1127z" />
    <glyph glyph-name="q" unicode="q" horiz-adv-x="2181" 
d="M1529 -850v1122q-72 -84 -143.5 -144.5t-147.5 -99.5t-158 -57.5t-176 -18.5q-129 0 -232.5 37t-184 103.5t-139 160t-96 206.5t-55.5 242.5t-18 268.5q0 157 24.5 303t75.5 273.5t130 233t187 180.5t246 116t309 41q89 0 185 -8.5t191.5 -24t187 -37.5t171.5 -50v-2847
h-357zM1529 1752q-44 19 -92 34t-99 25.5t-105.5 16t-112.5 5.5q-142 0 -247.5 -56.5t-175.5 -164t-104.5 -262.5t-34.5 -351q0 -94 8 -186t27 -176t50.5 -155.5t78 -123.5t110 -81.5t147.5 -29.5q46 0 90 8t87.5 26t87 47t89 70.5t94 96.5t102.5 126v1131z" />
    <glyph glyph-name="r" unicode="r" horiz-adv-x="1413" 
d="M295 0v2087h279l37 -383q75 113 138 194.5t122 134.5t119.5 77.5t130.5 24.5q31 0 60.5 -2t57.5 -6.5t56.5 -11t58.5 -16.5l-52 -332q-21 7 -46 13.5t-50.5 11t-50.5 7.5t-46 3q-32 0 -63 -11t-63 -33t-67 -57t-75 -83.5t-86.5 -110.5t-102.5 -140v-1367h-357z" />
    <glyph glyph-name="s" unicode="s" horiz-adv-x="1592" 
d="M234 333q57 -21 116.5 -38t120 -29t119 -18.5t113.5 -6.5q89 0 156 20t112.5 57.5t68 90t22.5 118.5t-24 117.5t-65.5 93.5t-96.5 77.5t-117 69t-127.5 68t-127 74.5t-116.5 89t-96.5 111.5t-65.5 141t-24 179.5q0 87 21.5 164t63.5 142.5t102.5 117.5t139 88.5
t172.5 55.5t203 19q47 0 99 -4t106 -11.5t108.5 -19t107.5 -26.5l-47 -286q-47 15 -95 27t-95.5 20t-92.5 12.5t-85 4.5q-86 0 -148.5 -21.5t-104 -59t-62 -88t-20.5 -109.5q0 -66 24 -117.5t65.5 -93t97 -76.5t117.5 -68t127.5 -67t127.5 -74t117.5 -89t97 -112
t65.5 -142.5t24 -180.5q0 -137 -50.5 -248.5t-145 -190t-230 -121t-306.5 -42.5q-67 0 -134.5 6t-134 17t-131 27t-124.5 36z" />
    <glyph glyph-name="t" unicode="t" horiz-adv-x="1328" 
d="M1184 3q-29 -8 -66 -14.5t-78 -11t-84.5 -7.5t-86.5 -3q-75 0 -140.5 11t-120.5 36.5t-98.5 66.5t-74 101.5t-46.5 142t-16 186.5v1298h-290v278h287l84 607h276v-607h454v-278h-454v-1208q0 -76 8 -130.5t23.5 -92t39.5 -60.5t56.5 -35.5t73 -17t89.5 -4.5h164v-258z
" />
    <glyph glyph-name="u" unicode="u" horiz-adv-x="2202" 
d="M1630 0l-40 305q-75 -90 -148.5 -156.5t-152.5 -110t-165.5 -65t-188.5 -21.5q-119 0 -214.5 29t-167.5 81t-123 125.5t-83 162.5t-47 190.5t-15 210.5v1336h357v-1266q0 -85 8 -160t25.5 -138.5t45.5 -114t68 -85.5t93.5 -54t121.5 -19q80 0 147.5 22t131 66.5t128 113
t139.5 161.5v1474h357v-2087h-277z" />
    <glyph glyph-name="v" unicode="v" horiz-adv-x="1846" 
d="M731 0q-100 263 -190 525t-171 523t-153 520.5t-133 518.5h375q44 -183 90.5 -363t96 -356.5t102.5 -350t108 -344.5q24 -70 45.5 -146t39.5 -148h6q8 36 19 73.5t21.5 75.5t22 75t21.5 71q56 174 108 349t99.5 352t90.5 355t82 357h353q-64 -261 -135.5 -522
t-152.5 -522t-171 -522t-190 -521h-384z" />
    <glyph glyph-name="w" unicode="w" horiz-adv-x="2990" 
d="M1913 0l-361 1395l-62 274h-6l-61 -274l-343 -1395h-412q-86 259 -165 520.5t-150 523.5t-133.5 523t-116.5 520h372q33 -176 70.5 -351.5t78.5 -350t84 -347t88 -342.5q21 -83 44.5 -175t45.5 -181h5l81 349l349 1398h376l359 -1402l81 -345h6q22 89 43.5 181t43.5 177
q45 171 88 344t82.5 348t75.5 349.5t66 347.5h348q-57 -260 -121 -521t-136 -522t-152 -522.5t-167 -521.5h-401z" />
    <glyph glyph-name="x" unicode="x" horiz-adv-x="1929" 
d="M1413 0l-454 843l-457 -843h-411l641 1069l-595 1018h416l422 -782l420 782h389l-582 -997l635 -1090h-424z" />
    <glyph glyph-name="y" unicode="y" horiz-adv-x="1848" 
d="M114 -591h205q35 0 68 11t66.5 37.5t68 70t73 109t81.5 154.5t93 206q-59 146 -120 306.5t-122.5 331.5t-121.5 350t-116 363t-107 369.5t-94 369.5h377q45 -188 93.5 -369t100.5 -356.5t107 -346.5t111 -340q12 -35 23.5 -72.5t22.5 -75.5t21.5 -75.5t21.5 -72.5h6
q11 35 22 72.5t22.5 75.5t22.5 75t22 73q52 168 101 342.5t93.5 353t84.5 358.5t75 358h353q-82 -351 -162.5 -655.5t-160 -564t-156.5 -475.5t-153 -391q-77 -176 -145.5 -311t-132.5 -234t-126.5 -166t-125.5 -108t-129 -58.5t-139 -17.5q-33 0 -64.5 3.5t-61.5 8.5
t-57.5 12t-52.5 15z" />
    <glyph glyph-name="z" unicode="z" horiz-adv-x="1709" 
d="M168 0v287l936 1504h-881v296h1281v-288l-934 -1503h994v-296h-1396z" />
    <glyph glyph-name="braceleft" unicode="{" horiz-adv-x="1300" 
d="M1127 -700q-21 -4 -45.5 -7t-50 -5.5t-49 -4t-44.5 -1.5q-137 0 -225.5 47.5t-140 141.5t-71.5 235t-20 329v549q0 129 -21 226.5t-62.5 164t-105 100.5t-148.5 36v265q85 2 148.5 36t105 100.5t62.5 164.5t21 226v450q0 187 20.5 328t72.5 235.5t140.5 142t223.5 47.5
q21 0 44.5 -1t49 -3.5t50 -6l45.5 -6.5v-259h-133q-33 0 -59 -8t-47 -28.5t-35 -55.5t-24 -90t-14 -131t-4 -178v-416q0 -79 -8 -155.5t-25.5 -146.5t-45.5 -131.5t-68.5 -110.5t-95 -83.5t-123.5 -49.5q69 -14 123.5 -49t95 -84t68.5 -111.5t45.5 -133t25.5 -147.5t8 -157
v-514q0 -102 4 -178.5t14 -131t24 -89.5t35 -55.5t47 -28.5t59 -8h133v-259z" />
    <glyph glyph-name="bar" unicode="|" 
d="M856 -850v3992h336v-3992h-336z" />
    <glyph glyph-name="braceright" unicode="}" horiz-adv-x="1295" 
d="M168 -441h131q34 0 60 8t46.5 28.5t35.5 55.5t24.5 89.5t14 130.5t4.5 179v514q0 79 7.5 155.5t25 146.5t46 131.5t69 110.5t94.5 83t124 49q-70 15 -124 50t-94.5 84.5t-69 111.5t-46 133t-25 148t-7.5 156v416q0 102 -4.5 178t-14 131t-24 90t-35 55.5t-46.5 28.5
t-59 8h-133v259q20 3 44.5 6.5t49.5 6t49 3.5t45 1q137 0 226 -47t140.5 -141t71.5 -235.5t20 -329.5v-450q0 -129 20.5 -227t62.5 -164t105.5 -100t148.5 -36v-265q-85 -2 -148.5 -36t-105.5 -100.5t-62.5 -164.5t-20.5 -226v-549q0 -187 -21 -327.5t-73 -235
t-140.5 -142.5t-223.5 -48q-21 0 -45 1.5t-49 4t-49.5 5.5t-44.5 7v259z" />
    <glyph glyph-name="asciitilde" unicode="~" 
d="M1919 2373q0 -157 -36.5 -284.5t-104 -216.5t-163 -137.5t-213.5 -48.5q-89 0 -157.5 24t-122 63t-95.5 88t-78 101q-38 49 -70.5 93.5t-67 78t-75 53.5t-93.5 20q-65 0 -110 -31.5t-73 -88t-40.5 -135.5t-13.5 -174h-273v41q0 155 36.5 280.5t103.5 214t162.5 137
t213.5 48.5q89 0 157 -23.5t121 -61t95.5 -86t80.5 -99.5q37 -49 69 -93.5t67 -79t75 -55t94 -20.5q65 0 109.5 32t72.5 89t40.5 136.5t13.5 175.5h275v-41z" />
    <glyph glyph-name="exclamdown" unicode="&#xa1;" horiz-adv-x="1327" 
d="M589 1941q-52 0 -97 19.5t-78.5 53.5t-52.5 80.5t-19 99.5q0 54 19 100.5t52.5 81t79 54t97.5 19.5t97.5 -19.5t79 -53.5t52.5 -80.5t19 -100.5t-19 -100t-53 -80.5t-79.5 -54t-97.5 -19.5zM389 -667l49 2310h304l48 -2310h-401z" />
    <glyph glyph-name="cent" unicode="&#xa2;" 
d="M1049 0v392q-188 18 -332 97.5t-241.5 212.5t-148 316t-50.5 409q0 155 26 289.5t74.5 247t117 201.5t154.5 154.5t186.5 105.5t213.5 55v379h282v-370q49 -4 103.5 -13.5t113 -25.5t119.5 -40t124 -55l-101 -271q-58 30 -115.5 52.5t-113 37.5t-109 22.5t-104.5 7.5
q-143 0 -253.5 -52t-186.5 -149t-115.5 -236t-39.5 -313q0 -196 40 -342t116.5 -243t186.5 -145t250 -48q54 0 112 7t118.5 21.5t123.5 37t128 54.5l78 -266q-62 -28 -123.5 -51t-121 -40.5t-117.5 -29t-113 -17.5v-392h-282z" />
    <glyph glyph-name="sterling" unicode="&#xa3;" 
d="M250 0v284q56 65 103 133.5t84 142t62.5 154t38.5 173t13.5 197t-13.5 226.5h-349v271h301q-9 71 -18 140.5t-16 136.5t-11 133t-4 130q0 126 24 232.5t69.5 193t112.5 152t154.5 110.5t194.5 67.5t232 22.5q53 0 113.5 -3.5t123.5 -11t125 -17.5t120 -22v-287
q-50 8 -106.5 16.5t-114 14.5t-115 9.5t-109.5 3.5q-126 0 -214.5 -30t-143.5 -89t-80 -145t-25 -196q0 -76 4 -148t11 -141.5t16 -137.5t18 -134h737v-271h-691q13 -162 4 -305.5t-41.5 -269t-89.5 -232.5t-139 -197h1214v-306h-1595z" />
    <glyph glyph-name="currency" unicode="&#xa4;" 
d="M1603 60l-262 449q-33 -20 -72.5 -35.5t-83 -26.5t-89.5 -16.5t-94 -5.5q-42 0 -84.5 4.5t-82.5 13.5t-76 22t-66 29l-251 -434l-271 156l281 444q-47 54 -81 120.5t-56 143t-33 162.5t-11 181t12 183t35 166.5t57 147t79 125.5l-284 448l274 158l250 -428q33 20 72 35.5
t82.5 26.5t91 16t96.5 5q47 0 92.5 -5t86.5 -15t78 -25.5t68 -34.5l246 424l271 -153l-277 -442q40 -54 71.5 -117t53.5 -137t33.5 -159.5t11.5 -184.5q0 -92 -12 -178t-36 -164.5t-60 -148t-82 -127.5l296 -464zM1028 695q104 0 182.5 43.5t130.5 120t78 181.5t26 229
q0 89 -11 169t-34 148t-57.5 123t-82 93.5t-108.5 59t-135 20.5q-105 0 -184 -43t-131 -119.5t-78.5 -182.5t-26.5 -232q0 -141 25 -254t77.5 -192t134 -121.5t194.5 -42.5z" />
    <glyph glyph-name="yen" unicode="&#xa5;" 
d="M1210 453v-453h-364v453h-574v250h574v395h-574v250h574v114q-106 166 -206 337t-194 345.5t-181.5 353.5t-169.5 361h395q59 -146 124.5 -289t136 -282.5t146 -275.5t154.5 -266q48 82 94.5 171t92 181t88.5 187.5t84 191.5t79 192t73 190h391q-76 -174 -159.5 -348.5
t-175.5 -349t-193.5 -349t-214.5 -350.5v-114h573v-250h-573v-395h573v-250h-573z" />
    <glyph glyph-name="brokenbar" unicode="&#xa6;" 
d="M856 1622v1569h336v-1569h-336zM856 -850v1595h336v-1595h-336z" />
    <glyph glyph-name="section" unicode="&#xa7;" horiz-adv-x="2094" 
d="M527 -464q32 -8 70.5 -14.5t79.5 -10.5t82.5 -6t79.5 -2q87 0 151.5 23.5t107.5 66.5t64.5 104t21.5 137q0 77 -25.5 150.5t-69 146t-101.5 145.5t-123.5 148.5t-134.5 156t-134.5 167.5t-124 183t-102 203t-69 226.5t-25.5 253.5q0 84 12 173.5t34 181t54 182t72 176
t87.5 162.5t102.5 142q59 72 125.5 128.5t143.5 95.5t165 59.5t189 20.5q37 0 76 -2.5t76.5 -6.5t73 -9.5t64.5 -9.5l-17 -275q-74 14 -146 22t-150 8q-92 0 -158 -24t-108 -71t-62 -116t-20 -160q0 -73 25.5 -142t69.5 -137.5t102.5 -137.5t124.5 -141.5t136 -150.5
t135.5 -164.5t124 -183t103 -206t70 -234t25.5 -267.5q0 -82 -11.5 -171.5t-32 -180.5t-51.5 -182t-70.5 -175.5t-88.5 -161.5t-105 -140q-59 -71 -126 -126t-146.5 -93.5t-172.5 -58.5t-204 -20q-69 0 -143 9t-141 25zM641 2120q-14 -48 -25 -99t-19 -103t-13 -105t-5 -106
q0 -148 33 -271.5t87.5 -231t125 -202t146 -183.5t150.5 -177t137.5 -183.5t108 -201t62.5 -229.5q13 43 26.5 92.5t23.5 104t16 113.5t6 122q0 149 -34 273.5t-90 232.5t-128 203t-149 184t-153 175.5t-139 178.5t-108 193.5t-59 219.5z" />
    <glyph glyph-name="dieresis" unicode="&#xa8;" horiz-adv-x="1408" 
d="M931 2545q-45 0 -83 15.5t-65.5 43.5t-42.5 66.5t-15 84.5t15 84.5t42.5 66.5t65.5 43.5t83 15.5t83 -15.5t65 -43.5t42 -66.5t15 -84.5t-15 -84.5t-42 -66.5t-65 -43.5t-83 -15.5zM205 2545q-45 0 -83 15.5t-65 43.5t-42 66.5t-15 84.5t15 84.5t42 66.5t65 43.5t83 15.5
q46 0 83.5 -15.5t65 -43.5t42.5 -66.5t15 -84.5t-15 -84.5t-42.5 -66.5t-65 -43.5t-83.5 -15.5z" />
    <glyph glyph-name="copyright" unicode="&#xa9;" horiz-adv-x="2819" 
d="M1403 -6q-181 0 -345 49t-304 138.5t-253.5 215.5t-193 280t-122.5 331.5t-43 370.5q0 194 44 372t125 332.5t195 281t254.5 216t303.5 139t342 49.5t341.5 -48.5t302 -137.5t253 -214t194 -278.5t124 -331.5t43.5 -372q0 -192 -44 -370.5t-125 -333t-195 -281.5
t-254 -218t-302.5 -140.5t-340.5 -49.5zM1406 244q142 0 270 40.5t238.5 114t200 176.5t152.5 229t97.5 271.5t34.5 303.5t-34.5 303.5t-98 272.5t-153.5 231.5t-200.5 179t-239.5 115.5t-270 41q-142 0 -271 -40t-240 -113.5t-200.5 -176t-153 -228.5t-97.5 -272t-34 -305
q0 -157 34.5 -303t98 -273t153.5 -231t201.5 -179t240.5 -116t271 -41zM1805 730q-44 -18 -90 -33.5t-94.5 -26t-98.5 -16t-101 -5.5q-142 0 -255 42.5t-192 129.5t-121 221t-42 317q0 190 49 333t136.5 238t208 142.5t262.5 47.5q45 0 87.5 -5t82.5 -14t78.5 -22.5
t75.5 -29.5l-75 -242q-30 14 -63 24t-65 17t-62 10t-55 3q-85 0 -149 -34t-106 -96.5t-63 -150.5t-21 -194q0 -109 19.5 -196.5t60.5 -149.5t105.5 -95t155.5 -33q28 0 62 4t70 12t74 19t74 24z" />
    <glyph glyph-name="ordfeminine" unicode="&#xaa;" horiz-adv-x="1648" 
d="M1116 1386l-29 174q-41 -48 -86 -86.5t-97 -66.5t-113.5 -43t-136.5 -15q-101 0 -185.5 28t-144.5 83.5t-93.5 138t-33.5 191.5q0 124 46 212.5t132 145t207.5 83t273.5 26.5h189v105q0 73 -17 128t-53 91.5t-92.5 54t-135.5 17.5q-49 0 -100 -5.5t-101.5 -16
t-98.5 -26.5t-92 -36l-51 225q51 22 109.5 39.5t122 30t129 19.5t129.5 7q93 0 171 -14.5t140 -43.5t108 -71t77 -97.5t46 -124t15 -148.5v-1005h-235zM243 766v269h1109v-269h-1109zM1045 2043h-203q-84 0 -146 -14t-102 -43t-59.5 -73t-19.5 -104q0 -52 14 -94.5t41 -72
t65.5 -46t89.5 -16.5q48 0 90 14t80.5 39t75 60.5t74.5 79.5v270z" />
    <glyph glyph-name="guillemotleft" unicode="&#xab;" horiz-adv-x="2103" 
d="M1467 275l-519 872l519 872l268 -113l-414 -759l414 -759zM728 228l-529 919l529 918l266 -114l-417 -804l417 -804z" />
    <glyph glyph-name="logicalnot" unicode="&#xac;" 
d="M1534 658v463h-1387v300h1700v-763h-313z" />
    <glyph glyph-name="registered" unicode="&#xae;" horiz-adv-x="2119" 
d="M1056 1330q-117 0 -224 30t-199 85.5t-166.5 133t-127 172.5t-81.5 205.5t-29 230.5q0 118 29.5 227.5t82.5 204.5t128.5 173t167 134t198 86.5t222.5 30.5q118 0 224.5 -30t198.5 -85t166 -132.5t126.5 -173t81 -205.5t28.5 -231q0 -117 -29 -226t-82.5 -204
t-128.5 -173.5t-167.5 -135t-198 -87t-220.5 -30.5zM1057 1522q91 0 172 24.5t149 69t122.5 105t92.5 133.5t58 155t20 168q0 96 -23 183.5t-63.5 162t-97.5 135t-125.5 103t-146 65t-159.5 22.5q-91 0 -171.5 -24.5t-148.5 -68.5t-122.5 -105.5t-92.5 -134t-58 -154.5
t-20 -168q0 -96 23 -183t64 -161.5t98 -135t125.5 -103t145.5 -65.5t158 -23zM1191 1726l-154 376h-71v-376h-201v943h320q69 0 125.5 -17.5t96.5 -50t62 -79.5t22 -106q0 -50 -11.5 -93t-32.5 -77.5t-50.5 -60t-64.5 -39.5l195 -420h-236zM1031 2262q39 0 67 9t46 26.5
t27 43.5t9 60q0 26 -8 47t-24.5 35.5t-43 22t-63.5 7.5h-75v-251h65z" />
    <glyph glyph-name="macron" unicode="&#xaf;" horiz-adv-x="1118" 
d="M0 2597v257h1035v-257h-1035z" />
    <glyph glyph-name="macron" unicode="&#x2c9;" horiz-adv-x="1118" 
d="M0 2597v257h1035v-257h-1035z" />
    <glyph glyph-name="degree" unicode="&#xb0;" horiz-adv-x="1384" 
d="M684 2004q-110 0 -200.5 35.5t-156 100t-101.5 154.5t-36 199q0 73 17.5 138.5t50 121.5t78.5 101t102.5 77t122 49t138.5 17q109 0 199.5 -35.5t156 -100t102 -154.5t36.5 -199q0 -108 -39 -200t-107 -159.5t-161 -106t-202 -38.5zM694 2229q50 0 92.5 20.5t74 56.5
t49.5 85t18 107q0 60 -18 110.5t-50 86.5t-76 56.5t-96 20.5q-49 0 -92 -20t-75 -56t-50 -85t-18 -107q0 -61 18.5 -111.5t50.5 -86.5t76 -56.5t96 -20.5z" />
    <glyph glyph-name="plusminus" unicode="&#xb1;" 
d="M866 636v800h-692v300h692v802h316v-802h692v-300h-692v-800h-316zM188 0v301h1672v-301h-1672z" />
    <glyph glyph-name="twosuperior" unicode="&#xb2;" horiz-adv-x="1425" 
d="M145 1585v221l399 422q80 83 138 158t96 148t56.5 146t18.5 152q0 77 -21 131t-59.5 88t-92.5 49t-119 15q-45 0 -89 -5t-87 -14t-83.5 -22.5t-77.5 -31.5l-57 232q48 22 103.5 39.5t116 29.5t126 18.5t132.5 6.5q136 0 240.5 -33t175.5 -95.5t107.5 -154.5t36.5 -210
q0 -69 -10 -131t-30.5 -122t-53.5 -119t-79 -121.5t-106 -131t-135 -146.5l-247 -264h720v-255h-1119z" />
    <glyph glyph-name="threesuperior" unicode="&#xb3;" horiz-adv-x="1418" 
d="M159 1801q29 -6 68 -9.5t85 -5.5t98 -3.5t107 -1.5q92 0 161.5 19.5t116.5 56t70.5 89.5t23.5 119q0 83 -30 141.5t-86.5 95t-136.5 53t-180 16.5h-129v226h143q92 0 164 21t121.5 59.5t75.5 91.5t26 118q0 58 -17.5 103t-52 75t-85.5 45.5t-117 15.5q-95 0 -187 -17
t-178 -53l-54 228q58 20 118 35.5t121.5 26t124.5 16.5t126 6q123 0 222 -31.5t168.5 -90t107 -141.5t37.5 -188q0 -80 -26 -147.5t-70 -120t-102.5 -88.5t-124.5 -55q81 -13 149.5 -49t117.5 -92t77 -130.5t28 -164.5q0 -120 -50.5 -218t-139 -167.5t-210.5 -107.5
t-265 -38q-45 0 -99.5 2.5t-110 7t-109 11.5t-97.5 17v224z" />
    <glyph glyph-name="acute" unicode="&#xb4;" horiz-adv-x="1098" 
d="M0 2533l423 577l277 -183l-505 -533z" />
    <glyph glyph-name="mu" unicode="&#xb5;" horiz-adv-x="2292" 
d="M2215 -3q-21 -6 -46.5 -11t-53 -9.5t-56 -7t-57.5 -2.5q-80 0 -148.5 20t-121.5 61.5t-89 104t-52 146.5q-73 -87 -143.5 -151t-144.5 -107t-154.5 -63.5t-173.5 -20.5q-53 0 -99 8t-87 25.5t-76 46.5t-64 72v-24v-60v-78.5v-78v-59.5v-24v-641h-354v2943h357v-1266
q0 -85 8 -160t25.5 -138.5t45 -114t68 -85.5t94 -54t121.5 -19q80 0 147 22t131 66.5t128.5 113t139.5 161.5v1474h357v-1516q0 -93 13.5 -153t40 -95t67.5 -48.5t97 -13.5h80v-264z" />
    <glyph glyph-name="mu" unicode="&#x3bc;" horiz-adv-x="2292" 
d="M2215 -3q-21 -6 -46.5 -11t-53 -9.5t-56 -7t-57.5 -2.5q-80 0 -148.5 20t-121.5 61.5t-89 104t-52 146.5q-73 -87 -143.5 -151t-144.5 -107t-154.5 -63.5t-173.5 -20.5q-53 0 -99 8t-87 25.5t-76 46.5t-64 72v-24v-60v-78.5v-78v-59.5v-24v-641h-354v2943h357v-1266
q0 -85 8 -160t25.5 -138.5t45 -114t68 -85.5t94 -54t121.5 -19q80 0 147 22t131 66.5t128.5 113t139.5 161.5v1474h357v-1516q0 -93 13.5 -153t40 -95t67.5 -48.5t97 -13.5h80v-264z" />
    <glyph glyph-name="paragraph" unicode="&#xb6;" horiz-adv-x="2228" 
d="M1608 -473v3040h-377v-3040h-313v1656q-122 -6 -233 19.5t-204.5 77t-168.5 127t-127.5 170.5t-81 206.5t-28.5 235.5q0 116 27.5 223t78.5 200.5t125 170t167.5 131.5t205 85t237.5 30h1000v-3332h-308z" />
    <glyph glyph-name="periodcentered" unicode="&#xb7;" horiz-adv-x="1021" 
d="M510 1007q-55 0 -102 20.5t-81.5 56t-54 83.5t-19.5 104t19.5 104.5t54 84.5t82 56.5t102.5 20.5t102 -20.5t81.5 -56.5t54 -84.5t19.5 -103.5q0 -56 -19.5 -104.5t-54 -84t-82 -56t-102.5 -20.5z" />
    <glyph glyph-name="periodcentered" unicode="&#x2219;" horiz-adv-x="1021" 
d="M510 1007q-55 0 -102 20.5t-81.5 56t-54 83.5t-19.5 104t19.5 104.5t54 84.5t82 56.5t102.5 20.5t102 -20.5t81.5 -56.5t54 -84.5t19.5 -103.5q0 -56 -19.5 -104.5t-54 -84t-82 -56t-102.5 -20.5z" />
    <glyph glyph-name="cedilla" unicode="&#xb8;" horiz-adv-x="1085" 
d="M478 0h286l89 -205q21 -44 35 -78t21.5 -62t11 -51t3.5 -46q0 -51 -23 -95.5t-72 -78.5t-126.5 -53.5t-187.5 -19.5q-46 0 -94.5 3.5t-95 10t-89.5 16t-79 21.5v216h348q27 0 47.5 2.5t33.5 8t19.5 16t6.5 25.5q0 8 -1.5 17.5t-4 21t-6.5 24.5t-10 27z" />
    <glyph glyph-name="onesuperior" unicode="&#xb9;" horiz-adv-x="1121" 
d="M475 1585v1412l-303 -173l-87 214l442 291h279v-1744h-331z" />
    <glyph glyph-name="ordmasculine" unicode="&#xba;" horiz-adv-x="1728" 
d="M844 1347q-173 0 -300 53.5t-209 152t-122 237t-40 309.5q0 184 44.5 331t132.5 250t218 158t300 55q165 0 290.5 -53t209.5 -151.5t127 -238.5t43 -313q0 -119 -21 -223.5t-61 -192t-99 -157t-136 -117.5t-172 -74t-205 -26zM289 766v269h1154v-269h-1154zM863 1596
q90 0 156 40t109.5 108.5t64.5 160.5t21 197q0 118 -20.5 218.5t-64.5 173t-112 113.5t-164 41q-92 0 -159.5 -38t-111.5 -106t-65 -162.5t-21 -207.5q0 -128 21 -228t66 -169t114.5 -105t165.5 -36z" />
    <glyph glyph-name="guillemotright" unicode="&#xbb;" horiz-adv-x="2103" 
d="M1109 343l418 804l-418 804l266 114l530 -918l-530 -919zM369 388l413 759l-413 759l267 113l520 -872l-520 -872z" />
    <glyph glyph-name="onequarter" unicode="&#xbc;" horiz-adv-x="2651" 
d="M472 1430v1102l-304 -171l-83 220l450 286h269v-1437h-332zM242 18l1859 2961l222 -137l-1859 -2959zM2062 0v276h-681v224l542 930h434v-912h225v-242h-225v-276h-295zM2062 1214h-4l-403 -696h407v696z" />
    <glyph glyph-name="onehalf" unicode="&#xbd;" horiz-adv-x="2851" 
d="M472 1430v1102l-304 -171l-83 220l450 286h269v-1437h-332zM242 18l1859 2961l222 -137l-1859 -2959zM1653 0v222l357 343q79 75 130.5 136.5t81 114.5t40.5 100.5t11 97.5t-14 89.5t-43 67t-74.5 42t-107.5 14.5q-36 0 -74.5 -5t-77 -14t-76 -22.5t-73.5 -29.5l-59 225
q49 21 102 38.5t110 29.5t116 18.5t118 6.5q136 0 232.5 -31t158.5 -87t91 -133t29 -170q0 -49 -6.5 -96t-23 -93.5t-44.5 -95t-71 -101.5t-102 -111.5t-137 -125.5l-189 -169h632v-261h-1037z" />
    <glyph glyph-name="threequarters" unicode="&#xbe;" horiz-adv-x="2828" 
d="M158 1633q25 -4 59 -7t75 -5t88.5 -3t100.5 -1q74 0 132 14t97.5 41t60 66.5t20.5 90.5q0 72 -24.5 117.5t-69 72t-106 36.5t-135.5 10h-141v219h155q68 0 122 15t91.5 43.5t57 69t19.5 92.5q0 43 -13.5 75.5t-40 54.5t-65.5 33.5t-90 11.5q-43 0 -85.5 -4t-84 -12.5
t-81 -20.5t-76.5 -29l-59 210q53 19 111 34t117 25.5t118.5 15.5t115.5 5q116 0 204.5 -25t147.5 -73.5t89 -118t30 -157.5q0 -65 -18 -120t-52 -98t-83 -73.5t-111 -44.5q81 -10 140 -43t97 -81t56.5 -108.5t18.5 -124.5q0 -81 -22 -145.5t-62.5 -114.5t-96 -86
t-121.5 -58.5t-140.5 -33.5t-151.5 -11q-46 0 -96 2.5t-101.5 7t-101.5 12t-95 16.5v208zM426 18l1859 2961l222 -137l-1859 -2959zM2241 0v276h-681v224l542 930h434v-912h225v-242h-225v-276h-295zM2241 1214h-4l-403 -696h407v696z" />
    <glyph glyph-name="questiondown" unicode="&#xbf;" horiz-adv-x="1712" 
d="M966 1941q-52 0 -97 19.5t-78.5 53.5t-53 80.5t-19.5 99.5q0 54 19.5 100.5t53 81t78.5 54t98 19.5q52 0 97 -19.5t78.5 -53.5t52.5 -80.5t19 -100.5t-19 -100t-52.5 -80.5t-79 -54t-97.5 -19.5zM1464 -649q-53 -13 -112 -23t-118 -17t-115.5 -10.5t-103.5 -3.5
q-222 0 -377 53.5t-252.5 149.5t-142 227.5t-44.5 288.5q0 99 19 186t51.5 166t75 151t90 141.5t96.5 138t94.5 140t84 148.5t65 163.5t37 183.5t0.5 209h317q15 -123 9 -228t-27 -197.5t-55 -173.5t-75 -154.5t-86 -140.5t-89 -132t-83.5 -129.5t-70 -131t-48 -138.5
t-17.5 -152q0 -107 24.5 -193t80.5 -147t147 -94t223 -33q110 0 212 8t190 21v-277z" />
    <glyph glyph-name="Agrave" unicode="&#xc0;" horiz-adv-x="2454" 
d="M1947 0q-23 91 -47 185.5t-49 190.5t-50.5 191.5t-52.5 189.5h-1070q-27 -94 -53.5 -190t-51.5 -192t-49.5 -190.5t-47.5 -184.5h-381q103 381 212 749.5t224.5 725.5t236 702.5t247.5 681.5h420q137 -359 263 -718t241 -717.5t220 -714.5t199 -709h-411zM1671 1054
q-41 137 -85 279t-90 286t-94 288.5t-96 286.5q-12 36 -24 74t-24.5 76.5t-23.5 76.5t-22 72h-4q-11 -34 -23.5 -72t-25 -76.5t-24.5 -76t-23 -71.5q-47 -140 -93 -283.5t-91.5 -288.5t-89 -288.5t-84.5 -282.5h917zM662 3394l159 274l656 -393l-119 -201z" />
    <glyph glyph-name="Aacute" unicode="&#xc1;" horiz-adv-x="2454" 
d="M1947 0q-23 91 -47 185.5t-49 190.5t-50.5 191.5t-52.5 189.5h-1070q-27 -94 -53.5 -190t-51.5 -192t-49.5 -190.5t-47.5 -184.5h-381q103 381 212 749.5t224.5 725.5t236 702.5t247.5 681.5h420q137 -359 263 -718t241 -717.5t220 -714.5t199 -709h-411zM1671 1054
q-41 137 -85 279t-90 286t-94 288.5t-96 286.5q-12 36 -24 74t-24.5 76.5t-23.5 76.5t-22 72h-4q-11 -34 -23.5 -72t-25 -76.5t-24.5 -76t-23 -71.5q-47 -140 -93 -283.5t-91.5 -288.5t-89 -288.5t-84.5 -282.5h917zM1088 3077l-119 198l656 395l159 -274z" />
    <glyph glyph-name="Acircumflex" unicode="&#xc2;" horiz-adv-x="2454" 
d="M1947 0q-23 91 -47 185.5t-49 190.5t-50.5 191.5t-52.5 189.5h-1070q-27 -94 -53.5 -190t-51.5 -192t-49.5 -190.5t-47.5 -184.5h-381q103 381 212 749.5t224.5 725.5t236 702.5t247.5 681.5h420q137 -359 263 -718t241 -717.5t220 -714.5t199 -709h-411zM1671 1054
q-41 137 -85 279t-90 286t-94 288.5t-96 286.5q-12 36 -24 74t-24.5 76.5t-23.5 76.5t-22 72h-4q-11 -34 -23.5 -72t-25 -76.5t-24.5 -76t-23 -71.5q-47 -140 -93 -283.5t-91.5 -288.5t-89 -288.5t-84.5 -282.5h917zM1205 3337l-419 -260l-113 190l537 389l538 -383
l-120 -196z" />
    <glyph glyph-name="Atilde" unicode="&#xc3;" horiz-adv-x="2454" 
d="M1947 0q-23 91 -47 185.5t-49 190.5t-50.5 191.5t-52.5 189.5h-1070q-27 -94 -53.5 -190t-51.5 -192t-49.5 -190.5t-47.5 -184.5h-381q103 381 212 749.5t224.5 725.5t236 702.5t247.5 681.5h420q137 -359 263 -718t241 -717.5t220 -714.5t199 -709h-411zM1671 1054
q-41 137 -85 279t-90 286t-94 288.5t-96 286.5q-12 36 -24 74t-24.5 76.5t-23.5 76.5t-22 72h-4q-11 -34 -23.5 -72t-25 -76.5t-24.5 -76t-23 -71.5q-47 -140 -93 -283.5t-91.5 -288.5t-89 -288.5t-84.5 -282.5h917zM1851 3461q-28 -74 -71.5 -133.5t-98.5 -101
t-118.5 -63.5t-133.5 -22q-60 0 -109.5 12t-87 30t-85 49t-71 45t-57.5 25.5t-74 11.5q-33 0 -64.5 -12.5t-60.5 -38t-54.5 -61t-47.5 -80.5l-182 132q30 74 73.5 133.5t98 101t118.5 63.5t133 22q61 0 109.5 -12t85.5 -30.5t85 -49.5t71.5 -44.5t57 -25.5t73.5 -12
q33 0 65 13t61 37.5t55 60t47 80.5z" />
    <glyph glyph-name="Adieresis" unicode="&#xc4;" horiz-adv-x="2454" 
d="M1947 0q-23 91 -47 185.5t-49 190.5t-50.5 191.5t-52.5 189.5h-1070q-27 -94 -53.5 -190t-51.5 -192t-49.5 -190.5t-47.5 -184.5h-381q103 381 212 749.5t224.5 725.5t236 702.5t247.5 681.5h420q137 -359 263 -718t241 -717.5t220 -714.5t199 -709h-411zM1671 1054
q-41 137 -85 279t-90 286t-94 288.5t-96 286.5q-12 36 -24 74t-24.5 76.5t-23.5 76.5t-22 72h-4q-11 -34 -23.5 -72t-25 -76.5t-24.5 -76t-23 -71.5q-47 -140 -93 -283.5t-91.5 -288.5t-89 -288.5t-84.5 -282.5h917zM1631 3098q-42 0 -79 16t-64 43t-42.5 64.5t-15.5 81.5
t15.5 82t42.5 65.5t64 43.5t79 16q44 0 81 -16t64 -43.5t42 -65.5t15 -82t-15 -81.5t-42 -64.5t-64 -43t-81 -16zM832 3098q-42 0 -79 16t-64 43t-42.5 64.5t-15.5 81.5t15.5 82t42.5 65.5t64 43.5t79 16q44 0 81 -16t64 -43.5t42 -65.5t15 -82t-15 -81.5t-42 -64.5t-64 -43
t-81 -16z" />
    <glyph glyph-name="Aring" unicode="&#xc5;" horiz-adv-x="2454" 
d="M1947 0q-23 91 -47 185.5t-49 190.5t-50.5 191.5t-52.5 189.5h-1070q-27 -94 -53.5 -190t-51.5 -192t-49.5 -190.5t-47.5 -184.5h-381q103 381 212 749.5t224.5 725.5t236 702.5t247.5 681.5h420q137 -359 263 -718t241 -717.5t220 -714.5t199 -709h-411zM1671 1054
q-41 137 -85 279t-90 286t-94 288.5t-96 286.5q-12 36 -24 74t-24.5 76.5t-23.5 76.5t-22 72h-4q-11 -34 -23.5 -72t-25 -76.5t-24.5 -76t-23 -71.5q-47 -140 -93 -283.5t-91.5 -288.5t-89 -288.5t-84.5 -282.5h917zM1217 3019q-107 0 -189.5 30t-137 84.5t-82 128.5
t-27.5 163q0 93 30.5 170.5t89.5 134t143.5 87t189.5 30.5q101 0 182.5 -28t138 -81t86 -128t29.5 -166t-31.5 -168.5t-91 -135.5t-143.5 -89.5t-187 -31.5zM1230 3196q45 0 81 17.5t60.5 49.5t37 74.5t12.5 91.5q0 53 -12.5 97t-37 76t-62 50t-87.5 18q-44 0 -80 -17
t-60.5 -48t-37.5 -73.5t-13 -93.5q0 -56 12 -100t35.5 -76t61.5 -49t90 -17z" />
    <glyph glyph-name="AE" unicode="&#xc6;" horiz-adv-x="3221" 
d="M1544 0v666h-914q-39 -91 -77 -179t-73 -172t-68.5 -163t-64.5 -152h-374q158 371 321 729.5t333.5 711.5t350 706t372.5 712h1592v-300h-1028v-923h915v-296h-915v-1038h1067v-302h-1437zM1544 2552h-13q-62 -122 -126.5 -249t-129.5 -258.5t-131 -266t-131 -270
t-129.5 -272.5t-126.5 -273h787v1589z" />
    <glyph glyph-name="Ccedilla" unicode="&#xc7;" horiz-adv-x="2146" 
d="M1202 -23q-147 16 -279 65.5t-244 132.5t-201 200t-151 269.5t-95.5 339.5t-33.5 409q0 232 37.5 433.5t108.5 368.5t174.5 297.5t236 220.5t292 137t343.5 47q90 0 174.5 -9.5t165.5 -28.5t159 -48.5t155 -68.5l-120 -289q-62 31 -126 54.5t-130 40t-135.5 24.5
t-142.5 8q-128 0 -236.5 -38t-196.5 -109.5t-155.5 -174t-112.5 -230.5t-68.5 -279.5t-23.5 -320.5q0 -281 57.5 -495t166 -358.5t264.5 -218t354 -73.5q72 0 142 10.5t136 28.5t126.5 42.5t115.5 51.5l97 -290q-64 -33 -132 -60t-138.5 -46.5t-143.5 -32.5t-148 -19
l75 -173q21 -44 34.5 -78t21.5 -62t11.5 -51t3.5 -46q0 -51 -23 -95.5t-72.5 -78.5t-127 -53.5t-186.5 -19.5q-47 0 -95 3.5t-95 10t-89.5 16t-78.5 21.5v216h347q28 0 48 2.5t33 8t19.5 16t6.5 25.5q0 8 -1 17.5t-3.5 21t-7 24.5t-9.5 27z" />
    <glyph glyph-name="Egrave" unicode="&#xc8;" horiz-adv-x="2011" 
d="M333 0v2859h1421v-300h-1051v-923h916v-296h-916v-1038h1067v-302h-1437zM424 3394l159 274l656 -393l-119 -201z" />
    <glyph glyph-name="Eacute" unicode="&#xc9;" horiz-adv-x="2011" 
d="M333 0v2859h1421v-300h-1051v-923h916v-296h-916v-1038h1067v-302h-1437zM969 3077l-119 198l656 395l159 -274z" />
    <glyph glyph-name="Ecircumflex" unicode="&#xca;" horiz-adv-x="2011" 
d="M333 0v2859h1421v-300h-1051v-923h916v-296h-916v-1038h1067v-302h-1437zM1033 3337l-419 -260l-113 190l537 389l538 -383l-120 -196z" />
    <glyph glyph-name="Edieresis" unicode="&#xcb;" horiz-adv-x="2011" 
d="M333 0v2859h1421v-300h-1051v-923h916v-296h-916v-1038h1067v-302h-1437zM1442 3098q-42 0 -79 16t-64 43t-42.5 64.5t-15.5 81.5t15.5 82t42.5 65.5t64 43.5t79 16q44 0 81 -16t64 -43.5t42 -65.5t15 -82t-15 -81.5t-42 -64.5t-64 -43t-81 -16zM643 3098q-42 0 -79 16
t-64 43t-42.5 64.5t-15.5 81.5t15.5 82t42.5 65.5t64 43.5t79 16q44 0 81 -16t64 -43.5t42 -65.5t15 -82t-15 -81.5t-42 -64.5t-64 -43t-81 -16z" />
    <glyph glyph-name="Igrave" unicode="&#xcc;" horiz-adv-x="1038" 
d="M333 0v2859h371v-2859h-371zM-19 3394l159 274l656 -393l-119 -201z" />
    <glyph glyph-name="Iacute" unicode="&#xcd;" horiz-adv-x="1038" 
d="M333 0v2859h371v-2859h-371zM349 3077l-119 198l656 395l159 -274z" />
    <glyph glyph-name="Icircumflex" unicode="&#xce;" horiz-adv-x="1038" 
d="M333 0v2859h371v-2859h-371zM515 3337l-419 -260l-113 190l537 389l538 -383l-120 -196z" />
    <glyph glyph-name="Idieresis" unicode="&#xcf;" horiz-adv-x="1038" 
d="M333 0v2859h371v-2859h-371zM892 3098q-43 0 -80 16t-64 43.5t-42.5 65t-15.5 80.5t15.5 81t42.5 66t64 44t80 16t80 -16t64 -44t42 -66t15 -81t-15 -80.5t-42 -65t-64 -43.5t-80 -16zM150 3098q-42 0 -79 16t-64 43.5t-42.5 65t-15.5 80.5t15.5 81t42.5 66t64 44t79 16
q45 0 81.5 -16t63.5 -44t42 -66t15 -81t-15 -80.5t-42 -65t-63.5 -43.5t-81.5 -16z" />
    <glyph glyph-name="Eth" unicode="&#xd0;" horiz-adv-x="2617" 
d="M374 0v1316h-312v293h312v1250h809q202 0 372.5 -43.5t309 -126t243.5 -203t176.5 -275t107.5 -341t36 -401.5q0 -242 -39 -445.5t-114.5 -366.5t-186.5 -286t-254.5 -205.5t-319 -124t-379.5 -41.5h-761zM1155 303q221 0 386 70.5t274.5 212.5t164 358.5t54.5 507.5
q0 158 -21.5 301.5t-67.5 266.5t-116.5 222.5t-168 170t-222.5 108.5t-280 38h-413v-950h510v-293h-510v-1013h410z" />
    <glyph glyph-name="Ntilde" unicode="&#xd1;" horiz-adv-x="2636" 
d="M1812 0l-1134 2369h-6v-2369h-339v2859h520l1105 -2306h6v2306h339v-2859h-491zM1974 3461q-28 -74 -71.5 -133.5t-98.5 -101t-118.5 -63.5t-133.5 -22q-60 0 -109.5 12t-87 30t-85 49t-71 45t-57.5 25.5t-74 11.5q-33 0 -64.5 -12.5t-60.5 -38t-54.5 -61t-47.5 -80.5
l-182 132q30 74 73.5 133.5t98 101t118.5 63.5t133 22q61 0 109.5 -12t85.5 -30.5t85 -49.5t71.5 -44.5t57 -25.5t73.5 -12q33 0 65 13t61 37.5t55 60t47 80.5z" />
    <glyph glyph-name="Ograve" unicode="&#xd2;" horiz-adv-x="2810" 
d="M1389 -48q-199 0 -364.5 46.5t-297.5 134.5t-231 215t-164.5 289t-98.5 357t-33 417t35 419t104.5 363t172.5 298.5t238 224.5t303 141.5t366 49.5q196 0 360.5 -47.5t297 -136.5t232.5 -216.5t167 -289t101 -354t34 -410.5q0 -225 -35 -423.5t-103.5 -365.5t-171 -299
t-238.5 -223.5t-304.5 -140.5t-369.5 -49zM1421 261q146 0 261.5 43t203.5 120.5t150.5 184t102 234t57.5 271.5t18 296q0 171 -19.5 326t-62 287t-108 238.5t-157.5 181t-211 115t-268 40.5q-145 0 -260 -43t-203 -120t-150.5 -183t-102 -233.5t-58 -270.5t-18.5 -293
q0 -175 19.5 -331.5t62 -289.5t108 -239t157.5 -180t210.5 -114t267.5 -40zM789 3403l159 274l656 -393l-119 -201z" />
    <glyph glyph-name="Oacute" unicode="&#xd3;" horiz-adv-x="2810" 
d="M1389 -48q-199 0 -364.5 46.5t-297.5 134.5t-231 215t-164.5 289t-98.5 357t-33 417t35 419t104.5 363t172.5 298.5t238 224.5t303 141.5t366 49.5q196 0 360.5 -47.5t297 -136.5t232.5 -216.5t167 -289t101 -354t34 -410.5q0 -225 -35 -423.5t-103.5 -365.5t-171 -299
t-238.5 -223.5t-304.5 -140.5t-369.5 -49zM1421 261q146 0 261.5 43t203.5 120.5t150.5 184t102 234t57.5 271.5t18 296q0 171 -19.5 326t-62 287t-108 238.5t-157.5 181t-211 115t-268 40.5q-145 0 -260 -43t-203 -120t-150.5 -183t-102 -233.5t-58 -270.5t-18.5 -293
q0 -175 19.5 -331.5t62 -289.5t108 -239t157.5 -180t210.5 -114t267.5 -40zM1339 3086l-119 198l656 395l159 -274z" />
    <glyph glyph-name="Ocircumflex" unicode="&#xd4;" horiz-adv-x="2810" 
d="M1389 -48q-199 0 -364.5 46.5t-297.5 134.5t-231 215t-164.5 289t-98.5 357t-33 417t35 419t104.5 363t172.5 298.5t238 224.5t303 141.5t366 49.5q196 0 360.5 -47.5t297 -136.5t232.5 -216.5t167 -289t101 -354t34 -410.5q0 -225 -35 -423.5t-103.5 -365.5t-171 -299
t-238.5 -223.5t-304.5 -140.5t-369.5 -49zM1421 261q146 0 261.5 43t203.5 120.5t150.5 184t102 234t57.5 271.5t18 296q0 171 -19.5 326t-62 287t-108 238.5t-157.5 181t-211 115t-268 40.5q-145 0 -260 -43t-203 -120t-150.5 -183t-102 -233.5t-58 -270.5t-18.5 -293
q0 -175 19.5 -331.5t62 -289.5t108 -239t157.5 -180t210.5 -114t267.5 -40zM1399 3346l-419 -260l-113 190l537 389l538 -383l-120 -196z" />
    <glyph glyph-name="Otilde" unicode="&#xd5;" horiz-adv-x="2810" 
d="M1389 -48q-199 0 -364.5 46.5t-297.5 134.5t-231 215t-164.5 289t-98.5 357t-33 417t35 419t104.5 363t172.5 298.5t238 224.5t303 141.5t366 49.5q196 0 360.5 -47.5t297 -136.5t232.5 -216.5t167 -289t101 -354t34 -410.5q0 -225 -35 -423.5t-103.5 -365.5t-171 -299
t-238.5 -223.5t-304.5 -140.5t-369.5 -49zM1421 261q146 0 261.5 43t203.5 120.5t150.5 184t102 234t57.5 271.5t18 296q0 171 -19.5 326t-62 287t-108 238.5t-157.5 181t-211 115t-268 40.5q-145 0 -260 -43t-203 -120t-150.5 -183t-102 -233.5t-58 -270.5t-18.5 -293
q0 -175 19.5 -331.5t62 -289.5t108 -239t157.5 -180t210.5 -114t267.5 -40zM2044 3470q-28 -74 -71.5 -133.5t-98.5 -101t-118.5 -63.5t-133.5 -22q-60 0 -109.5 12t-87 30t-85 49t-71 45t-57.5 25.5t-74 11.5q-33 0 -64.5 -12.5t-60.5 -38t-54.5 -61t-47.5 -80.5l-182 132
q30 74 73.5 133.5t98 101t118.5 63.5t133 22q61 0 109.5 -12t85.5 -30.5t85 -49.5t71.5 -44.5t57 -25.5t73.5 -12q33 0 65 13t61 37.5t55 60t47 80.5z" />
    <glyph glyph-name="Odieresis" unicode="&#xd6;" horiz-adv-x="2810" 
d="M1389 -48q-199 0 -364.5 46.5t-297.5 134.5t-231 215t-164.5 289t-98.5 357t-33 417t35 419t104.5 363t172.5 298.5t238 224.5t303 141.5t366 49.5q196 0 360.5 -47.5t297 -136.5t232.5 -216.5t167 -289t101 -354t34 -410.5q0 -225 -35 -423.5t-103.5 -365.5t-171 -299
t-238.5 -223.5t-304.5 -140.5t-369.5 -49zM1421 261q146 0 261.5 43t203.5 120.5t150.5 184t102 234t57.5 271.5t18 296q0 171 -19.5 326t-62 287t-108 238.5t-157.5 181t-211 115t-268 40.5q-145 0 -260 -43t-203 -120t-150.5 -183t-102 -233.5t-58 -270.5t-18.5 -293
q0 -175 19.5 -331.5t62 -289.5t108 -239t157.5 -180t210.5 -114t267.5 -40zM1804 3098q-42 0 -79 16t-64 43t-42.5 64.5t-15.5 81.5t15.5 82t42.5 65.5t64 43.5t79 16q44 0 81 -16t64 -43.5t42 -65.5t15 -82t-15 -81.5t-42 -64.5t-64 -43t-81 -16zM1005 3098q-42 0 -79 16
t-64 43t-42.5 64.5t-15.5 81.5t15.5 82t42.5 65.5t64 43.5t79 16q44 0 81 -16t64 -43.5t42 -65.5t15 -82t-15 -81.5t-42 -64.5t-64 -43t-81 -16z" />
    <glyph glyph-name="multiply" unicode="&#xd7;" 
d="M1664 384l-641 679l-639 -679l-211 203l649 685l-648 685l214 205l638 -678l637 674l212 -200l-647 -682l649 -687z" />
    <glyph glyph-name="Oslash" unicode="&#xd8;" horiz-adv-x="2809" 
d="M435 -297l224 466q-120 90 -207 216t-143.5 282.5t-83.5 340t-27 387.5q0 227 35 427t104.5 368t172.5 301t239.5 225.5t306 141.5t370.5 49q69 0 135.5 -7t128.5 -20.5t120.5 -33t111.5 -44.5l195 416l248 -112l-203 -433q77 -61 139.5 -137.5t112.5 -167t86.5 -193.5
t60.5 -216.5t36 -236t12 -253.5q0 -229 -34.5 -431.5t-103 -370.5t-171.5 -301t-239.5 -225t-307 -140.5t-374.5 -48.5q-68 0 -132.5 6.5t-125 18.5t-116 29t-105.5 39l-217 -454zM1035 338q77 -43 173.5 -65.5t202.5 -22.5q151 0 270.5 43t210.5 121.5t154.5 187.5
t104 240.5t59 281.5t18.5 311q0 85 -5.5 171t-17 168t-29.5 160t-43 147.5t-58 131t-74 110.5zM1788 2511q-40 23 -85.5 41t-95 31t-103.5 19.5t-110 6.5q-150 0 -269 -43t-209.5 -121t-154.5 -186.5t-104.5 -240t-59 -280.5t-18.5 -308q0 -88 5.5 -175.5t17.5 -171
t30.5 -163t45 -151t61.5 -134.5t79 -115z" />
    <glyph glyph-name="Ugrave" unicode="&#xd9;" horiz-adv-x="2614" 
d="M1927 2859h361v-1809q0 -273 -69.5 -478.5t-197.5 -342.5t-311 -206t-410 -69q-224 0 -404 65.5t-306.5 197.5t-194.5 329.5t-68 461.5v1851h371v-1823q0 -130 19.5 -238t56.5 -194t90.5 -150.5t121.5 -107.5t150.5 -64t176.5 -21q141 0 255 48.5t193.5 145t122.5 241.5
t43 337v1826zM679 3394l159 274l656 -393l-119 -201z" />
    <glyph glyph-name="Uacute" unicode="&#xda;" horiz-adv-x="2614" 
d="M1927 2859h361v-1809q0 -273 -69.5 -478.5t-197.5 -342.5t-311 -206t-410 -69q-224 0 -404 65.5t-306.5 197.5t-194.5 329.5t-68 461.5v1851h371v-1823q0 -130 19.5 -238t56.5 -194t90.5 -150.5t121.5 -107.5t150.5 -64t176.5 -21q141 0 255 48.5t193.5 145t122.5 241.5
t43 337v1826zM1297 3077l-119 198l656 395l159 -274z" />
    <glyph glyph-name="Ucircumflex" unicode="&#xdb;" horiz-adv-x="2614" 
d="M1927 2859h361v-1809q0 -273 -69.5 -478.5t-197.5 -342.5t-311 -206t-410 -69q-224 0 -404 65.5t-306.5 197.5t-194.5 329.5t-68 461.5v1851h371v-1823q0 -130 19.5 -238t56.5 -194t90.5 -150.5t121.5 -107.5t150.5 -64t176.5 -21q141 0 255 48.5t193.5 145t122.5 241.5
t43 337v1826zM1316 3337l-419 -260l-113 190l537 389l538 -383l-120 -196z" />
    <glyph glyph-name="Udieresis" unicode="&#xdc;" horiz-adv-x="2614" 
d="M1927 2859h361v-1809q0 -273 -69.5 -478.5t-197.5 -342.5t-311 -206t-410 -69q-224 0 -404 65.5t-306.5 197.5t-194.5 329.5t-68 461.5v1851h371v-1823q0 -130 19.5 -238t56.5 -194t90.5 -150.5t121.5 -107.5t150.5 -64t176.5 -21q141 0 255 48.5t193.5 145t122.5 241.5
t43 337v1826zM1711 3098q-42 0 -79 16t-64 43t-42.5 64.5t-15.5 81.5t15.5 82t42.5 65.5t64 43.5t79 16q44 0 81 -16t64 -43.5t42 -65.5t15 -82t-15 -81.5t-42 -64.5t-64 -43t-81 -16zM912 3098q-42 0 -79 16t-64 43t-42.5 64.5t-15.5 81.5t15.5 82t42.5 65.5t64 43.5t79 16
q44 0 81 -16t64 -43.5t42 -65.5t15 -82t-15 -81.5t-42 -64.5t-64 -43t-81 -16z" />
    <glyph glyph-name="Yacute" unicode="&#xdd;" horiz-adv-x="2155" 
d="M893 0v1219q-126 198 -243 401.5t-225 409.5t-208 414t-192 415h415q46 -111 95.5 -222.5t102 -224t108 -224t113.5 -221t119 -216.5t124 -209q59 102 117.5 210t115.5 219t111.5 224t106 225.5t98 222.5t87.5 216h391q-58 -134 -120 -270t-128.5 -272.5t-137.5 -274
t-147.5 -275t-159 -275t-171.5 -273.5v-1219h-372zM1028 3077l-119 198l656 395l159 -274z" />
    <glyph glyph-name="Thorn" unicode="&#xde;" horiz-adv-x="2119" 
d="M333 0v2859h371v-485h301q46 0 93 -2t93 -6t89.5 -10.5t81.5 -15.5q136 -34 244.5 -104.5t185 -173.5t117 -236t40.5 -291q0 -215 -62 -386.5t-180 -291t-289 -183t-390 -63.5h-324v-611h-371zM1053 909q124 0 217.5 43.5t156.5 122t95 189t32 244.5q0 101 -21.5 189.5
t-63 159t-101.5 120t-136 71.5q-27 8 -56 13.5t-60 9t-61 5t-58 1.5h-293v-1168h349z" />
    <glyph glyph-name="germandbls" unicode="&#xdf;" horiz-adv-x="2169" 
d="M1054 305q81 -31 156.5 -45.5t154.5 -14.5q82 0 143 24.5t102.5 67.5t61.5 101.5t20 126.5q0 70 -19.5 126.5t-52.5 102.5t-77.5 85t-94.5 75t-102.5 72t-102 76.5t-94 87.5t-77.5 106.5t-53 133t-20 166.5q0 90 20.5 160.5t54.5 127t76.5 102t87 87t87.5 82.5t76.5 86.5
t54 99.5t20.5 123q0 46 -9.5 91t-29 85t-49.5 74t-71.5 58.5t-94.5 38.5t-119 14q-80 0 -144 -22.5t-114 -65t-86.5 -104t-60 -140t-34.5 -172.5t-11 -202v-2119h-358v2118q0 150 24.5 281.5t72 242t118 197t163.5 147t207 92.5t250 32q124 0 225 -25t180 -69t136 -103.5
t94.5 -127.5t55.5 -141.5t18 -145.5q0 -97 -20.5 -170.5t-54 -130.5t-76 -102t-87.5 -84t-87.5 -77t-76 -81t-54 -95t-20.5 -120q0 -66 19.5 -118.5t53 -96t78.5 -81t95.5 -73.5t104 -72.5t104 -78.5t95.5 -92t78.5 -112t53 -139t19.5 -173q0 -95 -22 -179.5t-64 -156.5
t-102 -129.5t-136.5 -97.5t-168 -61.5t-194.5 -21.5q-52 0 -100 3.5t-93.5 10.5t-89.5 18t-89 27z" />
    <glyph glyph-name="agrave" unicode="&#xe0;" horiz-adv-x="1997" 
d="M1431 0l-28 227q-62 -62 -128 -113t-140 -87t-157.5 -56t-179.5 -20q-146 0 -263 40.5t-199.5 118t-126.5 190.5t-44 259q0 169 64.5 292t181 203.5t279.5 119.5t361 39h304v164q0 120 -21.5 209t-72 148.5t-133.5 88.5t-206 29q-67 0 -136 -8.5t-139 -24.5t-139.5 -38.5
t-135.5 -50.5l-69 272q73 30 155 54.5t168.5 42t175 27t175.5 9.5q137 0 244 -24.5t188 -69.5t138 -108t93 -139t52 -164t16 -183v-1447h-277zM1355 959h-321q-126 0 -220.5 -25t-156.5 -74t-93 -120t-31 -162q0 -80 21 -144.5t63.5 -110t105 -70.5t146.5 -25q73 0 137.5 20
t123.5 55t114.5 83t110.5 105v468zM971 2394l-492 530l271 186l420 -568z" />
    <glyph glyph-name="aacute" unicode="&#xe1;" horiz-adv-x="1997" 
d="M1431 0l-28 227q-62 -62 -128 -113t-140 -87t-157.5 -56t-179.5 -20q-146 0 -263 40.5t-199.5 118t-126.5 190.5t-44 259q0 169 64.5 292t181 203.5t279.5 119.5t361 39h304v164q0 120 -21.5 209t-72 148.5t-133.5 88.5t-206 29q-67 0 -136 -8.5t-139 -24.5t-139.5 -38.5
t-135.5 -50.5l-69 272q73 30 155 54.5t168.5 42t175 27t175.5 9.5q137 0 244 -24.5t188 -69.5t138 -108t93 -139t52 -164t16 -183v-1447h-277zM1355 959h-321q-126 0 -220.5 -25t-156.5 -74t-93 -120t-31 -162q0 -80 21 -144.5t63.5 -110t105 -70.5t146.5 -25q73 0 137.5 20
t123.5 55t114.5 83t110.5 105v468zM771 2533l423 577l277 -183l-505 -533z" />
    <glyph glyph-name="acircumflex" unicode="&#xe2;" horiz-adv-x="1997" 
d="M1431 0l-28 227q-62 -62 -128 -113t-140 -87t-157.5 -56t-179.5 -20q-146 0 -263 40.5t-199.5 118t-126.5 190.5t-44 259q0 169 64.5 292t181 203.5t279.5 119.5t361 39h304v164q0 120 -21.5 209t-72 148.5t-133.5 88.5t-206 29q-67 0 -136 -8.5t-139 -24.5t-139.5 -38.5
t-135.5 -50.5l-69 272q73 30 155 54.5t168.5 42t175 27t175.5 9.5q137 0 244 -24.5t188 -69.5t138 -108t93 -139t52 -164t16 -183v-1447h-277zM1355 959h-321q-126 0 -220.5 -25t-156.5 -74t-93 -120t-31 -162q0 -80 21 -144.5t63.5 -110t105 -70.5t146.5 -25q73 0 137.5 20
t123.5 55t114.5 83t110.5 105v468zM983 2755l-383 -357l-142 173l532 551l534 -547l-153 -177z" />
    <glyph glyph-name="atilde" unicode="&#xe3;" horiz-adv-x="1997" 
d="M1431 0l-28 227q-62 -62 -128 -113t-140 -87t-157.5 -56t-179.5 -20q-146 0 -263 40.5t-199.5 118t-126.5 190.5t-44 259q0 169 64.5 292t181 203.5t279.5 119.5t361 39h304v164q0 120 -21.5 209t-72 148.5t-133.5 88.5t-206 29q-67 0 -136 -8.5t-139 -24.5t-139.5 -38.5
t-135.5 -50.5l-69 272q73 30 155 54.5t168.5 42t175 27t175.5 9.5q137 0 244 -24.5t188 -69.5t138 -108t93 -139t52 -164t16 -183v-1447h-277zM1355 959h-321q-126 0 -220.5 -25t-156.5 -74t-93 -120t-31 -162q0 -80 21 -144.5t63.5 -110t105 -70.5t146.5 -25q73 0 137.5 20
t123.5 55t114.5 83t110.5 105v468zM1623 2859q-29 -76 -70.5 -137t-94.5 -104t-114.5 -65.5t-129.5 -22.5q-59 0 -107.5 12t-85 31t-84 50.5t-70 45.5t-56 25.5t-72.5 11.5q-32 0 -63.5 -13t-60.5 -38t-54.5 -61.5t-46.5 -82.5l-171 136q30 76 72 137t94 103.5t113.5 65
t129.5 22.5q59 0 107 -12t85 -30.5t84 -50t69.5 -45.5t56 -26t71.5 -12q33 0 64.5 13t61 38.5t55 61t46.5 81.5z" />
    <glyph glyph-name="adieresis" unicode="&#xe4;" horiz-adv-x="1997" 
d="M1431 0l-28 227q-62 -62 -128 -113t-140 -87t-157.5 -56t-179.5 -20q-146 0 -263 40.5t-199.5 118t-126.5 190.5t-44 259q0 169 64.5 292t181 203.5t279.5 119.5t361 39h304v164q0 120 -21.5 209t-72 148.5t-133.5 88.5t-206 29q-67 0 -136 -8.5t-139 -24.5t-139.5 -38.5
t-135.5 -50.5l-69 272q73 30 155 54.5t168.5 42t175 27t175.5 9.5q137 0 244 -24.5t188 -69.5t138 -108t93 -139t52 -164t16 -183v-1447h-277zM1355 959h-321q-126 0 -220.5 -25t-156.5 -74t-93 -120t-31 -162q0 -80 21 -144.5t63.5 -110t105 -70.5t146.5 -25q73 0 137.5 20
t123.5 55t114.5 83t110.5 105v468zM1364 2545q-45 0 -83 15.5t-65.5 43.5t-42.5 66.5t-15 84.5t15 84.5t42.5 66.5t65.5 43.5t83 15.5t83 -15.5t65 -43.5t42 -66.5t15 -84.5t-15 -84.5t-42 -66.5t-65 -43.5t-83 -15.5zM638 2545q-45 0 -83 15.5t-65 43.5t-42 66.5t-15 84.5
t15 84.5t42 66.5t65 43.5t83 15.5q46 0 83.5 -15.5t65 -43.5t42.5 -66.5t15 -84.5t-15 -84.5t-42.5 -66.5t-65 -43.5t-83.5 -15.5z" />
    <glyph glyph-name="aring" unicode="&#xe5;" horiz-adv-x="1997" 
d="M1431 0l-28 227q-62 -62 -128 -113t-140 -87t-157.5 -56t-179.5 -20q-146 0 -263 40.5t-199.5 118t-126.5 190.5t-44 259q0 169 64.5 292t181 203.5t279.5 119.5t361 39h304v164q0 120 -21.5 209t-72 148.5t-133.5 88.5t-206 29q-67 0 -136 -8.5t-139 -24.5t-139.5 -38.5
t-135.5 -50.5l-69 272q73 30 155 54.5t168.5 42t175 27t175.5 9.5q137 0 244 -24.5t188 -69.5t138 -108t93 -139t52 -164t16 -183v-1447h-277zM1355 959h-321q-126 0 -220.5 -25t-156.5 -74t-93 -120t-31 -162q0 -80 21 -144.5t63.5 -110t105 -70.5t146.5 -25q73 0 137.5 20
t123.5 55t114.5 83t110.5 105v468zM978 2355q-104 0 -185 31t-134.5 87.5t-80.5 133.5t-27 168q0 94 30 174t88 139t140.5 91t185.5 32q98 0 177.5 -29.5t135 -85t84.5 -132.5t29 -171q0 -93 -31 -173.5t-89.5 -140t-140.5 -92t-182 -32.5zM991 2539q45 0 80 18t58.5 51
t35.5 76t12 93q0 55 -11.5 100.5t-35 79t-60.5 52t-87 18.5q-43 0 -78.5 -17.5t-59.5 -49t-36.5 -74.5t-12.5 -93q0 -59 11 -105.5t34 -79.5t60.5 -51t89.5 -18z" />
    <glyph glyph-name="ae" unicode="&#xe6;" horiz-adv-x="3188" 
d="M2998 1205q0 -21 -0.5 -48.5t-1 -58.5t-1.5 -62.5t-2 -59.5h-1287q0 -112 12.5 -209.5t40.5 -179t73 -145.5t110 -108.5t151 -67.5t197 -23q89 0 168.5 7.5t153 20.5t144 31t141.5 39l45 -276q-76 -25 -159 -46t-172.5 -35.5t-184 -23t-195.5 -8.5q-133 0 -245.5 25
t-203 71t-159 112t-112.5 149q-79 -89 -160 -156t-167.5 -111.5t-182 -67t-205.5 -22.5q-147 0 -264 40.5t-198.5 118.5t-125 193t-43.5 266q0 168 63.5 292.5t178.5 207t275.5 123t354.5 40.5h314v144q0 120 -21 209.5t-71.5 148.5t-133 88t-205.5 29q-66 0 -135 -8
t-139 -24t-139 -39t-135 -51l-69 272q73 30 155 54.5t168 42t174.5 27t175.5 9.5q121 0 217.5 -21.5t171 -62t128.5 -99t90 -134.5q55 83 125 142.5t151 98.5t173.5 57.5t194.5 18.5q135 0 244.5 -30.5t195.5 -88t148 -140t103 -186t60.5 -226t19.5 -259.5zM2637 1233
q6 147 -20 264.5t-81.5 199t-139 124.5t-192.5 43q-86 0 -155.5 -25t-124.5 -69.5t-96 -105t-67.5 -130.5t-40 -147t-15.5 -154h932v0zM1351 977h-320q-127 0 -220.5 -27t-155 -77.5t-92 -122t-30.5 -161.5q0 -83 21.5 -150t63 -113.5t103.5 -71.5t142 -25q75 0 140 19.5
t124 56t114 89.5t110 120v463z" />
    <glyph glyph-name="ccedilla" unicode="&#xe7;" horiz-adv-x="1683" 
d="M895 -28q-124 14 -225 55t-181.5 106t-139.5 154.5t-98.5 200t-58.5 241t-19 281.5q0 269 65 477t183.5 349.5t284.5 215t369 73.5q63 0 125.5 -6.5t123 -19.5t119 -33.5t114.5 -48.5l-81 -273q-44 19 -90.5 35.5t-94.5 28t-97.5 18.5t-99.5 7q-143 0 -246 -57.5
t-169 -161t-97.5 -249t-31.5 -320.5q0 -197 34 -344t102.5 -244.5t171.5 -146.5t242 -49q55 0 106.5 5t101.5 16t98 27.5t97 38.5l62 -274q-50 -23 -99 -40t-97 -29.5t-95 -21t-91 -14.5l76 -174q20 -44 34 -78t22 -62t11 -51t3 -46q0 -51 -23 -95.5t-72 -78.5t-126.5 -53.5
t-187.5 -19.5q-46 0 -94.5 3.5t-95 10t-89.5 16t-78 21.5v216h347q28 0 48 2.5t33 8t19.5 16t6.5 25.5q0 8 -1.5 17.5t-4 21t-6.5 24.5t-10 27z" />
    <glyph glyph-name="egrave" unicode="&#xe8;" horiz-adv-x="2033" 
d="M1787 65q-76 -25 -159 -46t-172.5 -35.5t-184 -23t-194.5 -8.5q-230 0 -399 68t-280.5 204t-166 338t-54.5 472q0 252 58 455.5t171.5 347t280 221t384.5 77.5q135 0 245 -31t196 -89t148.5 -141t103 -187t60.5 -226.5t20 -260.5q0 -16 -1 -41t-2 -53.5t-2 -57.5t-1 -54
h-1287q0 -116 12.5 -217t40.5 -184.5t73 -148.5t109.5 -109.5t151 -67.5t198.5 -23q88 0 167 7t153 20t144.5 31t141.5 39zM1483 1251q4 141 -22 254.5t-81 193t-138 122.5t-192 43q-86 0 -155.5 -25t-124.5 -69t-95 -103t-67 -127t-41 -142t-16 -147h932zM1058 2394
l-492 530l271 186l420 -568z" />
    <glyph glyph-name="eacute" unicode="&#xe9;" horiz-adv-x="2033" 
d="M1787 65q-76 -25 -159 -46t-172.5 -35.5t-184 -23t-194.5 -8.5q-230 0 -399 68t-280.5 204t-166 338t-54.5 472q0 252 58 455.5t171.5 347t280 221t384.5 77.5q135 0 245 -31t196 -89t148.5 -141t103 -187t60.5 -226.5t20 -260.5q0 -16 -1 -41t-2 -53.5t-2 -57.5t-1 -54
h-1287q0 -116 12.5 -217t40.5 -184.5t73 -148.5t109.5 -109.5t151 -67.5t198.5 -23q88 0 167 7t153 20t144.5 31t141.5 39zM1483 1251q4 141 -22 254.5t-81 193t-138 122.5t-192 43q-86 0 -155.5 -25t-124.5 -69t-95 -103t-67 -127t-41 -142t-16 -147h932zM864 2533l423 577
l277 -183l-505 -533z" />
    <glyph glyph-name="ecircumflex" unicode="&#xea;" horiz-adv-x="2033" 
d="M1787 65q-76 -25 -159 -46t-172.5 -35.5t-184 -23t-194.5 -8.5q-230 0 -399 68t-280.5 204t-166 338t-54.5 472q0 252 58 455.5t171.5 347t280 221t384.5 77.5q135 0 245 -31t196 -89t148.5 -141t103 -187t60.5 -226.5t20 -260.5q0 -16 -1 -41t-2 -53.5t-2 -57.5t-1 -54
h-1287q0 -116 12.5 -217t40.5 -184.5t73 -148.5t109.5 -109.5t151 -67.5t198.5 -23q88 0 167 7t153 20t144.5 31t141.5 39zM1483 1251q4 141 -22 254.5t-81 193t-138 122.5t-192 43q-86 0 -155.5 -25t-124.5 -69t-95 -103t-67 -127t-41 -142t-16 -147h932zM1045 2755
l-383 -357l-142 173l532 551l534 -547l-153 -177z" />
    <glyph glyph-name="edieresis" unicode="&#xeb;" horiz-adv-x="2033" 
d="M1787 65q-76 -25 -159 -46t-172.5 -35.5t-184 -23t-194.5 -8.5q-230 0 -399 68t-280.5 204t-166 338t-54.5 472q0 252 58 455.5t171.5 347t280 221t384.5 77.5q135 0 245 -31t196 -89t148.5 -141t103 -187t60.5 -226.5t20 -260.5q0 -16 -1 -41t-2 -53.5t-2 -57.5t-1 -54
h-1287q0 -116 12.5 -217t40.5 -184.5t73 -148.5t109.5 -109.5t151 -67.5t198.5 -23q88 0 167 7t153 20t144.5 31t141.5 39zM1483 1251q4 141 -22 254.5t-81 193t-138 122.5t-192 43q-86 0 -155.5 -25t-124.5 -69t-95 -103t-67 -127t-41 -142t-16 -147h932zM1418 2545
q-45 0 -83 15.5t-65.5 43.5t-42.5 66.5t-15 84.5t15 84.5t42.5 66.5t65.5 43.5t83 15.5t83 -15.5t65 -43.5t42 -66.5t15 -84.5t-15 -84.5t-42 -66.5t-65 -43.5t-83 -15.5zM692 2545q-45 0 -83 15.5t-65 43.5t-42 66.5t-15 84.5t15 84.5t42 66.5t65 43.5t83 15.5
q46 0 83.5 -15.5t65 -43.5t42.5 -66.5t15 -84.5t-15 -84.5t-42.5 -66.5t-65 -43.5t-83.5 -15.5z" />
    <glyph glyph-name="igrave" unicode="&#xec;" horiz-adv-x="1037" 
d="M385 0v1809h-310v278h667v-2087h-357zM524 2394l-492 530l271 186l420 -568z" />
    <glyph glyph-name="iacute" unicode="&#xed;" horiz-adv-x="1037" 
d="M385 0v1809h-310v278h667v-2087h-357zM253 2533l423 577l277 -183l-505 -533z" />
    <glyph glyph-name="icircumflex" unicode="&#xee;" horiz-adv-x="1037" 
d="M385 0v1809h-310v278h667v-2087h-357zM518 2755l-383 -357l-142 173l532 551l534 -547l-153 -177z" />
    <glyph glyph-name="idieresis" unicode="&#xef;" horiz-adv-x="1037" 
d="M385 0v1809h-310v278h667v-2087h-357zM881 2545q-45 0 -83.5 15.5t-65.5 43.5t-42.5 66.5t-15.5 84.5t15.5 84.5t42.5 66.5t65.5 43.5t83.5 15.5t82.5 -15.5t64.5 -43.5t42.5 -66.5t15.5 -84.5t-15.5 -84.5t-42.5 -66.5t-64.5 -43.5t-82.5 -15.5zM188 2545
q-46 0 -84 15.5t-65.5 43.5t-42.5 66.5t-15 84.5t15 84.5t42.5 66.5t65.5 43.5t84 15.5q45 0 82.5 -15.5t64.5 -43.5t42 -66.5t15 -84.5t-15 -84.5t-42 -66.5t-64.5 -43.5t-82.5 -15.5z" />
    <glyph glyph-name="eth" unicode="&#xf0;" horiz-adv-x="2220" 
d="M1489 2606q130 -178 226.5 -359t160.5 -366t96 -373.5t32 -382.5q0 -283 -65 -502t-186.5 -368t-295.5 -226t-392 -77q-147 0 -270 36t-221 102t-172 161t-123 213t-73.5 257.5t-24.5 296.5q0 160 28.5 303.5t82 264.5t132 217.5t178.5 164t219.5 103.5t257.5 36
q46 0 89.5 -5t87.5 -16.5t87 -30.5t87 -47q-26 59 -58.5 120t-69 122t-76 120.5t-81.5 115.5l-408 -168l-128 215l383 158q-33 40 -67.5 80t-70 79.5t-73 78.5t-75.5 79l355 114q33 -35 67.5 -72.5t69.5 -76.5t69 -79.5t66 -82.5l458 185l128 -216zM1559 1656
q-62 43 -123.5 75t-121 53.5t-118 32.5t-114.5 11q-92 0 -166.5 -29t-133 -81.5t-101 -124t-70.5 -156.5t-42 -179.5t-14 -191.5q0 -125 14.5 -235t43.5 -201.5t73 -164t103.5 -122.5t134.5 -76.5t167 -26.5q125 0 225 48.5t171 151.5t109 263t38 383q0 67 -4.5 137.5
t-13.5 142.5t-23 145t-34 145z" />
    <glyph glyph-name="ntilde" unicode="&#xf1;" horiz-adv-x="2202" 
d="M1560 0v1266q0 127 -18 232.5t-60.5 180.5t-111.5 116t-172 41q-80 0 -147 -21.5t-131 -66.5t-128.5 -113t-139.5 -161v-1474h-357v2087h277l40 -304q76 89 149.5 155.5t152 110t165.5 65t188 21.5q120 0 215 -28.5t167 -81t123 -125.5t83 -162t47 -191t15 -211v-1336
h-357zM1750 2859q-29 -76 -70.5 -137t-94.5 -104t-114.5 -65.5t-129.5 -22.5q-59 0 -107.5 12t-85 31t-84 50.5t-70 45.5t-56 25.5t-72.5 11.5q-32 0 -63.5 -13t-60.5 -38t-54.5 -61.5t-46.5 -82.5l-171 136q30 76 72 137t94 103.5t113.5 65t129.5 22.5q59 0 107 -12
t85 -30.5t84 -50t69.5 -45.5t56 -26t71.5 -12q33 0 64.5 13t61 38.5t55 61t46.5 81.5z" />
    <glyph glyph-name="ograve" unicode="&#xf2;" horiz-adv-x="2201" 
d="M1084 -48q-219 0 -388.5 74t-286 212.5t-176.5 335.5t-60 444q0 170 28 319t83 273t135.5 221.5t185.5 165t233.5 103t278.5 35.5q219 0 388.5 -74.5t286 -213.5t177 -338t60.5 -447q0 -168 -28.5 -315.5t-83 -271t-135 -220.5t-185.5 -164t-233.5 -103t-279.5 -36z
M1107 245q92 0 167.5 26t136 74.5t105.5 117t75 155t45 187.5t15 215q0 121 -14 229t-44 199.5t-75 164.5t-107 124t-141.5 78t-176.5 27q-137 0 -239 -57t-169 -160.5t-101 -246t-34 -313.5q0 -121 14.5 -229t43.5 -199t74.5 -163.5t107 -123.5t141 -78t176.5 -27z
M1106 2394l-492 530l271 186l420 -568z" />
    <glyph glyph-name="oacute" unicode="&#xf3;" horiz-adv-x="2201" 
d="M1084 -48q-219 0 -388.5 74t-286 212.5t-176.5 335.5t-60 444q0 170 28 319t83 273t135.5 221.5t185.5 165t233.5 103t278.5 35.5q219 0 388.5 -74.5t286 -213.5t177 -338t60.5 -447q0 -168 -28.5 -315.5t-83 -271t-135 -220.5t-185.5 -164t-233.5 -103t-279.5 -36z
M1107 245q92 0 167.5 26t136 74.5t105.5 117t75 155t45 187.5t15 215q0 121 -14 229t-44 199.5t-75 164.5t-107 124t-141.5 78t-176.5 27q-137 0 -239 -57t-169 -160.5t-101 -246t-34 -313.5q0 -121 14.5 -229t43.5 -199t74.5 -163.5t107 -123.5t141 -78t176.5 -27z
M885 2533l423 577l277 -183l-505 -533z" />
    <glyph glyph-name="ocircumflex" unicode="&#xf4;" horiz-adv-x="2201" 
d="M1084 -48q-219 0 -388.5 74t-286 212.5t-176.5 335.5t-60 444q0 170 28 319t83 273t135.5 221.5t185.5 165t233.5 103t278.5 35.5q219 0 388.5 -74.5t286 -213.5t177 -338t60.5 -447q0 -168 -28.5 -315.5t-83 -271t-135 -220.5t-185.5 -164t-233.5 -103t-279.5 -36z
M1107 245q92 0 167.5 26t136 74.5t105.5 117t75 155t45 187.5t15 215q0 121 -14 229t-44 199.5t-75 164.5t-107 124t-141.5 78t-176.5 27q-137 0 -239 -57t-169 -160.5t-101 -246t-34 -313.5q0 -121 14.5 -229t43.5 -199t74.5 -163.5t107 -123.5t141 -78t176.5 -27z
M1095 2755l-383 -357l-142 173l532 551l534 -547l-153 -177z" />
    <glyph glyph-name="otilde" unicode="&#xf5;" horiz-adv-x="2201" 
d="M1084 -48q-219 0 -388.5 74t-286 212.5t-176.5 335.5t-60 444q0 170 28 319t83 273t135.5 221.5t185.5 165t233.5 103t278.5 35.5q219 0 388.5 -74.5t286 -213.5t177 -338t60.5 -447q0 -168 -28.5 -315.5t-83 -271t-135 -220.5t-185.5 -164t-233.5 -103t-279.5 -36z
M1107 245q92 0 167.5 26t136 74.5t105.5 117t75 155t45 187.5t15 215q0 121 -14 229t-44 199.5t-75 164.5t-107 124t-141.5 78t-176.5 27q-137 0 -239 -57t-169 -160.5t-101 -246t-34 -313.5q0 -121 14.5 -229t43.5 -199t74.5 -163.5t107 -123.5t141 -78t176.5 -27z
M1745 2859q-29 -76 -70.5 -137t-94.5 -104t-114.5 -65.5t-129.5 -22.5q-59 0 -107.5 12t-85 31t-84 50.5t-70 45.5t-56 25.5t-72.5 11.5q-32 0 -63.5 -13t-60.5 -38t-54.5 -61.5t-46.5 -82.5l-171 136q30 76 72 137t94 103.5t113.5 65t129.5 22.5q59 0 107 -12t85 -30.5
t84 -50t69.5 -45.5t56 -26t71.5 -12q33 0 64.5 13t61 38.5t55 61t46.5 81.5z" />
    <glyph glyph-name="odieresis" unicode="&#xf6;" horiz-adv-x="2201" 
d="M1084 -48q-219 0 -388.5 74t-286 212.5t-176.5 335.5t-60 444q0 170 28 319t83 273t135.5 221.5t185.5 165t233.5 103t278.5 35.5q219 0 388.5 -74.5t286 -213.5t177 -338t60.5 -447q0 -168 -28.5 -315.5t-83 -271t-135 -220.5t-185.5 -164t-233.5 -103t-279.5 -36z
M1107 245q92 0 167.5 26t136 74.5t105.5 117t75 155t45 187.5t15 215q0 121 -14 229t-44 199.5t-75 164.5t-107 124t-141.5 78t-176.5 27q-137 0 -239 -57t-169 -160.5t-101 -246t-34 -313.5q0 -121 14.5 -229t43.5 -199t74.5 -163.5t107 -123.5t141 -78t176.5 -27z
M1466 2545q-45 0 -83 15.5t-65.5 43.5t-42.5 66.5t-15 84.5t15 84.5t42.5 66.5t65.5 43.5t83 15.5t83 -15.5t65 -43.5t42 -66.5t15 -84.5t-15 -84.5t-42 -66.5t-65 -43.5t-83 -15.5zM740 2545q-45 0 -83 15.5t-65 43.5t-42 66.5t-15 84.5t15 84.5t42 66.5t65 43.5t83 15.5
q46 0 83.5 -15.5t65 -43.5t42.5 -66.5t15 -84.5t-15 -84.5t-42.5 -66.5t-65 -43.5t-83.5 -15.5z" />
    <glyph glyph-name="divide" unicode="&#xf7;" 
d="M1016 1829q-52 0 -98.5 20t-80.5 54.5t-53.5 81.5t-19.5 101q0 53 19.5 99.5t53.5 81t80 54t99 19.5q52 0 98 -19.5t80 -54t53.5 -81t19.5 -99.5q0 -54 -19.5 -101t-53.5 -81.5t-79.5 -54.5t-98.5 -20zM145 1122v300h1742v-300h-1742zM1016 207q-53 0 -99 20t-80 54.5
t-53.5 81t-19.5 100.5t19.5 100.5t53.5 81t80.5 54.5t98.5 20q53 0 98.5 -20t79.5 -54.5t53.5 -81t19.5 -100.5t-19.5 -100.5t-53.5 -81t-80 -54.5t-98 -20z" />
    <glyph glyph-name="oslash" unicode="&#xf8;" horiz-adv-x="2201" 
d="M343 -316l194 418q-98 68 -167 164.5t-113 214t-64 254t-20 285.5q0 170 28 318.5t83 272t135.5 221t185.5 165t233.5 103t278.5 35.5q45 0 89.5 -4t87.5 -10.5t82.5 -17t74.5 -23.5l194 415l223 -87l-200 -428q90 -65 157.5 -155.5t112.5 -205.5t68 -253.5t23 -298.5
q0 -166 -29.5 -313t-85 -270.5t-137.5 -221.5t-187 -166.5t-232.5 -105t-275.5 -36.5q-48 0 -92.5 3.5t-85.5 10t-78.5 16t-70.5 21.5l-190 -408zM878 275q23 -11 49.5 -19t56 -13.5t61.5 -8.5t67 -3q95 0 173.5 27.5t141 78t109 122.5t77.5 160t46.5 191t15.5 216
q0 76 -5.5 144t-15 128t-24 111.5t-32.5 95.5t-39.5 80.5t-46.5 65.5zM1328 1810q-47 25 -107 36.5t-127 11.5q-144 0 -250.5 -59.5t-177 -165.5t-105 -252.5t-34.5 -320.5q0 -64 4 -126t12 -121t21.5 -113t31.5 -102.5t42 -90.5t54 -76z" />
    <glyph glyph-name="ugrave" unicode="&#xf9;" horiz-adv-x="2202" 
d="M1630 0l-40 305q-75 -90 -148.5 -156.5t-152.5 -110t-165.5 -65t-188.5 -21.5q-119 0 -214.5 29t-167.5 81t-123 125.5t-83 162.5t-47 190.5t-15 210.5v1336h357v-1266q0 -85 8 -160t25.5 -138.5t45.5 -114t68 -85.5t93.5 -54t121.5 -19q80 0 147.5 22t131 66.5t128 113
t139.5 161.5v1474h357v-2087h-277zM1081 2394l-492 530l271 186l420 -568z" />
    <glyph glyph-name="uacute" unicode="&#xfa;" horiz-adv-x="2202" 
d="M1630 0l-40 305q-75 -90 -148.5 -156.5t-152.5 -110t-165.5 -65t-188.5 -21.5q-119 0 -214.5 29t-167.5 81t-123 125.5t-83 162.5t-47 190.5t-15 210.5v1336h357v-1266q0 -85 8 -160t25.5 -138.5t45.5 -114t68 -85.5t93.5 -54t121.5 -19q80 0 147.5 22t131 66.5t128 113
t139.5 161.5v1474h357v-2087h-277zM891 2533l423 577l277 -183l-505 -533z" />
    <glyph glyph-name="ucircumflex" unicode="&#xfb;" horiz-adv-x="2202" 
d="M1630 0l-40 305q-75 -90 -148.5 -156.5t-152.5 -110t-165.5 -65t-188.5 -21.5q-119 0 -214.5 29t-167.5 81t-123 125.5t-83 162.5t-47 190.5t-15 210.5v1336h357v-1266q0 -85 8 -160t25.5 -138.5t45.5 -114t68 -85.5t93.5 -54t121.5 -19q80 0 147.5 22t131 66.5t128 113
t139.5 161.5v1474h357v-2087h-277zM1095 2755l-383 -357l-142 173l532 551l534 -547l-153 -177z" />
    <glyph glyph-name="udieresis" unicode="&#xfc;" horiz-adv-x="2202" 
d="M1630 0l-40 305q-75 -90 -148.5 -156.5t-152.5 -110t-165.5 -65t-188.5 -21.5q-119 0 -214.5 29t-167.5 81t-123 125.5t-83 162.5t-47 190.5t-15 210.5v1336h357v-1266q0 -85 8 -160t25.5 -138.5t45.5 -114t68 -85.5t93.5 -54t121.5 -19q80 0 147.5 22t131 66.5t128 113
t139.5 161.5v1474h357v-2087h-277zM1494 2545q-45 0 -83 15.5t-65.5 43.5t-42.5 66.5t-15 84.5t15 84.5t42.5 66.5t65.5 43.5t83 15.5t83 -15.5t65 -43.5t42 -66.5t15 -84.5t-15 -84.5t-42 -66.5t-65 -43.5t-83 -15.5zM768 2545q-45 0 -83 15.5t-65 43.5t-42 66.5t-15 84.5
t15 84.5t42 66.5t65 43.5t83 15.5q46 0 83.5 -15.5t65 -43.5t42.5 -66.5t15 -84.5t-15 -84.5t-42.5 -66.5t-65 -43.5t-83.5 -15.5z" />
    <glyph glyph-name="yacute" unicode="&#xfd;" horiz-adv-x="1848" 
d="M114 -591h205q35 0 68 11t66.5 37.5t68 70t73 109t81.5 154.5t93 206q-59 146 -120 306.5t-122.5 331.5t-121.5 350t-116 363t-107 369.5t-94 369.5h377q45 -188 93.5 -369t100.5 -356.5t107 -346.5t111 -340q12 -35 23.5 -72.5t22.5 -75.5t21.5 -75.5t21.5 -72.5h6
q11 35 22 72.5t22.5 75.5t22.5 75t22 73q52 168 101 342.5t93.5 353t84.5 358.5t75 358h353q-82 -351 -162.5 -655.5t-160 -564t-156.5 -475.5t-153 -391q-77 -176 -145.5 -311t-132.5 -234t-126.5 -166t-125.5 -108t-129 -58.5t-139 -17.5q-33 0 -64.5 3.5t-61.5 8.5
t-57.5 12t-52.5 15zM774 2533l423 577l277 -183l-505 -533z" />
    <glyph glyph-name="thorn" unicode="&#xfe;" horiz-adv-x="2181" 
d="M295 -850v3922h357v-1256q64 78 132 137.5t143 100t160.5 61t185.5 20.5q130 0 234 -37t185 -103.5t139.5 -160t96.5 -206.5t56 -242.5t18 -268.5q0 -153 -24 -298t-74 -272.5t-126.5 -233t-181.5 -181.5t-239.5 -118t-298.5 -42q-103 0 -205.5 10.5t-200.5 30.5v-863
h-357zM652 339q44 -21 91.5 -36.5t99 -26.5t106.5 -16.5t114 -5.5q142 0 247 56.5t175 163.5t104.5 262t34.5 352q0 94 -8 186.5t-27.5 176t-51.5 155t-79.5 123.5t-112 81.5t-148.5 29.5q-47 0 -90.5 -8t-86.5 -25.5t-86 -46t-88 -69.5t-93.5 -95t-100.5 -123v-1134z" />
    <glyph glyph-name="ydieresis" unicode="&#xff;" horiz-adv-x="1848" 
d="M114 -591h205q35 0 68 11t66.5 37.5t68 70t73 109t81.5 154.5t93 206q-59 146 -120 306.5t-122.5 331.5t-121.5 350t-116 363t-107 369.5t-94 369.5h377q45 -188 93.5 -369t100.5 -356.5t107 -346.5t111 -340q12 -35 23.5 -72.5t22.5 -75.5t21.5 -75.5t21.5 -72.5h6
q11 35 22 72.5t22.5 75.5t22.5 75t22 73q52 168 101 342.5t93.5 353t84.5 358.5t75 358h353q-82 -351 -162.5 -655.5t-160 -564t-156.5 -475.5t-153 -391q-77 -176 -145.5 -311t-132.5 -234t-126.5 -166t-125.5 -108t-129 -58.5t-139 -17.5q-33 0 -64.5 3.5t-61.5 8.5
t-57.5 12t-52.5 15zM1311 2545q-45 0 -83 15.5t-65.5 43.5t-42.5 66.5t-15 84.5t15 84.5t42.5 66.5t65.5 43.5t83 15.5t83 -15.5t65 -43.5t42 -66.5t15 -84.5t-15 -84.5t-42 -66.5t-65 -43.5t-83 -15.5zM585 2545q-45 0 -83 15.5t-65 43.5t-42 66.5t-15 84.5t15 84.5
t42 66.5t65 43.5t83 15.5q46 0 83.5 -15.5t65 -43.5t42.5 -66.5t15 -84.5t-15 -84.5t-42.5 -66.5t-65 -43.5t-83.5 -15.5z" />
    <glyph glyph-name="Amacron" unicode="&#x100;" horiz-adv-x="2454" 
d="M1947 0q-23 91 -47 185.5t-49 190.5t-50.5 191.5t-52.5 189.5h-1070q-27 -94 -53.5 -190t-51.5 -192t-49.5 -190.5t-47.5 -184.5h-381q103 381 212 749.5t224.5 725.5t236 702.5t247.5 681.5h420q137 -359 263 -718t241 -717.5t220 -714.5t199 -709h-411zM1671 1054
q-41 137 -85 279t-90 286t-94 288.5t-96 286.5q-12 36 -24 74t-24.5 76.5t-23.5 76.5t-22 72h-4q-11 -34 -23.5 -72t-25 -76.5t-24.5 -76t-23 -71.5q-47 -140 -93 -283.5t-91.5 -288.5t-89 -288.5t-84.5 -282.5h917zM644 3194v260h1146v-260h-1146z" />
    <glyph glyph-name="amacron" unicode="&#x101;" horiz-adv-x="1997" 
d="M1431 0l-28 227q-62 -62 -128 -113t-140 -87t-157.5 -56t-179.5 -20q-146 0 -263 40.5t-199.5 118t-126.5 190.5t-44 259q0 169 64.5 292t181 203.5t279.5 119.5t361 39h304v164q0 120 -21.5 209t-72 148.5t-133.5 88.5t-206 29q-67 0 -136 -8.5t-139 -24.5t-139.5 -38.5
t-135.5 -50.5l-69 272q73 30 155 54.5t168.5 42t175 27t175.5 9.5q137 0 244 -24.5t188 -69.5t138 -108t93 -139t52 -164t16 -183v-1447h-277zM1355 959h-321q-126 0 -220.5 -25t-156.5 -74t-93 -120t-31 -162q0 -80 21 -144.5t63.5 -110t105 -70.5t146.5 -25q73 0 137.5 20
t123.5 55t114.5 83t110.5 105v468zM481 2597v257h1035v-257h-1035z" />
    <glyph glyph-name="Abreve" unicode="&#x102;" horiz-adv-x="2454" 
d="M1947 0q-23 91 -47 185.5t-49 190.5t-50.5 191.5t-52.5 189.5h-1070q-27 -94 -53.5 -190t-51.5 -192t-49.5 -190.5t-47.5 -184.5h-381q103 381 212 749.5t224.5 725.5t236 702.5t247.5 681.5h420q137 -359 263 -718t241 -717.5t220 -714.5t199 -709h-411zM1671 1054
q-41 137 -85 279t-90 286t-94 288.5t-96 286.5q-12 36 -24 74t-24.5 76.5t-23.5 76.5t-22 72h-4q-11 -34 -23.5 -72t-25 -76.5t-24.5 -76t-23 -71.5q-47 -140 -93 -283.5t-91.5 -288.5t-89 -288.5t-84.5 -282.5h917zM1766 3645q0 -82 -15 -155.5t-44.5 -136.5t-75 -113.5
t-107 -86.5t-139 -55.5t-172.5 -19.5q-96 0 -173.5 20.5t-138.5 57t-105 88.5t-72.5 115t-42.5 135t-14 151h249q0 -72 21.5 -131t61 -100.5t95.5 -64t126 -22.5q63 0 117.5 18.5t95 57t63 99t22.5 143.5h248z" />
    <glyph glyph-name="abreve" unicode="&#x103;" horiz-adv-x="1997" 
d="M1431 0l-28 227q-62 -62 -128 -113t-140 -87t-157.5 -56t-179.5 -20q-146 0 -263 40.5t-199.5 118t-126.5 190.5t-44 259q0 169 64.5 292t181 203.5t279.5 119.5t361 39h304v164q0 120 -21.5 209t-72 148.5t-133.5 88.5t-206 29q-67 0 -136 -8.5t-139 -24.5t-139.5 -38.5
t-135.5 -50.5l-69 272q73 30 155 54.5t168.5 42t175 27t175.5 9.5q137 0 244 -24.5t188 -69.5t138 -108t93 -139t52 -164t16 -183v-1447h-277zM1355 959h-321q-126 0 -220.5 -25t-156.5 -74t-93 -120t-31 -162q0 -80 21 -144.5t63.5 -110t105 -70.5t146.5 -25q73 0 137.5 20
t123.5 55t114.5 83t110.5 105v468zM1531 3036q0 -82 -12.5 -156.5t-38 -142t-67 -123.5t-100.5 -97t-136.5 -63.5t-173.5 -22.5q-98 0 -176 23t-136 65t-98 98.5t-64.5 123.5t-35.5 140.5t-11 154.5h235q0 -74 18.5 -137.5t55 -112t92 -75.5t126.5 -27q68 0 121.5 23
t90.5 68t56 110.5t19 150.5h235z" />
    <glyph glyph-name="Aogonek" unicode="&#x104;" horiz-adv-x="2454" 
d="M2495 -773q-32 -12 -71 -23t-82 -19t-88 -13t-90 -5q-120 0 -204.5 24t-138 68.5t-77.5 107.5t-24 141q0 64 19 128.5t56 127.5t91 122.5t124 113.5h-63q-23 91 -47 185.5t-49 190.5t-50.5 191.5t-52.5 189.5h-1070q-27 -94 -53.5 -190t-51.5 -192t-49.5 -190.5
t-47.5 -184.5h-381q103 381 212.5 749.5t224.5 725.5t236 702.5t247 681.5h420q137 -359 263 -718t241 -717.5t220 -714.5t199 -709q-82 -58 -139 -115t-92.5 -110.5t-51.5 -102.5t-16 -90q0 -43 10 -75.5t31.5 -54t56.5 -32t87 -10.5q46 0 100.5 10t106.5 31zM1671 1054
q-41 136 -85 278t-90 286.5t-93.5 289t-95.5 286.5q-12 36 -24.5 74t-24.5 76.5t-23.5 76.5t-22.5 72h-4q-11 -34 -23.5 -71.5t-25 -76.5t-24.5 -76.5t-23 -71.5q-47 -139 -93 -283t-91.5 -288.5t-89 -288.5t-84.5 -283h917z" />
    <glyph glyph-name="aogonek" unicode="&#x105;" horiz-adv-x="1997" 
d="M1869 -772q-33 -12 -70 -23t-77 -18.5t-82.5 -12.5t-85.5 -5q-115 0 -195.5 24.5t-130.5 69t-73 107t-23 138.5q0 61 19.5 124.5t56.5 127t90.5 124.5t120.5 116l-16 241q-62 -63 -130.5 -116t-145 -91.5t-162 -60.5t-180.5 -22q-94 0 -176.5 18.5t-151.5 53.5t-123 86.5
t-91.5 119t-57.5 150.5t-20 180q0 169 64.5 292t181 203.5t279.5 119.5t361 39h304v164q0 120 -21.5 209t-72 148.5t-133.5 88.5t-206 29q-67 0 -136 -8.5t-139 -24.5t-139.5 -38.5t-135.5 -50.5l-69 272q73 30 155 54.5t168.5 42t175 27t175.5 9.5q137 0 244 -24.5
t188 -69.5t138 -108t93 -139t52 -164t16 -183v-1447q-63 -58 -109.5 -115t-77 -110.5t-45.5 -102.5t-15 -90q0 -43 9.5 -75.5t30 -54.5t53 -32.5t78.5 -10.5q23 0 46 2.5t47.5 7t49.5 12t50 18.5zM1355 959h-321q-126 0 -220.5 -25t-156.5 -74t-93 -120t-31 -162
q0 -80 21 -144.5t62 -110t101 -70.5t138 -25q74 0 140.5 22t128 59t119 87t112.5 107v456z" />
    <glyph glyph-name="Cacute" unicode="&#x106;" horiz-adv-x="2146" 
d="M2056 126q-72 -37 -152 -67t-165.5 -51.5t-174 -33.5t-178.5 -12q-277 0 -497 93.5t-373.5 275t-235.5 448.5t-82 614q0 232 37.5 433.5t108.5 368.5t174.5 297.5t236 220.5t292 137t343.5 47q90 0 174.5 -9.5t165.5 -28.5t159 -48.5t155 -68.5l-120 -292
q-62 31 -126 54.5t-130 40t-135.5 24.5t-142.5 8q-128 0 -236.5 -38t-196.5 -109t-155.5 -173t-112.5 -229.5t-68.5 -279t-23.5 -320.5q0 -281 57.5 -494t166 -357t264.5 -217.5t354 -73.5q72 0 142 10.5t136 28.5t126.5 42.5t115.5 51.5l97 -293v0zM1170 3086l-119 198
l656 395l159 -274z" />
    <glyph glyph-name="cacute" unicode="&#x107;" horiz-adv-x="1683" 
d="M1565 74q-70 -32 -139 -54t-136 -35t-131 -18.5t-125 -5.5q-224 0 -386.5 74.5t-268 211.5t-156 330.5t-50.5 432.5q0 269 65 477t183.5 349.5t284.5 215t369 73.5q63 0 125.5 -6.5t123 -19.5t119 -33.5t114.5 -48.5l-81 -273q-44 19 -90.5 35.5t-94.5 28t-97.5 18.5
t-99.5 7q-143 0 -246 -57.5t-169 -161t-97.5 -249t-31.5 -320.5q0 -197 34 -344t102.5 -244.5t171.5 -146.5t242 -49q55 0 106.5 5t101.5 16t98 27.5t97 38.5zM771 2533l423 577l277 -183l-505 -533z" />
    <glyph glyph-name="Ccircumflex" unicode="&#x108;" horiz-adv-x="2146" 
d="M2056 126q-72 -37 -152 -67t-165.5 -51.5t-174 -33.5t-178.5 -12q-277 0 -497 93.5t-373.5 275t-235.5 448.5t-82 614q0 232 37.5 433.5t108.5 368.5t174.5 297.5t236 220.5t292 137t343.5 47q90 0 174.5 -9.5t165.5 -28.5t159 -48.5t155 -68.5l-120 -292
q-62 31 -126 54.5t-130 40t-135.5 24.5t-142.5 8q-128 0 -236.5 -38t-196.5 -109t-155.5 -173t-112.5 -229.5t-68.5 -279t-23.5 -320.5q0 -281 57.5 -494t166 -357t264.5 -217.5t354 -73.5q72 0 142 10.5t136 28.5t126.5 42.5t115.5 51.5l97 -293v0zM1344 3346l-419 -260
l-113 190l537 389l538 -383l-120 -196z" />
    <glyph glyph-name="ccircumflex" unicode="&#x109;" horiz-adv-x="1683" 
d="M1565 74q-70 -32 -139 -54t-136 -35t-131 -18.5t-125 -5.5q-224 0 -386.5 74.5t-268 211.5t-156 330.5t-50.5 432.5q0 269 65 477t183.5 349.5t284.5 215t369 73.5q63 0 125.5 -6.5t123 -19.5t119 -33.5t114.5 -48.5l-81 -273q-44 19 -90.5 35.5t-94.5 28t-97.5 18.5
t-99.5 7q-143 0 -246 -57.5t-169 -161t-97.5 -249t-31.5 -320.5q0 -197 34 -344t102.5 -244.5t171.5 -146.5t242 -49q55 0 106.5 5t101.5 16t98 27.5t97 38.5zM1015 2755l-383 -357l-142 173l532 551l534 -547l-153 -177z" />
    <glyph glyph-name="Cdotaccent" unicode="&#x10a;" horiz-adv-x="2146" 
d="M2056 126q-72 -37 -152 -67t-165.5 -51.5t-174 -33.5t-178.5 -12q-277 0 -497 93.5t-373.5 275t-235.5 448.5t-82 614q0 232 37.5 433.5t108.5 368.5t174.5 297.5t236 220.5t292 137t343.5 47q90 0 174.5 -9.5t165.5 -28.5t159 -48.5t155 -68.5l-120 -292
q-62 31 -126 54.5t-130 40t-135.5 24.5t-142.5 8q-128 0 -236.5 -38t-196.5 -109t-155.5 -173t-112.5 -229.5t-68.5 -279t-23.5 -320.5q0 -281 57.5 -494t166 -357t264.5 -217.5t354 -73.5q72 0 142 10.5t136 28.5t126.5 42.5t115.5 51.5l97 -293v0zM1591 3317
q0 -51 -18.5 -94.5t-51 -75t-77.5 -49t-97 -17.5t-96.5 17.5t-77 49t-51 75t-18.5 94.5t18.5 94t51 74.5t77 49t96.5 17.5t97 -17.5t77.5 -49t51 -74.5t18.5 -94z" />
    <glyph glyph-name="cdotaccent" unicode="&#x10b;" horiz-adv-x="1683" 
d="M1565 74q-70 -32 -139 -54t-136 -35t-131 -18.5t-125 -5.5q-224 0 -386.5 74.5t-268 211.5t-156 330.5t-50.5 432.5q0 269 65 477t183.5 349.5t284.5 215t369 73.5q63 0 125.5 -6.5t123 -19.5t119 -33.5t114.5 -48.5l-81 -273q-44 19 -90.5 35.5t-94.5 28t-97.5 18.5
t-99.5 7q-143 0 -246 -57.5t-169 -161t-97.5 -249t-31.5 -320.5q0 -197 34 -344t102.5 -244.5t171.5 -146.5t242 -49q55 0 106.5 5t101.5 16t98 27.5t97 38.5zM1011 2502q-52 0 -96.5 18t-76.5 50.5t-50.5 77t-18.5 97.5t18.5 97.5t50.5 77t76.5 50.5t96.5 18t96.5 -18
t76.5 -50.5t50 -77t18 -97.5t-18 -97.5t-50 -77t-76.5 -50.5t-96.5 -18z" />
    <glyph glyph-name="Ccaron" unicode="&#x10c;" horiz-adv-x="2146" 
d="M2056 126q-72 -37 -152 -67t-165.5 -51.5t-174 -33.5t-178.5 -12q-277 0 -497 93.5t-373.5 275t-235.5 448.5t-82 614q0 232 37.5 433.5t108.5 368.5t174.5 297.5t236 220.5t292 137t343.5 47q90 0 174.5 -9.5t165.5 -28.5t159 -48.5t155 -68.5l-120 -292
q-62 31 -126 54.5t-130 40t-135.5 24.5t-142.5 8q-128 0 -236.5 -38t-196.5 -109t-155.5 -173t-112.5 -229.5t-68.5 -279t-23.5 -320.5q0 -281 57.5 -494t166 -357t264.5 -217.5t354 -73.5q72 0 142 10.5t136 28.5t126.5 42.5t115.5 51.5l97 -293v0zM1325 3074l-538 381
l120 195l423 -261l419 261l113 -188z" />
    <glyph glyph-name="ccaron" unicode="&#x10d;" horiz-adv-x="1683" 
d="M1565 74q-70 -32 -139 -54t-136 -35t-131 -18.5t-125 -5.5q-224 0 -386.5 74.5t-268 211.5t-156 330.5t-50.5 432.5q0 269 65 477t183.5 349.5t284.5 215t369 73.5q63 0 125.5 -6.5t123 -19.5t119 -33.5t114.5 -48.5l-81 -273q-44 19 -90.5 35.5t-94.5 28t-97.5 18.5
t-99.5 7q-143 0 -246 -57.5t-169 -161t-97.5 -249t-31.5 -320.5q0 -197 34 -344t102.5 -244.5t171.5 -146.5t242 -49q55 0 106.5 5t101.5 16t98 27.5t97 38.5zM442 2950l152 179l390 -359l383 359l144 -174l-535 -555z" />
    <glyph glyph-name="Dcaron" unicode="&#x10e;" horiz-adv-x="2576" 
d="M333 0v2859h809q202 0 372.5 -43.5t309 -126t243.5 -203t176.5 -275t107.5 -341t36 -401.5q0 -242 -39 -445.5t-114.5 -366.5t-186.5 -286t-254.5 -205.5t-319 -124t-379.5 -41.5h-761zM1114 303q221 0 386 70.5t274.5 212.5t164 358.5t54.5 507.5q0 158 -21.5 301.5
t-67.5 266.5t-116.5 222.5t-168 170t-222.5 108.5t-280 38h-413v-2256h410zM1194 3065l-538 381l120 195l423 -261l419 261l113 -188z" />
    <glyph glyph-name="dcaron" unicode="&#x10f;" horiz-adv-x="2441" 
d="M1608 0l-31 313q-74 -91 -148 -159t-154 -113t-169 -67t-194 -22q-130 0 -235.5 37t-186.5 103.5t-140 159.5t-97 206.5t-56 243.5t-18 269q0 153 24 298t74 272t126.5 233t181.5 181.5t239.5 117.5t298.5 42q54 0 105.5 -2.5t102.5 -8t100 -13.5t98 -19v1000h357v-3072
h-278zM1529 1749q-88 40 -190.5 62t-220.5 22q-142 0 -247 -56.5t-174.5 -163.5t-104 -262t-34.5 -352q0 -94 8 -186t27 -176t51 -155.5t79 -123.5t110.5 -81.5t147.5 -29.5q47 0 90.5 8t86.5 26t86 47t88.5 70.5t93.5 96.5t103 126v1128zM2062 2348l203 794l316 -64
l-275 -772z" />
    <glyph glyph-name="Dcroat" unicode="&#x110;" horiz-adv-x="2617" 
d="M374 0v1316h-312v293h312v1250h809q202 0 372.5 -43.5t309 -126t243.5 -203t176.5 -275t107.5 -341t36 -401.5q0 -242 -39 -445.5t-114.5 -366.5t-186.5 -286t-254.5 -205.5t-319 -124t-379.5 -41.5h-761zM1155 303q221 0 386 70.5t274.5 212.5t164 358.5t54.5 507.5
q0 158 -21.5 301.5t-67.5 266.5t-116.5 222.5t-168 170t-222.5 108.5t-280 38h-413v-950h510v-293h-510v-1013h410z" />
    <glyph glyph-name="dcroat" unicode="&#x111;" horiz-adv-x="2181" 
d="M1608 0l-31 313q-74 -91 -148 -159t-154 -113t-169 -67t-194 -22q-130 0 -235.5 37t-186.5 103.5t-140 159.5t-97 206.5t-56 243.5t-18 269q0 153 24 298t74 272t126.5 232.5t181 181t238.5 117.5t298 42q54 0 106 -2.5t103.5 -8t100.5 -13.5t98 -19v355h-442v271h442
v375h357v-375h287v-271h-287v-2426h-278zM1529 1749q-88 40 -190.5 62t-220.5 22q-142 0 -247 -56.5t-174.5 -163.5t-104 -262t-34.5 -352q0 -94 8 -186t27 -176t51 -155.5t79 -123.5t110.5 -81.5t147.5 -29.5q47 0 90.5 8t86.5 26t86 47t88.5 70.5t93.5 96.5t103 126v1128z
" />
    <glyph glyph-name="Emacron" unicode="&#x112;" horiz-adv-x="2011" 
d="M333 0v2859h1421v-300h-1051v-923h916v-296h-916v-1038h1067v-302h-1437zM474 3194v260h1146v-260h-1146z" />
    <glyph glyph-name="emacron" unicode="&#x113;" horiz-adv-x="2033" 
d="M1787 65q-76 -25 -159 -46t-172.5 -35.5t-184 -23t-194.5 -8.5q-230 0 -399 68t-280.5 204t-166 338t-54.5 472q0 252 58 455.5t171.5 347t280 221t384.5 77.5q135 0 245 -31t196 -89t148.5 -141t103 -187t60.5 -226.5t20 -260.5q0 -16 -1 -41t-2 -53.5t-2 -57.5t-1 -54
h-1287q0 -116 12.5 -217t40.5 -184.5t73 -148.5t109.5 -109.5t151 -67.5t198.5 -23q88 0 167 7t153 20t144.5 31t141.5 39zM1483 1251q4 141 -22 254.5t-81 193t-138 122.5t-192 43q-86 0 -155.5 -25t-124.5 -69t-95 -103t-67 -127t-41 -142t-16 -147h932zM521 2597v257
h1035v-257h-1035z" />
    <glyph glyph-name="Ebreve" unicode="&#x114;" horiz-adv-x="2011" 
d="M333 0v2859h1421v-300h-1051v-923h916v-296h-916v-1038h1067v-302h-1437zM1602 3645q0 -82 -15 -155.5t-44.5 -136.5t-75 -113.5t-107 -86.5t-139 -55.5t-172.5 -19.5q-96 0 -173.5 20.5t-138.5 57t-105 88.5t-72.5 115t-42.5 135t-14 151h249q0 -72 21.5 -131t61 -100.5
t95.5 -64t126 -22.5q63 0 117.5 18.5t95 57t63 99t22.5 143.5h248z" />
    <glyph glyph-name="ebreve" unicode="&#x115;" horiz-adv-x="2033" 
d="M1787 65q-76 -25 -159 -46t-172.5 -35.5t-184 -23t-194.5 -8.5q-230 0 -399 68t-280.5 204t-166 338t-54.5 472q0 252 58 455.5t171.5 347t280 221t384.5 77.5q135 0 245 -31t196 -89t148.5 -141t103 -187t60.5 -226.5t20 -260.5q0 -16 -1 -41t-2 -53.5t-2 -57.5t-1 -54
h-1287q0 -116 12.5 -217t40.5 -184.5t73 -148.5t109.5 -109.5t151 -67.5t198.5 -23q88 0 167 7t153 20t144.5 31t141.5 39zM1483 1251q4 141 -22 254.5t-81 193t-138 122.5t-192 43q-86 0 -155.5 -25t-124.5 -69t-95 -103t-67 -127t-41 -142t-16 -147h932zM1540 3036
q0 -82 -12.5 -156.5t-38 -142t-67 -123.5t-100.5 -97t-136.5 -63.5t-173.5 -22.5q-98 0 -176 23t-136 65t-98 98.5t-64.5 123.5t-35.5 140.5t-11 154.5h235q0 -74 18.5 -137.5t55 -112t92 -75.5t126.5 -27q68 0 121.5 23t90.5 68t56 110.5t19 150.5h235z" />
    <glyph glyph-name="Edotaccent" unicode="&#x116;" horiz-adv-x="2011" 
d="M333 0v2859h1421v-300h-1051v-923h916v-296h-916v-1038h1067v-302h-1437zM1291 3317q0 -51 -18.5 -94.5t-51 -75t-77.5 -49t-97 -17.5t-96.5 17.5t-77 49t-51 75t-18.5 94.5t18.5 94t51 74.5t77 49t96.5 17.5t97 -17.5t77.5 -49t51 -74.5t18.5 -94z" />
    <glyph glyph-name="edotaccent" unicode="&#x117;" horiz-adv-x="2033" 
d="M1787 65q-76 -25 -159 -46t-172.5 -35.5t-184 -23t-194.5 -8.5q-230 0 -399 68t-280.5 204t-166 338t-54.5 472q0 252 58 455.5t171.5 347t280 221t384.5 77.5q135 0 245 -31t196 -89t148.5 -141t103 -187t60.5 -226.5t20 -260.5q0 -16 -1 -41t-2 -53.5t-2 -57.5t-1 -54
h-1287q0 -116 12.5 -217t40.5 -184.5t73 -148.5t109.5 -109.5t151 -67.5t198.5 -23q88 0 167 7t153 20t144.5 31t141.5 39zM1483 1251q4 141 -22 254.5t-81 193t-138 122.5t-192 43q-86 0 -155.5 -25t-124.5 -69t-95 -103t-67 -127t-41 -142t-16 -147h932zM1036 2502
q-52 0 -96.5 18t-76.5 50.5t-50.5 77t-18.5 97.5t18.5 97.5t50.5 77t76.5 50.5t96.5 18t96.5 -18t76.5 -50.5t50 -77t18 -97.5t-18 -97.5t-50 -77t-76.5 -50.5t-96.5 -18z" />
    <glyph glyph-name="Eogonek" unicode="&#x118;" horiz-adv-x="2011" 
d="M1917 -773q-33 -12 -72 -23t-81.5 -19t-87.5 -13t-90 -5q-120 0 -205 24t-138 68.5t-77.5 107.5t-24.5 141q0 64 19 128.5t55 127.5t89 122.5t121 113.5h-1092v2859h1421v-300h-1051v-923h916v-296h-916v-1038h1067v-302q-81 -58 -136 -115t-89.5 -110.5t-49 -102.5
t-14.5 -90q0 -43 9.5 -75.5t31.5 -54t57 -32t86 -10.5q47 0 101 10t107 31z" />
    <glyph glyph-name="eogonek" unicode="&#x119;" horiz-adv-x="2033" 
d="M1796 -772q-33 -12 -70 -23t-77 -18.5t-82.5 -12.5t-85.5 -5q-115 0 -195.5 24.5t-130.5 69t-73 107t-23 138.5q0 58 18 119.5t51.5 121.5t80.5 117t105 107q-28 -6 -56.5 -9.5t-58 -6t-60.5 -4t-62 -1.5q-230 0 -399 68t-280.5 204t-166 338t-54.5 472q0 252 58 455.5
t171.5 347t280 221t384.5 77.5q135 0 245 -31t196 -89t148.5 -141t103 -187t60.5 -226.5t20 -260.5q0 -16 -1 -41t-2 -53.5t-2 -57.5t-1 -54h-1287q0 -116 12.5 -217t40.5 -184.5t73 -148.5t109.5 -109.5t151 -67.5t198.5 -23q88 0 167 7t153 20t144.5 31t141.5 39l45 -276
q-71 -28 -128 -66.5t-101 -81.5t-76 -89.5t-53.5 -90.5t-31 -83.5t-9.5 -71.5q0 -43 9.5 -75.5t30 -54.5t53 -32.5t78.5 -10.5q22 0 45.5 2.5t48 7t49.5 12t50 18.5zM1483 1251q4 141 -22 254.5t-81 193t-138 122.5t-192 43q-86 0 -155.5 -25t-124.5 -69t-95 -103t-67 -127
t-41 -142t-16 -147h932z" />
    <glyph glyph-name="Ecaron" unicode="&#x11a;" horiz-adv-x="2011" 
d="M333 0v2859h1421v-300h-1051v-923h916v-296h-916v-1038h1067v-302h-1437zM1046 3065l-538 381l120 195l423 -261l419 261l113 -188z" />
    <glyph glyph-name="ecaron" unicode="&#x11b;" horiz-adv-x="2033" 
d="M1787 65q-76 -25 -159 -46t-172.5 -35.5t-184 -23t-194.5 -8.5q-230 0 -399 68t-280.5 204t-166 338t-54.5 472q0 252 58 455.5t171.5 347t280 221t384.5 77.5q135 0 245 -31t196 -89t148.5 -141t103 -187t60.5 -226.5t20 -260.5q0 -16 -1 -41t-2 -53.5t-2 -57.5t-1 -54
h-1287q0 -116 12.5 -217t40.5 -184.5t73 -148.5t109.5 -109.5t151 -67.5t198.5 -23q88 0 167 7t153 20t144.5 31t141.5 39zM1483 1251q4 141 -22 254.5t-81 193t-138 122.5t-192 43q-86 0 -155.5 -25t-124.5 -69t-95 -103t-67 -127t-41 -142t-16 -147h932zM501 2950l152 179
l390 -359l383 359l144 -174l-535 -555z" />
    <glyph glyph-name="Gcircumflex" unicode="&#x11c;" horiz-adv-x="2528" 
d="M1857 1494h371v-1387q-87 -35 -182.5 -63t-196 -47t-206 -29.5t-209.5 -10.5q-204 0 -375 46t-309 133t-242.5 213t-174.5 286.5t-105.5 352.5t-35.5 411q0 228 38.5 427.5t113.5 365.5t184 297t250 221.5t311.5 138.5t368.5 48q110 0 215.5 -16t206 -45.5t195 -72
t180.5 -94.5l-128 -289q-78 48 -161 86t-169 64.5t-174 40.5t-175 14q-146 0 -266.5 -39.5t-216.5 -112.5t-167.5 -177t-119.5 -232.5t-71.5 -279t-23.5 -316.5q0 -277 59 -492t170.5 -362t273 -223.5t364.5 -76.5q103 0 203.5 16t203.5 47v1157zM1386 3346l-419 -260
l-113 190l537 389l538 -383l-120 -196z" />
    <glyph glyph-name="gcircumflex" unicode="&#x11d;" horiz-adv-x="2181" 
d="M1529 299q-71 -83 -142 -143.5t-146.5 -99t-157 -57t-173.5 -18.5q-130 0 -235 36t-186 102t-139.5 158t-96.5 204t-56 240t-18 266q0 153 24.5 297t76.5 269.5t131 229.5t186.5 178t246 115t307.5 41q89 0 185 -8.5t191.5 -24t187 -37.5t171.5 -50v-1951
q0 -164 -22 -297.5t-68.5 -238t-119 -180.5t-173.5 -126t-232.5 -74t-295.5 -24q-57 0 -123 3t-136 8.5t-142.5 15t-142.5 23.5l12 266q61 -5 125.5 -8.5t129.5 -6t130 -4t127 -1.5q105 0 188 12t147 40.5t109 75t74 116t42.5 163.5t13.5 217v273zM1529 1752q-44 19 -92 34
t-99 25.5t-105.5 16t-112.5 5.5q-141 0 -246.5 -56t-175.5 -161.5t-105 -257.5t-35 -344q0 -92 8 -183t26.5 -173t50.5 -152t79 -121.5t112 -80.5t150 -29q70 0 134.5 18.5t129.5 61t133.5 113t147.5 174.5v1110zM1083 2755l-383 -357l-142 173l532 551l534 -547l-153 -177z
" />
    <glyph glyph-name="Gbreve" unicode="&#x11e;" horiz-adv-x="2528" 
d="M1857 1494h371v-1387q-87 -35 -182.5 -63t-196 -47t-206 -29.5t-209.5 -10.5q-204 0 -375 46t-309 133t-242.5 213t-174.5 286.5t-105.5 352.5t-35.5 411q0 228 38.5 427.5t113.5 365.5t184 297t250 221.5t311.5 138.5t368.5 48q110 0 215.5 -16t206 -45.5t195 -72
t180.5 -94.5l-128 -289q-78 48 -161 86t-169 64.5t-174 40.5t-175 14q-146 0 -266.5 -39.5t-216.5 -112.5t-167.5 -177t-119.5 -232.5t-71.5 -279t-23.5 -316.5q0 -277 59 -492t170.5 -362t273 -223.5t364.5 -76.5q103 0 203.5 16t203.5 47v1157zM1904 3670
q0 -82 -15 -155.5t-44.5 -136.5t-75 -113.5t-107 -86.5t-139 -55.5t-172.5 -19.5q-96 0 -173.5 20.5t-138.5 57t-105 88.5t-72.5 115t-42.5 135t-14 151h249q0 -72 21.5 -131t61 -100.5t95.5 -64t126 -22.5q63 0 117.5 18.5t95 57t63 99t22.5 143.5h248z" />
    <glyph glyph-name="gbreve" unicode="&#x11f;" horiz-adv-x="2181" 
d="M1529 299q-71 -83 -142 -143.5t-146.5 -99t-157 -57t-173.5 -18.5q-130 0 -235 36t-186 102t-139.5 158t-96.5 204t-56 240t-18 266q0 153 24.5 297t76.5 269.5t131 229.5t186.5 178t246 115t307.5 41q89 0 185 -8.5t191.5 -24t187 -37.5t171.5 -50v-1951
q0 -164 -22 -297.5t-68.5 -238t-119 -180.5t-173.5 -126t-232.5 -74t-295.5 -24q-57 0 -123 3t-136 8.5t-142.5 15t-142.5 23.5l12 266q61 -5 125.5 -8.5t129.5 -6t130 -4t127 -1.5q105 0 188 12t147 40.5t109 75t74 116t42.5 163.5t13.5 217v273zM1529 1752q-44 19 -92 34
t-99 25.5t-105.5 16t-112.5 5.5q-141 0 -246.5 -56t-175.5 -161.5t-105 -257.5t-35 -344q0 -92 8 -183t26.5 -173t50.5 -152t79 -121.5t112 -80.5t150 -29q70 0 134.5 18.5t129.5 61t133.5 113t147.5 174.5v1110zM1614 3036q0 -82 -12.5 -156.5t-38 -142t-67 -123.5
t-100.5 -97t-136.5 -63.5t-173.5 -22.5q-98 0 -176 23t-136 65t-98 98.5t-64.5 123.5t-35.5 140.5t-11 154.5h235q0 -74 18.5 -137.5t55 -112t92 -75.5t126.5 -27q68 0 121.5 23t90.5 68t56 110.5t19 150.5h235z" />
    <glyph glyph-name="Gdotaccent" unicode="&#x120;" horiz-adv-x="2528" 
d="M1857 1494h371v-1387q-87 -35 -182.5 -63t-196 -47t-206 -29.5t-209.5 -10.5q-204 0 -375 46t-309 133t-242.5 213t-174.5 286.5t-105.5 352.5t-35.5 411q0 228 38.5 427.5t113.5 365.5t184 297t250 221.5t311.5 138.5t368.5 48q110 0 215.5 -16t206 -45.5t195 -72
t180.5 -94.5l-128 -289q-78 48 -161 86t-169 64.5t-174 40.5t-175 14q-146 0 -266.5 -39.5t-216.5 -112.5t-167.5 -177t-119.5 -232.5t-71.5 -279t-23.5 -316.5q0 -277 59 -492t170.5 -362t273 -223.5t364.5 -76.5q103 0 203.5 16t203.5 47v1157zM1626 3317
q0 -51 -18.5 -94.5t-51 -75t-77.5 -49t-97 -17.5t-96.5 17.5t-77 49t-51 75t-18.5 94.5t18.5 94t51 74.5t77 49t96.5 17.5t97 -17.5t77.5 -49t51 -74.5t18.5 -94z" />
    <glyph glyph-name="gdotaccent" unicode="&#x121;" horiz-adv-x="2181" 
d="M1529 299q-71 -83 -142 -143.5t-146.5 -99t-157 -57t-173.5 -18.5q-130 0 -235 36t-186 102t-139.5 158t-96.5 204t-56 240t-18 266q0 153 24.5 297t76.5 269.5t131 229.5t186.5 178t246 115t307.5 41q89 0 185 -8.5t191.5 -24t187 -37.5t171.5 -50v-1951
q0 -164 -22 -297.5t-68.5 -238t-119 -180.5t-173.5 -126t-232.5 -74t-295.5 -24q-57 0 -123 3t-136 8.5t-142.5 15t-142.5 23.5l12 266q61 -5 125.5 -8.5t129.5 -6t130 -4t127 -1.5q105 0 188 12t147 40.5t109 75t74 116t42.5 163.5t13.5 217v273zM1529 1752q-44 19 -92 34
t-99 25.5t-105.5 16t-112.5 5.5q-141 0 -246.5 -56t-175.5 -161.5t-105 -257.5t-35 -344q0 -92 8 -183t26.5 -173t50.5 -152t79 -121.5t112 -80.5t150 -29q70 0 134.5 18.5t129.5 61t133.5 113t147.5 174.5v1110zM1089 2508q-52 0 -96.5 18t-76.5 50.5t-50.5 77t-18.5 97.5
t18.5 97.5t50.5 77t76.5 50.5t96.5 18t96.5 -18t76.5 -50.5t50 -77t18 -97.5t-18 -97.5t-50 -77t-76.5 -50.5t-96.5 -18z" />
    <glyph glyph-name="Gcommaaccent" unicode="&#x122;" horiz-adv-x="2528" 
d="M1857 1494h371v-1387q-87 -35 -182.5 -63t-196 -47t-206 -29.5t-209.5 -10.5q-204 0 -375 46t-309 133t-242.5 213t-174.5 286.5t-105.5 352.5t-35.5 411q0 228 38.5 427.5t113.5 365.5t184 297t250 221.5t311.5 138.5t368.5 48q110 0 215.5 -16t206 -45.5t195 -72
t180.5 -94.5l-128 -289q-78 48 -161 86t-169 64.5t-174 40.5t-175 14q-146 0 -266.5 -39.5t-216.5 -112.5t-167.5 -177t-119.5 -232.5t-71.5 -279t-23.5 -316.5q0 -277 59 -492t170.5 -362t273 -223.5t364.5 -76.5q103 0 203.5 16t203.5 47v1157zM763 -665q102 0 170 12
t112 33t69 48.5t42 59t30 63t32 61.5q15 23 32.5 40.5t38.5 29.5t45 18.5t51 6.5q41 0 76 -14.5t61 -40t40.5 -60.5t14.5 -76q0 -56 -24.5 -106.5t-69 -93t-106.5 -76t-137 -57t-160.5 -36t-175.5 -12.5q-20 0 -38.5 0.5t-36 1.5t-34 2t-31.5 2z" />
    <glyph glyph-name="gcommaaccent" unicode="&#x123;" horiz-adv-x="2181" 
d="M1529 299q-71 -83 -142 -143.5t-146.5 -99t-157 -57t-173.5 -18.5q-130 0 -235 36t-186 102t-139.5 158t-96.5 204t-56 240t-18 266q0 153 24.5 297t76.5 269.5t131 229.5t186.5 178t246 115t307.5 41q89 0 185 -8.5t191.5 -24t187 -37.5t171.5 -50v-1951
q0 -164 -22 -297.5t-68.5 -238t-119 -180.5t-173.5 -126t-232.5 -74t-295.5 -24q-57 0 -123 3t-136 8.5t-142.5 15t-142.5 23.5l12 266q61 -5 125.5 -8.5t129.5 -6t130 -4t127 -1.5q105 0 188 12t147 40.5t109 75t74 116t42.5 163.5t13.5 217v273zM1529 1752q-44 19 -92 34
t-99 25.5t-105.5 16t-112.5 5.5q-141 0 -246.5 -56t-175.5 -161.5t-105 -257.5t-35 -344q0 -92 8 -183t26.5 -173t50.5 -152t79 -121.5t112 -80.5t150 -29q70 0 134.5 18.5t129.5 61t133.5 113t147.5 174.5v1110zM1688 2793q-77 0 -134.5 -7.5t-99.5 -20.5t-71 -31
t-49 -38.5t-33 -43.5t-23.5 -46.5t-20.5 -46.5t-24 -43q-15 -24 -33 -42t-38.5 -30t-44.5 -18t-50 -6q-41 0 -76 14.5t-60.5 40t-40.5 60.5t-15 76q0 56 24 106t68 92.5t105.5 76.5t136 58t160.5 36.5t179 12.5q19 0 38 -0.5t36.5 -1.5t34.5 -2t31 -2v-194z" />
    <glyph glyph-name="Hcircumflex" unicode="&#x124;" horiz-adv-x="2553" 
d="M1850 0v1330h-1146v-1330h-371v2859h371v-1210h1146v1210h371v-2859h-371zM1272 3337l-419 -260l-113 190l537 389l538 -383l-120 -196z" />
    <glyph glyph-name="hcircumflex" unicode="&#x125;" horiz-adv-x="2202" 
d="M1560 0v1266q0 85 -7.5 160.5t-25 138.5t-45.5 113.5t-68 85.5t-94 53.5t-122 18.5q-80 0 -147 -21.5t-131 -66.5t-128.5 -113t-139.5 -161v-1474h-357v3072h357v-1267q67 80 135 141.5t143.5 103.5t160 63.5t183.5 21.5q118 0 211.5 -28.5t164.5 -81t122 -125.5t83 -162
t47 -191t15 -211v-1336h-357zM1095 3501l-419 -260l-113 190l537 389l538 -383l-120 -196z" />
    <glyph glyph-name="Hbar" unicode="&#x126;" horiz-adv-x="2635" 
d="M1890 0v1298h-1145v-1298h-371v2120h-333v297h333v442h371v-442h1145v442h372v-442h332v-297h-332v-2120h-372zM1890 2120h-1145v-523h1145v523z" />
    <glyph glyph-name="hbar" unicode="&#x127;" horiz-adv-x="2207" 
d="M1565 0v1264q0 85 -8 160.5t-25 139t-45 113.5t-68 85t-94 54t-122 19q-80 0 -147.5 -22t-131 -66.5t-128 -113t-139.5 -160.5v-1473h-357v2455h-309v270h309v355h357v-355h553v-270h-553v-654q67 80 135 141.5t143.5 103.5t160 63.5t183.5 21.5q118 0 211.5 -28.5
t164.5 -81t121.5 -125.5t83 -162t47.5 -191t15 -211v-1332h-357z" />
    <glyph glyph-name="Itilde" unicode="&#x128;" horiz-adv-x="1038" 
d="M333 0v2859h371v-2859h-371zM1178 3461q-28 -74 -71.5 -133.5t-98.5 -101t-118.5 -63.5t-133.5 -22q-60 0 -109.5 12t-87 30t-85 49t-71 45t-57.5 25.5t-74 11.5q-33 0 -64.5 -12.5t-60.5 -38t-54.5 -61t-47.5 -80.5l-182 132q30 74 73.5 133.5t98 101t118.5 63.5t133 22
q61 0 109.5 -12t85.5 -30.5t85 -49.5t71.5 -44.5t57 -25.5t73.5 -12q33 0 65 13t61 37.5t55 60t47 80.5z" />
    <glyph glyph-name="itilde" unicode="&#x129;" horiz-adv-x="1037" 
d="M385 0v1809h-310v278h667v-2087h-357zM1161 2859q-29 -76 -70.5 -137t-94.5 -104t-114.5 -65.5t-129.5 -22.5q-59 0 -107.5 12t-85 31t-84 50.5t-70 45.5t-56 25.5t-72.5 11.5q-32 0 -63.5 -13t-60.5 -38t-54.5 -61.5t-46.5 -82.5l-171 136q30 76 72 137t94 103.5
t113.5 65t129.5 22.5q59 0 107 -12t85 -30.5t84 -50t69.5 -45.5t56 -26t71.5 -12q33 0 64.5 13t61 38.5t55 61t46.5 81.5z" />
    <glyph glyph-name="Imacron" unicode="&#x12a;" horiz-adv-x="1038" 
d="M333 0v2859h371v-2859h-371zM-53 3194v260h1146v-260h-1146z" />
    <glyph glyph-name="imacron" unicode="&#x12b;" horiz-adv-x="1037" 
d="M385 0v1809h-310v278h667v-2087h-357zM-5 2597v257h1035v-257h-1035z" />
    <glyph glyph-name="Ibreve" unicode="&#x12c;" horiz-adv-x="1038" 
d="M333 0v2859h371v-2859h-371zM1069 3645q0 -82 -15 -155.5t-44.5 -136.5t-75 -113.5t-107 -86.5t-139 -55.5t-172.5 -19.5q-96 0 -173.5 20.5t-138.5 57t-105 88.5t-72.5 115t-42.5 135t-14 151h249q0 -72 21.5 -131t61 -100.5t95.5 -64t126 -22.5q63 0 117.5 18.5t95 57
t63 99t22.5 143.5h248z" />
    <glyph glyph-name="ibreve" unicode="&#x12d;" horiz-adv-x="1037" 
d="M385 0v1809h-310v278h667v-2087h-357zM1043 3036q0 -82 -12.5 -156.5t-38 -142t-67 -123.5t-100.5 -97t-136.5 -63.5t-173.5 -22.5q-98 0 -176 23t-136 65t-98 98.5t-64.5 123.5t-35.5 140.5t-11 154.5h235q0 -74 18.5 -137.5t55 -112t92 -75.5t126.5 -27q68 0 121.5 23
t90.5 68t56 110.5t19 150.5h235z" />
    <glyph glyph-name="Iogonek" unicode="&#x12e;" horiz-adv-x="1038" 
d="M868 -773q-33 -12 -72 -23t-82 -19t-88 -13t-89 -5q-121 0 -205.5 24t-138 68.5t-77.5 107.5t-24 141q0 64 18 128t52 127t83.5 123t111.5 114h-24v2859h371v-2859q-75 -58 -127 -115t-84.5 -110.5t-47 -102.5t-14.5 -90q0 -43 10 -75.5t31.5 -54t56.5 -32t87 -10.5
q46 0 100.5 10t107.5 31z" />
    <glyph glyph-name="iogonek" unicode="&#x12f;" horiz-adv-x="1037" 
d="M546 2500q-53 0 -97 18.5t-76 50.5t-50 77t-18 98t18 97.5t50 76.5t76 50.5t97 18.5t97 -18.5t76 -50.5t50 -76.5t18 -97.5t-18 -98t-50 -77t-76 -50.5t-97 -18.5zM903 -772q-33 -12 -70 -23t-77 -18.5t-82.5 -12.5t-86.5 -5q-115 0 -195 24.5t-130 69t-73.5 107
t-23.5 138.5q0 61 20 124.5t57 127t90.5 124.5t120.5 116h-68v1809h-310v278h667v-2087q-63 -58 -109.5 -115t-77.5 -110.5t-46 -102.5t-15 -90q0 -43 9.5 -75.5t30.5 -54.5t53 -32.5t78 -10.5q23 0 46.5 2.5t47.5 7t49 12t51 18.5z" />
    <glyph glyph-name="Idotaccent" unicode="&#x130;" horiz-adv-x="1038" 
d="M333 0v2859h371v-2859h-371zM763 3317q0 -51 -18.5 -94.5t-51 -75t-77.5 -49t-97 -17.5t-96.5 17.5t-77 49t-51 75t-18.5 94.5t18.5 94t51 74.5t77 49t96.5 17.5t97 -17.5t77.5 -49t51 -74.5t18.5 -94z" />
    <glyph glyph-name="dotlessi" unicode="&#x131;" horiz-adv-x="1037" 
d="M385 0v1809h-310v278h667v-2087h-357z" />
    <glyph glyph-name="IJ" unicode="&#x132;" horiz-adv-x="2297" 
d="M333 0v2859h371v-2859h-371zM1113 283h186q56 0 99 10.5t76.5 34.5t56.5 63t37.5 95t21.5 131t7 171v2071h371v-2043q0 -129 -10.5 -242.5t-36 -208t-68.5 -168.5t-108 -125.5t-154 -78.5t-207 -27q-30 0 -65 1.5t-71 5t-71 8.5t-64 13v289z" />
    <glyph glyph-name="ij" unicode="&#x133;" horiz-adv-x="1979" 
d="M546 2500q-53 0 -97 18.5t-76 50.5t-50 77t-18 98t18 97.5t50 76.5t76 50.5t97 18.5t97 -18.5t76 -50.5t50 -76.5t18 -97.5t-18 -98t-50 -77t-76 -50.5t-97 -18.5zM385 0v1809h-310v278h667v-2087h-357zM1505 2500q-52 0 -96.5 18.5t-76.5 50.5t-50 77t-18 98t18 97.5
t50 76.5t76.5 50.5t96.5 18.5q53 0 97 -18.5t76.5 -50.5t50.5 -76.5t18 -97.5t-18 -98t-50.5 -77t-76.5 -50.5t-97 -18.5zM897 -590h175q65 0 112.5 25.5t79 81.5t47.5 144.5t16 214.5v2211h357v-2170q0 -162 -18.5 -284.5t-52 -212.5t-83 -150t-111 -95.5t-135.5 -50.5
t-156 -15q-31 0 -63 2t-63.5 6t-61 10t-54.5 13z" />
    <glyph glyph-name="Jcircumflex" unicode="&#x134;" horiz-adv-x="1260" 
d="M75 283h186q56 0 99 10.5t76.5 34.5t56.5 63t37.5 95t21.5 131t7 171v2071h371v-2043q0 -129 -10.5 -242.5t-36 -208t-68.5 -168.5t-108 -125.5t-154 -78.5t-207 -27q-30 0 -65 1.5t-71 5t-71 8.5t-64 13v289zM737 3337l-419 -260l-113 190l537 389l538 -383l-120 -196z
" />
    <glyph glyph-name="jcircumflex" unicode="&#x135;" horiz-adv-x="989" 
d="M-93 -590h175q65 0 112.5 25.5t79 81.5t47.5 144.5t16 214.5v2211h357v-2170q0 -162 -18.5 -284.5t-52 -212.5t-83 -150t-111 -95.5t-135.5 -50.5t-156 -15q-31 0 -63 2t-63.5 6t-61 10t-54.5 13zM513 2755l-383 -357l-142 173l532 551l534 -547l-153 -177z" />
    <glyph glyph-name="Kcommaaccent" unicode="&#x136;" horiz-adv-x="2256" 
d="M1735 0l-855 1424l-176 -199v-1225h-371v2859h371v-1213q125 149 250.5 300.5t250.5 303.5t249 304.5t247 304.5h465l-1026 -1165l1040 -1694h-445zM528 -665q102 0 170 12t112 33t69 48.5t42 59t30 63t32 61.5q15 23 32.5 40.5t38.5 29.5t45 18.5t51 6.5q41 0 76 -14.5
t61 -40t40.5 -60.5t14.5 -76q0 -56 -24.5 -106.5t-69 -93t-106.5 -76t-137 -57t-160.5 -36t-175.5 -12.5q-20 0 -38.5 0.5t-36 1.5t-34 2t-31.5 2z" />
    <glyph glyph-name="kcommaaccent" unicode="&#x137;" horiz-adv-x="1966" 
d="M1473 0l-671 1067l-150 -154v-913h-357v3072h357v-1792q179 197 360.5 400t357.5 407h449l-755 -769l844 -1318h-435zM392 -665q102 0 170 12t112 33t69 48.5t42 59t30 63t32 61.5q15 23 32.5 40.5t38.5 29.5t45 18.5t51 6.5q41 0 76 -14.5t61 -40t40.5 -60.5t14.5 -76
q0 -56 -24.5 -106.5t-69 -93t-106.5 -76t-137 -57t-160.5 -36t-175.5 -12.5q-20 0 -38.5 0.5t-36 1.5t-34 2t-31.5 2z" />
    <glyph glyph-name="kgreenlandic" unicode="&#x138;" horiz-adv-x="1949" 
d="M1457 0l-655 1036l-150 -156v-880h-357v2087h357v-836q92 101 184.5 205t185.5 209.5t185 211.5t181 210h453l-777 -800l827 -1287h-434z" />
    <glyph glyph-name="Lacute" unicode="&#x139;" horiz-adv-x="1714" 
d="M333 0v2859h371v-2550h958v-309h-1329zM665 3077l-119 198l656 395l159 -274z" />
    <glyph glyph-name="lacute" unicode="&#x13a;" horiz-adv-x="1028" 
d="M950 -2q-21 -5 -48 -10.5t-58 -9t-64.5 -6t-68.5 -2.5q-90 0 -166 22t-131.5 72.5t-87 134t-31.5 206.5v2667h357v-2580q0 -53 7.5 -94.5t25.5 -71.5t47.5 -45.5t73.5 -15.5h144v-267zM357 3266l-119 198l656 395l159 -274z" />
    <glyph glyph-name="Lcommaaccent" unicode="&#x13b;" horiz-adv-x="1714" 
d="M333 0v2859h371v-2550h958v-309h-1329zM390 -665q102 0 170 12t112 33t69 48.5t42 59t30 63t32 61.5q15 23 32.5 40.5t38.5 29.5t45 18.5t51 6.5q41 0 76 -14.5t61 -40t40.5 -60.5t14.5 -76q0 -56 -24.5 -106.5t-69 -93t-106.5 -76t-137 -57t-160.5 -36t-175.5 -12.5
q-20 0 -38.5 0.5t-36 1.5t-34 2t-31.5 2z" />
    <glyph glyph-name="lcommaaccent" unicode="&#x13c;" horiz-adv-x="1028" 
d="M950 -2q-21 -5 -48 -10.5t-58 -9t-64.5 -6t-68.5 -2.5q-90 0 -166 22t-131.5 72.5t-87 134t-31.5 206.5v2667h357v-2580q0 -53 7.5 -94.5t25.5 -71.5t47.5 -45.5t73.5 -15.5h144v-267zM45 -665q102 0 170 12t112 33t69 48.5t42 59t30 63t32 61.5q15 23 32.5 40.5
t38.5 29.5t45 18.5t51 6.5q41 0 76 -14.5t61 -40t40.5 -60.5t14.5 -76q0 -56 -24.5 -106.5t-69 -93t-106.5 -76t-137 -57t-160.5 -36t-175.5 -12.5q-20 0 -38.5 0.5t-36 1.5t-34 2t-31.5 2z" />
    <glyph glyph-name="Lcaron" unicode="&#x13d;" horiz-adv-x="1754" 
d="M333 0v2859h371v-2550h958v-309h-1329zM1139 2348l203 794l316 -64l-275 -772z" />
    <glyph glyph-name="lcaron" unicode="&#x13e;" horiz-adv-x="1207" 
d="M950 -2q-21 -5 -48 -10.5t-58 -9t-64.5 -6t-68.5 -2.5q-90 0 -166 22t-131.5 72.5t-87 134t-31.5 206.5v2667h357v-2580q0 -53 7.5 -94.5t25.5 -71.5t47.5 -45.5t73.5 -15.5h144v-267zM828 2348l203 794l316 -64l-275 -772z" />
    <glyph glyph-name="Ldot" unicode="&#x13f;" 
d="M333 0v2859h371v-2550h958v-309h-1329zM1640 1171q-55 0 -102 20.5t-81.5 56t-54 83.5t-19.5 104t19.5 104.5t54 84.5t82 56.5t102.5 20.5t102 -20.5t81.5 -56.5t54 -84.5t19.5 -103.5q0 -56 -19.5 -104.5t-54 -84t-82 -56t-102.5 -20.5z" />
    <glyph glyph-name="ldot" unicode="&#x140;" horiz-adv-x="1882" 
d="M950 -2q-21 -5 -48 -10.5t-58 -9t-64.5 -6t-68.5 -2.5q-90 0 -166 22t-131.5 72.5t-87 134t-31.5 206.5v2667h357v-2580q0 -53 7.5 -94.5t25.5 -71.5t47.5 -45.5t73.5 -15.5h144v-267zM1371 1007q-55 0 -102 20.5t-81.5 56t-54 83.5t-19.5 104t19.5 104.5t54 84.5
t82 56.5t102.5 20.5t102 -20.5t81.5 -56.5t54 -84.5t19.5 -103.5q0 -56 -19.5 -104.5t-54 -84t-82 -56t-102.5 -20.5z" />
    <glyph glyph-name="Lslash" unicode="&#x141;" horiz-adv-x="1752" 
d="M371 0v1492l-257 -174l-86 253l343 227v1061h372v-834l446 297l86 -252l-532 -352v-1409h957v-309h-1329z" />
    <glyph glyph-name="lslash" unicode="&#x142;" horiz-adv-x="1088" 
d="M987 -2q-21 -5 -48 -10.5t-57.5 -9t-64.5 -6t-69 -2.5q-89 0 -165.5 22t-131.5 72.5t-86.5 134t-31.5 206.5v1306l-215 -144l-82 249l297 196v1060h357v-843l224 152l82 -248l-306 -204v-1437q0 -53 7.5 -94.5t25.5 -71.5t47.5 -45.5t73.5 -15.5h143v-267z" />
    <glyph glyph-name="Nacute" unicode="&#x143;" horiz-adv-x="2636" 
d="M1812 0l-1134 2369h-6v-2369h-339v2859h520l1105 -2306h6v2306h339v-2859h-491zM1239 3077l-119 198l656 395l159 -274z" />
    <glyph glyph-name="nacute" unicode="&#x144;" horiz-adv-x="2202" 
d="M1560 0v1266q0 127 -18 232.5t-60.5 180.5t-111.5 116t-172 41q-80 0 -147 -21.5t-131 -66.5t-128.5 -113t-139.5 -161v-1474h-357v2087h277l40 -304q76 89 149.5 155.5t152 110t165.5 65t188 21.5q120 0 215 -28.5t167 -81t123 -125.5t83 -162t47 -191t15 -211v-1336
h-357zM964 2533l423 577l277 -183l-505 -533z" />
    <glyph glyph-name="Ncommaaccent" unicode="&#x145;" horiz-adv-x="2636" 
d="M1812 0l-1134 2369h-6v-2369h-339v2859h520l1105 -2306h6v2306h339v-2859h-491zM709 -665q102 0 170 12t112 33t69 48.5t42 59t30 63t32 61.5q15 23 32.5 40.5t38.5 29.5t45 18.5t51 6.5q41 0 76 -14.5t61 -40t40.5 -60.5t14.5 -76q0 -56 -24.5 -106.5t-69 -93
t-106.5 -76t-137 -57t-160.5 -36t-175.5 -12.5q-20 0 -38.5 0.5t-36 1.5t-34 2t-31.5 2z" />
    <glyph glyph-name="ncommaaccent" unicode="&#x146;" horiz-adv-x="2202" 
d="M1560 0v1266q0 127 -18 232.5t-60.5 180.5t-111.5 116t-172 41q-80 0 -147 -21.5t-131 -66.5t-128.5 -113t-139.5 -161v-1474h-357v2087h277l40 -304q76 89 149.5 155.5t152 110t165.5 65t188 21.5q120 0 215 -28.5t167 -81t123 -125.5t83 -162t47 -191t15 -211v-1336
h-357zM466 -665q102 0 170 12t112 33t69 48.5t42 59t30 63t32 61.5q15 23 32.5 40.5t38.5 29.5t45 18.5t51 6.5q41 0 76 -14.5t61 -40t40.5 -60.5t14.5 -76q0 -56 -24.5 -106.5t-69 -93t-106.5 -76t-137 -57t-160.5 -36t-175.5 -12.5q-20 0 -38.5 0.5t-36 1.5t-34 2t-31.5 2
z" />
    <glyph glyph-name="Ncaron" unicode="&#x147;" horiz-adv-x="2636" 
d="M1812 0l-1134 2369h-6v-2369h-339v2859h520l1105 -2306h6v2306h339v-2859h-491zM1327 3065l-538 381l120 195l423 -261l419 261l113 -188z" />
    <glyph glyph-name="ncaron" unicode="&#x148;" horiz-adv-x="2202" 
d="M1560 0v1266q0 127 -18 232.5t-60.5 180.5t-111.5 116t-172 41q-80 0 -147 -21.5t-131 -66.5t-128.5 -113t-139.5 -161v-1474h-357v2087h277l40 -304q76 89 149.5 155.5t152 110t165.5 65t188 21.5q120 0 215 -28.5t167 -81t123 -125.5t83 -162t47 -191t15 -211v-1336
h-357zM582 2950l152 179l390 -359l383 359l144 -174l-535 -555z" />
    <glyph glyph-name="napostrophe" unicode="&#x149;" horiz-adv-x="2433" 
d="M0 2312q59 74 96.5 133.5t59.5 106t30.5 82t8.5 63.5q0 23 -5 41.5t-13 35.5t-16.5 33t-16.5 34t-13 38t-5 46q0 43 13 80.5t38.5 65.5t62.5 44t84 16q40 0 76 -16t63 -47t42.5 -76.5t15.5 -103.5q0 -62 -20 -137t-65.5 -161.5t-118.5 -184.5t-180 -205zM1791 0v1266
q0 127 -18 232.5t-60.5 180.5t-111.5 116t-172 41q-80 0 -147 -21.5t-131 -66.5t-128.5 -113t-139.5 -161v-1474h-357v2087h277l40 -304q76 89 149.5 155.5t152 110t165.5 65t188 21.5q120 0 215 -28.5t167 -81t123 -125.5t83 -162t47 -191t15 -211v-1336h-357z" />
    <glyph glyph-name="Eng" unicode="&#x14a;" horiz-adv-x="2636" 
d="M1451 -589h187q56 0 99 10.5t75.5 33.5t55 60.5t36.5 92.5t20.5 128.5t6.5 168.5v95h-119l-1134 2369h-6v-2369h-339v2859h520l1105 -2306h6v2306h339v-2914q0 -130 -11 -243t-38 -206.5t-70.5 -166t-108.5 -122t-153.5 -76t-203.5 -26.5q-31 0 -66 2t-70 5t-68.5 8
t-62.5 12v279z" />
    <glyph glyph-name="eng" unicode="&#x14b;" horiz-adv-x="2202" 
d="M1131 -590h174q65 0 112.5 25.5t79.5 81.5t47.5 144.5t15.5 214.5v1390q0 127 -18 232.5t-60.5 180.5t-111.5 116t-172 41q-80 0 -147 -21.5t-131 -66.5t-128.5 -113t-139.5 -161v-1474h-357v2087h277l40 -304q76 89 149.5 155.5t152 110t165.5 65t188 21.5
q120 0 215 -28.5t167 -81t123 -125.5t83 -162t47 -191t15 -211v-1419q0 -162 -18 -284.5t-52 -212.5t-83 -150t-111 -95.5t-135.5 -50.5t-156.5 -15q-31 0 -63 2t-63 6t-60.5 10t-55.5 13z" />
    <glyph glyph-name="Omacron" unicode="&#x14c;" horiz-adv-x="2810" 
d="M1389 -48q-199 0 -364.5 46.5t-297.5 134.5t-231 215t-164.5 289t-98.5 357t-33 417t35 419t104.5 363t172.5 298.5t238 224.5t303 141.5t366 49.5q196 0 360.5 -47.5t297 -136.5t232.5 -216.5t167 -289t101 -354t34 -410.5q0 -225 -35 -423.5t-103.5 -365.5t-171 -299
t-238.5 -223.5t-304.5 -140.5t-369.5 -49zM1421 261q146 0 261.5 43t203.5 120.5t150.5 184t102 234t57.5 271.5t18 296q0 171 -19.5 326t-62 287t-108 238.5t-157.5 181t-211 115t-268 40.5q-145 0 -260 -43t-203 -120t-150.5 -183t-102 -233.5t-58 -270.5t-18.5 -293
q0 -175 19.5 -331.5t62 -289.5t108 -239t157.5 -180t210.5 -114t267.5 -40zM832 3202v260h1146v-260h-1146z" />
    <glyph glyph-name="omacron" unicode="&#x14d;" horiz-adv-x="2201" 
d="M1084 -48q-219 0 -388.5 74t-286 212.5t-176.5 335.5t-60 444q0 170 28 319t83 273t135.5 221.5t185.5 165t233.5 103t278.5 35.5q219 0 388.5 -74.5t286 -213.5t177 -338t60.5 -447q0 -168 -28.5 -315.5t-83 -271t-135 -220.5t-185.5 -164t-233.5 -103t-279.5 -36z
M1107 245q92 0 167.5 26t136 74.5t105.5 117t75 155t45 187.5t15 215q0 121 -14 229t-44 199.5t-75 164.5t-107 124t-141.5 78t-176.5 27q-137 0 -239 -57t-169 -160.5t-101 -246t-34 -313.5q0 -121 14.5 -229t43.5 -199t74.5 -163.5t107 -123.5t141 -78t176.5 -27z
M583 2597v257h1035v-257h-1035z" />
    <glyph glyph-name="Obreve" unicode="&#x14e;" horiz-adv-x="2810" 
d="M1389 -48q-199 0 -364.5 46.5t-297.5 134.5t-231 215t-164.5 289t-98.5 357t-33 417t35 419t104.5 363t172.5 298.5t238 224.5t303 141.5t366 49.5q196 0 360.5 -47.5t297 -136.5t232.5 -216.5t167 -289t101 -354t34 -410.5q0 -225 -35 -423.5t-103.5 -365.5t-171 -299
t-238.5 -223.5t-304.5 -140.5t-369.5 -49zM1421 261q146 0 261.5 43t203.5 120.5t150.5 184t102 234t57.5 271.5t18 296q0 171 -19.5 326t-62 287t-108 238.5t-157.5 181t-211 115t-268 40.5q-145 0 -260 -43t-203 -120t-150.5 -183t-102 -233.5t-58 -270.5t-18.5 -293
q0 -175 19.5 -331.5t62 -289.5t108 -239t157.5 -180t210.5 -114t267.5 -40zM1953 3670q0 -82 -15 -155.5t-44.5 -136.5t-75 -113.5t-107 -86.5t-139 -55.5t-172.5 -19.5q-96 0 -173.5 20.5t-138.5 57t-105 88.5t-72.5 115t-42.5 135t-14 151h249q0 -72 21.5 -131t61 -100.5
t95.5 -64t126 -22.5q63 0 117.5 18.5t95 57t63 99t22.5 143.5h248z" />
    <glyph glyph-name="obreve" unicode="&#x14f;" horiz-adv-x="2201" 
d="M1084 -48q-219 0 -388.5 74t-286 212.5t-176.5 335.5t-60 444q0 170 28 319t83 273t135.5 221.5t185.5 165t233.5 103t278.5 35.5q219 0 388.5 -74.5t286 -213.5t177 -338t60.5 -447q0 -168 -28.5 -315.5t-83 -271t-135 -220.5t-185.5 -164t-233.5 -103t-279.5 -36z
M1107 245q92 0 167.5 26t136 74.5t105.5 117t75 155t45 187.5t15 215q0 121 -14 229t-44 199.5t-75 164.5t-107 124t-141.5 78t-176.5 27q-137 0 -239 -57t-169 -160.5t-101 -246t-34 -313.5q0 -121 14.5 -229t43.5 -199t74.5 -163.5t107 -123.5t141 -78t176.5 -27z
M1626 3036q0 -82 -12.5 -156.5t-38 -142t-67 -123.5t-100.5 -97t-136.5 -63.5t-173.5 -22.5q-98 0 -176 23t-136 65t-98 98.5t-64.5 123.5t-35.5 140.5t-11 154.5h235q0 -74 18.5 -137.5t55 -112t92 -75.5t126.5 -27q68 0 121.5 23t90.5 68t56 110.5t19 150.5h235z" />
    <glyph glyph-name="Ohungarumlaut" unicode="&#x150;" horiz-adv-x="2810" 
d="M1389 -48q-199 0 -364.5 46.5t-297.5 134.5t-231 215t-164.5 289t-98.5 357t-33 417t35 419t104.5 363t172.5 298.5t238 224.5t303 141.5t366 49.5q196 0 360.5 -47.5t297 -136.5t232.5 -216.5t167 -289t101 -354t34 -410.5q0 -225 -35 -423.5t-103.5 -365.5t-171 -299
t-238.5 -223.5t-304.5 -140.5t-369.5 -49zM1421 261q146 0 261.5 43t203.5 120.5t150.5 184t102 234t57.5 271.5t18 296q0 171 -19.5 326t-62 287t-108 238.5t-157.5 181t-211 115t-268 40.5q-145 0 -260 -43t-203 -120t-150.5 -183t-102 -233.5t-58 -270.5t-18.5 -293
q0 -175 19.5 -331.5t62 -289.5t108 -239t157.5 -180t210.5 -114t267.5 -40zM1833 3069l-193 132l509 592l258 -195zM1043 3069l-193 133l475 598l256 -193z" />
    <glyph glyph-name="ohungarumlaut" unicode="&#x151;" horiz-adv-x="2201" 
d="M1084 -48q-219 0 -388.5 74t-286 212.5t-176.5 335.5t-60 444q0 170 28 319t83 273t135.5 221.5t185.5 165t233.5 103t278.5 35.5q219 0 388.5 -74.5t286 -213.5t177 -338t60.5 -447q0 -168 -28.5 -315.5t-83 -271t-135 -220.5t-185.5 -164t-233.5 -103t-279.5 -36z
M1107 245q92 0 167.5 26t136 74.5t105.5 117t75 155t45 187.5t15 215q0 121 -14 229t-44 199.5t-75 164.5t-107 124t-141.5 78t-176.5 27q-137 0 -239 -57t-169 -160.5t-101 -246t-34 -313.5q0 -121 14.5 -229t43.5 -199t74.5 -163.5t107 -123.5t141 -78t176.5 -27z
M1337 2531l422 574l269 -177l-496 -529zM624 2530l402 582l268 -178l-479 -533z" />
    <glyph glyph-name="OE" unicode="&#x152;" horiz-adv-x="3440" 
d="M1791 0q-49 -9 -101.5 -17t-104.5 -14t-102 -9.5t-94 -3.5q-198 0 -363 45t-297 131.5t-231.5 212.5t-165.5 288t-99 357.5t-33 420.5q0 222 35 418.5t104 362.5t172 298t238.5 224t303.5 140.5t368 48.5q45 0 93.5 -3t98.5 -9t98.5 -14.5t91.5 -17.5h1380v-300h-1051
v-923h916v-296h-916v-1038h1068v-302h-1409zM1763 2523q-79 32 -173.5 51.5t-198.5 19.5q-146 0 -261.5 -42.5t-204 -119t-151 -182.5t-102.5 -232.5t-58 -269.5t-18 -293q0 -175 19.5 -332t62 -289t108.5 -237.5t158 -179.5t212 -113t269 -39q50 0 96 5t88.5 14.5t81 22
t72.5 26.5v2190z" />
    <glyph glyph-name="oe" unicode="&#x153;" horiz-adv-x="3503" 
d="M3257 65q-77 -25 -159.5 -46t-171.5 -35.5t-184 -23t-195 -8.5q-135 0 -246.5 24.5t-202 74.5t-161.5 125.5t-124 178.5q-59 -98 -136 -173t-169.5 -126t-200 -77.5t-227.5 -26.5q-152 0 -278.5 34.5t-227 99.5t-176 159t-125.5 212.5t-75 259.5t-25 301q0 170 28 319
t83 273t135.5 221.5t185 165t232.5 103t278 35.5q123 0 231 -26t199.5 -76.5t165.5 -125.5t129 -173q51 94 120 168.5t156.5 126t194 79t230.5 27.5q135 0 245 -31t195.5 -89t148 -141t103.5 -187t60.5 -226.5t19.5 -260.5q0 -16 -1 -41t-1.5 -53.5t-1.5 -57.5t-2 -54h-1286
q0 -175 29 -314t96.5 -236t179.5 -148.5t279 -51.5q88 0 167.5 7t153 20t144 31t141.5 39zM2952 1251q5 141 -21.5 254.5t-81.5 193t-138 122.5t-192 43q-86 0 -155.5 -25t-124 -69t-94.5 -103t-67 -127t-41 -142t-17 -147h932zM1110 245q91 0 166.5 27t135.5 75.5t105 118
t75 156t44.5 187t14.5 211.5q0 121 -14 229.5t-44 199.5t-75 164t-106.5 124t-140.5 78t-175 27q-138 0 -240.5 -57t-170 -160.5t-101.5 -246t-34 -313.5q0 -125 14 -235t43.5 -201t74.5 -162t107 -120.5t142 -75.5t179 -26z" />
    <glyph glyph-name="Racute" unicode="&#x154;" horiz-adv-x="2169" 
d="M1614 0l-616 1280h-294v-1280h-371v2859h708q140 0 258.5 -24t214 -69.5t168 -111t121.5 -149t73.5 -183.5t24.5 -213q0 -105 -19 -194.5t-54 -165t-84 -137t-109 -110.5t-128.5 -85t-142.5 -60l687 -1357h-437zM990 1572q133 0 230.5 38.5t161 106t94 158t30.5 195.5
q0 61 -11 121.5t-35 115.5t-63 101.5t-95 80.5t-129.5 53.5t-168.5 19.5h-300v-990h286zM909 3077l-119 198l656 395l159 -274z" />
    <glyph glyph-name="racute" unicode="&#x155;" horiz-adv-x="1413" 
d="M295 0v2087h279l37 -383q75 113 138 194.5t122 134.5t119.5 77.5t130.5 24.5q31 0 60.5 -2t57.5 -6.5t56.5 -11t58.5 -16.5l-52 -332q-21 7 -46 13.5t-50.5 11t-50.5 7.5t-46 3q-32 0 -63 -11t-63 -33t-67 -57t-75 -83.5t-86.5 -110.5t-102.5 -140v-1367h-357zM596 2533
l423 577l277 -183l-505 -533z" />
    <glyph glyph-name="Rcommaaccent" unicode="&#x156;" horiz-adv-x="2169" 
d="M1614 0l-616 1280h-294v-1280h-371v2859h708q140 0 258.5 -24t214 -69.5t168 -111t121.5 -149t73.5 -183.5t24.5 -213q0 -105 -19 -194.5t-54 -165t-84 -137t-109 -110.5t-128.5 -85t-142.5 -60l687 -1357h-437zM990 1572q133 0 230.5 38.5t161 106t94 158t30.5 195.5
q0 61 -11 121.5t-35 115.5t-63 101.5t-95 80.5t-129.5 53.5t-168.5 19.5h-300v-990h286zM495 -665q102 0 170 12t112 33t69 48.5t42 59t30 63t32 61.5q15 23 32.5 40.5t38.5 29.5t45 18.5t51 6.5q41 0 76 -14.5t61 -40t40.5 -60.5t14.5 -76q0 -56 -24.5 -106.5t-69 -93
t-106.5 -76t-137 -57t-160.5 -36t-175.5 -12.5q-20 0 -38.5 0.5t-36 1.5t-34 2t-31.5 2z" />
    <glyph glyph-name="rcommaaccent" unicode="&#x157;" horiz-adv-x="1413" 
d="M295 0v2087h279l37 -383q75 113 138 194.5t122 134.5t119.5 77.5t130.5 24.5q31 0 60.5 -2t57.5 -6.5t56.5 -11t58.5 -16.5l-52 -332q-21 7 -46 13.5t-50.5 11t-50.5 7.5t-46 3q-32 0 -63 -11t-63 -33t-67 -57t-75 -83.5t-86.5 -110.5t-102.5 -140v-1367h-357zM-119 -665
q102 0 170 12t112 33t69 48.5t42 59t30 63t32 61.5q15 23 32.5 40.5t38.5 29.5t45 18.5t51 6.5q41 0 76 -14.5t61 -40t40.5 -60.5t14.5 -76q0 -56 -24.5 -106.5t-69 -93t-106.5 -76t-137 -57t-160.5 -36t-175.5 -12.5q-20 0 -38.5 0.5t-36 1.5t-34 2t-31.5 2z" />
    <glyph glyph-name="Rcaron" unicode="&#x158;" horiz-adv-x="2169" 
d="M1614 0l-616 1280h-294v-1280h-371v2859h708q140 0 258.5 -24t214 -69.5t168 -111t121.5 -149t73.5 -183.5t24.5 -213q0 -105 -19 -194.5t-54 -165t-84 -137t-109 -110.5t-128.5 -85t-142.5 -60l687 -1357h-437zM990 1572q133 0 230.5 38.5t161 106t94 158t30.5 195.5
q0 61 -11 121.5t-35 115.5t-63 101.5t-95 80.5t-129.5 53.5t-168.5 19.5h-300v-990h286zM999 3065l-538 381l120 195l423 -261l419 261l113 -188z" />
    <glyph glyph-name="rcaron" unicode="&#x159;" horiz-adv-x="1413" 
d="M295 0v2087h279l37 -383q75 113 138 194.5t122 134.5t119.5 77.5t130.5 24.5q31 0 60.5 -2t57.5 -6.5t56.5 -11t58.5 -16.5l-52 -332q-21 7 -46 13.5t-50.5 11t-50.5 7.5t-46 3q-32 0 -63 -11t-63 -33t-67 -57t-75 -83.5t-86.5 -110.5t-102.5 -140v-1367h-357zM257 2950
l152 179l390 -359l383 359l144 -174l-535 -555z" />
    <glyph glyph-name="Sacute" unicode="&#x15a;" horiz-adv-x="1857" 
d="M235 359q65 -23 131.5 -40.5t135 -29.5t138.5 -18.5t142 -6.5q130 0 227.5 35t162.5 98t97.5 151.5t32.5 194.5q0 72 -16.5 131.5t-47 110.5t-75 96t-102.5 87t-128 84.5t-152 89.5q-95 54 -175.5 107.5t-145 111t-113.5 119.5t-81.5 133t-49 152.5t-16.5 176.5
q0 116 28.5 218t81 187t128 152t170 113t206 70.5t236.5 24.5q61 0 126.5 -5.5t129 -15.5t123 -24t109.5 -32l-60 -300q-51 18 -105 32t-110 23.5t-111.5 14t-109.5 4.5q-113 0 -197 -33.5t-140 -91t-83.5 -133.5t-27.5 -161q0 -71 15.5 -129.5t45.5 -109t73 -95t98 -85.5
t120 -81.5t140 -83.5q98 -57 181.5 -112t152 -113t120.5 -120.5t87.5 -134t53.5 -153t18 -177.5q0 -134 -30 -248t-87 -207t-139 -164.5t-186.5 -120t-230 -74t-268.5 -25.5q-49 0 -98 3t-96.5 8t-95.5 12t-95.5 17t-95 22t-95.5 26zM807 3086l-119 198l656 395l159 -274z
" />
    <glyph glyph-name="sacute" unicode="&#x15b;" horiz-adv-x="1592" 
d="M234 333q57 -21 116.5 -38t120 -29t119 -18.5t113.5 -6.5q89 0 156 20t112.5 57.5t68 90t22.5 118.5t-24 117.5t-65.5 93.5t-96.5 77.5t-117 69t-127.5 68t-127 74.5t-116.5 89t-96.5 111.5t-65.5 141t-24 179.5q0 87 21.5 164t63.5 142.5t102.5 117.5t139 88.5
t172.5 55.5t203 19q47 0 99 -4t106 -11.5t108.5 -19t107.5 -26.5l-47 -286q-47 15 -95 27t-95.5 20t-92.5 12.5t-85 4.5q-86 0 -148.5 -21.5t-104 -59t-62 -88t-20.5 -109.5q0 -66 24 -117.5t65.5 -93t97 -76.5t117.5 -68t127.5 -67t127.5 -74t117.5 -89t97 -112
t65.5 -142.5t24 -180.5q0 -137 -50.5 -248.5t-145 -190t-230 -121t-306.5 -42.5q-67 0 -134.5 6t-134 17t-131 27t-124.5 36zM614 2533l423 577l277 -183l-505 -533z" />
    <glyph glyph-name="Scircumflex" unicode="&#x15c;" horiz-adv-x="1857" 
d="M235 359q65 -23 131.5 -40.5t135 -29.5t138.5 -18.5t142 -6.5q130 0 227.5 35t162.5 98t97.5 151.5t32.5 194.5q0 72 -16.5 131.5t-47 110.5t-75 96t-102.5 87t-128 84.5t-152 89.5q-95 54 -175.5 107.5t-145 111t-113.5 119.5t-81.5 133t-49 152.5t-16.5 176.5
q0 116 28.5 218t81 187t128 152t170 113t206 70.5t236.5 24.5q61 0 126.5 -5.5t129 -15.5t123 -24t109.5 -32l-60 -300q-51 18 -105 32t-110 23.5t-111.5 14t-109.5 4.5q-113 0 -197 -33.5t-140 -91t-83.5 -133.5t-27.5 -161q0 -71 15.5 -129.5t45.5 -109t73 -95t98 -85.5
t120 -81.5t140 -83.5q98 -57 181.5 -112t152 -113t120.5 -120.5t87.5 -134t53.5 -153t18 -177.5q0 -134 -30 -248t-87 -207t-139 -164.5t-186.5 -120t-230 -74t-268.5 -25.5q-49 0 -98 3t-96.5 8t-95.5 12t-95.5 17t-95 22t-95.5 26zM955 3346l-419 -260l-113 190l537 389
l538 -383l-120 -196z" />
    <glyph glyph-name="scircumflex" unicode="&#x15d;" horiz-adv-x="1592" 
d="M234 333q57 -21 116.5 -38t120 -29t119 -18.5t113.5 -6.5q89 0 156 20t112.5 57.5t68 90t22.5 118.5t-24 117.5t-65.5 93.5t-96.5 77.5t-117 69t-127.5 68t-127 74.5t-116.5 89t-96.5 111.5t-65.5 141t-24 179.5q0 87 21.5 164t63.5 142.5t102.5 117.5t139 88.5
t172.5 55.5t203 19q47 0 99 -4t106 -11.5t108.5 -19t107.5 -26.5l-47 -286q-47 15 -95 27t-95.5 20t-92.5 12.5t-85 4.5q-86 0 -148.5 -21.5t-104 -59t-62 -88t-20.5 -109.5q0 -66 24 -117.5t65.5 -93t97 -76.5t117.5 -68t127.5 -67t127.5 -74t117.5 -89t97 -112
t65.5 -142.5t24 -180.5q0 -137 -50.5 -248.5t-145 -190t-230 -121t-306.5 -42.5q-67 0 -134.5 6t-134 17t-131 27t-124.5 36zM800 2755l-383 -357l-142 173l532 551l534 -547l-153 -177z" />
    <glyph glyph-name="Scedilla" unicode="&#x15e;" horiz-adv-x="1857" 
d="M770 -48h-31q-69 1 -138 7t-138 17t-139 27t-142 37l53 319q65 -23 131.5 -40.5t135 -29.5t138.5 -18.5t142 -6.5q130 0 227.5 35t162.5 98t97.5 151.5t32.5 194.5q0 72 -16.5 131.5t-47 110.5t-75 96t-102.5 87t-128 84.5t-152 89.5q-95 54 -175.5 107.5t-145 111
t-113.5 119.5t-81.5 133t-49 152.5t-16.5 176.5q0 116 28.5 218t81 187t128 152t170 113t206 70.5t236.5 24.5q61 0 126.5 -5.5t129 -15.5t123 -24t109.5 -32l-60 -300q-51 18 -105 32t-110 23.5t-111.5 14t-109.5 4.5q-113 0 -197 -33.5t-140 -91t-83.5 -133.5t-27.5 -161
q0 -71 15.5 -129.5t45.5 -109t73 -95t98 -85.5t120 -81.5t140 -83.5q98 -57 181.5 -112t152 -113t120.5 -120.5t87.5 -134t53.5 -153t18 -177.5q0 -105 -19.5 -199.5t-56.5 -177t-92.5 -151.5t-127.5 -124t-161 -94.5t-194 -61.5l75 -183q18 -42 31.5 -75.5t22 -62t12.5 -54
t4 -52.5q0 -53 -25 -97t-76 -76.5t-129.5 -50.5t-184.5 -18q-50 0 -97.5 4t-92.5 11t-86.5 17t-79.5 22v213h352q30 0 50.5 2.5t33 8.5t18 16t5.5 25q0 17 -5.5 39.5t-16.5 49.5z" />
    <glyph glyph-name="Scedilla" unicode="&#xf6c1;" horiz-adv-x="1857" 
d="M770 -48h-31q-69 1 -138 7t-138 17t-139 27t-142 37l53 319q65 -23 131.5 -40.5t135 -29.5t138.5 -18.5t142 -6.5q130 0 227.5 35t162.5 98t97.5 151.5t32.5 194.5q0 72 -16.5 131.5t-47 110.5t-75 96t-102.5 87t-128 84.5t-152 89.5q-95 54 -175.5 107.5t-145 111
t-113.5 119.5t-81.5 133t-49 152.5t-16.5 176.5q0 116 28.5 218t81 187t128 152t170 113t206 70.5t236.5 24.5q61 0 126.5 -5.5t129 -15.5t123 -24t109.5 -32l-60 -300q-51 18 -105 32t-110 23.5t-111.5 14t-109.5 4.5q-113 0 -197 -33.5t-140 -91t-83.5 -133.5t-27.5 -161
q0 -71 15.5 -129.5t45.5 -109t73 -95t98 -85.5t120 -81.5t140 -83.5q98 -57 181.5 -112t152 -113t120.5 -120.5t87.5 -134t53.5 -153t18 -177.5q0 -105 -19.5 -199.5t-56.5 -177t-92.5 -151.5t-127.5 -124t-161 -94.5t-194 -61.5l75 -183q18 -42 31.5 -75.5t22 -62t12.5 -54
t4 -52.5q0 -53 -25 -97t-76 -76.5t-129.5 -50.5t-184.5 -18q-50 0 -97.5 4t-92.5 11t-86.5 17t-79.5 22v213h352q30 0 50.5 2.5t33 8.5t18 16t5.5 25q0 17 -5.5 39.5t-16.5 49.5z" />
    <glyph glyph-name="scedilla" unicode="&#x15f;" horiz-adv-x="1592" 
d="M234 333q57 -21 116.5 -38t120 -29t119 -18.5t113.5 -6.5q89 0 156 20t112.5 57.5t68 90t22.5 118.5t-24 117.5t-65.5 93.5t-96.5 77.5t-117 69t-127.5 68t-127 74.5t-116.5 89t-96.5 111.5t-65.5 141t-24 179.5q0 87 21.5 164t63.5 142.5t102.5 117.5t139 88.5
t172.5 55.5t203 19q47 0 99 -4t106 -11.5t108.5 -19t107.5 -26.5l-47 -286q-47 15 -95 27t-95.5 20t-92.5 12.5t-85 4.5q-86 0 -148.5 -21.5t-104 -59t-62 -88t-20.5 -109.5q0 -66 24 -117.5t65.5 -93t97 -76.5t117.5 -68t127.5 -67t127.5 -74t117.5 -89t97 -112
t65.5 -142.5t24 -180.5q0 -122 -38.5 -220.5t-108.5 -172.5t-166.5 -121.5t-211.5 -68.5l79 -176q20 -44 33.5 -78t22 -62t11.5 -51t3 -46q0 -51 -22.5 -95.5t-72 -78.5t-127 -53.5t-186.5 -19.5q-47 0 -95.5 3.5t-95 10t-89.5 16t-78 21.5v216h347q27 0 47.5 2.5t33.5 8
t19.5 16t6.5 25.5q0 8 -1.5 17.5t-4 21t-7 24.5t-9.5 27l-93 233q-62 3 -121 10.5t-115.5 18.5t-110.5 25t-106 31z" />
    <glyph glyph-name="scedilla" unicode="&#xf6c2;" horiz-adv-x="1592" 
d="M234 333q57 -21 116.5 -38t120 -29t119 -18.5t113.5 -6.5q89 0 156 20t112.5 57.5t68 90t22.5 118.5t-24 117.5t-65.5 93.5t-96.5 77.5t-117 69t-127.5 68t-127 74.5t-116.5 89t-96.5 111.5t-65.5 141t-24 179.5q0 87 21.5 164t63.5 142.5t102.5 117.5t139 88.5
t172.5 55.5t203 19q47 0 99 -4t106 -11.5t108.5 -19t107.5 -26.5l-47 -286q-47 15 -95 27t-95.5 20t-92.5 12.5t-85 4.5q-86 0 -148.5 -21.5t-104 -59t-62 -88t-20.5 -109.5q0 -66 24 -117.5t65.5 -93t97 -76.5t117.5 -68t127.5 -67t127.5 -74t117.5 -89t97 -112
t65.5 -142.5t24 -180.5q0 -122 -38.5 -220.5t-108.5 -172.5t-166.5 -121.5t-211.5 -68.5l79 -176q20 -44 33.5 -78t22 -62t11.5 -51t3 -46q0 -51 -22.5 -95.5t-72 -78.5t-127 -53.5t-186.5 -19.5q-47 0 -95.5 3.5t-95 10t-89.5 16t-78 21.5v216h347q27 0 47.5 2.5t33.5 8
t19.5 16t6.5 25.5q0 8 -1.5 17.5t-4 21t-7 24.5t-9.5 27l-93 233q-62 3 -121 10.5t-115.5 18.5t-110.5 25t-106 31z" />
    <glyph glyph-name="Scaron" unicode="&#x160;" horiz-adv-x="1857" 
d="M235 359q65 -23 131.5 -40.5t135 -29.5t138.5 -18.5t142 -6.5q130 0 227.5 35t162.5 98t97.5 151.5t32.5 194.5q0 72 -16.5 131.5t-47 110.5t-75 96t-102.5 87t-128 84.5t-152 89.5q-95 54 -175.5 107.5t-145 111t-113.5 119.5t-81.5 133t-49 152.5t-16.5 176.5
q0 116 28.5 218t81 187t128 152t170 113t206 70.5t236.5 24.5q61 0 126.5 -5.5t129 -15.5t123 -24t109.5 -32l-60 -300q-51 18 -105 32t-110 23.5t-111.5 14t-109.5 4.5q-113 0 -197 -33.5t-140 -91t-83.5 -133.5t-27.5 -161q0 -71 15.5 -129.5t45.5 -109t73 -95t98 -85.5
t120 -81.5t140 -83.5q98 -57 181.5 -112t152 -113t120.5 -120.5t87.5 -134t53.5 -153t18 -177.5q0 -134 -30 -248t-87 -207t-139 -164.5t-186.5 -120t-230 -74t-268.5 -25.5q-49 0 -98 3t-96.5 8t-95.5 12t-95.5 17t-95 22t-95.5 26zM939 3074l-538 381l120 195l423 -261
l419 261l113 -188z" />
    <glyph glyph-name="scaron" unicode="&#x161;" horiz-adv-x="1592" 
d="M234 333q57 -21 116.5 -38t120 -29t119 -18.5t113.5 -6.5q89 0 156 20t112.5 57.5t68 90t22.5 118.5t-24 117.5t-65.5 93.5t-96.5 77.5t-117 69t-127.5 68t-127 74.5t-116.5 89t-96.5 111.5t-65.5 141t-24 179.5q0 87 21.5 164t63.5 142.5t102.5 117.5t139 88.5
t172.5 55.5t203 19q47 0 99 -4t106 -11.5t108.5 -19t107.5 -26.5l-47 -286q-47 15 -95 27t-95.5 20t-92.5 12.5t-85 4.5q-86 0 -148.5 -21.5t-104 -59t-62 -88t-20.5 -109.5q0 -66 24 -117.5t65.5 -93t97 -76.5t117.5 -68t127.5 -67t127.5 -74t117.5 -89t97 -112
t65.5 -142.5t24 -180.5q0 -137 -50.5 -248.5t-145 -190t-230 -121t-306.5 -42.5q-67 0 -134.5 6t-134 17t-131 27t-124.5 36zM271 2950l152 179l390 -359l383 359l144 -174l-535 -555z" />
    <glyph glyph-name="uni0162" unicode="&#x162;" horiz-adv-x="1977" 
d="M802 0v2551h-759v308h1891v-308h-759v-2551h-373zM336 -665q102 0 170 12t112 33t69 48.5t42 59t30 63t32 61.5q15 23 32.5 40.5t38.5 29.5t45 18.5t51 6.5q41 0 76 -14.5t61 -40t40.5 -60.5t14.5 -76q0 -56 -24.5 -106.5t-69 -93t-106.5 -76t-137 -57t-160.5 -36
t-175.5 -12.5q-20 0 -38.5 0.5t-36 1.5t-34 2t-31.5 2z" />
    <glyph glyph-name="uni0163" unicode="&#x163;" horiz-adv-x="1328" 
d="M1184 3q-29 -8 -66 -14.5t-78 -11t-84.5 -7.5t-86.5 -3q-75 0 -140.5 11t-120.5 36.5t-98.5 66.5t-74 101.5t-46.5 142t-16 186.5v1298h-290v278h287l84 607h276v-607h454v-278h-454v-1208q0 -76 8 -130.5t23.5 -92t39.5 -60.5t56.5 -35.5t73 -17t89.5 -4.5h164v-258z
M156 -665q102 0 170 12t112 33t69 48.5t42 59t30 63t32 61.5q15 23 32.5 40.5t38.5 29.5t45 18.5t51 6.5q41 0 76 -14.5t61 -40t40.5 -60.5t14.5 -76q0 -56 -24.5 -106.5t-69 -93t-106.5 -76t-137 -57t-160.5 -36t-175.5 -12.5q-20 0 -38.5 0.5t-36 1.5t-34 2t-31.5 2z" />
    <glyph glyph-name="Tcaron" unicode="&#x164;" horiz-adv-x="1977" 
d="M802 0v2551h-759v308h1891v-308h-759v-2551h-373zM988 3065l-538 381l120 195l423 -261l419 261l113 -188z" />
    <glyph glyph-name="tcaron" unicode="&#x165;" horiz-adv-x="1403" 
d="M1184 3q-29 -8 -66 -14.5t-78 -11t-84.5 -7.5t-86.5 -3q-75 0 -140.5 11t-120.5 36.5t-98.5 66.5t-74 101.5t-46.5 142t-16 186.5v1298h-290v278h287l84 607h276v-607h454v-278h-454v-1208q0 -76 8 -130.5t23.5 -92t39.5 -60.5t56.5 -35.5t73 -17t89.5 -4.5h164v-258z
M954 2348l203 794l316 -64l-275 -772z" />
    <glyph glyph-name="Tbar" unicode="&#x166;" horiz-adv-x="1977" 
d="M802 0v1325h-430v294h430v932h-759v308h1891v-308h-759v-932h430v-294h-430v-1325h-373z" />
    <glyph glyph-name="tbar" unicode="&#x167;" horiz-adv-x="1328" 
d="M1184 3q-29 -8 -66 -14.5t-78 -11t-84.5 -7.5t-86.5 -3q-75 0 -140.5 11t-120.5 36.5t-98.5 66.5t-74 101.5t-46.5 142t-16 186.5v482h-254v255h254v561h-290v278h287l84 607h276v-607h454v-278h-454v-561h412v-255h-412v-418q0 -70 8 -120.5t24.5 -85t40.5 -56t56.5 -33
t72.5 -15.5t88 -4h164v-258z" />
    <glyph glyph-name="Utilde" unicode="&#x168;" horiz-adv-x="2614" 
d="M1927 2859h361v-1809q0 -273 -69.5 -478.5t-197.5 -342.5t-311 -206t-410 -69q-224 0 -404 65.5t-306.5 197.5t-194.5 329.5t-68 461.5v1851h371v-1823q0 -130 19.5 -238t56.5 -194t90.5 -150.5t121.5 -107.5t150.5 -64t176.5 -21q141 0 255 48.5t193.5 145t122.5 241.5
t43 337v1826zM1965 3461q-28 -74 -71.5 -133.5t-98.5 -101t-118.5 -63.5t-133.5 -22q-60 0 -109.5 12t-87 30t-85 49t-71 45t-57.5 25.5t-74 11.5q-33 0 -64.5 -12.5t-60.5 -38t-54.5 -61t-47.5 -80.5l-182 132q30 74 73.5 133.5t98 101t118.5 63.5t133 22q61 0 109.5 -12
t85.5 -30.5t85 -49.5t71.5 -44.5t57 -25.5t73.5 -12q33 0 65 13t61 37.5t55 60t47 80.5z" />
    <glyph glyph-name="utilde" unicode="&#x169;" horiz-adv-x="2202" 
d="M1630 0l-40 305q-75 -90 -148.5 -156.5t-152.5 -110t-165.5 -65t-188.5 -21.5q-119 0 -214.5 29t-167.5 81t-123 125.5t-83 162.5t-47 190.5t-15 210.5v1336h357v-1266q0 -85 8 -160t25.5 -138.5t45.5 -114t68 -85.5t93.5 -54t121.5 -19q80 0 147.5 22t131 66.5t128 113
t139.5 161.5v1474h357v-2087h-277zM1742 2859q-29 -76 -70.5 -137t-94.5 -104t-114.5 -65.5t-129.5 -22.5q-59 0 -107.5 12t-85 31t-84 50.5t-70 45.5t-56 25.5t-72.5 11.5q-32 0 -63.5 -13t-60.5 -38t-54.5 -61.5t-46.5 -82.5l-171 136q30 76 72 137t94 103.5t113.5 65
t129.5 22.5q59 0 107 -12t85 -30.5t84 -50t69.5 -45.5t56 -26t71.5 -12q33 0 64.5 13t61 38.5t55 61t46.5 81.5z" />
    <glyph glyph-name="Umacron" unicode="&#x16a;" horiz-adv-x="2614" 
d="M1927 2859h361v-1809q0 -273 -69.5 -478.5t-197.5 -342.5t-311 -206t-410 -69q-224 0 -404 65.5t-306.5 197.5t-194.5 329.5t-68 461.5v1851h371v-1823q0 -130 19.5 -238t56.5 -194t90.5 -150.5t121.5 -107.5t150.5 -64t176.5 -21q141 0 255 48.5t193.5 145t122.5 241.5
t43 337v1826zM734 3194v260h1146v-260h-1146z" />
    <glyph glyph-name="umacron" unicode="&#x16b;" horiz-adv-x="2202" 
d="M1630 0l-40 305q-75 -90 -148.5 -156.5t-152.5 -110t-165.5 -65t-188.5 -21.5q-119 0 -214.5 29t-167.5 81t-123 125.5t-83 162.5t-47 190.5t-15 210.5v1336h357v-1266q0 -85 8 -160t25.5 -138.5t45.5 -114t68 -85.5t93.5 -54t121.5 -19q80 0 147.5 22t131 66.5t128 113
t139.5 161.5v1474h357v-2087h-277zM582 2597v257h1035v-257h-1035z" />
    <glyph glyph-name="Ubreve" unicode="&#x16c;" horiz-adv-x="2614" 
d="M1927 2859h361v-1809q0 -273 -69.5 -478.5t-197.5 -342.5t-311 -206t-410 -69q-224 0 -404 65.5t-306.5 197.5t-194.5 329.5t-68 461.5v1851h371v-1823q0 -130 19.5 -238t56.5 -194t90.5 -150.5t121.5 -107.5t150.5 -64t176.5 -21q141 0 255 48.5t193.5 145t122.5 241.5
t43 337v1826zM1856 3645q0 -82 -15 -155.5t-44.5 -136.5t-75 -113.5t-107 -86.5t-139 -55.5t-172.5 -19.5q-96 0 -173.5 20.5t-138.5 57t-105 88.5t-72.5 115t-42.5 135t-14 151h249q0 -72 21.5 -131t61 -100.5t95.5 -64t126 -22.5q63 0 117.5 18.5t95 57t63 99t22.5 143.5
h248z" />
    <glyph glyph-name="ubreve" unicode="&#x16d;" horiz-adv-x="2202" 
d="M1630 0l-40 305q-75 -90 -148.5 -156.5t-152.5 -110t-165.5 -65t-188.5 -21.5q-119 0 -214.5 29t-167.5 81t-123 125.5t-83 162.5t-47 190.5t-15 210.5v1336h357v-1266q0 -85 8 -160t25.5 -138.5t45.5 -114t68 -85.5t93.5 -54t121.5 -19q80 0 147.5 22t131 66.5t128 113
t139.5 161.5v1474h357v-2087h-277zM1627 3036q0 -82 -12.5 -156.5t-38 -142t-67 -123.5t-100.5 -97t-136.5 -63.5t-173.5 -22.5q-98 0 -176 23t-136 65t-98 98.5t-64.5 123.5t-35.5 140.5t-11 154.5h235q0 -74 18.5 -137.5t55 -112t92 -75.5t126.5 -27q68 0 121.5 23
t90.5 68t56 110.5t19 150.5h235z" />
    <glyph glyph-name="Uring" unicode="&#x16e;" horiz-adv-x="2614" 
d="M1927 2859h361v-1809q0 -273 -69.5 -478.5t-197.5 -342.5t-311 -206t-410 -69q-224 0 -404 65.5t-306.5 197.5t-194.5 329.5t-68 461.5v1851h371v-1823q0 -130 19.5 -238t56.5 -194t90.5 -150.5t121.5 -107.5t150.5 -64t176.5 -21q141 0 255 48.5t193.5 145t122.5 241.5
t43 337v1826zM1298 3019q-107 0 -189.5 30t-137 84.5t-82 128.5t-27.5 163q0 93 30.5 170.5t89.5 134t143.5 87t189.5 30.5q101 0 182.5 -28t138 -81t86 -128t29.5 -166t-31.5 -168.5t-91 -135.5t-143.5 -89.5t-187 -31.5zM1311 3196q45 0 81 17.5t60.5 49.5t37 74.5
t12.5 91.5q0 53 -12.5 97t-37 76t-62 50t-87.5 18q-44 0 -80 -17t-60.5 -48t-37.5 -73.5t-13 -93.5q0 -56 12 -100t35.5 -76t61.5 -49t90 -17z" />
    <glyph glyph-name="uring" unicode="&#x16f;" horiz-adv-x="2202" 
d="M1630 0l-40 305q-75 -90 -148.5 -156.5t-152.5 -110t-165.5 -65t-188.5 -21.5q-119 0 -214.5 29t-167.5 81t-123 125.5t-83 162.5t-47 190.5t-15 210.5v1336h357v-1266q0 -85 8 -160t25.5 -138.5t45.5 -114t68 -85.5t93.5 -54t121.5 -19q80 0 147.5 22t131 66.5t128 113
t139.5 161.5v1474h357v-2087h-277zM1088 2355q-104 0 -185 31t-134.5 87.5t-80.5 133.5t-27 168q0 94 30 174t88 139t140.5 91t185.5 32q98 0 177.5 -29.5t135 -85t84.5 -132.5t29 -171q0 -93 -31 -173.5t-89.5 -140t-140.5 -92t-182 -32.5zM1101 2539q45 0 80 18t58.5 51
t35.5 76t12 93q0 55 -11.5 100.5t-35 79t-60.5 52t-87 18.5q-43 0 -78.5 -17.5t-59.5 -49t-36.5 -74.5t-12.5 -93q0 -59 11 -105.5t34 -79.5t60.5 -51t89.5 -18z" />
    <glyph glyph-name="Uhungarumlaut" unicode="&#x170;" horiz-adv-x="2614" 
d="M1927 2859h361v-1809q0 -273 -69.5 -478.5t-197.5 -342.5t-311 -206t-410 -69q-224 0 -404 65.5t-306.5 197.5t-194.5 329.5t-68 461.5v1851h371v-1823q0 -130 19.5 -238t56.5 -194t90.5 -150.5t121.5 -107.5t150.5 -64t176.5 -21q141 0 255 48.5t193.5 145t122.5 241.5
t43 337v1826zM1705 3061l-193 132l509 592l258 -195zM915 3061l-193 133l475 598l256 -193z" />
    <glyph glyph-name="uhungarumlaut" unicode="&#x171;" horiz-adv-x="2202" 
d="M1630 0l-40 305q-75 -90 -148.5 -156.5t-152.5 -110t-165.5 -65t-188.5 -21.5q-119 0 -214.5 29t-167.5 81t-123 125.5t-83 162.5t-47 190.5t-15 210.5v1336h357v-1266q0 -85 8 -160t25.5 -138.5t45.5 -114t68 -85.5t93.5 -54t121.5 -19q80 0 147.5 22t131 66.5t128 113
t139.5 161.5v1474h357v-2087h-277zM1248 2531l422 574l269 -177l-496 -529zM535 2530l402 582l268 -178l-479 -533z" />
    <glyph glyph-name="Uogonek" unicode="&#x172;" horiz-adv-x="2614" 
d="M1921 -773q-33 -12 -72 -23t-82 -19t-88 -13t-89 -5q-121 0 -205.5 24t-137.5 68.5t-77.5 107.5t-24.5 141q0 60 17 120t48 118t75.5 112.5t101.5 103.5q-11 -2 -24 -3t-26.5 -2.5t-26 -2t-23.5 -0.5q-219 2 -396 67.5t-302.5 196.5t-193.5 327.5t-68 459.5v1854h371
v-1823q0 -130 19.5 -238t56.5 -194t90.5 -150.5t121.5 -107.5t150.5 -64t176.5 -21q141 0 255 48.5t193.5 145t122.5 241.5t43 337v1826h361v-1812q0 -126 -16 -243.5t-50.5 -223.5t-87.5 -198.5t-128 -166.5q-36 -36 -75.5 -67.5t-80.5 -62t-81 -62t-77 -66.5
q-61 -60 -101 -112.5t-63.5 -99.5t-33 -87.5t-9.5 -75.5q0 -43 9.5 -75.5t31.5 -54t57 -32t86 -10.5q46 0 100.5 10t107.5 31z" />
    <glyph glyph-name="uogonek" unicode="&#x173;" horiz-adv-x="2202" 
d="M2068 -772q-33 -12 -70 -23t-77 -18.5t-82.5 -12.5t-85.5 -5q-115 0 -195 24.5t-130.5 69t-73.5 107t-23 138.5q0 61 19.5 124.5t56.5 127t90.5 124.5t120.5 116l-28 305q-75 -90 -148.5 -156.5t-152.5 -110t-165.5 -65t-188.5 -21.5q-119 0 -214.5 29t-167.5 81
t-123 125.5t-83 162.5t-47 190.5t-15 210.5v1336h357v-1266q0 -85 8 -160t25.5 -138.5t45.5 -114t68 -85.5t93.5 -54t121.5 -19q80 0 147.5 22t131 66.5t128 113t139.5 161.5v1474h357v-2087q-63 -58 -109.5 -115t-77 -110.5t-45.5 -102.5t-15 -90q0 -43 9.5 -75.5t30 -54.5
t53 -32.5t78.5 -10.5q23 0 46 2.5t47.5 7t49.5 12t50 18.5z" />
    <glyph glyph-name="Wcircumflex" unicode="&#x174;" horiz-adv-x="3727" 
d="M2404 0l-475 2040l-71 352h-7l-67 -350l-465 -2042h-475q-111 360 -210.5 719.5t-189.5 718t-169.5 714t-149.5 707.5h405q33 -178 68.5 -359.5t74.5 -364t80 -365.5t85 -364t89 -359.5t92 -351.5q8 -35 18.5 -75.5t20.5 -82t19.5 -81t16.5 -71.5h6l84 407l465 2067h443
l485 -2066l83 -408h6q9 37 19 80.5t20.5 87.5t21 87t19.5 79q46 179 91.5 359.5t88.5 360t83.5 359t78 357t72.5 354t66 350.5h377q-72 -354 -152.5 -707.5t-170.5 -710t-189.5 -716t-210.5 -725.5h-476zM1872 3337l-419 -260l-113 190l537 389l538 -383l-120 -196z" />
    <glyph glyph-name="wcircumflex" unicode="&#x175;" horiz-adv-x="2990" 
d="M1896 0l-361 1395l-62 274h-6l-61 -274l-343 -1395h-412q-86 259 -165 520.5t-150 523.5t-133.5 523t-116.5 520h372q33 -176 70.5 -351.5t78.5 -350t84 -347t88 -342.5q21 -83 44.5 -175t45.5 -181h5l81 349l349 1398h376l359 -1402l81 -345h6q22 89 43.5 181t43.5 177
q45 171 88 344t82.5 348t75.5 349.5t66 347.5h348q-57 -260 -121 -521t-136 -522t-152 -522.5t-167 -521.5h-401zM1505 2755l-383 -357l-142 173l532 551l534 -547l-153 -177z" />
    <glyph glyph-name="Ycircumflex" unicode="&#x176;" horiz-adv-x="2155" 
d="M893 0v1219q-126 198 -243 401.5t-225 409.5t-208 414t-192 415h415q46 -111 95.5 -222.5t102 -224t108 -224t113.5 -221t119 -216.5t124 -209q59 102 117.5 210t115.5 219t111.5 224t106 225.5t98 222.5t87.5 216h391q-58 -134 -120 -270t-128.5 -272.5t-137.5 -274
t-147.5 -275t-159 -275t-171.5 -273.5v-1219h-372zM1080 3337l-419 -260l-113 190l537 389l538 -383l-120 -196z" />
    <glyph glyph-name="ycircumflex" unicode="&#x177;" horiz-adv-x="1848" 
d="M114 -591h205q35 0 68 11t66.5 37.5t68 70t73 109t81.5 154.5t93 206q-59 146 -120 306.5t-122.5 331.5t-121.5 350t-116 363t-107 369.5t-94 369.5h377q45 -188 93.5 -369t100.5 -356.5t107 -346.5t111 -340q12 -35 23.5 -72.5t22.5 -75.5t21.5 -75.5t21.5 -72.5h6
q11 35 22 72.5t22.5 75.5t22.5 75t22 73q52 168 101 342.5t93.5 353t84.5 358.5t75 358h353q-82 -351 -162.5 -655.5t-160 -564t-156.5 -475.5t-153 -391q-77 -176 -145.5 -311t-132.5 -234t-126.5 -166t-125.5 -108t-129 -58.5t-139 -17.5q-33 0 -64.5 3.5t-61.5 8.5
t-57.5 12t-52.5 15zM932 2755l-383 -357l-142 173l532 551l534 -547l-153 -177z" />
    <glyph glyph-name="Ydieresis" unicode="&#x178;" horiz-adv-x="2155" 
d="M893 0v1219q-126 198 -243 401.5t-225 409.5t-208 414t-192 415h415q46 -111 95.5 -222.5t102 -224t108 -224t113.5 -221t119 -216.5t124 -209q59 102 117.5 210t115.5 219t111.5 224t106 225.5t98 222.5t87.5 216h391q-58 -134 -120 -270t-128.5 -272.5t-137.5 -274
t-147.5 -275t-159 -275t-171.5 -273.5v-1219h-372zM1483 3098q-42 0 -79 16t-64 43t-42.5 64.5t-15.5 81.5t15.5 82t42.5 65.5t64 43.5t79 16q44 0 81 -16t64 -43.5t42 -65.5t15 -82t-15 -81.5t-42 -64.5t-64 -43t-81 -16zM684 3098q-42 0 -79 16t-64 43t-42.5 64.5
t-15.5 81.5t15.5 82t42.5 65.5t64 43.5t79 16q44 0 81 -16t64 -43.5t42 -65.5t15 -82t-15 -81.5t-42 -64.5t-64 -43t-81 -16z" />
    <glyph glyph-name="Zacute" unicode="&#x179;" horiz-adv-x="1910" 
d="M114 0v299l1247 2258h-1203v302h1609v-297l-1242 -2258h1265v-304h-1676zM879 3077l-119 198l656 395l159 -274z" />
    <glyph glyph-name="zacute" unicode="&#x17a;" horiz-adv-x="1709" 
d="M168 0v287l936 1504h-881v296h1281v-288l-934 -1503h994v-296h-1396zM676 2533l423 577l277 -183l-505 -533z" />
    <glyph glyph-name="Zdotaccent" unicode="&#x17b;" horiz-adv-x="1910" 
d="M114 0v299l1247 2258h-1203v302h1609v-297l-1242 -2258h1265v-304h-1676zM1198 3317q0 -51 -18.5 -94.5t-51 -75t-77.5 -49t-97 -17.5t-96.5 17.5t-77 49t-51 75t-18.5 94.5t18.5 94t51 74.5t77 49t96.5 17.5t97 -17.5t77.5 -49t51 -74.5t18.5 -94z" />
    <glyph glyph-name="zdotaccent" unicode="&#x17c;" horiz-adv-x="1709" 
d="M168 0v287l936 1504h-881v296h1281v-288l-934 -1503h994v-296h-1396zM856 2502q-52 0 -96.5 18t-76.5 50.5t-50.5 77t-18.5 97.5t18.5 97.5t50.5 77t76.5 50.5t96.5 18t96.5 -18t76.5 -50.5t50 -77t18 -97.5t-18 -97.5t-50 -77t-76.5 -50.5t-96.5 -18z" />
    <glyph glyph-name="Zcaron" unicode="&#x17d;" horiz-adv-x="1910" 
d="M114 0v299l1247 2258h-1203v302h1609v-297l-1242 -2258h1265v-304h-1676zM974 3065l-538 381l120 195l423 -261l419 261l113 -188z" />
    <glyph glyph-name="zcaron" unicode="&#x17e;" horiz-adv-x="1709" 
d="M168 0v287l936 1504h-881v296h1281v-288l-934 -1503h994v-296h-1396zM332 2950l152 179l390 -359l383 359l144 -174l-535 -555z" />
    <glyph glyph-name="longs" unicode="&#x17f;" horiz-adv-x="961" 
d="M295 0v2300q0 124 12 231.5t39 198t73 161.5t114 120.5t160 75.5t213 26q40 0 74 -1.5t65 -4.5t59.5 -8t55.5 -12v-260h-177q-79 0 -134 -19t-91.5 -53t-57.5 -81.5t-31.5 -105t-13 -122.5t-2.5 -134v-2312h-358z" />
    <glyph glyph-name="florin" unicode="&#x192;" 
d="M76 -224h182q87 0 151 18.5t110.5 53.5t77 83.5t50 109t30 130t17.5 146.5l90 1002h-483v279h507l41 433q10 113 29 222t52.5 206t86.5 179t132.5 141.5t189.5 93t257 33.5q31 0 62 -2t63 -5t64 -7.5t65 -9.5l-23 -263h-185q-86 0 -150.5 -19t-110.5 -55t-76 -85.5
t-49.5 -111t-30.5 -131.5t-17 -146l-45 -473h555v-279h-577l-83 -926q-10 -120 -29 -233.5t-53.5 -214.5t-89 -185t-137 -144.5t-197.5 -94.5t-269 -34q-27 0 -55 1.5t-56 4.5t-57.5 7.5t-60.5 9.5z" />
    <glyph glyph-name="Gcaron" unicode="&#x1e6;" horiz-adv-x="2528" 
d="M1857 1494h371v-1387q-87 -35 -182.5 -63t-196 -47t-206 -29.5t-209.5 -10.5q-204 0 -375 46t-309 133t-242.5 213t-174.5 286.5t-105.5 352.5t-35.5 411q0 228 38.5 427.5t113.5 365.5t184 297t250 221.5t311.5 138.5t368.5 48q110 0 215.5 -16t206 -45.5t195 -72
t180.5 -94.5l-128 -289q-78 48 -161 86t-169 64.5t-174 40.5t-175 14q-146 0 -266.5 -39.5t-216.5 -112.5t-167.5 -177t-119.5 -232.5t-71.5 -279t-23.5 -316.5q0 -277 59 -492t170.5 -362t273 -223.5t364.5 -76.5q103 0 203.5 16t203.5 47v1157zM1372 3074l-538 381
l120 195l423 -261l419 261l113 -188z" />
    <glyph glyph-name="gcaron" unicode="&#x1e7;" horiz-adv-x="2181" 
d="M1529 299q-71 -83 -142 -143.5t-146.5 -99t-157 -57t-173.5 -18.5q-130 0 -235 36t-186 102t-139.5 158t-96.5 204t-56 240t-18 266q0 153 24.5 297t76.5 269.5t131 229.5t186.5 178t246 115t307.5 41q89 0 185 -8.5t191.5 -24t187 -37.5t171.5 -50v-1951
q0 -164 -22 -297.5t-68.5 -238t-119 -180.5t-173.5 -126t-232.5 -74t-295.5 -24q-57 0 -123 3t-136 8.5t-142.5 15t-142.5 23.5l12 266q61 -5 125.5 -8.5t129.5 -6t130 -4t127 -1.5q105 0 188 12t147 40.5t109 75t74 116t42.5 163.5t13.5 217v273zM1529 1752q-44 19 -92 34
t-99 25.5t-105.5 16t-112.5 5.5q-141 0 -246.5 -56t-175.5 -161.5t-105 -257.5t-35 -344q0 -92 8 -183t26.5 -173t50.5 -152t79 -121.5t112 -80.5t150 -29q70 0 134.5 18.5t129.5 61t133.5 113t147.5 174.5v1110zM586 2950l152 179l390 -359l383 359l144 -174l-535 -555z
" />
    <glyph glyph-name="Aringacute" unicode="&#x1fa;" horiz-adv-x="2454" 
d="M1947 0q-23 91 -47 185.5t-49 190.5t-50.5 191.5t-52.5 189.5h-1070q-27 -94 -53.5 -190t-51.5 -192t-49.5 -190.5t-47.5 -184.5h-381q103 381 212 749.5t224.5 725.5t236 702.5t247.5 681.5h420q137 -359 263 -718t241 -717.5t220 -714.5t199 -709h-411zM1671 1054
q-41 137 -85 279t-90 286t-94 288.5t-96 286.5q-12 36 -24 74t-24.5 76.5t-23.5 76.5t-22 72h-4q-11 -34 -23.5 -72t-25 -76.5t-24.5 -76t-23 -71.5q-47 -140 -93 -283.5t-91.5 -288.5t-89 -288.5t-84.5 -282.5h917zM1218 2935q-103 0 -177.5 24.5t-122.5 68.5t-70.5 104.5
t-22.5 131.5q0 76 26.5 139.5t78.5 109.5t128.5 71t176.5 25q66 0 120.5 -10t98 -29.5t76.5 -47.5t55 -63.5t32.5 -79t10.5 -93.5q0 -75 -26.5 -139t-79 -111.5t-128.5 -74t-176 -26.5zM1231 3096q41 0 72.5 13.5t53.5 36.5t33 54.5t11 68.5q0 38 -10 70.5t-31.5 56.5
t-55 37t-80.5 13q-42 0 -74 -12.5t-53.5 -35t-33 -54t-11.5 -68.5q0 -42 10.5 -75t32 -56.5t55 -36t81.5 -12.5zM1056 3652l-42 164l700 194l52 -223z" />
    <glyph glyph-name="aringacute" unicode="&#x1fb;" horiz-adv-x="1997" 
d="M1431 0l-28 227q-62 -62 -128 -113t-140 -87t-157.5 -56t-179.5 -20q-146 0 -263 40.5t-199.5 118t-126.5 190.5t-44 259q0 169 64.5 292t181 203.5t279.5 119.5t361 39h304v164q0 120 -21.5 209t-72 148.5t-133.5 88.5t-206 29q-67 0 -136 -8.5t-139 -24.5t-139.5 -38.5
t-135.5 -50.5l-69 272q73 30 155 54.5t168.5 42t175 27t175.5 9.5q137 0 244 -24.5t188 -69.5t138 -108t93 -139t52 -164t16 -183v-1447h-277zM1355 959h-321q-126 0 -220.5 -25t-156.5 -74t-93 -120t-31 -162q0 -80 21 -144.5t63.5 -110t105 -70.5t146.5 -25q73 0 137.5 20
t123.5 55t114.5 83t110.5 105v468zM993 2329q-99 0 -171.5 29t-119.5 80.5t-70 121.5t-23 152q0 87 26.5 160.5t77.5 126.5t125.5 83t171.5 30q92 0 164 -27.5t121 -77.5t74 -120t25 -156t-27.5 -159.5t-79 -127.5t-125.5 -84.5t-169 -30.5zM1006 2509q42 0 73 16t52 44
t31.5 65.5t10.5 80.5q0 46 -10.5 85.5t-31.5 69t-54 46t-79 16.5q-41 0 -72 -15.5t-52.5 -42.5t-32 -64t-10.5 -80q0 -50 9.5 -91t30.5 -70t54 -44.5t81 -15.5zM829 3249l-78 190l654 281l93 -259z" />
    <glyph glyph-name="AEacute" unicode="&#x1fc;" horiz-adv-x="3221" 
d="M1544 0v666h-914q-39 -91 -77 -179t-73 -172t-68.5 -163t-64.5 -152h-374q158 371 321 729.5t333.5 711.5t350 706t372.5 712h1592v-300h-1028v-923h915v-296h-915v-1038h1067v-302h-1437zM1544 2552h-13q-62 -122 -126.5 -249t-129.5 -258.5t-131 -266t-131 -270
t-129.5 -272.5t-126.5 -273h787v1589zM1871 3077l-119 198l656 395l159 -274z" />
    <glyph glyph-name="aeacute" unicode="&#x1fd;" horiz-adv-x="3188" 
d="M2998 1205q0 -21 -0.5 -48.5t-1 -58.5t-1.5 -62.5t-2 -59.5h-1287q0 -112 12.5 -209.5t40.5 -179t73 -145.5t110 -108.5t151 -67.5t197 -23q89 0 168.5 7.5t153 20.5t144 31t141.5 39l45 -276q-76 -25 -159 -46t-172.5 -35.5t-184 -23t-195.5 -8.5q-133 0 -245.5 25
t-203 71t-159 112t-112.5 149q-79 -89 -160 -156t-167.5 -111.5t-182 -67t-205.5 -22.5q-147 0 -264 40.5t-198.5 118.5t-125 193t-43.5 266q0 168 63.5 292.5t178.5 207t275.5 123t354.5 40.5h314v144q0 120 -21 209.5t-71.5 148.5t-133 88t-205.5 29q-66 0 -135 -8
t-139 -24t-139 -39t-135 -51l-69 272q73 30 155 54.5t168 42t174.5 27t175.5 9.5q121 0 217.5 -21.5t171 -62t128.5 -99t90 -134.5q55 83 125 142.5t151 98.5t173.5 57.5t194.5 18.5q135 0 244.5 -30.5t195.5 -88t148 -140t103 -186t60.5 -226t19.5 -259.5zM2637 1233
q6 147 -20 264.5t-81.5 199t-139 124.5t-192.5 43q-86 0 -155.5 -25t-124.5 -69.5t-96 -105t-67.5 -130.5t-40 -147t-15.5 -154h932v0zM1351 977h-320q-127 0 -220.5 -27t-155 -77.5t-92 -122t-30.5 -161.5q0 -83 21.5 -150t63 -113.5t103.5 -71.5t142 -25q75 0 140 19.5
t124 56t114 89.5t110 120v463zM1491 2533l423 577l277 -183l-505 -533z" />
    <glyph glyph-name="Oslashacute" unicode="&#x1fe;" horiz-adv-x="2809" 
d="M435 -297l224 466q-120 90 -207 216t-143.5 282.5t-83.5 340t-27 387.5q0 227 35 427t104.5 368t172.5 301t239.5 225.5t306 141.5t370.5 49q69 0 135.5 -7t128.5 -20.5t120.5 -33t111.5 -44.5l195 416l248 -112l-203 -433q77 -61 139.5 -137.5t112.5 -167t86.5 -193.5
t60.5 -216.5t36 -236t12 -253.5q0 -229 -34.5 -431.5t-103 -370.5t-171.5 -301t-239.5 -225t-307 -140.5t-374.5 -48.5q-68 0 -132.5 6.5t-125 18.5t-116 29t-105.5 39l-217 -454zM1035 338q77 -43 173.5 -65.5t202.5 -22.5q151 0 270.5 43t210.5 121.5t154.5 187.5
t104 240.5t59 281.5t18.5 311q0 85 -5.5 171t-17 168t-29.5 160t-43 147.5t-58 131t-74 110.5zM1788 2511q-40 23 -85.5 41t-95 31t-103.5 19.5t-110 6.5q-150 0 -269 -43t-209.5 -121t-154.5 -186.5t-104.5 -240t-59 -280.5t-18.5 -308q0 -88 5.5 -175.5t17.5 -171
t30.5 -163t45 -151t61.5 -134.5t79 -115zM1287 3086l-119 198l656 395l159 -274z" />
    <glyph glyph-name="oslashacute" unicode="&#x1ff;" horiz-adv-x="2201" 
d="M343 -316l194 418q-98 68 -167 164.5t-113 214t-64 254t-20 285.5q0 170 28 318.5t83 272t135.5 221t185.5 165t233.5 103t278.5 35.5q45 0 89.5 -4t87.5 -10.5t82.5 -17t74.5 -23.5l194 415l223 -87l-200 -428q90 -65 157.5 -155.5t112.5 -205.5t68 -253.5t23 -298.5
q0 -166 -29.5 -313t-85 -270.5t-137.5 -221.5t-187 -166.5t-232.5 -105t-275.5 -36.5q-48 0 -92.5 3.5t-85.5 10t-78.5 16t-70.5 21.5l-190 -408zM878 275q23 -11 49.5 -19t56 -13.5t61.5 -8.5t67 -3q95 0 173.5 27.5t141 78t109 122.5t77.5 160t46.5 191t15.5 216
q0 76 -5.5 144t-15 128t-24 111.5t-32.5 95.5t-39.5 80.5t-46.5 65.5zM1328 1810q-47 25 -107 36.5t-127 11.5q-144 0 -250.5 -59.5t-177 -165.5t-105 -252.5t-34.5 -320.5q0 -64 4 -126t12 -121t21.5 -113t31.5 -102.5t42 -90.5t54 -76zM961 2533l423 577l277 -183
l-505 -533z" />
    <glyph glyph-name="Scommaaccent" unicode="&#x218;" horiz-adv-x="1857" 
d="M235 359q65 -23 131.5 -40.5t135 -29.5t138.5 -18.5t142 -6.5q130 0 227.5 35t162.5 98t97.5 151.5t32.5 194.5q0 72 -16.5 131.5t-47 110.5t-75 96t-102.5 87t-128 84.5t-152 89.5q-95 54 -175.5 107.5t-145 111t-113.5 119.5t-81.5 133t-49 152.5t-16.5 176.5
q0 116 28.5 218t81 187t128 152t170 113t206 70.5t236.5 24.5q61 0 126.5 -5.5t129 -15.5t123 -24t109.5 -32l-60 -300q-51 18 -105 32t-110 23.5t-111.5 14t-109.5 4.5q-113 0 -197 -33.5t-140 -91t-83.5 -133.5t-27.5 -161q0 -71 15.5 -129.5t45.5 -109t73 -95t98 -85.5
t120 -81.5t140 -83.5q98 -57 181.5 -112t152 -113t120.5 -120.5t87.5 -134t53.5 -153t18 -177.5q0 -134 -30 -248t-87 -207t-139 -164.5t-186.5 -120t-230 -74t-268.5 -25.5q-49 0 -98 3t-96.5 8t-95.5 12t-95.5 17t-95 22t-95.5 26zM289 -665q102 0 170 12t112 33t69 48.5
t42 59t30 63t32 61.5q15 23 32.5 40.5t38.5 29.5t45 18.5t51 6.5q41 0 76 -14.5t61 -40t40.5 -60.5t14.5 -76q0 -56 -24.5 -106.5t-69 -93t-106.5 -76t-137 -57t-160.5 -36t-175.5 -12.5q-20 0 -38.5 0.5t-36 1.5t-34 2t-31.5 2z" />
    <glyph glyph-name="scommaaccent" unicode="&#x219;" horiz-adv-x="1592" 
d="M234 333q57 -21 116.5 -38t120 -29t119 -18.5t113.5 -6.5q89 0 156 20t112.5 57.5t68 90t22.5 118.5t-24 117.5t-65.5 93.5t-96.5 77.5t-117 69t-127.5 68t-127 74.5t-116.5 89t-96.5 111.5t-65.5 141t-24 179.5q0 87 21.5 164t63.5 142.5t102.5 117.5t139 88.5
t172.5 55.5t203 19q47 0 99 -4t106 -11.5t108.5 -19t107.5 -26.5l-47 -286q-47 15 -95 27t-95.5 20t-92.5 12.5t-85 4.5q-86 0 -148.5 -21.5t-104 -59t-62 -88t-20.5 -109.5q0 -66 24 -117.5t65.5 -93t97 -76.5t117.5 -68t127.5 -67t127.5 -74t117.5 -89t97 -112
t65.5 -142.5t24 -180.5q0 -137 -50.5 -248.5t-145 -190t-230 -121t-306.5 -42.5q-67 0 -134.5 6t-134 17t-131 27t-124.5 36zM173 -665q102 0 170 12t112 33t69 48.5t42 59t30 63t32 61.5q15 23 32.5 40.5t38.5 29.5t45 18.5t51 6.5q41 0 76 -14.5t61 -40t40.5 -60.5
t14.5 -76q0 -56 -24.5 -106.5t-69 -93t-106.5 -76t-137 -57t-160.5 -36t-175.5 -12.5q-20 0 -38.5 0.5t-36 1.5t-34 2t-31.5 2z" />
    <glyph glyph-name="Tcommaaccent" unicode="&#x21a;" horiz-adv-x="1977" 
d="M802 0v2551h-759v308h1891v-308h-759v-2551h-373zM336 -665q102 0 170 12t112 33t69 48.5t42 59t30 63t32 61.5q15 23 32.5 40.5t38.5 29.5t45 18.5t51 6.5q41 0 76 -14.5t61 -40t40.5 -60.5t14.5 -76q0 -56 -24.5 -106.5t-69 -93t-106.5 -76t-137 -57t-160.5 -36
t-175.5 -12.5q-20 0 -38.5 0.5t-36 1.5t-34 2t-31.5 2z" />
    <glyph glyph-name="tcommaaccent" unicode="&#x21b;" horiz-adv-x="1328" 
d="M1184 3q-29 -8 -66 -14.5t-78 -11t-84.5 -7.5t-86.5 -3q-75 0 -140.5 11t-120.5 36.5t-98.5 66.5t-74 101.5t-46.5 142t-16 186.5v1298h-290v278h287l84 607h276v-607h454v-278h-454v-1208q0 -76 8 -130.5t23.5 -92t39.5 -60.5t56.5 -35.5t73 -17t89.5 -4.5h164v-258z
M156 -665q102 0 170 12t112 33t69 48.5t42 59t30 63t32 61.5q15 23 32.5 40.5t38.5 29.5t45 18.5t51 6.5q41 0 76 -14.5t61 -40t40.5 -60.5t14.5 -76q0 -56 -24.5 -106.5t-69 -93t-106.5 -76t-137 -57t-160.5 -36t-175.5 -12.5q-20 0 -38.5 0.5t-36 1.5t-34 2t-31.5 2z" />
    <glyph glyph-name="dotlessj" unicode="&#x237;" horiz-adv-x="989" 
d="M-93 -590h175q65 0 112.5 25.5t79 81.5t47.5 144.5t16 214.5v2211h357v-2170q0 -162 -18.5 -284.5t-52 -212.5t-83 -150t-111 -95.5t-135.5 -50.5t-156 -15q-31 0 -63 2t-63.5 6t-61 10t-54.5 13z" />
    <glyph glyph-name="dotlessj" unicode="&#xf6be;" horiz-adv-x="989" 
d="M-93 -590h175q65 0 112.5 25.5t79 81.5t47.5 144.5t16 214.5v2211h357v-2170q0 -162 -18.5 -284.5t-52 -212.5t-83 -150t-111 -95.5t-135.5 -50.5t-156 -15q-31 0 -63 2t-63.5 6t-61 10t-54.5 13z" />
    <glyph glyph-name="apostrophe" unicode="&#x2bc;" horiz-adv-x="231" 
d="M0 2312q59 74 96.5 133.5t59.5 106t30.5 82t8.5 63.5q0 23 -5 41.5t-13 35.5t-16.5 33t-16.5 34t-13 38t-5 46q0 43 13 80.5t38.5 65.5t62.5 44t84 16q40 0 76 -16t63 -47t42.5 -76.5t15.5 -103.5q0 -62 -20 -137t-65.5 -161.5t-118.5 -184.5t-180 -205z" />
    <glyph glyph-name="circumflex" unicode="&#x2c6;" horiz-adv-x="1324" 
d="M525 2755l-383 -357l-142 173l532 551l534 -547l-153 -177z" />
    <glyph glyph-name="caron" unicode="&#x2c7;" horiz-adv-x="1324" 
d="M0 2950l152 179l390 -359l383 359l144 -174l-535 -555z" />
    <glyph glyph-name="breve" unicode="&#x2d8;" horiz-adv-x="1098" 
d="M1049 3036q0 -82 -12.5 -156.5t-38 -142t-67 -123.5t-100.5 -97t-136.5 -63.5t-173.5 -22.5q-98 0 -176 23t-136 65t-98 98.5t-64.5 123.5t-35.5 140.5t-11 154.5h235q0 -74 18.5 -137.5t55 -112t92 -75.5t126.5 -27q68 0 121.5 23t90.5 68t56 110.5t19 150.5h235z" />
    <glyph glyph-name="dotaccent" unicode="&#x2d9;" horiz-adv-x="1041" 
d="M520 2502q-52 0 -96.5 18t-76.5 50.5t-50.5 77t-18.5 97.5t18.5 97.5t50.5 77t76.5 50.5t96.5 18t96.5 -18t76.5 -50.5t50 -77t18 -97.5t-18 -97.5t-50 -77t-76.5 -50.5t-96.5 -18z" />
    <glyph glyph-name="ring" unicode="&#x2da;" horiz-adv-x="1006" 
d="M387 2355q-104 0 -185 31t-134.5 87.5t-80.5 133.5t-27 168q0 94 30 174t88 139t140.5 91t185.5 32q98 0 177.5 -29.5t135 -85t84.5 -132.5t29 -171q0 -93 -31 -173.5t-89.5 -140t-140.5 -92t-182 -32.5zM400 2539q45 0 80 18t58.5 51t35.5 76t12 93q0 55 -11.5 100.5
t-35 79t-60.5 52t-87 18.5q-43 0 -78.5 -17.5t-59.5 -49t-36.5 -74.5t-12.5 -93q0 -59 11 -105.5t34 -79.5t60.5 -51t89.5 -18z" />
    <glyph glyph-name="ogonek" unicode="&#x2db;" horiz-adv-x="1085" 
d="M952 -772q-33 -12 -70 -23t-77.5 -18.5t-82.5 -12.5t-86 -5q-114 0 -194.5 24.5t-131 69t-73.5 107t-23 138.5q0 61 20 124.5t57 127t90.5 124.5t120.5 116h289q-63 -58 -110 -115t-77.5 -110.5t-45.5 -102.5t-15 -90q0 -43 9.5 -75.5t30 -54.5t53 -32.5t79.5 -10.5
q22 0 45.5 2.5t47.5 7t49 12t51 18.5z" />
    <glyph glyph-name="tilde" unicode="&#x2dc;" horiz-adv-x="1517" 
d="M1280 2859q-29 -76 -70.5 -137t-94.5 -104t-114.5 -65.5t-129.5 -22.5q-59 0 -107.5 12t-85 31t-84 50.5t-70 45.5t-56 25.5t-72.5 11.5q-32 0 -63.5 -13t-60.5 -38t-54.5 -61.5t-46.5 -82.5l-171 136q30 76 72 137t94 103.5t113.5 65t129.5 22.5q59 0 107 -12t85 -30.5
t84 -50t69.5 -45.5t56 -26t71.5 -12q33 0 64.5 13t61 38.5t55 61t46.5 81.5z" />
    <glyph glyph-name="hungarumlaut" unicode="&#x2dd;" horiz-adv-x="1445" 
d="M715 2531l422 574l269 -177l-496 -529zM2 2530l402 582l268 -178l-479 -533z" />
    <glyph glyph-name="uni0312" unicode="&#x312;" horiz-adv-x="1714" 
d="M1466 2793q-77 0 -134.5 -7.5t-99.5 -20.5t-71 -31t-49 -38.5t-33 -43.5t-23.5 -46.5t-20.5 -46.5t-24 -43q-15 -24 -33 -42t-38.5 -30t-44.5 -18t-50 -6q-41 0 -76 14.5t-60.5 40t-40.5 60.5t-15 76q0 56 24 106t68 92.5t105.5 76.5t136 58t160.5 36.5t179 12.5
q19 0 38 -0.5t36.5 -1.5t34.5 -2t31 -2v-194z" />
    <glyph glyph-name="uni0315" unicode="&#x315;" horiz-adv-x="1434" 
d="M599 2348l203 794l316 -64l-275 -772z" />
    <glyph glyph-name="uni0326" unicode="&#x326;" horiz-adv-x="1723" 
d="M311 -665q102 0 170 12t112 33t69 48.5t42 59t30 63t32 61.5q15 23 32.5 40.5t38.5 29.5t45 18.5t51 6.5q41 0 76 -14.5t61 -40t40.5 -60.5t14.5 -76q0 -56 -24.5 -106.5t-69 -93t-106.5 -76t-137 -57t-160.5 -36t-175.5 -12.5q-20 0 -38.5 0.5t-36 1.5t-34 2t-31.5 2z
" />
    <glyph glyph-name="tonos" unicode="&#x384;" horiz-adv-x="667" 
d="M124 2429l109 669l318 -33l-181 -663z" />
    <glyph glyph-name="dieresistonos" unicode="&#x385;" horiz-adv-x="1391" 
d="M1008 2569q-42 0 -77.5 14.5t-61 40.5t-39.5 61.5t-14 78.5q0 42 14 77.5t39.5 61.5t61 40.5t77.5 14.5q41 0 75.5 -14.5t60 -40.5t39.5 -61.5t14 -77.5q0 -43 -14 -78.5t-39.5 -61.5t-60 -40.5t-75.5 -14.5zM129 2569q-42 0 -77 14.5t-60 40.5t-38.5 61.5t-13.5 78.5
q0 42 13.5 77.5t38.5 61.5t60 40.5t77 14.5t77 -14.5t60.5 -40.5t39.5 -61.5t14 -77.5q0 -43 -14 -78.5t-39.5 -61.5t-60.5 -40.5t-77 -14.5zM368 2425l109 672l314 -33l-183 -666z" />
    <glyph glyph-name="Alphatonos" unicode="&#x386;" horiz-adv-x="2454" 
d="M1947 0q-23 91 -47 185.5t-49 190.5t-50.5 191.5t-52.5 189.5h-1070q-27 -94 -53.5 -190t-51.5 -192t-49.5 -190.5t-47.5 -184.5h-381q103 381 212 749.5t224.5 725.5t236 702.5t247.5 681.5h420q137 -359 263 -718t241 -717.5t220 -714.5t199 -709h-411zM1671 1054
q-41 137 -85 279t-90 286t-94 288.5t-96 286.5q-12 36 -24 74t-24.5 76.5t-23.5 76.5t-22 72h-4q-11 -34 -23.5 -72t-25 -76.5t-24.5 -76t-23 -71.5q-47 -140 -93 -283.5t-91.5 -288.5t-89 -288.5t-84.5 -282.5h917zM294 2429l109 669l318 -33l-181 -663z" />
    <glyph glyph-name="anoteleia" unicode="&#x387;" horiz-adv-x="1021" 
d="M510 1846q-55 0 -102 20.5t-81.5 56t-54 83.5t-19.5 104t19.5 104.5t54 84.5t82 56.5t102.5 20.5t102 -20.5t81.5 -56.5t54 -84.5t19.5 -103.5q0 -56 -19.5 -104.5t-54 -84t-82 -56t-102.5 -20.5z" />
    <glyph glyph-name="Epsilontonos" unicode="&#x388;" horiz-adv-x="2011" 
d="M333 0v2859h1421v-300h-1051v-923h916v-296h-916v-1038h1067v-302h-1437zM-281 2429l109 669l318 -33l-181 -663z" />
    <glyph glyph-name="Etatonos" unicode="&#x389;" horiz-adv-x="2553" 
d="M1850 0v1330h-1146v-1330h-371v2859h371v-1210h1146v1210h371v-2859h-371zM-286 2429l109 669l318 -33l-181 -663z" />
    <glyph glyph-name="Iotatonos" unicode="&#x38a;" horiz-adv-x="1038" 
d="M333 0v2859h371v-2859h-371zM-286 2429l109 669l318 -33l-181 -663z" />
    <glyph glyph-name="Omicrontonos" unicode="&#x38c;" horiz-adv-x="2810" 
d="M1389 -48q-199 0 -364.5 46.5t-297.5 134.5t-231 215t-164.5 289t-98.5 357t-33 417t35 419t104.5 363t172.5 298.5t238 224.5t303 141.5t366 49.5q196 0 360.5 -47.5t297 -136.5t232.5 -216.5t167 -289t101 -354t34 -410.5q0 -225 -35 -423.5t-103.5 -365.5t-171 -299
t-238.5 -223.5t-304.5 -140.5t-369.5 -49zM1421 261q146 0 261.5 43t203.5 120.5t150.5 184t102 234t57.5 271.5t18 296q0 171 -19.5 326t-62 287t-108 238.5t-157.5 181t-211 115t-268 40.5q-145 0 -260 -43t-203 -120t-150.5 -183t-102 -233.5t-58 -270.5t-18.5 -293
q0 -175 19.5 -331.5t62 -289.5t108 -239t157.5 -180t210.5 -114t267.5 -40zM-87 2429l109 669l318 -33l-181 -663z" />
    <glyph glyph-name="Upsilontonos" unicode="&#x38e;" horiz-adv-x="2155" 
d="M893 0v1219q-126 198 -243 401.5t-225 409.5t-208 414t-192 415h415q46 -111 95.5 -222.5t102 -224t108 -224t113.5 -221t119 -216.5t124 -209q59 102 117.5 210t115.5 219t111.5 224t106 225.5t98 222.5t87.5 216h391q-58 -134 -120 -270t-128.5 -272.5t-137.5 -274
t-147.5 -275t-159 -275t-171.5 -273.5v-1219h-372zM-508 2429l109 669l318 -33l-181 -663z" />
    <glyph glyph-name="Omegatonos" unicode="&#x38f;" horiz-adv-x="2834" 
d="M1654 0v288q85 59 159.5 134.5t136.5 165.5t110.5 195t82 223t51.5 248t18 273q0 148 -19 285t-60 256t-104.5 216.5t-151.5 167t-202.5 108t-255.5 38.5t-254 -40.5t-200 -112.5t-150 -172t-103 -218.5t-59.5 -251.5t-19.5 -272q0 -140 16.5 -269t48.5 -246.5t79 -222.5
t109 -196t137.5 -169t164.5 -140v-288h-1021v288h630q-76 57 -147 134.5t-132.5 170.5t-112.5 201t-87 228t-56 250t-20 268q0 194 34.5 370t102.5 328t169.5 275t234.5 211t297.5 135.5t359.5 47.5q186 0 345 -42.5t288.5 -122.5t229 -196.5t166.5 -263.5t101.5 -324
t34.5 -379q0 -134 -20 -265t-57 -254.5t-89 -237t-116 -212t-138 -181t-154 -141.5h644v-288h-1021zM-65 2429l109 669l318 -33l-181 -663z" />
    <glyph glyph-name="iotadieresistonos" unicode="&#x390;" horiz-adv-x="1197" 
d="M1123 0q-30 -7 -62.5 -13t-67.5 -10.5t-71 -7t-74 -2.5q-99 0 -183.5 25.5t-146.5 88t-97.5 167.5t-35.5 263v1298h-310v278h667v-1486q0 -76 8 -130.5t23 -92t36.5 -60.5t50 -35.5t62.5 -17t74 -4.5h127v-261zM1029 2569q-42 0 -77.5 14.5t-61 40.5t-39.5 61.5t-14 78.5
q0 42 14 77.5t39.5 61.5t61 40.5t77.5 14.5q41 0 75.5 -14.5t60 -40.5t39.5 -61.5t14 -77.5q0 -43 -14 -78.5t-39.5 -61.5t-60 -40.5t-75.5 -14.5zM150 2569q-42 0 -77 14.5t-60 40.5t-38.5 61.5t-13.5 78.5q0 42 13.5 77.5t38.5 61.5t60 40.5t77 14.5t77 -14.5t60.5 -40.5
t39.5 -61.5t14 -77.5q0 -43 -14 -78.5t-39.5 -61.5t-60.5 -40.5t-77 -14.5zM389 2425l109 672l314 -33l-183 -666z" />
    <glyph glyph-name="Alpha" unicode="&#x391;" horiz-adv-x="2454" 
d="M1947 0q-23 91 -47 185.5t-49 190.5t-50.5 191.5t-52.5 189.5h-1070q-27 -94 -53.5 -190t-51.5 -192t-49.5 -190.5t-47.5 -184.5h-381q103 381 212 749.5t224.5 725.5t236 702.5t247.5 681.5h420q137 -359 263 -718t241 -717.5t220 -714.5t199 -709h-411zM1671 1054
q-41 137 -85 279t-90 286t-94 288.5t-96 286.5q-12 36 -24 74t-24.5 76.5t-23.5 76.5t-22 72h-4q-11 -34 -23.5 -72t-25 -76.5t-24.5 -76t-23 -71.5q-47 -140 -93 -283.5t-91.5 -288.5t-89 -288.5t-84.5 -282.5h917z" />
    <glyph glyph-name="Beta" unicode="&#x392;" horiz-adv-x="2173" 
d="M333 0v2859h692q135 0 248 -21.5t204 -63.5t159.5 -102.5t115 -139.5t69.5 -175t23 -206q0 -112 -23.5 -209t-67 -176t-106.5 -138t-142 -97q107 -24 198.5 -83.5t158 -149t104 -206t37.5 -253.5q0 -139 -31.5 -255.5t-90 -209.5t-141.5 -163.5t-186 -117t-223 -70
t-253 -23.5h-745zM1053 1625q114 0 192.5 36t127 99.5t70 151t21.5 190.5q0 70 -11.5 131t-35.5 112.5t-61.5 92.5t-89 69.5t-119 44t-151.5 15.5h-297v-942h354zM1110 297q74 0 140.5 15t122.5 44t100.5 72t75.5 99.5t47.5 127t16.5 153.5q0 122 -32.5 220.5t-101 167.5
t-175 106t-254.5 37h-351v-1042h411z" />
    <glyph glyph-name="Gamma" unicode="&#x393;" horiz-adv-x="1714" 
d="M333 0v2859h1300v-308h-929v-2551h-371z" />
    <glyph glyph-name="Delta" unicode="&#x394;" horiz-adv-x="2387" 
d="M145 0l3 304q53 185 103 357t99.5 335t98 318t98 307t100.5 302.5t104.5 303t111 310t119.5 322.5h420q66 -179 127.5 -345.5t118 -326t109 -313t102.5 -305.5t98 -304t95.5 -308t94.5 -318.5t95 -334.5v-304h-2097zM1842 304q-46 176 -97 356.5t-104.5 362.5t-110 365
t-115 366t-118.5 363.5t-120 358.5h-4q-60 -178 -119.5 -359t-116.5 -363.5t-112.5 -365.5t-108 -365.5t-102.5 -362.5t-96 -356h1324z" />
    <glyph glyph-name="Delta" unicode="&#x2206;" horiz-adv-x="2387" 
d="M145 0l3 304q53 185 103 357t99.5 335t98 318t98 307t100.5 302.5t104.5 303t111 310t119.5 322.5h420q66 -179 127.5 -345.5t118 -326t109 -313t102.5 -305.5t98 -304t95.5 -308t94.5 -318.5t95 -334.5v-304h-2097zM1842 304q-46 176 -97 356.5t-104.5 362.5t-110 365
t-115 366t-118.5 363.5t-120 358.5h-4q-60 -178 -119.5 -359t-116.5 -363.5t-112.5 -365.5t-108 -365.5t-102.5 -362.5t-96 -356h1324z" />
    <glyph glyph-name="Epsilon" unicode="&#x395;" horiz-adv-x="2011" 
d="M333 0v2859h1421v-300h-1051v-923h916v-296h-916v-1038h1067v-302h-1437z" />
    <glyph glyph-name="Zeta" unicode="&#x396;" horiz-adv-x="1910" 
d="M114 0v299l1247 2258h-1203v302h1609v-297l-1242 -2258h1265v-304h-1676z" />
    <glyph glyph-name="Eta" unicode="&#x397;" horiz-adv-x="2553" 
d="M1850 0v1330h-1146v-1330h-371v2859h371v-1210h1146v1210h371v-2859h-371z" />
    <glyph glyph-name="Theta" unicode="&#x398;" horiz-adv-x="2816" 
d="M1392 -48q-197 0 -363 46t-298.5 134t-232 215t-166 289.5t-99.5 357t-33 417.5q0 222 35.5 419t105.5 364t173.5 299t239.5 224t304 141t364 49q194 0 359 -47t298 -135.5t233.5 -216.5t168.5 -290t102 -354.5t34 -410.5q0 -225 -35 -424t-104.5 -366.5t-172.5 -299
t-239.5 -223.5t-306 -140t-367.5 -48zM1424 259q143 0 260 42t206.5 119t154 182.5t105.5 234t60 272.5t19 301q0 176 -21 331t-64.5 287.5t-111 238t-160.5 180t-213.5 114t-267.5 39.5q-142 0 -258.5 -42t-206 -118.5t-154 -182t-105.5 -233t-60.5 -271t-19.5 -298.5
q0 -180 21 -337t64.5 -289.5t110.5 -238t160 -179.5t213.5 -113t267.5 -39zM930 1278v274h956v-274h-956z" />
    <glyph glyph-name="Iota" unicode="&#x399;" horiz-adv-x="1038" 
d="M333 0v2859h371v-2859h-371z" />
    <glyph glyph-name="Kappa" unicode="&#x39a;" horiz-adv-x="2256" 
d="M1735 0l-855 1424l-176 -199v-1225h-371v2859h371v-1213q125 149 250.5 300.5t250.5 303.5t249 304.5t247 304.5h465l-1026 -1165l1040 -1694h-445z" />
    <glyph glyph-name="Lambda" unicode="&#x39b;" horiz-adv-x="2447" 
d="M1942 0q-43 175 -90 356t-97.5 363t-104.5 364.5t-110.5 363.5t-114.5 359.5t-119 361.5l-96 306h-4l-102 -319q-92 -284 -176 -554.5t-163 -541t-150.5 -537.5t-132.5 -522h-387q96 359 200 713t218.5 710t239.5 715t261 721h422q135 -353 260 -711.5t238.5 -716
t217 -713t200.5 -718.5h-410z" />
    <glyph glyph-name="Mu" unicode="&#x39c;" horiz-adv-x="3408" 
d="M2736 0q-3 210 -8 418.5t-13 414t-19 408.5t-25.5 403.5t-33 397.5t-41.5 392h-4l-724 -2434h-365l-722 2434h-6q-17 -192 -33.5 -389t-30 -397.5t-24.5 -405t-19 -411t-13.5 -414.5t-7.5 -417h-349q3 232 10 468.5t18.5 475t27.5 478.5t37.5 480t46.5 479.5t56 477.5
h539l676 -2285h7l674 2285h533q30 -241 54.5 -479.5t44.5 -476t35 -474t26.5 -474t19 -476t10.5 -479.5h-377z" />
    <glyph glyph-name="Nu" unicode="&#x39d;" horiz-adv-x="2636" 
d="M1812 0l-1134 2369h-6v-2369h-339v2859h520l1105 -2306h6v2306h339v-2859h-491z" />
    <glyph glyph-name="Xi" unicode="&#x39e;" horiz-adv-x="1909" 
d="M158 2548v311h1593v-311h-1593zM310 1327v310h1289v-310h-1289zM158 0v311h1593v-311h-1593z" />
    <glyph glyph-name="Omicron" unicode="&#x39f;" horiz-adv-x="2810" 
d="M1389 -48q-199 0 -364.5 46.5t-297.5 134.5t-231 215t-164.5 289t-98.5 357t-33 417t35 419t104.5 363t172.5 298.5t238 224.5t303 141.5t366 49.5q196 0 360.5 -47.5t297 -136.5t232.5 -216.5t167 -289t101 -354t34 -410.5q0 -225 -35 -423.5t-103.5 -365.5t-171 -299
t-238.5 -223.5t-304.5 -140.5t-369.5 -49zM1421 261q146 0 261.5 43t203.5 120.5t150.5 184t102 234t57.5 271.5t18 296q0 171 -19.5 326t-62 287t-108 238.5t-157.5 181t-211 115t-268 40.5q-145 0 -260 -43t-203 -120t-150.5 -183t-102 -233.5t-58 -270.5t-18.5 -293
q0 -175 19.5 -331.5t62 -289.5t108 -239t157.5 -180t210.5 -114t267.5 -40z" />
    <glyph glyph-name="Pi" unicode="&#x3a0;" horiz-adv-x="2553" 
d="M1850 0v2551h-1146v-2551h-371v2859h1888v-2859h-371z" />
    <glyph glyph-name="Rho" unicode="&#x3a1;" horiz-adv-x="2119" 
d="M333 0v2859h692q91 0 176 -8t161 -27q136 -33 244.5 -103.5t185 -173.5t117 -236t40.5 -291q0 -215 -62 -386t-180 -290t-289 -182.5t-390 -63.5h-324v-1098h-371zM1053 1396q124 0 217.5 43t156.5 121.5t95 188.5t32 244q0 101 -21.5 189.5t-63 159t-101.5 120
t-136 71.5q-27 8 -56 13.5t-60 9t-61 5t-58 1.5h-293v-1166h349z" />
    <glyph glyph-name="Sigma" unicode="&#x3a3;" horiz-adv-x="1822" 
d="M130 0v299l764 1170l-749 1092v298h1544v-304h-1102l735 -1067l-777 -1184h1144v-304h-1559z" />
    <glyph glyph-name="Tau" unicode="&#x3a4;" horiz-adv-x="1977" 
d="M802 0v2551h-759v308h1891v-308h-759v-2551h-373z" />
    <glyph glyph-name="Upsilon" unicode="&#x3a5;" horiz-adv-x="2155" 
d="M893 0v1219q-126 198 -243 401.5t-225 409.5t-208 414t-192 415h415q46 -111 95.5 -222.5t102 -224t108 -224t113.5 -221t119 -216.5t124 -209q59 102 117.5 210t115.5 219t111.5 224t106 225.5t98 222.5t87.5 216h391q-58 -134 -120 -270t-128.5 -272.5t-137.5 -274
t-147.5 -275t-159 -275t-171.5 -273.5v-1219h-372z" />
    <glyph glyph-name="Phi" unicode="&#x3a6;" horiz-adv-x="3025" 
d="M1331 -432v433q-176 9 -328.5 56t-278 131t-223.5 203.5t-164.5 273t-101.5 340.5t-35 405q0 217 38 404t108.5 342.5t171.5 278t227 211t273.5 142.5t312.5 71v417h363v-418q133 -7 252 -35.5t223 -77.5t193.5 -119t162.5 -159.5t129 -199t94 -237t58 -273.5t20 -309
q0 -218 -38 -405t-108.5 -342t-171 -278t-226.5 -211.5t-274.5 -142t-313.5 -69.5v-432h-363zM1336 2549q-121 -14 -224 -59.5t-186.5 -118t-147 -169.5t-106.5 -214t-64.5 -251t-21.5 -282q0 -172 21.5 -320.5t64 -272.5t106 -221.5t147 -168t186.5 -111.5t225 -52v2240z
M1690 309q121 14 224 60t186 118.5t146.5 169t106.5 213.5t65 251t22 281q0 172 -21.5 321t-64.5 273t-106.5 221.5t-146.5 168t-186.5 112t-224.5 51.5v-2240z" />
    <glyph glyph-name="Chi" unicode="&#x3a7;" horiz-adv-x="2284" 
d="M1792 0l-660 1207l-654 -1207h-433l860 1483l-780 1376h440l590 -1085l585 1085h422l-780 -1359l857 -1500h-447z" />
    <glyph glyph-name="Psi" unicode="&#x3a8;" horiz-adv-x="2967" 
d="M1300 0v673q-198 7 -352 45.5t-268 103t-192 152.5t-125.5 194.5t-68.5 227.5t-21 256v1207h367v-1132q0 -105 11.5 -197t39 -171.5t76 -144.5t121.5 -113t175 -77t237 -36v1871h367v-1871q116 7 209 29.5t166.5 64t127 104.5t88.5 151t52 202.5t17 260.5v1059h366v-1097
q0 -186 -33 -337t-96.5 -270t-154 -206.5t-204.5 -146.5t-249.5 -90.5t-288.5 -38.5v-673h-367z" />
    <glyph glyph-name="Omega" unicode="&#x3a9;" horiz-adv-x="2834" 
d="M1654 0v288q85 59 159.5 134.5t136.5 165.5t110.5 195t82 223t51.5 248t18 273q0 148 -19 285t-60 256t-104.5 216.5t-151.5 167t-202.5 108t-255.5 38.5t-254 -40.5t-200 -112.5t-150 -172t-103 -218.5t-59.5 -251.5t-19.5 -272q0 -140 16.5 -269t48.5 -246.5t79 -222.5
t109 -196t137.5 -169t164.5 -140v-288h-1021v288h630q-76 57 -147 134.5t-132.5 170.5t-112.5 201t-87 228t-56 250t-20 268q0 194 34.5 370t102.5 328t169.5 275t234.5 211t297.5 135.5t359.5 47.5q186 0 345 -42.5t288.5 -122.5t229 -196.5t166.5 -263.5t101.5 -324
t34.5 -379q0 -134 -20 -265t-57 -254.5t-89 -237t-116 -212t-138 -181t-154 -141.5h644v-288h-1021z" />
    <glyph glyph-name="Omega" unicode="&#x2126;" horiz-adv-x="2834" 
d="M1654 0v288q85 59 159.5 134.5t136.5 165.5t110.5 195t82 223t51.5 248t18 273q0 148 -19 285t-60 256t-104.5 216.5t-151.5 167t-202.5 108t-255.5 38.5t-254 -40.5t-200 -112.5t-150 -172t-103 -218.5t-59.5 -251.5t-19.5 -272q0 -140 16.5 -269t48.5 -246.5t79 -222.5
t109 -196t137.5 -169t164.5 -140v-288h-1021v288h630q-76 57 -147 134.5t-132.5 170.5t-112.5 201t-87 228t-56 250t-20 268q0 194 34.5 370t102.5 328t169.5 275t234.5 211t297.5 135.5t359.5 47.5q186 0 345 -42.5t288.5 -122.5t229 -196.5t166.5 -263.5t101.5 -324
t34.5 -379q0 -134 -20 -265t-57 -254.5t-89 -237t-116 -212t-138 -181t-154 -141.5h644v-288h-1021z" />
    <glyph glyph-name="Iotadieresis" unicode="&#x3aa;" horiz-adv-x="1038" 
d="M333 0v2859h371v-2859h-371zM892 3098q-43 0 -80 16t-64 43.5t-42.5 65t-15.5 80.5t15.5 81t42.5 66t64 44t80 16t80 -16t64 -44t42 -66t15 -81t-15 -80.5t-42 -65t-64 -43.5t-80 -16zM150 3098q-42 0 -79 16t-64 43.5t-42.5 65t-15.5 80.5t15.5 81t42.5 66t64 44t79 16
q45 0 81.5 -16t63.5 -44t42 -66t15 -81t-15 -80.5t-42 -65t-63.5 -43.5t-81.5 -16z" />
    <glyph glyph-name="Upsilondieresis" unicode="&#x3ab;" horiz-adv-x="2155" 
d="M893 0v1219q-126 198 -243 401.5t-225 409.5t-208 414t-192 415h415q46 -111 95.5 -222.5t102 -224t108 -224t113.5 -221t119 -216.5t124 -209q59 102 117.5 210t115.5 219t111.5 224t106 225.5t98 222.5t87.5 216h391q-58 -134 -120 -270t-128.5 -272.5t-137.5 -274
t-147.5 -275t-159 -275t-171.5 -273.5v-1219h-372zM1483 3098q-42 0 -79 16t-64 43t-42.5 64.5t-15.5 81.5t15.5 82t42.5 65.5t64 43.5t79 16q44 0 81 -16t64 -43.5t42 -65.5t15 -82t-15 -81.5t-42 -64.5t-64 -43t-81 -16zM684 3098q-42 0 -79 16t-64 43t-42.5 64.5
t-15.5 81.5t15.5 82t42.5 65.5t64 43.5t79 16q44 0 81 -16t64 -43.5t42 -65.5t15 -82t-15 -81.5t-42 -64.5t-64 -43t-81 -16z" />
    <glyph glyph-name="alphatonos" unicode="&#x3ac;" horiz-adv-x="2388" 
d="M2236 -2q-19 -6 -42.5 -11.5t-49.5 -10t-53 -7t-55 -2.5q-73 0 -126 17.5t-93 64t-69.5 126.5t-56.5 205q-23 -55 -57 -108t-78.5 -100.5t-100 -87.5t-122.5 -69.5t-146 -46t-169 -16.5q-195 0 -351.5 74t-266.5 212.5t-168.5 335.5t-58.5 444q0 170 28 319t81.5 273
t131 221.5t176.5 165t218.5 103t256.5 35.5q93 0 172 -18.5t144.5 -50t117.5 -74.5t93 -93.5t70 -105.5t48 -111q4 34 7 65.5t6 62l6 61t5.5 64t4.5 71t5 81.5h352q-14 -155 -29.5 -299.5t-32 -284t-35 -276t-37.5 -276.5q17 -158 33.5 -271t32 -189.5t31.5 -122t33.5 -69.5
t36.5 -31t43 -7h64v-263zM1080 245q123 0 221 53.5t166.5 153t105 243t36.5 324.5q0 125 -15.5 235.5t-45.5 202t-75.5 163t-105 121.5t-134 75.5t-163.5 25.5q-127 0 -224 -57t-162.5 -160.5t-99.5 -246t-34 -313.5q0 -123 15 -232t44 -200t73 -163t103 -122t132.5 -76.5
t162.5 -26.5zM926 2429l109 669l318 -33l-181 -663z" />
    <glyph glyph-name="epsilontonos" unicode="&#x3ad;" horiz-adv-x="1716" 
d="M1600 65q-68 -25 -143.5 -45.5t-159 -36t-175.5 -23.5t-193 -8q-106 0 -204 15.5t-183.5 47.5t-155.5 80.5t-119.5 114t-77 148.5t-27.5 184q0 103 33 190.5t89.5 156t132.5 115.5t162 68q-74 29 -134.5 73.5t-102.5 105t-65 135t-23 162.5q0 132 53.5 240t152 185
t239.5 119.5t316 42.5q62 0 119.5 -4t111.5 -11.5t104 -17.5t95.5 -23t87 -28.5t78.5 -31.5l-70 -278q-55 24 -114.5 44.5t-124 35.5t-135 23.5t-148.5 8.5q-90 0 -163 -22t-124.5 -63t-79.5 -99.5t-28 -130.5q0 -69 22 -130.5t70 -108t125 -73.5t188 -27h329v-261h-332
q-124 0 -215 -25.5t-151 -71.5t-89.5 -110.5t-29.5 -143.5q0 -87 30.5 -153t87.5 -110.5t138 -67t182 -22.5q76 0 149 7.5t143 22t137.5 34.5t134.5 45zM850 2429l109 669l318 -33l-181 -663z" />
    <glyph glyph-name="etatonos" unicode="&#x3ae;" horiz-adv-x="2202" 
d="M1560 -850v2116q0 127 -18 232.5t-60.5 180.5t-111.5 116t-172 41q-80 0 -147 -21.5t-131 -66.5t-128.5 -113t-139.5 -161v-1474h-357v2087h277l40 -304q76 89 149.5 155.5t152 110t165.5 65t188 21.5q120 0 215 -28.5t167 -81t123 -125.5t83 -162t47 -191t15 -211v-2186
h-357zM949 2429l109 669l318 -33l-181 -663z" />
    <glyph glyph-name="iotatonos" unicode="&#x3af;" horiz-adv-x="1197" 
d="M1123 0q-30 -7 -62.5 -13t-67.5 -10.5t-71 -7t-74 -2.5q-99 0 -183.5 25.5t-146.5 88t-97.5 167.5t-35.5 263v1298h-310v278h667v-1486q0 -76 8 -130.5t23 -92t36.5 -60.5t50 -35.5t62.5 -17t74 -4.5h127v-261zM384 2429l109 669l318 -33l-181 -663z" />
    <glyph glyph-name="upsilondieresistonos" unicode="&#x3b0;" horiz-adv-x="2161" 
d="M285 2087h357v-1270q0 -147 23.5 -254.5t74.5 -177.5t132.5 -104t197.5 -34q81 0 150.5 21t125 67t97.5 117.5t70 172t42.5 231.5t14.5 296q0 85 -1.5 163t-5.5 153t-9 149t-11 149.5t-14.5 155t-17.5 165.5h357q9 -79 17 -154t14.5 -148.5t11.5 -147t8.5 -149.5
t5.5 -156.5t2 -167.5q0 -219 -27 -394.5t-79.5 -310t-129.5 -230.5t-176.5 -157.5t-219.5 -90.5t-260 -29q-189 0 -329.5 49t-234 149t-140 252t-46.5 358v1327zM1532 2569q-42 0 -77.5 14.5t-61 40.5t-39.5 61.5t-14 78.5q0 42 14 77.5t39.5 61.5t61 40.5t77.5 14.5
q41 0 75.5 -14.5t60 -40.5t39.5 -61.5t14 -77.5q0 -43 -14 -78.5t-39.5 -61.5t-60 -40.5t-75.5 -14.5zM653 2569q-42 0 -77 14.5t-60 40.5t-38.5 61.5t-13.5 78.5q0 42 13.5 77.5t38.5 61.5t60 40.5t77 14.5t77 -14.5t60.5 -40.5t39.5 -61.5t14 -77.5q0 -43 -14 -78.5
t-39.5 -61.5t-60.5 -40.5t-77 -14.5zM892 2425l109 672l314 -33l-183 -666z" />
    <glyph glyph-name="alpha" unicode="&#x3b1;" horiz-adv-x="2388" 
d="M2236 -2q-19 -6 -42.5 -11.5t-49.5 -10t-53 -7t-55 -2.5q-73 0 -126 17.5t-93 64t-69.5 126.5t-56.5 205q-23 -55 -57 -108t-78.5 -100.5t-100 -87.5t-122.5 -69.5t-146 -46t-169 -16.5q-195 0 -351.5 74t-266.5 212.5t-168.5 335.5t-58.5 444q0 170 28 319t81.5 273
t131 221.5t176.5 165t218.5 103t256.5 35.5q93 0 172 -18.5t144.5 -50t117.5 -74.5t93 -93.5t70 -105.5t48 -111q4 34 7 65.5t6 62l6 61t5.5 64t4.5 71t5 81.5h352q-14 -155 -29.5 -299.5t-32 -284t-35 -276t-37.5 -276.5q17 -158 33.5 -271t32 -189.5t31.5 -122t33.5 -69.5
t36.5 -31t43 -7h64v-263zM1080 245q123 0 221 53.5t166.5 153t105 243t36.5 324.5q0 125 -15.5 235.5t-45.5 202t-75.5 163t-105 121.5t-134 75.5t-163.5 25.5q-127 0 -224 -57t-162.5 -160.5t-99.5 -246t-34 -313.5q0 -123 15 -232t44 -200t73 -163t103 -122t132.5 -76.5
t162.5 -26.5z" />
    <glyph glyph-name="beta" unicode="&#x3b2;" horiz-adv-x="2130" 
d="M295 -850v3000q0 149 23.5 278t70 234t115 187t158 137.5t201 84t243.5 28.5q189 0 325 -52.5t224.5 -147t130 -227t41.5 -292.5q0 -120 -24.5 -229.5t-71 -201t-113 -161t-151.5 -109.5q78 -20 146.5 -53.5t126 -81.5t102 -110t76 -138.5t47.5 -166.5t16 -195
q0 -215 -61.5 -393.5t-179.5 -306t-289.5 -197.5t-389.5 -70q-64 0 -121 7t-108 19.5t-96 29t-85 37.5l2 -910h-358zM924 1463v290h65q78 0 143.5 21t118.5 60t93.5 93.5t68 119.5t41 139.5t13.5 153.5q0 106 -21 192t-67.5 147t-120.5 94t-181 33q-74 0 -133.5 -18.5
t-106.5 -55t-82 -89t-57.5 -120t-33.5 -150t-11 -177.5v-1819q52 -30 100.5 -52t97 -36.5t99.5 -21.5t108 -7q85 1 158.5 21.5t135 59.5t109 95.5t80.5 129t50 159.5t17 187q0 130 -36.5 232t-110.5 173t-186 108.5t-260 37.5h-91z" />
    <glyph glyph-name="gamma" unicode="&#x3b3;" horiz-adv-x="1847" 
d="M669 -850l-34 561q-10 158 -33.5 323.5t-60.5 343t-86 370t-110.5 404t-134 444.5t-156.5 491h372q60 -187 107.5 -341t86 -283t68.5 -236.5t54.5 -200t44 -174.5t37.5 -161q10 -42 18 -79t14.5 -73t12.5 -72t13 -76h5q71 123 134.5 250.5t118 261t97.5 273.5t73.5 287.5
t47 303t15.5 320.5h356q0 -204 -27 -396t-76.5 -373.5t-119 -353.5t-154 -338t-182 -325.5t-203.5 -315.5q7 -109 14.5 -214.5t14 -209t12 -206t10.5 -205.5h-349z" />
    <glyph glyph-name="delta" unicode="&#x3b4;" horiz-adv-x="2104" 
d="M1019 1821q-82 -38 -149 -91t-120 -117.5t-91 -139t-63 -156t-37.5 -169t-12.5 -177.5q0 -106 14 -200.5t42.5 -175.5t71.5 -145.5t101 -110t131.5 -70t162.5 -24.5q125 0 221 52t161 144.5t98.5 221.5t33.5 284q0 105 -15 196t-45.5 170.5t-76.5 148.5t-109 131
t-142 118.5t-176 109.5zM1704 2711q-39 16 -80 31t-83.5 27.5t-87.5 22.5t-92.5 17.5t-99 11.5t-105.5 4q-92 0 -158 -19.5t-109 -53.5t-64 -81.5t-21 -104.5q0 -48 12 -89t37 -79t63.5 -74.5t92 -76t123 -83.5t155.5 -96q102 -63 191.5 -128.5t164 -139t133 -157
t98.5 -181.5t61.5 -212.5t21.5 -249.5q0 -158 -28 -297t-82 -255.5t-132.5 -208.5t-179.5 -155.5t-224 -97.5t-265 -34q-137 0 -256 31t-216 89.5t-173 143t-127.5 193t-78 239t-26.5 280.5q0 105 14 209t44 203t76.5 192t112 177t150 157.5t190.5 133.5q-66 51 -122 106
t-96.5 119t-63 140.5t-22.5 170.5q0 125 45 230.5t134 183t221.5 121t306.5 43.5q95 0 180.5 -8.5t164 -23.5t150 -36t138.5 -45z" />
    <glyph glyph-name="epsilon" unicode="&#x3b5;" horiz-adv-x="1716" 
d="M1600 65q-68 -25 -143.5 -45.5t-159 -36t-175.5 -23.5t-193 -8q-106 0 -204 15.5t-183.5 47.5t-155.5 80.5t-119.5 114t-77 148.5t-27.5 184q0 103 33 190.5t89.5 156t132.5 115.5t162 68q-74 29 -134.5 73.5t-102.5 105t-65 135t-23 162.5q0 132 53.5 240t152 185
t239.5 119.5t316 42.5q62 0 119.5 -4t111.5 -11.5t104 -17.5t95.5 -23t87 -28.5t78.5 -31.5l-70 -278q-55 24 -114.5 44.5t-124 35.5t-135 23.5t-148.5 8.5q-90 0 -163 -22t-124.5 -63t-79.5 -99.5t-28 -130.5q0 -69 22 -130.5t70 -108t125 -73.5t188 -27h329v-261h-332
q-124 0 -215 -25.5t-151 -71.5t-89.5 -110.5t-29.5 -143.5q0 -87 30.5 -153t87.5 -110.5t138 -67t182 -22.5q76 0 149 7.5t143 22t137.5 34.5t134.5 45z" />
    <glyph glyph-name="zeta" unicode="&#x3b6;" horiz-adv-x="1472" 
d="M930 -775q47 77 86 140.5t66.5 122t42.5 115.5t15 120q0 55 -23 97t-74 77.5t-133 67.5t-200 66q-97 28 -175.5 65t-138.5 85t-103 110.5t-70.5 143t-40.5 180.5t-13 225q0 130 22 268.5t60 280t91 282t115 274t131 257.5t140 231.5t141.5 194.5t136.5 150h-776v294h1198
v-272q-93 -79 -180.5 -180t-167 -216.5t-150 -243t-130 -259.5t-106.5 -265t-80 -260.5t-50.5 -245.5t-17.5 -221q0 -95 7 -170t23.5 -134.5t45 -104.5t70.5 -80t100.5 -63t136.5 -51q147 -46 253 -93.5t174.5 -106t101 -133.5t32.5 -175q0 -103 -22.5 -194t-61.5 -175.5
t-91 -165t-111 -162.5z" />
    <glyph glyph-name="eta" unicode="&#x3b7;" horiz-adv-x="2202" 
d="M1560 -850v2116q0 127 -18 232.5t-60.5 180.5t-111.5 116t-172 41q-80 0 -147 -21.5t-131 -66.5t-128.5 -113t-139.5 -161v-1474h-357v2087h277l40 -304q76 89 149.5 155.5t152 110t165.5 65t188 21.5q120 0 215 -28.5t167 -81t123 -125.5t83 -162t47 -191t15 -211v-2186
h-357z" />
    </font>
</defs>
</svg>
