<?xml version="1.0" standalone="no"?>
<!DOCTYPE svg PUBLIC "-//W3C//DTD SVG 1.1//EN" "http://www.w3.org/Graphics/SVG/1.1/DTD/svg11.dtd" >
<svg xmlns="http://www.w3.org/2000/svg" xmlns:xlink="http://www.w3.org/1999/xlink" version="1.1">
<metadata>
Created by FontForge 20170731 at Wed Sep  9 18:27:44 2015
 By Aleksey,,,
Copyright [c] 1997, 2002, 2005, 2011, 2015 Luc(as) de Groot, published by LucasFonts.
</metadata>
<defs>
<font id="CorpidE3SCd-Light" horiz-adv-x="2048" >
  <font-face 
    font-family="Corpid E3 SCd Light"
    font-weight="300"
    font-stretch="normal"
    units-per-em="4096"
    panose-1="2 11 3 3 4 5 2 6 2 4"
    ascent="3191"
    descent="-905"
    x-height="2073"
    cap-height="2859"
    bbox="-434 -905 4178 4010"
    underline-thickness="205"
    underline-position="-1211"
    unicode-range="U+000D-FB06"
  />
<missing-glyph horiz-adv-x="2253" 
d="M614 614v1024h205v-819h410v-205h-615zM205 205v1843h1843v-1843h-1843zM1434 614v410h-410v205h410v205h-410v204h614v-1024h-204zM1843 1843h-1433v-1433h1433v1433z" />
    <glyph glyph-name="f_b" unicode="fb" horiz-adv-x="3340" 
d="M1524 2877q-58 9 -110.5 15t-101.5 9.5t-94 5t-88 1.5q-99 0 -174 -22.5t-128 -63t-88 -97.5t-55 -126.5t-28 -149.5t-8 -166v-210h481v-189h-481v-1884h-235v1884h-314v189h314v198q0 127 16 238.5t51.5 205t92.5 167t139 124.5t190.5 78t247.5 27q77 0 156 -4.5
t156.5 -11.5t152 -17t143.5 -20v-1307q71 89 144 156.5t153.5 113.5t172 69t200.5 23q127 0 229 -37t180 -103.5t134 -160t92 -205.5t52.5 -240.5t16.5 -264.5q0 -147 -23 -287.5t-71 -265.5t-122 -230t-176.5 -181t-233.5 -118.5t-293 -42.5q-88 0 -177 7.5t-176.5 21
t-172.5 33t-164 45.5v2793zM1759 256q52 -23 108.5 -40t116 -29t122.5 -18t130 -6q165 0 286 64.5t200 185t118 293.5t39 390q0 95 -9 193t-30.5 189t-57.5 171t-90 139.5t-128 94t-170 34.5q-81 0 -154.5 -21.5t-149 -71.5t-156 -133t-175.5 -207v-1228z" />
    <glyph glyph-name="f_h" unicode="fh" horiz-adv-x="3369" 
d="M2809 0v1278q0 91 -8.5 173.5t-28.5 153t-52.5 127.5t-79 97t-109 61.5t-141.5 21.5q-93 0 -170.5 -25t-151 -76.5t-148 -130.5t-161.5 -185v-1495h-235v2877q-58 9 -110.5 15t-101.5 9.5t-94 5t-88 1.5q-99 0 -174 -22.5t-128 -63.5t-88 -98.5t-55 -127t-28 -149.5
t-8 -166v-208h481v-189h-481v-1884h-235v1884h-314v189h314v196q0 127 16 238.5t51.5 205.5t92.5 167.5t139 124.5t190.5 78.5t247.5 27.5q77 0 156 -4.5t156.5 -11.5t152 -17t143.5 -20v-1309q75 91 148.5 159t152.5 113.5t166 68.5t188 23q121 0 215 -30t164 -84.5
t118 -128.5t78 -162.5t43 -187t13 -199.5v-1321h-236z" />
    <glyph glyph-name="f_j" unicode="fj" horiz-adv-x="2093" 
d="M1642 2562q-40 0 -74 14.5t-59 40t-39 60.5t-14 76q0 40 14 75t39 60.5t59 40t74 14.5q41 0 75.5 -15t59 -40.5t38.5 -60t14 -74.5q0 -41 -14.5 -76t-39.5 -60.5t-59 -40t-74 -14.5zM1055 -691h192q71 0 123.5 30t86.5 94.5t50.5 166t16.5 244.5v2040h-875v-1884h-235
v1884h-314v189h314v216q0 125 10 234t35 200.5t67.5 163t108 121t155 75.5t209.5 26q37 0 62 -1t46.5 -3t42 -6.5t48.5 -10.5v-180h-162q-92 0 -156.5 -21t-107.5 -60t-67.5 -93t-37 -120.5t-15.5 -143.5t-3 -160v-237h1110v-2186q0 -169 -18 -292.5t-51 -211t-79 -142
t-101.5 -85.5t-119.5 -42t-133 -11q-29 0 -58 2t-56 6t-51.5 10t-45.5 13z" />
    <glyph glyph-name="f_k" unicode="fk" horiz-adv-x="3086" 
d="M2703 0l-792 1122l-152 -143v-979h-235v2877q-58 9 -110.5 15t-101.5 9.5t-94 5t-88 1.5q-99 0 -174 -22.5t-128 -63t-88 -97.5t-55 -126.5t-28 -149.5t-8 -166v-210h481v-189h-481v-1884h-235v1884h-314v189h314v198q0 127 16 238.5t51.5 205t92.5 167t139 124.5
t190.5 78t247.5 27q77 0 156 -4.5t156.5 -11.5t152 -17t143.5 -20v-1840q206 208 414 423t411 432h318l-824 -795l930 -1278h-305z" />
    <glyph glyph-name="f_f" unicode="ff" horiz-adv-x="2337" 
d="M1526 0v1884h-877v-1884h-235v1884h-314v189h314v216q0 125 10 234t35 200.5t67.5 163t108 121t155 75.5t209.5 26q34 0 62 -1t53.5 -3t49.5 -6.5t48 -10.5v-180h-176q-95 0 -160 -22t-108 -61.5t-67 -95t-35.5 -122t-14 -142t-2.5 -155.5v-237h877v216q0 125 10 234
t35 200.5t67.5 163t108 121t155 75.5t209.5 26q34 0 62 -1t53.5 -3t49.5 -6.5t48 -10.5v-180h-176q-94 0 -159.5 -22t-108.5 -61.5t-67 -95t-35.5 -122t-14 -142t-2.5 -155.5v-237h488v-189h-488v-1884h-235z" />
    <glyph glyph-name="f_i" unicode="fi" horiz-adv-x="2103" 
d="M1634 2562q-39 0 -73 14.5t-59 40t-39.5 60.5t-14.5 76q0 40 14.5 75t39.5 60.5t59 40t73 14.5t73.5 -14.5t59.5 -40t39.5 -60.5t14.5 -75q0 -41 -14.5 -76t-39.5 -60.5t-59.5 -40t-73.5 -14.5zM1524 0v1884h-875v-1884h-235v1884h-314v189h314v216q0 125 10 234
t35 200.5t67.5 163t108 121t155 75.5t209.5 26q33 0 59 -1t49 -3t44.5 -6.5t46.5 -10.5v-180h-162q-95 0 -160 -22t-108 -61.5t-67 -95t-35.5 -122t-14 -142t-2.5 -155.5v-237h1110v-2073h-235z" />
    <glyph glyph-name="f_l" unicode="fl" horiz-adv-x="2175" 
d="M2080 0q-16 -4 -38 -7.5t-45 -5.5t-47 -3.5t-45 -1.5q-83 0 -152.5 20.5t-120.5 66.5t-79.5 120.5t-28.5 183.5v2504q-58 9 -110.5 15t-101.5 9.5t-94 5t-88 1.5q-99 0 -174 -22.5t-128 -63t-88 -97.5t-55 -126.5t-28 -149.5t-8 -166v-210h481v-189h-481v-1884h-235v1884
h-314v189h314v198q0 127 16 238.5t51.5 205t92.5 167t139 124.5t190.5 78t247.5 27q77 0 156 -4.5t156.5 -11.5t152 -17t143.5 -20v-2632q0 -54 8 -98.5t26.5 -76.5t50 -49.5t79.5 -17.5h157v-184z" />
    <glyph glyph-name="f_f_i" unicode="ffi" horiz-adv-x="3215" 
d="M2746 2562q-40 0 -74 14.5t-59 40.5t-39 61t-14 75t14 74.5t39 60t59 40.5t74 15t74 -15t59 -40.5t39.5 -60t14.5 -74.5t-14.5 -75t-39.5 -61t-59 -40.5t-74 -14.5zM2636 0v1884h-875v-1884h-235v1884h-877v-1884h-235v1884h-314v189h314v216q0 125 10 234t35 200.5
t67.5 163t108 121t155 75.5t209.5 26q34 0 62 -1t53.5 -3t49.5 -6.5t48 -10.5v-180h-176q-95 0 -160 -22t-108 -61.5t-67 -95t-35.5 -122t-14 -142t-2.5 -155.5v-237h877v216q0 125 10 234t35 200.5t67.5 163t108 121t155 75.5t209.5 26q34 0 61 -1t51.5 -3t47.5 -6.5
t47 -10.5v-180h-170q-94 0 -159.5 -22t-108.5 -61.5t-67 -95t-35.5 -122t-14 -142t-2.5 -155.5v-237h1110v-2073h-235z" />
    <glyph glyph-name="f_f_l" unicode="ffl" horiz-adv-x="3287" 
d="M3192 0q-16 -4 -38 -7.5t-45 -5.5t-47 -3.5t-45 -1.5q-83 0 -152.5 20.5t-120.5 66.5t-79.5 120.5t-28.5 183.5v2504q-58 9 -110.5 15t-101.5 9.5t-94 5t-88 1.5q-99 0 -174 -22.5t-128 -63t-88 -97.5t-55 -126.5t-28 -149.5t-8 -166v-210h481v-189h-481v-1884h-235v1884
h-877v-1884h-235v1884h-314v189h314v216q0 125 10 234t35 200.5t67.5 163t108 121t155 75.5t209.5 26q34 0 62 -1t53.5 -3t49.5 -6.5t48 -10.5v-180h-176q-95 0 -160 -22t-108 -61.5t-67 -95t-35.5 -122t-14 -142t-2.5 -155.5v-237h877v198q0 127 16 238.5t51.5 205t93 167
t139 124.5t190 78t247.5 27q77 0 156 -4.5t156.5 -11.5t152 -17t143.5 -20v-2632q0 -54 8 -98.5t26.5 -76.5t50 -49.5t79.5 -17.5h157v-184z" />
    <glyph glyph-name=".notdef" horiz-adv-x="2253" 
d="M614 614v1024h205v-819h410v-205h-615zM205 205v1843h1843v-1843h-1843zM1434 614v410h-410v205h410v205h-410v204h614v-1024h-204zM1843 1843h-1433v-1433h1433v1433z" />
    <glyph glyph-name=".null" horiz-adv-x="0" 
 />
    <glyph glyph-name=".null" horiz-adv-x="0" 
 />
    <glyph glyph-name="nonmarkingreturn" unicode="&#xd;" 
 />
    <glyph glyph-name="space" unicode=" " horiz-adv-x="995" 
 />
    <glyph glyph-name="space" unicode="&#xa0;" horiz-adv-x="995" 
 />
    <glyph glyph-name="exclam" unicode="!" horiz-adv-x="1327" 
d="M637 702l-37 2370h274l-37 -2370h-200zM737 -43q-42 0 -78 15.5t-63 43.5t-42.5 65t-15.5 80t15.5 80t42.5 64.5t63 43t78 15.5q41 0 77.5 -15.5t63.5 -43t42.5 -64.5t15.5 -80t-15.5 -80t-42.5 -65t-63.5 -43.5t-77.5 -15.5z" />
    <glyph glyph-name="quotedbl" unicode="&#x22;" horiz-adv-x="1548" 
d="M1022 1937l-50 1135h281l-47 -1135h-184zM342 1937l-47 1135h280l-49 -1135h-184z" />
    <glyph glyph-name="numbersign" unicode="#" 
d="M1130 0l95 831h-535l-94 -831h-219l94 831h-318v205h341l94 831h-324v206h346l90 786h219l-90 -786h537l88 786h219l-90 -786h319v-206h-342l-94 -831h317v-205h-340l-94 -831h-219zM1341 1867h-534l-95 -831h535z" />
    <glyph glyph-name="dollar" unicode="$" 
d="M940 -475v481q-83 0 -164 8.5t-161 25.5t-158 42.5t-156 58.5l59 219q73 -33 145.5 -59t148 -44.5t155.5 -28t168 -9.5q116 0 214.5 36.5t170.5 102t112.5 155.5t40.5 197q0 94 -19.5 165.5t-56.5 126.5t-91 97.5t-123.5 78.5t-154 69t-181.5 70q-85 30 -162 64
t-143.5 76t-120.5 94t-92.5 117.5t-59.5 147t-21 182.5q0 80 20 157t58.5 147.5t94.5 131t128.5 107.5t159.5 79t189 44v428h202v-419q59 -3 119.5 -11.5t119 -21.5t115 -31t107.5 -41l-59 -205q-56 23 -117.5 41t-125.5 31t-128 19.5t-123 6.5q-127 0 -221 -36.5
t-156 -97.5t-92 -140t-30 -164q0 -79 18 -140.5t52 -110.5t84 -87.5t114.5 -72.5t142.5 -64.5t168 -63.5q86 -30 167 -63.5t153 -76.5t132 -97.5t103.5 -127.5t67.5 -166t24 -212q0 -99 -23 -185.5t-65 -159.5t-100.5 -133t-129 -106t-151 -78.5t-166.5 -49.5v-504h-202z
" />
    <glyph glyph-name="percent" unicode="%" horiz-adv-x="3070" 
d="M731 1405q-153 0 -258 53t-169.5 150t-93 233.5t-28.5 304.5q0 176 36.5 316t108 236.5t178 148t246.5 51.5q149 0 253.5 -51.5t170.5 -148t95.5 -233.5t29.5 -309q0 -118 -16 -219t-48 -185t-79.5 -148.5t-111 -108.5t-142.5 -67t-172 -23zM2318 -39q-153 0 -258 53
t-169.5 150t-93 234t-28.5 304q0 177 36.5 316.5t108 236.5t178 148t247.5 51q149 0 253 -51.5t170 -148t95.5 -233.5t29.5 -308q0 -118 -16 -219.5t-48 -185t-79.5 -148.5t-111 -109t-142.5 -67t-172 -23zM745 1583q90 0 152 40.5t100.5 114.5t56 179t17.5 233
q0 161 -23.5 270t-67 175.5t-105 95t-138.5 28.5q-90 0 -152 -40.5t-100.5 -114.5t-55.5 -179t-17 -233q0 -152 21.5 -260.5t64 -177t104.5 -100t143 -31.5zM2333 139q90 0 152 40.5t100.5 115t55.5 179t17 232.5q0 161 -23.5 270t-67 175.5t-105 95.5t-138.5 29
q-90 0 -152 -40.5t-100.5 -115t-55.5 -179t-17 -232.5q0 -153 21.5 -261.5t64 -177t104.5 -100t144 -31.5zM526 -21l1827 2997l170 -97l-1827 -2994z" />
    <glyph glyph-name="ampersand" unicode="&#x26;" horiz-adv-x="2646" 
d="M2398 -43q-67 53 -132.5 104.5t-129.5 102.5t-127 102t-123 105q-76 -94 -167 -170t-194.5 -129t-220 -82t-243.5 -29t-235.5 25t-197.5 71t-157.5 111t-114.5 145.5t-70 173.5t-24 195q0 132 32 247t94 216.5t152.5 193.5t206.5 179q-68 91 -124 185.5t-96.5 187.5
t-62.5 183t-22 172q0 142 44.5 261.5t125.5 206t195.5 135.5t255.5 49q87 0 164 -19t142.5 -54.5t117.5 -86.5t88 -114.5t55.5 -139t19.5 -160.5q0 -69 -11 -133.5t-37.5 -128t-71 -127.5t-110.5 -132t-156.5 -141.5t-208.5 -156.5q47 -60 102.5 -125t117.5 -133t129.5 -138
t139.5 -140t146.5 -139.5t150.5 -135.5q47 93 83.5 197t61 217.5t37.5 235t13 249.5h245q-1 -154 -20 -297t-53.5 -275t-83.5 -250.5t-111 -221.5q59 -50 121.5 -100.5t127 -101.5t132 -103t137.5 -105zM940 1661q127 89 215 168t143.5 154.5t81 151t25.5 158.5q0 53 -9 104
t-27.5 96.5t-47.5 83.5t-69 65.5t-91 43t-115 15.5q-88 0 -154.5 -35t-111 -94t-66.5 -137.5t-22 -165.5q0 -63 13.5 -129.5t43.5 -140.5t77 -157.5t114 -180.5zM870 1362q-84 -72 -148.5 -146t-108 -153t-65.5 -163.5t-22 -178.5q0 -130 40 -232.5t114.5 -173t181 -108
t240.5 -37.5q96 0 183.5 24.5t165 69t145 107.5t124.5 139q-81 71 -160.5 143t-156.5 145t-149.5 145t-140 143.5t-129 140t-114.5 135.5z" />
    <glyph glyph-name="quotesingle" unicode="'" horiz-adv-x="870" 
d="M342 1937l-47 1135h280l-49 -1135h-184z" />
    <glyph glyph-name="parenleft" unicode="(" horiz-adv-x="1216" 
d="M770 -774q-115 225 -203 463.5t-149 485t-92 499.5t-31 510q0 258 31 513t92 502.5t149 486t203 464.5l178 -70q-101 -230 -177.5 -465.5t-128 -473.5t-77 -476.5t-25.5 -472.5q0 -238 25.5 -477t77 -477.5t128 -475t177.5 -467.5z" />
    <glyph glyph-name="parenright" unicode=")" horiz-adv-x="1216" 
d="M268 -705q102 230 178 466t127 474t76.5 476t25.5 473q0 237 -25.5 476.5t-76.5 478t-127 474.5t-178 467l178 70q115 -226 203.5 -464.5t149 -485t91.5 -500t31 -508.5q0 -260 -31 -515t-91.5 -502t-149 -485.5t-203.5 -463.5z" />
    <glyph glyph-name="asterisk" unicode="*" 
d="M1108 2189l51 -637h-270l49 637l-482 -369l-141 234l555 262l-555 275l141 233l482 -369l-49 637h270l-49 -637l481 369l141 -233l-555 -265l555 -272l-141 -234z" />
    <glyph glyph-name="plus" unicode="+" 
d="M907 333v828h-717v223h717v831h233v-831h717v-223h-717v-828h-233z" />
    <glyph glyph-name="comma" unicode="," horiz-adv-x="995" 
d="M122 -545q73 97 119.5 174t73 138t36 107.5t9.5 82.5q0 25 -4.5 47t-12 41t-16 36t-16 35t-12 36t-4.5 40q0 44 13 83t38.5 68.5t64 46.5t88.5 17q38 0 73.5 -15.5t63 -46.5t44 -77.5t16.5 -107.5q0 -66 -22 -149.5t-73 -184.5t-135 -219t-206 -254z" />
    <glyph glyph-name="hyphen" unicode="-" horiz-adv-x="1079" 
d="M147 1026v192h932v-192h-932z" />
    <glyph glyph-name="hyphen" unicode="&#x2011;" horiz-adv-x="1079" 
d="M147 1026v192h932v-192h-932z" />
    <glyph glyph-name="hyphen" unicode="&#x2010;" horiz-adv-x="1079" 
d="M147 1026v192h932v-192h-932z" />
    <glyph glyph-name="hyphen" unicode="&#xad;" horiz-adv-x="1079" 
d="M147 1026v192h932v-192h-932z" />
    <glyph glyph-name="period" unicode="." horiz-adv-x="995" 
d="M497 -23q-45 0 -83.5 17.5t-67 47t-44.5 69.5t-16 85t16 84.5t44.5 69t67 46.5t83.5 17q46 0 84.5 -17t66.5 -46.5t44 -69t16 -84.5t-16 -85t-44 -69.5t-66.5 -47t-84.5 -17.5z" />
    <glyph glyph-name="slash" unicode="/" horiz-adv-x="1474" 
d="M0 -524l1257 3762l217 -62l-1257 -3762z" />
    <glyph glyph-name="zero" unicode="0" 
d="M1009 -41q-162 0 -289 48.5t-223 139t-163 221t-109 294t-61 357t-19 410.5q0 220 23.5 414.5t71.5 358t121 293t172 219.5t225 138t280 48q162 0 289.5 -48.5t223.5 -139t162.5 -220t108.5 -292t61 -354t19 -406.5q0 -222 -23.5 -418.5t-71 -361t-120.5 -295t-172 -221
t-225.5 -138t-280.5 -47.5zM1028 163q110 0 198 37.5t156 109.5t117.5 178.5t81 246t46.5 309.5t15 371q0 203 -13.5 377t-44 316.5t-78.5 252.5t-117.5 184.5t-161 113t-207.5 38.5q-110 0 -198 -37t-156.5 -109.5t-117.5 -178.5t-80.5 -244.5t-47 -307.5t-15.5 -366
q0 -206 13.5 -382t44 -319t79 -253t117.5 -185t160.5 -113.5t208.5 -38.5z" />
    <glyph glyph-name="one" unicode="1" 
d="M397 0v204h645v2382l-600 -381l-86 154l708 510h218v-2665h516v-204h-1401z" />
    <glyph glyph-name="two" unicode="2" 
d="M221 0v190l542 635q126 146 223.5 274.5t171 244t124 219.5t82 201t45.5 189.5t14 184.5q0 130 -31.5 234t-96.5 176t-164.5 110.5t-235.5 38.5q-60 0 -125.5 -7t-136 -21.5t-146.5 -38t-158 -56.5l-39 195q81 33 159.5 57.5t157.5 40.5t159 24.5t164 8.5q190 0 331 -54
t234 -152t138.5 -235.5t45.5 -304.5q0 -110 -21.5 -220.5t-63 -222.5t-102.5 -227t-140 -234t-175 -243t-208 -254l-471 -549h1332v-204h-1609z" />
    <glyph glyph-name="three" unicode="3" 
d="M190 206q64 -8 137 -14.5t148.5 -11t150 -6.5t140.5 -2q173 0 304.5 42t221 119.5t135 187.5t45.5 247q0 120 -31.5 211.5t-85.5 159.5t-126.5 113.5t-154.5 72.5t-169.5 39t-171.5 12h-207v200h174q171 0 304.5 45t224.5 125t138.5 190.5t47.5 242.5q0 117 -31 213
t-95 163.5t-160.5 104.5t-227.5 37q-62 0 -133.5 -7t-147 -21.5t-153 -37.5t-150.5 -55l-33 197q74 30 150 53.5t155.5 39.5t163 25t172.5 9q179 0 316.5 -50.5t231.5 -142.5t143 -221.5t49 -288.5q0 -126 -41.5 -239.5t-114.5 -204.5t-173.5 -155t-219.5 -91v-8
q93 -10 175 -39t150 -75.5t122 -109t91 -138.5t56.5 -165t19.5 -188q0 -122 -30 -230t-87.5 -199t-143 -163t-195.5 -123t-245 -77.5t-292 -26.5q-41 0 -105.5 3.5t-139 10.5t-153 18t-149.5 27v182z" />
    <glyph glyph-name="four" unicode="4" 
d="M1282 0v708h-1171v195l1056 1956h354v-1946h383v-205h-383v-708h-239zM1282 2648h-8l-922 -1735h930v1735z" />
    <glyph glyph-name="five" unicode="5" 
d="M217 206q50 -7 109 -13t128.5 -10.5t151 -7.5t174.5 -3q174 0 313 43t236 131.5t149 225t52 323.5q0 158 -43.5 274.5t-132.5 193t-224.5 113.5t-318.5 37q-69 0 -130 -3.5t-117.5 -8t-110 -10t-107.5 -9.5l24 1377h1221v-207h-991l-19 -944q31 4 64 7.5t71 5t82 2.5
t97 1q149 0 273.5 -29t223.5 -81.5t173.5 -126.5t123.5 -163t74 -191t25 -212q0 -227 -70 -405t-201.5 -300.5t-319.5 -186.5t-423 -64q-41 0 -106.5 3.5t-142 10.5t-157.5 18t-151 27v182z" />
    <glyph glyph-name="six" unicode="6" 
d="M491 1526q62 47 134.5 86.5t152 68t165 44.5t173.5 16q147 0 259 -37t195 -99.5t138.5 -145.5t89.5 -175.5t48.5 -188.5t14.5 -184q0 -117 -23.5 -233t-70.5 -221.5t-117 -196.5t-162.5 -158t-207.5 -105t-252 -38q-150 0 -267 45t-204.5 130t-149 206.5t-100 273.5
t-55.5 332t-17 383q0 142 10.5 285t34.5 279.5t63.5 264.5t97.5 239.5t136.5 203.5t180.5 158t229.5 102.5t284.5 36.5q62 0 129 -7t131 -19.5t121 -28.5t100 -33l-47 -195q-54 20 -110 35t-114.5 25.5t-118.5 16t-122 5.5q-134 0 -240.5 -44t-189 -122.5t-142 -187.5
t-98.5 -239t-59.5 -277t-24.5 -301h4zM489 1317q1 -211 18 -378t50 -295.5t81 -220t110.5 -149.5t139.5 -85.5t168 -27.5q87 0 161.5 28.5t136 78t108 118.5t78.5 149t48.5 170t16.5 182q0 87 -11.5 169t-37.5 154.5t-67 133t-99.5 104t-135.5 68t-175 24.5
q-70 0 -148 -16.5t-155.5 -46t-151 -70.5t-135.5 -90z" />
    <glyph glyph-name="seven" unicode="7" 
d="M579 31q25 42 53 94.5t58 115t61.5 134.5t64.5 152.5t67 169.5t69 185l637 1770h-1382v207h1628v-207l-738 -2003q-33 -89 -73 -180t-86 -181.5t-98 -177.5t-109 -168z" />
    <glyph glyph-name="eight" unicode="8" 
d="M794 1466q-129 73 -226 153.5t-162 171.5t-97.5 193.5t-32.5 219.5q0 89 21 175t63 164t105.5 143.5t148.5 113.5t192 75t236 27q119 0 218.5 -25t179.5 -68.5t140.5 -103.5t101 -131t61 -149.5t20.5 -159.5q0 -124 -37.5 -231.5t-109 -202t-175 -179t-233.5 -161.5
q144 -75 264.5 -155t207.5 -173.5t135 -206t48 -252.5q0 -169 -60 -307t-171.5 -236t-270 -151t-356.5 -53q-189 0 -342.5 43.5t-261.5 130t-166.5 215t-58.5 297.5q0 97 20.5 182t59 159.5t93.5 140t123.5 124.5t150 112.5t171.5 104.5zM1019 1595q104 60 194.5 127
t157 144.5t104.5 167.5t38 196q0 111 -34.5 199t-98.5 149.5t-155.5 94t-204.5 32.5q-127 0 -220 -37.5t-154 -103t-90.5 -152.5t-29.5 -186q0 -93 27.5 -175t86.5 -158.5t153 -150t226 -147.5zM985 1360q-112 -67 -213 -137t-177 -151.5t-120.5 -177.5t-44.5 -214
q0 -133 40 -232t118 -164t191 -97t259 -32q134 0 240.5 40t180 108.5t112.5 161t39 198.5q0 118 -40.5 210.5t-119 173.5t-195.5 156t-270 157z" />
    <glyph glyph-name="nine" unicode="9" 
d="M258 225q66 -17 133 -28.5t134 -19t133.5 -11t133.5 -3.5q129 0 232.5 36t184.5 105t140.5 169.5t100.5 230.5t65.5 288t34.5 341h-4q-62 -47 -134.5 -86t-152.5 -67.5t-165.5 -44t-172.5 -15.5q-138 0 -247 33t-192 91.5t-141 138t-95 172t-53.5 194t-16.5 205.5
q0 113 22.5 227.5t68.5 219.5t114.5 196t160.5 158.5t207 106t254 38.5q144 0 258.5 -41t203.5 -119.5t153 -195.5t105 -269.5t60 -340t19 -406.5q0 -166 -13 -322t-41.5 -297.5t-72.5 -267t-105 -231t-141.5 -189.5t-180.5 -142t-221 -89t-265 -31q-64 0 -133.5 4.5
t-138.5 13.5t-134 22.5t-121 31.5zM1548 1542q-1 210 -18 377t-49.5 295.5t-80.5 220t-111 150t-140 85.5t-168 27q-97 0 -175.5 -30.5t-140 -83.5t-105.5 -123.5t-72.5 -150.5t-42 -164t-13.5 -165q0 -86 11.5 -168.5t36.5 -155.5t65.5 -134.5t99 -106t135.5 -69.5t176 -25
q71 0 148.5 16t155.5 45t151.5 69.5t136.5 90.5z" />
    <glyph glyph-name="colon" unicode=":" horiz-adv-x="1069" 
d="M571 1570q-45 0 -84 17.5t-67 47.5t-44 70t-16 85t16 84t44 68.5t67 47t84 17.5t83.5 -17.5t67 -47t44.5 -68.5t16 -84t-16 -85t-44.5 -70t-67 -47.5t-83.5 -17.5zM571 -23q-45 0 -84 17.5t-67 47t-44 69.5t-16 85t16 84.5t44 69t67 46.5t84 17t83.5 -17t67 -46.5
t44.5 -69t16 -84.5t-16 -85t-44.5 -69.5t-67 -47t-83.5 -17.5z" />
    <glyph glyph-name="semicolon" unicode=";" horiz-adv-x="1069" 
d="M571 1570q-45 0 -84 17.5t-67 47.5t-44 70t-16 85t16 84t44 68.5t67 47t84 17.5t83.5 -17.5t67 -47t44.5 -68.5t16 -84t-16 -85t-44.5 -70t-67 -47.5t-83.5 -17.5zM198 -545q73 97 119.5 174t72.5 138t36 107.5t10 82.5q0 25 -5 47t-12 41t-15.5 36t-16 35t-12 36
t-4.5 40q0 44 13 83t38.5 68.5t63.5 46.5t89 17q38 0 73 -15.5t62.5 -46.5t44.5 -77.5t17 -107.5q0 -66 -22.5 -149.5t-73 -184.5t-134.5 -219t-206 -254z" />
    <glyph glyph-name="semicolon" unicode="&#x37e;" horiz-adv-x="1069" 
d="M571 1570q-45 0 -84 17.5t-67 47.5t-44 70t-16 85t16 84t44 68.5t67 47t84 17.5t83.5 -17.5t67 -47t44.5 -68.5t16 -84t-16 -85t-44.5 -70t-67 -47.5t-83.5 -17.5zM198 -545q73 97 119.5 174t72.5 138t36 107.5t10 82.5q0 25 -5 47t-12 41t-15.5 36t-16 35t-12 36
t-4.5 40q0 44 13 83t38.5 68.5t63.5 46.5t89 17q38 0 73 -15.5t62.5 -46.5t44.5 -77.5t17 -107.5q0 -66 -22.5 -149.5t-73 -184.5t-134.5 -219t-206 -254z" />
    <glyph glyph-name="less" unicode="&#x3c;" 
d="M166 1161v221l1658 940v-260l-1417 -792l1417 -789v-260z" />
    <glyph glyph-name="equal" unicode="=" 
d="M223 1577v223h1601v-223h-1601zM223 747v224h1601v-224h-1601z" />
    <glyph glyph-name="greater" unicode="&#x3e;" 
d="M223 221v258l1417 789l-1417 792v262l1659 -940v-221z" />
    <glyph glyph-name="question" unicode="?" horiz-adv-x="1695" 
d="M626 702q-14 149 2.5 276.5t54 239t90.5 210t110 190.5t113.5 180t101 178t72.5 185.5t28 201.5q0 119 -26.5 216t-87 166t-159 106.5t-243.5 37.5q-115 0 -219.5 -8t-194.5 -20v195q55 12 114 20.5t115.5 14.5t107 9t87.5 3q213 0 360.5 -55t239 -151t132 -227.5
t40.5 -284.5q0 -120 -29.5 -225.5t-78 -202.5t-109.5 -188.5t-123 -184t-119.5 -189t-98.5 -203.5t-60.5 -228t-6.5 -262h-213zM733 -43q-42 0 -78 15.5t-63 43.5t-42.5 65t-15.5 80t15.5 80t42.5 64.5t63 43t78 15.5q41 0 77.5 -15.5t63.5 -43t42.5 -64.5t15.5 -80
t-15.5 -80t-42.5 -65t-63.5 -43.5t-77.5 -15.5z" />
    <glyph glyph-name="at" unicode="@" horiz-adv-x="3221" 
d="M2810 -258q-110 -58 -215 -100t-218 -69.5t-239 -41t-275 -13.5q-224 0 -422.5 56t-365.5 159t-299 249t-224 327t-141 392t-49 446q0 272 54 506.5t153 427.5t239.5 342.5t313.5 251.5t374.5 155t424.5 53q125 0 235.5 -22.5t203 -66t166 -106t124 -142.5t77.5 -176.5
t27 -206.5v-1457h-174l-26 248q-51 -51 -112 -102.5t-136.5 -93.5t-166.5 -68.5t-200 -26.5q-151 0 -266.5 40.5t-195 116t-120.5 184t-41 245.5q0 160 64 278t176 196t265 116.5t331 38.5h365v209q0 129 -35 238t-112 187.5t-200.5 122t-299.5 43.5q-171 0 -331 -44
t-300 -130t-255.5 -213.5t-198.5 -294t-129 -371.5t-46 -445q0 -203 38 -389.5t112 -348t184.5 -293.5t255 -225.5t322.5 -145t389 -51.5q107 0 213.5 11t211 35t206.5 62t200 93zM2517 1685h-379q-141 0 -246 -29t-175 -84t-105 -133t-35 -176q0 -90 24.5 -163.5t73 -125
t120.5 -80t167 -28.5q84 0 156.5 21.5t139 60t130.5 91.5t129 116v530z" />
    <glyph glyph-name="A" unicode="A" horiz-adv-x="2386" 
d="M1997 0q-27 100 -55 203t-56.5 207t-57.5 207t-59 204h-1161q-30 -99 -60 -203t-58.5 -208.5t-56.5 -208t-54 -201.5h-261q110 390 225.5 765.5t235.5 733.5t243.5 698.5t250.5 661.5h235q143 -358 273.5 -716t249 -716t227.5 -715t209 -712h-270zM1708 1026
q-47 149 -97 304.5t-102.5 313.5t-107 316.5t-109.5 312.5q-13 39 -27.5 81.5t-28 84.5t-26.5 83.5t-24 78.5h-4q-13 -38 -26.5 -79.5t-28 -84t-28.5 -84t-26 -78.5q-53 -151 -105 -308t-103.5 -315t-101 -315.5t-95.5 -310.5h1040z" />
    <glyph glyph-name="B" unicode="B" horiz-adv-x="2109" 
d="M377 0v2859h614q128 0 234 -23t190 -66.5t146.5 -105.5t103.5 -140t61.5 -171t20.5 -197q0 -113 -22.5 -211.5t-64 -179t-102.5 -142t-139 -101.5q106 -26 196 -88t156 -153t104 -208.5t38 -253.5q0 -129 -27 -239.5t-78 -201.5t-125 -161.5t-167.5 -118.5t-205.5 -73
t-239 -25h-694zM1030 1589q129 0 217 40.5t141.5 112t77 170.5t23.5 216q0 76 -12.5 144.5t-38.5 127t-67.5 105t-100.5 79.5t-136 50.5t-174 17.5h-342v-1063h412zM1089 208q82 0 155.5 16.5t136.5 49.5t113 81.5t86 112.5t55 143.5t19 174.5q0 138 -37.5 249t-115 188.5
t-197 119t-282.5 41.5h-404v-1176h471z" />
    <glyph glyph-name="C" unicode="C" horiz-adv-x="2158" 
d="M2052 135q-76 -38 -155.5 -68t-163 -51.5t-170.5 -33t-177 -11.5q-267 0 -481.5 95t-365 277t-231.5 447.5t-81 606.5q0 224 36 422t104.5 363.5t169 296.5t230 222t286.5 139t339 48q90 0 172.5 -9t162 -28t156.5 -47.5t155 -67.5l-89 -195q-66 32 -134.5 56t-139.5 41
t-146.5 25.5t-156.5 8.5q-140 0 -260 -40.5t-218 -117t-173 -187t-126 -249t-77.5 -303.5t-26.5 -350q0 -296 62.5 -525.5t182 -387t293 -240t394.5 -82.5q79 0 155 11.5t146.5 31t135 45t122.5 53.5l70 -196v0z" />
    <glyph glyph-name="D" unicode="D" horiz-adv-x="2550" 
d="M377 0v2859h747q198 0 364.5 -45.5t301 -131t236 -208t170 -277t102.5 -337.5t34 -390q0 -238 -36.5 -440t-108 -365.5t-177.5 -287.5t-245.5 -208t-311.5 -126.5t-374 -42.5h-702zM1102 208q243 0 425 75t302.5 228.5t180.5 389.5t60 559q0 170 -24.5 324.5t-76.5 287
t-130 239.5t-185 183t-243.5 117t-302.5 41h-490v-2444h484z" />
    <glyph glyph-name="E" unicode="E" horiz-adv-x="2005" 
d="M377 0v2859h1341v-207h-1100v-1057h967v-205h-967v-1182h1118v-208h-1359z" />
    <glyph glyph-name="F" unicode="F" horiz-adv-x="1853" 
d="M377 0v2859h1308v-207h-1067v-1124h959v-205h-959v-1323h-241z" />
    <glyph glyph-name="G" unicode="G" horiz-adv-x="2496" 
d="M1919 1462h242v-1351q-85 -35 -175.5 -62.5t-184 -46t-190 -28t-192.5 -9.5q-199 0 -364.5 47.5t-299 137t-233.5 217.5t-167 287.5t-100.5 347.5t-33.5 399q0 222 37.5 418.5t109 362t176 296.5t239.5 222t299 139.5t354 48.5q102 0 203 -16.5t197.5 -46t186.5 -72
t170 -93.5l-100 -197q-75 50 -157 89t-169 66.5t-176.5 42.5t-177.5 15q-159 0 -289.5 -44t-234 -124.5t-180.5 -194t-128 -252.5t-75.5 -300t-24.5 -336q0 -295 65 -526.5t188 -391.5t299.5 -244.5t398.5 -84.5q122 0 242.5 19t244.5 57v1208z" />
    <glyph glyph-name="H" unicode="H" horiz-adv-x="2519" 
d="M1901 0v1392h-1283v-1392h-241v2859h241v-1258h1283v1258h241v-2859h-241z" />
    <glyph glyph-name="I" unicode="I" horiz-adv-x="995" 
d="M377 0v2859h241v-2859h-241z" />
    <glyph glyph-name="J" unicode="J" horiz-adv-x="1210" 
d="M88 178h182q63 0 111 12t84.5 40t61 72.5t40 109.5t22.5 151.5t7 198.5v2097h242v-2063q0 -123 -8 -232.5t-29 -201t-57.5 -164t-93.5 -123t-138 -77.5t-191 -27q-28 0 -59.5 1.5t-62.5 3.5t-60 6t-51 10v186z" />
    <glyph glyph-name="K" unicode="K" horiz-adv-x="2179" 
d="M1773 0l-978 1499l-177 -186v-1313h-241v2859h241v-1272q141 156 282.5 314.5t283.5 318t282 320t278 319.5h326l-1112 -1192l1118 -1667h-303z" />
    <glyph glyph-name="L" unicode="L" horiz-adv-x="1706" 
d="M377 0v2859h241v-2648h1032v-211h-1273z" />
    <glyph glyph-name="M" unicode="M" horiz-adv-x="3326" 
d="M2740 0q-4 221 -10 438.5t-16 431t-23.5 424t-31 419.5t-40 416.5t-49.5 415.5h-4l-795 -2545h-237l-797 2545h-6q-21 -205 -40.5 -412t-35 -416.5t-28.5 -421.5t-22.5 -426.5t-16 -432t-9.5 -436.5h-239q3 236 10.5 473t20.5 475t31 476t41 477t51.5 478t62.5 480h344
l766 -2462h8l760 2462h342q33 -245 60.5 -483t49.5 -473.5t39 -469.5t29.5 -470t21 -476t13.5 -487h-250z" />
    <glyph glyph-name="N" unicode="N" horiz-adv-x="2584" 
d="M1888 0l-1272 2556h-6v-2556h-233v2859h356l1235 -2476h6v2476h234v-2859h-320z" />
    <glyph glyph-name="O" unicode="O" horiz-adv-x="2804" 
d="M1384 -41q-197 0 -359 50t-290 142t-223 222.5t-158 291t-94 348t-31 394.5q0 218 34 413t101.5 361t167.5 299t232 226.5t295.5 143.5t357.5 50t355 -50.5t289.5 -143.5t225 -224t160.5 -292t95.5 -347.5t31.5 -390.5q0 -219 -33.5 -415t-101 -362t-167 -298.5
t-232 -225.5t-297 -142.5t-359.5 -49.5zM1421 165q162 0 291.5 47.5t228 131.5t169 200t115.5 254t66 292.5t21 316.5q0 182 -23 348.5t-71 309.5t-123 259t-178.5 198t-237 126.5t-299.5 44.5q-159 0 -287 -46.5t-227 -130.5t-170 -199.5t-116.5 -253.5t-67 -293
t-21.5 -318q0 -184 23 -350.5t70.5 -310t122 -259t178 -197t237 -126t299.5 -44.5z" />
    <glyph glyph-name="P" unicode="P" horiz-adv-x="2066" 
d="M377 0v2859h618q87 0 168.5 -8t152.5 -27q126 -34 226.5 -105.5t171 -172.5t108 -229.5t37.5 -276.5q0 -199 -57.5 -360.5t-167 -277t-267.5 -178.5t-359 -63h-390v-1161h-241zM1032 1368q136 0 241.5 46.5t177.5 132.5t109 206.5t37 267.5q0 113 -25.5 212t-74 178
t-118 134t-156.5 78q-30 9 -62.5 14.5t-66 8.5t-65.5 4.5t-60 1.5h-351v-1284h414z" />
    <glyph glyph-name="Q" unicode="Q" horiz-adv-x="2804" 
d="M2584 -256l-454 479q-70 -64 -152 -113t-175.5 -82.5t-198.5 -51t-220 -17.5q-197 0 -359 50t-290 142t-223 222.5t-158 291t-94 348t-31 394.5q0 218 34 413t101.5 361t167.5 299t232 226.5t295.5 143.5t357.5 50t355 -50.5t289.5 -143.5t225 -224t160.5 -292
t95.5 -347.5t31.5 -390.5q0 -160 -18 -308.5t-54 -281.5t-90.5 -251t-126.5 -216l457 -481zM1452 940l158 170l513 -543q48 81 83.5 177t59 203t35 223t11.5 237q0 182 -23 348.5t-71 309.5t-123 259t-178.5 198t-237 126.5t-299.5 44.5q-159 0 -287 -46.5t-227 -130.5
t-170 -199.5t-116.5 -253.5t-67 -293t-21.5 -318q0 -184 23 -350.5t70.5 -310t122 -259t178 -197t237 -126t299.5 -44.5q88 0 166.5 14.5t148.5 42.5t131 68t113 91z" />
    <glyph glyph-name="R" unicode="R" horiz-adv-x="2095" 
d="M1646 0l-684 1349h-344v-1349h-241v2859h595q140 0 254 -25.5t204.5 -72.5t157 -113t110 -147.5t65 -176.5t21.5 -198q0 -106 -21.5 -195.5t-60 -164.5t-91.5 -135.5t-116.5 -108.5t-136 -82.5t-148.5 -57.5l731 -1382h-295zM950 1554q150 0 258 43t177.5 117t103 173
t33.5 212q0 68 -12.5 135.5t-40 129t-72 114t-108 91.5t-148 61t-193.5 22h-330v-1098h332z" />
    <glyph glyph-name="S" unicode="S" horiz-adv-x="1792" 
d="M245 262q66 -22 131 -38.5t131.5 -28t135 -17.5t139.5 -6q138 0 243 40.5t177 113.5t108.5 175t36.5 224q0 83 -18.5 151t-52.5 125.5t-83 107.5t-110.5 96.5t-134 92t-154.5 94.5q-91 55 -169 108.5t-141 110t-111.5 117.5t-81.5 130.5t-49.5 148.5t-16.5 172
q0 104 25.5 198.5t74 174.5t118 144.5t158 109.5t195 69.5t228.5 24.5q50 0 106.5 -4.5t113 -13t109.5 -20t95 -26.5l-48 -207q-46 15 -96 26.5t-101.5 19.5t-103.5 12t-102 4q-131 0 -227.5 -40.5t-160 -108t-95 -156t-31.5 -185.5q0 -81 18.5 -148.5t52 -124.5t82 -107
t108.5 -95.5t130 -90t148 -91.5q97 -58 179 -115t147.5 -115.5t115 -120.5t82.5 -131.5t49.5 -147.5t16.5 -169q0 -120 -27 -224.5t-79 -192t-128 -156.5t-174 -116t-218 -72t-259 -25q-43 0 -86.5 2.5t-87.5 7t-88.5 11t-89 15.5t-88.5 20t-87 24z" />
    <glyph glyph-name="T" unicode="T" horiz-adv-x="1951" 
d="M854 0v2652h-807v207h1857v-207h-806v-2652h-244z" />
    <glyph glyph-name="U" unicode="U" horiz-adv-x="2580" 
d="M1980 2859h232v-1811q0 -271 -66 -475t-187.5 -340t-293.5 -204t-383 -68q-204 0 -372 65.5t-288.5 196t-186.5 325t-66 451.5v1860h241v-1835q0 -143 21.5 -262t62.5 -214.5t100 -167t135 -119.5t168 -72t197 -24q158 0 285.5 53.5t216 161t136.5 269t48 377.5v1833z
" />
    <glyph glyph-name="V" unicode="V" horiz-adv-x="2312" 
d="M1038 0q-143 358 -273.5 715t-249.5 715t-228 715t-209 714h270q49 -193 102 -384.5t109.5 -382t116 -380.5t122 -378t126.5 -375.5t130 -373.5l107 -327h4l109 323q94 273 186.5 554t181.5 568t172 576.5t158 579.5h262q-101 -359 -211 -717t-229.5 -715.5
t-249.5 -714.5t-270 -712h-236z" />
    <glyph glyph-name="W" unicode="W" horiz-adv-x="3696" 
d="M2459 0l-538 2200l-80 389h-8l-76 -387l-524 -2202h-287q-121 357 -231.5 714t-211.5 714.5t-193 715t-175 715.5h268q40 -192 84 -383.5t91 -382.5t96.5 -381t101.5 -378.5t106 -375t109 -369.5q11 -37 23 -81.5t24 -89.5t23.5 -88.5t19.5 -77.5h6l93 436l509 2171h314
l534 -2169l92 -438h7q9 37 20.5 82t23.5 91t23.5 91t22.5 82q52 181 104.5 365.5t103.5 371.5t99.5 376t95 379.5t90 382.5t82.5 386h260q-84 -360 -176.5 -718t-194 -715.5t-211.5 -714t-229 -711.5h-291z" />
    <glyph glyph-name="X" unicode="X" horiz-adv-x="2214" 
d="M1857 0l-759 1294l-756 -1294h-285l917 1481l-835 1378h295l684 -1172l682 1172h278l-837 -1358l915 -1501h-299z" />
    <glyph glyph-name="Y" unicode="Y" horiz-adv-x="2109" 
d="M936 0v1247q-131 195 -251.5 395t-233 402t-217 406t-202.5 409h275q53 -119 110.5 -239.5t119 -242t126 -242.5t132 -239.5t137.5 -233t143 -222.5q66 108 133 225t133 237.5t129.5 243.5t123 244.5t113.5 239t101 229.5h268q-62 -130 -126.5 -261t-133.5 -263.5
t-143 -267t-153 -270.5t-164.5 -273.5t-178.5 -276.5v-1247h-241z" />
    <glyph glyph-name="Z" unicode="Z" horiz-adv-x="1888" 
d="M125 0v208l1362 2444h-1322v207h1577v-207l-1359 -2444h1378v-208h-1636z" />
    <glyph glyph-name="bracketleft" unicode="[" horiz-adv-x="1208" 
d="M416 -682v3754h601v-181h-380v-3393h380v-180h-601z" />
    <glyph glyph-name="backslash" unicode="\" horiz-adv-x="1474" 
d="M1257 -586l-1257 3762l217 62l1257 -3762z" />
    <glyph glyph-name="bracketright" unicode="]" horiz-adv-x="1208" 
d="M192 -682v180h379v3393h-379v181h601v-3754h-601z" />
    <glyph glyph-name="asciicircum" unicode="^" 
d="M1577 1440l-545 1230l-491 -1230h-259l609 1419h309l645 -1419h-268z" />
    <glyph glyph-name="underscore" unicode="_" 
d="M0 -905v190h2048v-190h-2048z" />
    <glyph glyph-name="grave" unicode="`" horiz-adv-x="921" 
d="M438 2412l-438 506l196 152l394 -531z" />
    <glyph glyph-name="a" unicode="a" horiz-adv-x="1954" 
d="M1442 0l-23 239q-66 -63 -133.5 -115t-141.5 -89.5t-156.5 -57.5t-178.5 -20q-149 0 -263.5 40t-193 116t-119.5 184t-41 245q0 160 63.5 278.5t175 196.5t263.5 116t330 38h370v191q0 138 -24.5 241.5t-80.5 171.5t-147 101.5t-223 33.5q-64 0 -131.5 -7.5t-136.5 -23
t-138 -38t-136 -51.5l-54 196q71 29 148.5 52.5t159.5 40t166.5 25.5t168.5 9q130 0 229.5 -26.5t173 -73.5t123.5 -110.5t81 -137t44 -153.5t13 -160v-1452h-188zM1394 979h-385q-140 0 -244.5 -29t-173.5 -84t-104 -134.5t-35 -178.5q0 -91 24 -164.5t72 -125t120 -80
t167 -28.5q85 0 158 22.5t140.5 61.5t131.5 92.5t129 116.5v531z" />
    <glyph glyph-name="b" unicode="b" horiz-adv-x="2148" 
d="M1941 1102q0 -147 -23 -287.5t-71 -265.5t-122 -230t-176.5 -181t-233.5 -118.5t-293 -42.5q-88 0 -177 7.5t-176.5 21t-172.5 33t-164 45.5v2988h235v-1321q71 89 144 156.5t153.5 113.5t172 69t200.5 23q127 0 229 -37t180 -103.5t134 -160t92 -205.5t52.5 -240.5
t16.5 -264.5zM1688 1096q0 95 -9 193t-31 189t-58 171t-90 139.5t-127.5 94t-170.5 34.5q-80 0 -154 -21.5t-149.5 -71.5t-156 -133t-175.5 -207v-1228q52 -23 108 -40t116 -29t123 -18t130 -6q165 0 286 64.5t200.5 185t118.5 293.5t39 390z" />
    <glyph glyph-name="c" unicode="c" horiz-adv-x="1698" 
d="M1554 72q-73 -32 -142.5 -53t-134 -32.5t-124 -15.5t-111.5 -4q-224 0 -384 74.5t-262 211t-150 328t-48 425.5q0 262 63.5 466.5t178 344.5t274.5 213t355 73q64 0 126.5 -6.5t122.5 -20t118 -34t114 -49.5l-61 -183q-50 21 -101 39t-103 30.5t-105.5 19.5t-108.5 7
q-164 0 -281 -64.5t-191.5 -180t-109.5 -276t-35 -351.5q0 -219 39.5 -381.5t117.5 -270.5t194 -161.5t270 -53.5q60 0 115.5 5.5t109 16.5t106 28.5t105.5 40.5z" />
    <glyph glyph-name="d" unicode="d" horiz-adv-x="2148" 
d="M1628 0l-27 344q-79 -99 -157 -172t-160.5 -120.5t-173.5 -70t-199 -22.5q-127 0 -229 37t-180 103.5t-134 160t-92 206t-53 240.5t-17 265q0 146 23 287t71.5 265.5t122.5 229.5t176.5 181t233.5 118.5t293 42.5q60 0 117.5 -3t114 -9t112 -15.5t111.5 -21.5v1026h235
v-3072h-188zM1581 1816q-106 45 -225 68.5t-252 23.5q-165 0 -286 -64t-200 -184.5t-118 -293.5t-39 -389q0 -95 9 -193t30.5 -189.5t57.5 -171.5t90 -139.5t127.5 -94t170.5 -34.5q54 0 104.5 9t100 30t99 54t102.5 81t109 112t120 146v1229z" />
    <glyph glyph-name="e" unicode="e" horiz-adv-x="1999" 
d="M1734 68q-69 -24 -146 -44.5t-162 -34.5t-176 -22t-187 -8q-220 0 -381.5 68.5t-267.5 204.5t-158 336.5t-52 465.5q0 244 55.5 443.5t163.5 340.5t267 218t367 77q127 0 230 -31.5t184 -90t140.5 -140.5t98 -182t57.5 -215.5t19 -241.5q0 -13 -1 -34.5t-1.5 -46.5
t-1.5 -50t-1 -45h-1322q0 -135 13 -252.5t43.5 -214.5t79.5 -173t121 -128t169 -79.5t223 -27.5q90 0 167.5 8t148 21.5t136.5 32t133 39.5zM1538 1229q5 157 -26 284.5t-95.5 217t-160 138t-218.5 48.5q-99 0 -180 -29t-144.5 -79.5t-110 -118t-78 -143.5t-48 -157.5
t-18.5 -160.5h1079z" />
    <glyph glyph-name="f" unicode="f" horiz-adv-x="1225" 
d="M414 0v1884h-314v189h314v229q0 122 10 229t35 196.5t67.5 160t108 120t155 75.5t209.5 26q35 0 63 -1t53.5 -3t49 -6.5t47.5 -10.5v-180h-184q-93 0 -156.5 -22t-105.5 -61.5t-65.5 -95t-35 -122t-14 -142t-2.5 -155.5v-237h483v-189h-483v-1884h-235z" />
    <glyph glyph-name="g" unicode="g" horiz-adv-x="2148" 
d="M1581 342q-81 -97 -158.5 -166t-158 -112.5t-166.5 -63.5t-185 -20q-128 0 -230 36t-180.5 102t-134.5 158t-92 203t-53 238.5t-17 263.5q0 145 23 284.5t72 263.5t123 228t176 179t233.5 117t292.5 42q83 0 174 -7.5t181.5 -21.5t176 -33.5t158.5 -44.5v-1959
q0 -162 -17.5 -293.5t-58 -234.5t-106 -179t-161.5 -125.5t-224.5 -73.5t-294.5 -24q-47 0 -104.5 2t-122.5 7t-134.5 13t-140.5 21l9 178q58 -3 119 -5.5t122 -4t121.5 -2.5t118.5 -1q117 0 210 14t164 46.5t121 87t82 135.5t47 191.5t15 255.5v305zM1581 1816
q-53 22 -109 39.5t-115.5 29t-122.5 17.5t-130 6q-164 0 -285 -63.5t-200.5 -182.5t-118.5 -290t-39 -385q0 -95 9 -192t30 -187t57 -168.5t90 -137t128 -92.5t171 -34q82 0 155.5 21t148.5 71t155.5 133.5t175.5 206.5v1208z" />
    <glyph glyph-name="h" unicode="h" horiz-adv-x="2177" 
d="M1618 0v1278q0 91 -9 173.5t-29 153t-52.5 127.5t-79 97t-109 61.5t-141.5 21.5q-93 0 -170.5 -25t-151 -76.5t-148 -130.5t-161.5 -185v-1495h-235v3072h235v-1323q75 91 148.5 159t152.5 113.5t166 68.5t188 23q121 0 215 -30t163.5 -84.5t118 -128.5t78 -162.5
t43 -187t13.5 -199.5v-1321h-235z" />
    <glyph glyph-name="i" unicode="i" horiz-adv-x="985" 
d="M512 2562q-40 0 -74 14.5t-59 40t-39 60.5t-14 76q0 40 14 75t39 60.5t59 40t74 14.5t74 -14.5t58.5 -40t39 -60.5t14.5 -75q0 -41 -14.5 -76t-39 -60.5t-58.5 -40t-74 -14.5zM418 0v1884h-332v189h567v-2073h-235z" />
    <glyph glyph-name="j" unicode="j" horiz-adv-x="942" 
d="M491 2562q-40 0 -74 14.5t-59 40t-39 60.5t-14 76q0 40 14 75t39 60.5t59 40t74 14.5t74 -14.5t59 -40t39.5 -60.5t14.5 -75q0 -41 -14.5 -76t-39.5 -60.5t-59 -40t-74 -14.5zM-94 -691h192q72 0 124 30t85.5 94.5t50 166t16.5 244.5v2229h236v-2186q0 -169 -18.5 -292.5
t-51 -211t-78.5 -142t-101.5 -85.5t-119.5 -42t-133 -11q-29 0 -58 2t-56 6t-51.5 10t-45.5 13z" />
    <glyph glyph-name="k" unicode="k" horiz-adv-x="1894" 
d="M1511 0l-792 1122l-152 -143v-979h-235v3072h235v-1854q206 208 414.5 423t410.5 432h318l-824 -795l931 -1278h-306z" />
    <glyph glyph-name="l" unicode="l" horiz-adv-x="983" 
d="M889 -2q-17 -4 -38.5 -7.5t-45.5 -5.5t-48 -3.5t-46 -1.5q-82 0 -151 20.5t-120 66.5t-79.5 120.5t-28.5 182.5v2702h235v-2648q0 -54 8 -98.5t26.5 -76.5t49.5 -49.5t78 -17.5h160v-184z" />
    <glyph glyph-name="m" unicode="m" horiz-adv-x="3248" 
d="M2689 0v1276q0 91 -6 174t-20.5 153.5t-41 128t-67 97.5t-98 61.5t-134.5 21.5q-89 0 -159.5 -25t-136 -76.5t-133 -130.5t-149.5 -185v-1495h-233v1278q0 91 -5.5 173.5t-20.5 153t-41 127.5t-67 97t-98 61.5t-134 21.5q-89 0 -159.5 -25t-136.5 -76.5t-133 -130.5
t-149 -185v-1495h-235v2073h188l37 -336q71 94 139 164.5t140.5 117.5t153.5 70.5t179 23.5q108 0 194.5 -27t153 -79.5t113 -130.5t74.5 -180q80 110 154 188.5t150 129.5t158.5 75t180.5 24q118 0 207 -30t153 -84.5t106 -128.5t66.5 -162.5t34.5 -187t10 -199.5v-1321
h-235z" />
    <glyph glyph-name="n" unicode="n" horiz-adv-x="2177" 
d="M1618 0v1278q0 136 -21 252.5t-70 201.5t-129.5 132.5t-199.5 47.5q-93 0 -170.5 -25t-151 -76.5t-148 -130.5t-161.5 -185v-1495h-235v2073h188l37 -334q79 96 155 166.5t155.5 116.5t166.5 68.5t188 22.5q121 0 215 -30t163.5 -84.5t118 -128.5t78 -162.5t43 -187
t13.5 -199.5v-1321h-235z" />
    <glyph glyph-name="o" unicode="o" horiz-adv-x="2179" 
d="M1073 -41q-205 0 -367 73.5t-275 211.5t-173 333.5t-60 440.5q0 164 28 309t81 267t131 218.5t179 163t223.5 102t264.5 35.5q205 0 367 -73.5t275 -211t173 -333.5t60 -440q0 -165 -27.5 -310t-81 -267t-131.5 -218t-179 -163t-223 -102.5t-265 -35.5zM1095 161
q104 0 191 28.5t157 82t122.5 129.5t88 170.5t53 205.5t17.5 235q0 125 -16 241t-49.5 216t-85.5 181.5t-123 140t-162.5 90t-204.5 31.5q-156 0 -273.5 -63t-196.5 -176t-119 -269.5t-40 -342.5q0 -126 16 -242t49.5 -216t85.5 -181.5t123 -139.5t162.5 -89.5t204.5 -31.5z
" />
    <glyph glyph-name="p" unicode="p" horiz-adv-x="2148" 
d="M332 -862v2935h188l27 -344q79 98 156 170.5t160 120t174.5 70.5t199.5 23q127 0 229 -37t180 -103.5t134 -160t92 -205.5t52.5 -240.5t16.5 -264.5q0 -147 -23 -287.5t-71 -265.5t-122 -230t-176.5 -181t-233.5 -118.5t-293 -42.5q-63 0 -122.5 4t-116 11t-110.5 17
t-106 22v-893h-235zM567 256q52 -23 107.5 -40t115 -29t123 -18t131.5 -6q165 0 286 64.5t200.5 185t118.5 293.5t39 390q0 95 -9 193t-31 189t-58 171t-90 139.5t-127.5 94t-170.5 34.5q-54 0 -104 -9t-100 -29.5t-99.5 -54t-102.5 -81.5t-109.5 -112t-119.5 -147v-1228z
" />
    <glyph glyph-name="q" unicode="q" horiz-adv-x="2148" 
d="M1581 -862v1181q-81 -96 -158.5 -164t-158 -112t-167.5 -64t-186 -20q-127 0 -229 37t-180 103.5t-134 160t-92 206t-53 240.5t-17 265q0 146 23 287t71.5 265.5t122.5 229.5t176.5 181t233.5 118.5t293 42.5q83 0 174 -7.5t181.5 -21.5t176 -33.5t158.5 -44.5v-2850
h-235zM1581 1816q-53 22 -109 39.5t-115.5 29t-122.5 17.5t-130 6q-165 0 -286 -64t-200 -184.5t-118 -293.5t-39 -389q0 -95 9 -193t30.5 -189.5t57.5 -171.5t90 -139.5t127.5 -94t170.5 -34.5q54 0 104.5 9t100 30t99 54t102.5 81t109 112t120 146v1229z" />
    <glyph glyph-name="r" unicode="r" horiz-adv-x="1395" 
d="M332 0v2073h188l29 -414q80 119 147 205t128 141.5t121 81.5t128 26q32 0 62 -2t60 -7t61 -12.5t67 -19.5l-50 -213q-21 8 -46.5 14.5t-51 11.5t-50.5 8t-46 3q-35 0 -68.5 -12t-68.5 -37.5t-74 -65.5t-84.5 -95.5t-98.5 -127.5t-118 -162v-1396h-235z" />
    <glyph glyph-name="s" unicode="s" horiz-adv-x="1575" 
d="M250 258q57 -22 117.5 -39.5t122 -30t121 -19t114.5 -6.5q101 0 178.5 24t130.5 68t80 106.5t27 139.5q0 75 -25.5 134t-68.5 107t-101 87.5t-122.5 76t-133.5 72.5t-133.5 77t-122.5 89.5t-101 109.5t-68.5 137.5t-25.5 174.5q0 82 21 154t61 133t97 109t130 82
t160 51.5t187 17.5q40 0 86.5 -3.5t95.5 -10.5t99 -18.5t100 -26.5l-37 -205q-46 15 -94 27t-95 20t-91.5 12t-84.5 4q-96 0 -168 -25t-120 -69.5t-72.5 -104.5t-24.5 -130q0 -75 25.5 -133.5t69 -106t101 -86.5t122.5 -74.5t133.5 -71.5t133.5 -76.5t123 -89t101.5 -110.5
t68.5 -140t25 -177q0 -128 -48.5 -231.5t-139 -176.5t-218 -112t-284.5 -39q-63 0 -126.5 6t-126 17t-123 27.5t-116.5 37.5z" />
    <glyph glyph-name="t" unicode="t" horiz-adv-x="1286" 
d="M1130 4q-26 -6 -56.5 -10.5t-62.5 -8t-66 -6t-69 -2.5q-71 0 -133 10t-114.5 33.5t-94 61.5t-70 95t-44 134t-15.5 178v1395h-309v189h305l56 606h184v-606h489v-189h-489v-1370q0 -78 9.5 -133.5t28 -92.5t45.5 -59t62 -33t78.5 -14.5t93.5 -3.5h172v-174z" />
    <glyph glyph-name="u" unicode="u" horiz-adv-x="2177" 
d="M1656 0l-36 334q-79 -96 -155 -167t-156 -117t-166.5 -68.5t-188.5 -22.5q-120 0 -214 30t-164 84.5t-118.5 129t-78 162.5t-43 186t-13.5 200v1322h236v-1279q0 -91 9 -173.5t29.5 -153t52.5 -127.5t78.5 -97t108.5 -62t142 -22q93 0 170.5 25.5t150.5 77t148 130
t161 185.5v1496h236v-2073h-189z" />
    <glyph glyph-name="v" unicode="v" horiz-adv-x="1794" 
d="M788 0q-103 265 -196.5 527t-179 521t-161.5 515t-143 510h252q52 -195 105.5 -384.5t109.5 -374.5t115.5 -366.5t122.5 -360.5q26 -72 50.5 -153.5t43.5 -157.5h6q10 38 22 78l24 80t25 79t25 74q64 181 124 363t115.5 367t106.5 373.5t97 382.5h235
q-67 -259 -143.5 -519t-162 -519.5t-180 -518.5t-196.5 -516h-217z" />
    <glyph glyph-name="w" unicode="w" horiz-adv-x="2928" 
d="M1948 0l-416 1513l-72 303h-6l-72 -303l-397 -1513h-270q-91 263 -172 524t-153.5 519.5t-137.5 515.5t-123 514h248q38 -186 81.5 -372.5t90.5 -371.5t97 -368.5t101 -362.5q25 -88 51.5 -186.5t51.5 -192.5h6l92 374l397 1480h256l406 -1484l92 -370h6q25 93 49 190
t49 186q52 179 102 363t97 370t89.5 373t78.5 372h233q-61 -258 -129.5 -517.5t-143.5 -519t-157 -519t-172 -517.5h-253z" />
    <glyph glyph-name="x" unicode="x" horiz-adv-x="1872" 
d="M1460 0l-533 897l-530 -897h-277l695 1057l-645 1016h284l492 -834l489 834h266l-642 -994l692 -1079h-291z" />
    <glyph glyph-name="y" unicode="y" horiz-adv-x="1798" 
d="M122 -693h191q35 0 70 13t71.5 43.5t75.5 81.5t83.5 128.5t95.5 182.5t110 244q-57 147 -118 307t-124 329.5t-125.5 346.5t-122 358.5t-114 365t-101.5 366.5h254q53 -201 109 -392t115.5 -375.5t121 -363.5t125.5 -358q13 -37 26.5 -77.5t25.5 -81l24 -81t23 -78.5h6
q12 38 25 78t26 80.5t26 80t25 77.5q59 176 115.5 359t108.5 370.5t99 378.5t89 383h237q-88 -350 -173 -652.5t-167.5 -560.5t-161 -472t-153.5 -388q-76 -177 -140 -312.5t-122 -235.5t-111.5 -167.5t-107.5 -109t-111.5 -59t-121.5 -17.5q-30 0 -57.5 2.5t-54 7
t-51.5 10.5t-51 13z" />
    <glyph glyph-name="z" unicode="z" horiz-adv-x="1706" 
d="M190 0v204l1037 1665h-977v204h1228v-204l-1038 -1667h1104v-202h-1354z" />
    <glyph glyph-name="braceleft" unicode="{" horiz-adv-x="1216" 
d="M1046 -678q-16 -2 -35 -3l-38 -2t-37 -1h-33q-121 0 -196.5 42.5t-118.5 129t-58.5 217t-15.5 305.5v598q0 136 -20 239.5t-61 173.5t-105 105t-152 35v168q88 0 152 35t105 105t61 173.5t20 239.5v497q0 174 16.5 304.5t60 217t119 130t193.5 43.5q15 0 33 -0.5t37 -1.5
l38 -2t35 -2v-177h-137q-31 0 -56.5 -8.5t-46 -30.5t-35 -60t-24 -97.5t-14 -142.5t-4.5 -195v-448q0 -76 -6.5 -151t-21 -144t-39 -130t-60.5 -109t-85.5 -81t-113.5 -45q64 -13 113.5 -46.5t85.5 -82t60.5 -110t39 -131.5t21 -145.5t6.5 -152.5v-548q0 -112 4.5 -195.5
t14 -143t24 -97.5t35 -60t46 -30.5t56.5 -8.5h137v-176z" />
    <glyph glyph-name="bar" unicode="|" 
d="M913 -862v3993h221v-3993h-221z" />
    <glyph glyph-name="braceright" unicode="}" horiz-adv-x="1210" 
d="M164 -502h135q32 0 57.5 8.5t46 30.5t35 60t24.5 97.5t14.5 142.5t4.5 196v548q0 76 6.5 151t21 144t39 129.5t60.5 108.5t85 81t114 46q-65 12 -114 45.5t-85 82.5t-60.5 110.5t-39 131.5t-21 145.5t-6.5 152.5v448q0 112 -4.5 195t-14 142.5t-24.5 97.5t-35 60
t-45.5 30.5t-56.5 8.5h-137v177q16 1 34.5 2t37.5 2t37 1.5t34 0.5q121 0 196.5 -43t118.5 -129t58.5 -217t15.5 -306v-497q0 -137 19.5 -240.5t61 -173t105.5 -104.5t152 -35v-168q-88 0 -152 -35.5t-105.5 -105.5t-61 -173t-19.5 -239v-598q0 -174 -17 -304t-60.5 -216.5
t-119 -130t-192.5 -43.5h-34t-37 1t-37.5 2t-34.5 3v176z" />
    <glyph glyph-name="asciitilde" unicode="~" 
d="M1913 2345q0 -142 -33.5 -262t-97 -206t-156 -134.5t-209.5 -48.5q-95 0 -166.5 27.5t-126 72t-96.5 99.5t-78 112q-33 49 -66 95t-72 81.5t-86 57.5t-108 22q-77 0 -130.5 -36t-86.5 -99t-48 -148t-15 -184h-195v12q0 140 33 258t97 203.5t156 133.5t210 48
q93 0 164 -26.5t125.5 -69.5t97 -97t80.5 -110q33 -49 65.5 -95.5t71 -83t85.5 -59t109 -22.5q77 0 130 36.5t86 100t47.5 149.5t15.5 185h197v-12z" />
    <glyph glyph-name="exclamdown" unicode="&#xa1;" horiz-adv-x="1327" 
d="M589 2035q-41 0 -77 16t-63 43.5t-42.5 64.5t-15.5 79q0 43 15.5 80.5t42.5 65t63 43.5t77 16q42 0 78 -16t63 -43.5t42.5 -65t15.5 -80.5q0 -42 -15.5 -79t-42.5 -64.5t-63 -43.5t-78 -16zM452 -672l37 2369h201l37 -2369h-275z" />
    <glyph glyph-name="cent" unicode="&#xa2;" 
d="M1079 0v399q-197 16 -344.5 96.5t-245.5 215t-146.5 317.5t-48.5 404q0 154 26 288.5t75 246.5t119 201.5t157 154.5t190 104t218 51v381h203v-375q52 -3 109 -11.5t118.5 -24.5t126.5 -40.5t133 -58.5l-77 -185q-64 32 -125.5 56t-120 39.5t-116 23.5t-112.5 8
q-164 0 -288.5 -59t-208 -168.5t-126 -264t-42.5 -345.5q0 -218 44.5 -380t130 -269t209 -160.5t279.5 -53.5q59 0 119.5 6.5t123.5 20.5t129 35t136 51l47 -182q-63 -25 -126 -46t-124.5 -37t-121.5 -26t-117 -14v-399h-203z" />
    <glyph glyph-name="sterling" unicode="&#xa3;" 
d="M284 0v211q49 64 93.5 134t81 149t64 168.5t42 194.5t15 227t-16.5 265h-352v187h328q-9 78 -18.5 155t-17 151t-12 145.5t-4.5 140.5q0 130 24 237.5t68.5 192t109 147t146 104t178.5 61.5t207 20q42 0 95 -3t112.5 -10t123.5 -17t128 -24v-200q-53 8 -110 16t-114 13.5
t-113.5 9t-108.5 3.5q-138 0 -234.5 -34.5t-157.5 -101.5t-88.5 -163.5t-27.5 -220.5q0 -85 4 -166t11 -158t15 -151.5t17 -146.5h797v-187h-770q16 -186 7 -349.5t-44.5 -306t-99 -263t-156.5 -219.5h1316v-211h-1538z" />
    <glyph glyph-name="currency" unicode="&#xa4;" 
d="M1663 94l-289 455q-39 -24 -82.5 -42.5t-91 -31.5t-97.5 -20t-102 -7q-47 0 -93.5 5.5t-90.5 16.5t-84.5 27t-75.5 35l-276 -438l-170 121l289 446q-51 55 -86.5 123.5t-59 146.5t-34.5 165t-11 180q0 91 12 177.5t35.5 165t58.5 148t82 127.5l-288 446l174 126l274 -432
q39 24 81.5 42.5t90 31.5t98.5 19.5t105 6.5q52 0 102 -6t96 -18.5t88.5 -31t79.5 -42.5l271 428l170 -120l-285 -442q41 -54 74 -116.5t56 -136t34.5 -158t11.5 -182.5q0 -90 -12 -176t-37 -165.5t-62.5 -150.5t-87.5 -131l306 -467zM1026 639q119 0 209 48.5t150.5 133.5
t91 200.5t30.5 250.5q0 94 -12.5 181t-38.5 162t-65.5 136t-94 104t-124 66.5t-154.5 23.5q-121 0 -212 -46.5t-151.5 -130.5t-91.5 -201t-31 -256q0 -148 27.5 -271.5t86.5 -212.5t153 -138.5t227 -49.5z" />
    <glyph glyph-name="yen" unicode="&#xa5;" 
d="M1149 502v-502h-242v502h-619v192h619v428h-619v193h619v137q-112 170 -217 343t-203.5 349t-191.5 355t-180 360h278q69 -157 145 -314.5t158 -312t170 -304t180 -290.5q54 91 108 189.5t106.5 200.5t102.5 207.5t97.5 210.5t92.5 209t85 204h295q-83 -169 -171.5 -341
t-185 -347.5t-202.5 -355t-225 -363.5v-137h618v-193h-618v-428h618v-192h-618z" />
    <glyph glyph-name="brokenbar" unicode="&#xa6;" 
d="M913 1622v1569h221v-1569h-221zM913 -862v1599h221v-1599h-221z" />
    <glyph glyph-name="section" unicode="&#xa7;" horiz-adv-x="2027" 
d="M524 -543q30 -8 67 -13.5t77 -9t81.5 -5t79.5 -1.5q96 0 168 27t121 76.5t73.5 120t24.5 157.5q0 84 -25 165t-68 160.5t-100.5 159.5t-122.5 161.5t-133.5 166.5t-133 175t-122 187t-100.5 202.5t-68.5 221t-25.5 242.5q0 83 11.5 171.5t33 178.5t53 178.5t71.5 172
t88 159t104 140.5q50 57 107 101t122.5 73.5t140 44t158.5 14.5q35 0 73 -2.5t75 -7t71 -9.5t60 -9l-15 -179q-72 13 -144 21t-151 8q-102 0 -176 -28t-121.5 -83t-70.5 -135.5t-23 -185.5q0 -81 25 -158t69 -152t102 -150t123 -152.5t134.5 -159.5t134.5 -170.5t123 -186
t102 -205.5t69 -229t25 -258q0 -81 -11 -169t-31.5 -177.5t-51.5 -179t-71 -173t-89.5 -159t-107.5 -137.5q-46 -49 -101 -89.5t-121 -69.5t-145 -44.5t-174 -15.5q-66 0 -137.5 9t-134.5 26zM600 2181q-17 -55 -30 -111t-23 -112t-15.5 -113t-5.5 -115q0 -157 34.5 -290.5
t91 -250.5t130 -221t151.5 -202t155 -194t140.5 -197.5t108.5 -212t59 -236.5q17 48 32.5 101.5t27.5 113t19.5 125t7.5 137.5q0 156 -35.5 289.5t-94.5 251t-134 222t-155.5 202.5t-158.5 193t-142 193.5t-108 203.5t-55 223z" />
    <glyph glyph-name="dieresis" unicode="&#xa8;" horiz-adv-x="1290" 
d="M846 2595q-35 0 -64.5 12.5t-51.5 34.5t-34 52.5t-12 66.5q0 35 12 65.5t34 52.5t51.5 34.5t64.5 12.5q33 0 62.5 -12.5t51 -34.5t33.5 -52.5t12 -65.5q0 -36 -12 -66.5t-33.5 -52.5t-51 -34.5t-62.5 -12.5zM160 2595q-35 0 -64 12.5t-50.5 34.5t-33.5 52.5t-12 66.5
q0 35 12 65.5t33.5 52.5t50.5 34.5t64 12.5q34 0 63.5 -12.5t51.5 -34.5t34 -52.5t12 -65.5q0 -36 -12 -66.5t-34 -52.5t-51.5 -34.5t-63.5 -12.5z" />
    <glyph glyph-name="copyright" unicode="&#xa9;" horiz-adv-x="2783" 
d="M1386 4q-178 0 -339 48t-298.5 136.5t-249 212.5t-189.5 275.5t-120.5 326t-42.5 365.5t43.5 366.5t123 327t191.5 275.5t249.5 212t297 136.5t334.5 48.5t334.5 -48t296.5 -135t248.5 -210t191 -274t122 -326.5t42.5 -366.5q0 -190 -43 -365.5t-122.5 -327.5
t-191.5 -277t-249 -214t-296 -137.5t-333 -48.5zM1386 182q148 0 282 42.5t250 119.5t210.5 185t161 240t103 283.5t36.5 315.5q0 163 -36.5 315t-103 284.5t-161 241.5t-210.5 187t-250 121t-282 43t-283 -42t-251.5 -119t-211 -185t-161 -239.5t-103 -283.5t-36.5 -317
q0 -164 36.5 -315.5t103 -284t161 -241.5t211 -187t251.5 -121t283 -43zM1773 725q-42 -18 -87.5 -32t-92.5 -24t-94.5 -15t-93.5 -5q-136 0 -246 40.5t-187.5 125.5t-119 218t-41.5 319q0 188 48 328.5t133 234.5t201.5 141t252.5 47q45 0 86.5 -5.5t80 -15t75.5 -22.5
t73 -28l-66 -183q-35 16 -71.5 27t-71.5 18.5t-67 10.5t-58 3q-98 0 -170.5 -39t-120 -109.5t-71 -168.5t-23.5 -215q0 -122 21.5 -219.5t68 -167t119.5 -107t176 -37.5q30 0 66.5 4.5t76.5 13t82.5 20.5t83.5 26z" />
    <glyph glyph-name="ordfeminine" unicode="&#xaa;" horiz-adv-x="1608" 
d="M1108 1395l-25 172q-42 -44 -86 -82t-94.5 -66t-111.5 -43.5t-136 -15.5q-100 0 -182 28t-140 82.5t-89 134t-31 183.5q0 119 45 204.5t126.5 140t194.5 80t248 25.5h229v121q0 84 -19.5 146.5t-59.5 104t-101 61.5t-143 20q-47 0 -96 -5t-98 -15.5t-96 -26t-89 -35.5
l-39 180q47 20 101.5 37t113.5 29.5t120.5 19t123.5 6.5q85 0 156 -15t127 -44.5t98 -71.5t69.5 -95t41.5 -117t14 -136v-1007h-172zM250 794v199h1030v-199h-1030zM1056 2060h-241q-91 0 -158.5 -16t-112 -48t-66.5 -80t-22 -112q0 -59 16 -107t46.5 -81.5t74.5 -51.5
t101 -18q54 0 101 15t90 42.5t84.5 66t86.5 87.5v303z" />
    <glyph glyph-name="guillemotleft" unicode="&#xab;" horiz-adv-x="2027" 
d="M1446 301l-521 846l521 845l194 -92l-446 -753l446 -754zM760 260l-521 887l521 886l188 -94l-440 -792l440 -793z" />
    <glyph glyph-name="logicalnot" unicode="&#xac;" 
d="M1595 745v404h-1429v223h1664v-627h-235z" />
    <glyph glyph-name="registered" unicode="&#xae;" horiz-adv-x="2113" 
d="M1052 1378q-110 0 -210 28t-186.5 80.5t-157 125.5t-120.5 163t-77 194t-27 218q0 111 28 213.5t78 192t121 163t157.5 126t186 81.5t207.5 29q111 0 211 -28t186 -80t156 -125t119.5 -163t76.5 -194.5t27 -218.5q0 -110 -27.5 -212t-78 -191.5t-121.5 -163.5
t-157.5 -127t-185.5 -82t-206 -29zM1052 1528q91 0 171 25t148 69t121.5 105t91 133t57.5 152t20 163q0 96 -23 182.5t-64 160.5t-97.5 133t-124.5 101t-144 64.5t-156 22.5q-90 0 -170.5 -25t-148 -69.5t-121 -105.5t-91 -133t-57.5 -152t-20 -163q0 -95 23.5 -181.5
t65 -160t98.5 -133t124.5 -101.5t143 -64.5t153.5 -22.5zM1208 1728l-184 399h-70v-399h-162v936h283q66 0 118 -17.5t88.5 -50t55.5 -77t19 -97.5q0 -49 -13 -92.5t-36 -78.5t-54.5 -60.5t-67.5 -38.5l218 -424h-195zM1024 2259q41 0 71.5 9.5t50.5 28.5t29.5 47.5
t9.5 65.5q0 29 -8.5 51.5t-27 38t-47 23.5t-68.5 8h-80v-272h70z" />
    <glyph glyph-name="macron" unicode="&#xaf;" horiz-adv-x="1065" 
d="M0 2642v184h995v-184h-995z" />
    <glyph glyph-name="macron" unicode="&#x2c9;" horiz-adv-x="1065" 
d="M0 2642v184h995v-184h-995z" />
    <glyph glyph-name="degree" unicode="&#xb0;" horiz-adv-x="1372" 
d="M678 2050q-96 0 -178.5 32t-142.5 91t-94 141.5t-34 183.5q0 69 16.5 129.5t46.5 112t72 92.5t93.5 70t110.5 44t124 15q96 0 178.5 -32t142.5 -91t94 -141.5t34 -183.5q0 -99 -36 -184t-98.5 -147t-147 -97t-181.5 -35zM688 2216q53 0 99.5 21.5t80.5 60.5t54 91.5
t20 115.5t-20 116.5t-55 92t-82.5 60t-102.5 21.5q-53 0 -99.5 -21.5t-81.5 -59.5t-55 -90.5t-20 -114.5q0 -66 20 -119.5t55.5 -92.5t83 -60t103.5 -21z" />
    <glyph glyph-name="plusminus" unicode="&#xb1;" 
d="M907 594v827h-719v223h719v832h233v-832h719v-223h-719v-827h-233zM194 0v223h1659v-223h-1659z" />
    <glyph glyph-name="twosuperior" unicode="&#xb2;" horiz-adv-x="1429" 
d="M170 1585v157l440 469q85 89 147.5 170.5t103 161.5t60 160.5t19.5 169.5q0 86 -24 147t-67.5 99.5t-104.5 55.5t-134 17q-47 0 -95 -5t-95 -14.5t-92 -23.5t-86 -33l-41 173q44 20 96 36t109 27t116 17t117 6q126 0 225 -32t167 -94t104 -153t36 -209q0 -69 -9.5 -132.5
t-30 -125t-53.5 -123t-80.5 -128.5t-110 -140.5t-142.5 -159.5l-278 -305h778v-188h-1075z" />
    <glyph glyph-name="threesuperior" unicode="&#xb3;" horiz-adv-x="1413" 
d="M184 1746q25 -5 64 -8t87.5 -5t104 -3.5t115.5 -1.5q104 0 181.5 23t129 65.5t77 102.5t25.5 135q0 95 -33.5 162.5t-96.5 110t-153 62t-202 19.5h-127v180h141q102 0 181.5 24.5t134.5 68.5t83.5 105t28.5 134q0 65 -19 116.5t-56.5 86.5t-93.5 53t-129 18
q-101 0 -198.5 -17t-188.5 -55l-41 173q54 19 111 33.5t114.5 25t115.5 16t115 5.5q115 0 207 -30.5t156.5 -88t99.5 -139.5t35 -185q0 -82 -26.5 -151t-72 -122.5t-106 -90t-127.5 -53.5q84 -14 154 -51.5t120 -95.5t77.5 -134.5t27.5 -169.5q0 -115 -47.5 -210
t-132 -163.5t-201.5 -106.5t-256 -38q-37 0 -87 2t-102.5 6.5t-102.5 11t-87 15.5v165z" />
    <glyph glyph-name="acute" unicode="&#xb4;" horiz-adv-x="1040" 
d="M0 2527l399 543l203 -148l-455 -510z" />
    <glyph glyph-name="mu" unicode="&#xb5;" horiz-adv-x="2261" 
d="M2175 -4q-17 -4 -36.5 -7.5t-41 -6t-44 -4t-44.5 -1.5q-78 0 -143.5 22.5t-114.5 67.5t-80 112t-41 155q-77 -94 -151.5 -164.5t-153.5 -117.5t-166.5 -70t-190.5 -23q-64 0 -121.5 10t-107.5 32t-93 58.5t-79 89.5v-25v-62.5v-82v-82v-63v-25.5v-671h-235v2935h235
v-1279q0 -91 9 -173.5t29.5 -153t52.5 -127.5t79 -97t108.5 -62t141.5 -22q93 0 170.5 25.5t151 77t148 130t161.5 185.5v1496h235v-1559q0 -102 14 -167.5t43.5 -102.5t74 -51.5t106.5 -14.5h84v-182z" />
    <glyph glyph-name="mu" unicode="&#x3bc;" horiz-adv-x="2261" 
d="M2175 -4q-17 -4 -36.5 -7.5t-41 -6t-44 -4t-44.5 -1.5q-78 0 -143.5 22.5t-114.5 67.5t-80 112t-41 155q-77 -94 -151.5 -164.5t-153.5 -117.5t-166.5 -70t-190.5 -23q-64 0 -121.5 10t-107.5 32t-93 58.5t-79 89.5v-25v-62.5v-82v-82v-63v-25.5v-671h-235v2935h235
v-1279q0 -91 9 -173.5t29.5 -153t52.5 -127.5t79 -97t108.5 -62t141.5 -22q93 0 170.5 25.5t151 77t148 130t161.5 185.5v1496h235v-1559q0 -102 14 -167.5t43.5 -102.5t74 -51.5t106.5 -14.5h84v-182z" />
    <glyph glyph-name="paragraph" unicode="&#xb6;" horiz-adv-x="2156" 
d="M1575 -481v3113h-406v-3113h-252v1703q-122 -6 -232 18.5t-203 75t-168 124.5t-127.5 167t-80.5 203t-28 232q0 110 27 213t77 194t122.5 166.5t163.5 129.5t199 84t230 30h923v-3340h-245z" />
    <glyph glyph-name="periodcentered" unicode="&#xb7;" horiz-adv-x="995" 
d="M497 1052q-45 0 -83.5 17t-67 46.5t-44.5 69t-16 85.5q0 45 16 84.5t44.5 69.5t67 47t83.5 17q46 0 84.5 -17t66.5 -47t44 -69.5t16 -84.5q0 -46 -16 -85.5t-44 -69t-66.5 -46.5t-84.5 -17z" />
    <glyph glyph-name="periodcentered" unicode="&#x2219;" horiz-adv-x="995" 
d="M497 1052q-45 0 -83.5 17t-67 46.5t-44.5 69t-16 85.5q0 45 16 84.5t44.5 69.5t67 47t83.5 17q46 0 84.5 -17t66.5 -47t44 -69.5t16 -84.5q0 -46 -16 -85.5t-44 -69t-66.5 -46.5t-84.5 -17z" />
    <glyph glyph-name="cedilla" unicode="&#xb8;" horiz-adv-x="1024" 
d="M508 0h215l96 -227q17 -39 28 -68.5t17.5 -53.5t9 -44t2.5 -39q0 -36 -18.5 -74t-63 -69t-119 -50.5t-186.5 -19.5q-43 0 -88.5 3t-88.5 8.5t-83 13.5t-72 18v157h369q31 0 53.5 3t37 9.5t21.5 17.5t7 28q0 9 -1.5 19.5t-4 23t-7 26t-10.5 29.5z" />
    <glyph glyph-name="onesuperior" unicode="&#xb9;" horiz-adv-x="1114" 
d="M524 1585v1511l-340 -194l-74 145l441 289h200v-1751h-227z" />
    <glyph glyph-name="ordmasculine" unicode="&#xba;" horiz-adv-x="1691" 
d="M829 1358q-164 0 -284.5 54t-198.5 152t-116 235.5t-38 305.5q0 179 43 323t126 246t206 156.5t285 54.5q154 0 272.5 -52.5t199 -150t122 -235t41.5 -307.5q0 -116 -20 -219t-58.5 -190t-94.5 -156t-129.5 -117.5t-162.5 -74t-193 -25.5zM309 794v199h1090v-199h-1090z
M848 1552q100 0 175 44t125 119t74.5 175t24.5 213q0 122 -23 230t-72 188.5t-126 127t-187 46.5q-104 0 -180.5 -41t-127 -114.5t-75 -176t-24.5 -225.5q0 -135 23.5 -243t74 -184.5t129 -117.5t189.5 -41z" />
    <glyph glyph-name="guillemotright" unicode="&#xbb;" horiz-adv-x="2027" 
d="M1079 354l441 793l-441 792l188 94l521 -886l-521 -887zM387 393l446 754l-446 753l194 92l521 -845l-521 -846z" />
    <glyph glyph-name="onequarter" unicode="&#xbc;" horiz-adv-x="2589" 
d="M524 1430v1194l-340 -195l-74 145l441 290h200v-1434h-227zM255 -21l1827 2997l170 -97l-1827 -2994zM2037 0v301h-684v158l578 971h326v-947h253v-182h-253v-301h-220zM2037 1253h-4l-450 -770h454v770z" />
    <glyph glyph-name="onehalf" unicode="&#xbd;" horiz-adv-x="2806" 
d="M524 1430v1194l-340 -195l-74 145l441 290h200v-1434h-227zM255 -21l1827 2997l170 -97l-1827 -2994zM1628 0v157l407 388q87 81 142 147.5t86 125t42 111t11 107.5q0 59 -16 105.5t-50.5 78.5t-87.5 49t-127 17q-39 0 -81 -5t-85 -14.5t-85.5 -24t-83.5 -32.5l-41 172
q44 20 93.5 36t102.5 27t106 17t103 6q126 0 217 -31t150.5 -86.5t87.5 -132t28 -168.5q0 -50 -5.5 -97.5t-21.5 -96t-44 -99.5t-72.5 -108t-108 -121.5t-149.5 -140.5l-219 -199h694v-188h-993z" />
    <glyph glyph-name="threequarters" unicode="&#xbe;" horiz-adv-x="2783" 
d="M184 1591q25 -5 58 -8t73.5 -5t89.5 -3.5t109 -1.5q83 0 148.5 15.5t110 46t68 75.5t23.5 105q0 83 -28.5 136t-79.5 83t-120.5 40.5t-152.5 10.5h-137v181h151q76 0 136.5 17t102.5 50t64.5 79.5t22.5 104.5q0 50 -15.5 87t-45.5 62.5t-74.5 38.5t-101.5 13
q-47 0 -92 -4.5t-89 -13t-86 -21t-81 -29.5l-41 173q50 17 103.5 31t107 24t106 15t100.5 5q105 0 186 -25.5t136.5 -73t84.5 -116t29 -153.5q0 -67 -19.5 -123t-56.5 -99.5t-89.5 -73t-118.5 -42.5q87 -9 149.5 -43.5t102.5 -84.5t58.5 -112t18.5 -127q0 -80 -23 -143
t-63.5 -111.5t-95.5 -82.5t-118.5 -55.5t-133 -31.5t-139.5 -10q-37 0 -80.5 2t-88.5 6.5t-88.5 11t-80.5 15.5v165zM444 -21l1827 2997l170 -97l-1827 -2994zM2232 0v301h-684v158l578 971h326v-947h253v-182h-253v-301h-220zM2232 1253h-4l-450 -770h454v770z" />
    <glyph glyph-name="questiondown" unicode="&#xbf;" horiz-adv-x="1695" 
d="M962 2035q-41 0 -77 16t-63 43.5t-42.5 64.5t-15.5 79q0 43 15.5 80.5t42.5 65t63 43.5t77 16q42 0 78 -16t63 -43.5t42.5 -65t15.5 -80.5q0 -42 -15.5 -79t-42.5 -64.5t-63 -43.5t-78 -16zM1427 -655q-54 -12 -113.5 -21.5t-116 -15t-107 -8.5t-87.5 -3q-214 0 -361 55
t-238.5 151t-132 227t-40.5 284q0 97 19.5 183.5t52.5 166.5t77 155t92.5 149t99 147.5t96.5 150t85 158t66 171.5t37.5 189.5t-0.5 212.5h213q11 -119 2.5 -224t-32 -199t-59.5 -178.5t-78.5 -162.5t-89 -151t-91.5 -144.5t-85.5 -142.5t-71.5 -144t-49 -151t-18 -163
q0 -120 26.5 -217t87 -165.5t159.5 -106.5t244 -38q114 0 218.5 8t194.5 21v-194z" />
    <glyph glyph-name="Agrave" unicode="&#xc0;" horiz-adv-x="2386" 
d="M1997 0q-27 100 -55 203t-56.5 207t-57.5 207t-59 204h-1161q-30 -99 -60 -203t-58.5 -208.5t-56.5 -208t-54 -201.5h-261q110 390 225.5 765.5t235.5 733.5t243.5 698.5t250.5 661.5h235q143 -358 273.5 -716t249 -716t227.5 -715t209 -712h-270zM1708 1026
q-47 149 -97 304.5t-102.5 313.5t-107 316.5t-109.5 312.5q-13 39 -27.5 81.5t-28 84.5t-26.5 83.5t-24 78.5h-4q-13 -38 -26.5 -79.5t-28 -84t-28.5 -84t-26 -78.5q-53 -151 -105 -308t-103.5 -315t-101 -315.5t-95.5 -310.5h1040zM671 3432l139 205l598 -395l-108 -158z
" />
    <glyph glyph-name="Aacute" unicode="&#xc1;" horiz-adv-x="2386" 
d="M1997 0q-27 100 -55 203t-56.5 207t-57.5 207t-59 204h-1161q-30 -99 -60 -203t-58.5 -208.5t-56.5 -208t-54 -201.5h-261q110 390 225.5 765.5t235.5 733.5t243.5 698.5t250.5 661.5h235q143 -358 273.5 -716t249 -716t227.5 -715t209 -712h-270zM1708 1026
q-47 149 -97 304.5t-102.5 313.5t-107 316.5t-109.5 312.5q-13 39 -27.5 81.5t-28 84.5t-26.5 83.5t-24 78.5h-4q-13 -38 -26.5 -79.5t-28 -84t-28.5 -84t-26 -78.5q-53 -151 -105 -308t-103.5 -315t-101 -315.5t-95.5 -310.5h1040zM1077 3086l-108 158l598 395l139 -205z
" />
    <glyph glyph-name="Acircumflex" unicode="&#xc2;" horiz-adv-x="2386" 
d="M1997 0q-27 100 -55 203t-56.5 207t-57.5 207t-59 204h-1161q-30 -99 -60 -203t-58.5 -208.5t-56.5 -208t-54 -201.5h-261q110 390 225.5 765.5t235.5 733.5t243.5 698.5t250.5 661.5h235q143 -358 273.5 -716t249 -716t227.5 -715t209 -712h-270zM1708 1026
q-47 149 -97 304.5t-102.5 313.5t-107 316.5t-109.5 312.5q-13 39 -27.5 81.5t-28 84.5t-26.5 83.5t-24 78.5h-4q-13 -38 -26.5 -79.5t-28 -84t-28.5 -84t-26 -78.5q-53 -151 -105 -308t-103.5 -315t-101 -315.5t-95.5 -310.5h1040zM1165 3369l-377 -281l-106 144l489 391
l492 -383l-115 -152z" />
    <glyph glyph-name="Atilde" unicode="&#xc3;" horiz-adv-x="2386" 
d="M1997 0q-27 100 -55 203t-56.5 207t-57.5 207t-59 204h-1161q-30 -99 -60 -203t-58.5 -208.5t-56.5 -208t-54 -201.5h-261q110 390 225.5 765.5t235.5 733.5t243.5 698.5t250.5 661.5h235q143 -358 273.5 -716t249 -716t227.5 -715t209 -712h-270zM1708 1026
q-47 149 -97 304.5t-102.5 313.5t-107 316.5t-109.5 312.5q-13 39 -27.5 81.5t-28 84.5t-26.5 83.5t-24 78.5h-4q-13 -38 -26.5 -79.5t-28 -84t-28.5 -84t-26 -78.5q-53 -151 -105 -308t-103.5 -315t-101 -315.5t-95.5 -310.5h1040zM1775 3436q-30 -63 -72.5 -115t-94.5 -89
t-110 -56.5t-118 -19.5q-58 0 -105 12t-82 30.5t-81.5 50.5t-68 45.5t-55 25.5t-73.5 12q-34 0 -67.5 -14t-65 -40.5t-58 -63t-47.5 -81.5l-143 117q31 64 74 115.5t94.5 88.5t109.5 56.5t119 19.5q57 0 103.5 -12t81 -30.5t81.5 -50.5t68.5 -45.5t54.5 -25.5t72 -12
q35 0 69 14t65 40t58 62.5t48 80.5z" />
    <glyph glyph-name="Adieresis" unicode="&#xc4;" horiz-adv-x="2386" 
d="M1997 0q-27 100 -55 203t-56.5 207t-57.5 207t-59 204h-1161q-30 -99 -60 -203t-58.5 -208.5t-56.5 -208t-54 -201.5h-261q110 390 225.5 765.5t235.5 733.5t243.5 698.5t250.5 661.5h235q143 -358 273.5 -716t249 -716t227.5 -715t209 -712h-270zM1708 1026
q-47 149 -97 304.5t-102.5 313.5t-107 316.5t-109.5 312.5q-13 39 -27.5 81.5t-28 84.5t-26.5 83.5t-24 78.5h-4q-13 -38 -26.5 -79.5t-28 -84t-28.5 -84t-26 -78.5q-53 -151 -105 -308t-103.5 -315t-101 -315.5t-95.5 -310.5h1040zM1593 3127q-33 0 -62.5 13.5t-52 36
t-36 53t-13.5 65.5t13.5 66t36 54t52 36.5t62.5 13.5q34 0 64 -13.5t52 -36.5t35 -54t13 -66t-13 -65.5t-35 -53t-52 -36t-64 -13.5zM809 3127q-33 0 -63 13.5t-52.5 36t-35.5 53t-13 65.5t13 66t35.5 54t52.5 36.5t63 13.5t63 -13.5t52.5 -36.5t35 -54t12.5 -66
t-12.5 -65.5t-35 -53t-52.5 -36t-63 -13.5z" />
    <glyph glyph-name="Aring" unicode="&#xc5;" horiz-adv-x="2386" 
d="M1997 0q-27 100 -55 203t-56.5 207t-57.5 207t-59 204h-1161q-30 -99 -60 -203t-58.5 -208.5t-56.5 -208t-54 -201.5h-261q110 390 225.5 765.5t235.5 733.5t243.5 698.5t250.5 661.5h235q143 -358 273.5 -716t249 -716t227.5 -715t209 -712h-270zM1708 1026
q-47 149 -97 304.5t-102.5 313.5t-107 316.5t-109.5 312.5q-13 39 -27.5 81.5t-28 84.5t-26.5 83.5t-24 78.5h-4q-13 -38 -26.5 -79.5t-28 -84t-28.5 -84t-26 -78.5q-53 -151 -105 -308t-103.5 -315t-101 -315.5t-95.5 -310.5h1040zM1183 3021q-95 0 -168 30t-120.5 84.5
t-71 127.5t-23.5 159q0 88 27 163.5t78.5 131t126.5 86t167 30.5q87 0 158 -28t121 -80t76 -125t26 -162q0 -87 -28 -163t-80.5 -133.5t-126 -89t-162.5 -31.5zM1195 3174q48 0 86 19t64.5 53.5t40.5 80t14 97.5t-12.5 98t-38.5 81.5t-66.5 56t-93.5 20.5q-47 0 -85.5 -18
t-65.5 -51.5t-41.5 -79t-14.5 -99.5q0 -56 12.5 -102.5t38 -81.5t66 -54.5t96.5 -19.5z" />
    <glyph glyph-name="AE" unicode="&#xc6;" horiz-adv-x="3199" 
d="M1571 0v708h-1006q-45 -97 -88 -191t-83.5 -183t-79 -173t-73.5 -161h-251q172 377 349 739.5t360.5 716.5t375.5 703t395 700h1413v-206l-1071 -1v-1057h967v-205h-967v-1182h1118v-208h-1359zM1571 2639h-8q-68 -124 -140.5 -258t-146.5 -275.5t-150 -288.5t-152 -297
t-151 -302.5t-147 -304.5h895v1726z" />
    <glyph glyph-name="Ccedilla" unicode="&#xc7;" horiz-adv-x="2158" 
d="M1257 -21q-152 13 -287.5 61.5t-250 132t-205.5 202t-155 271.5t-98 341t-34 410q0 224 36 422t104.5 363.5t169 296.5t230 222t286.5 139t339 48q90 0 172.5 -9t162 -28t156.5 -47.5t155 -67.5l-89 -191q-66 32 -134.5 56t-139.5 41t-146.5 25.5t-156.5 8.5
q-140 0 -260 -41t-218 -118t-173 -187.5t-126 -249.5t-77.5 -304.5t-26.5 -350.5q0 -296 62.5 -526.5t182 -388.5t293 -241t394.5 -83q79 0 155 11.5t146.5 31t135 45t122.5 53.5l70 -192q-68 -35 -137 -62t-140.5 -47t-146.5 -32.5t-154 -18.5l86 -202q17 -39 28 -68.5
t18 -53.5t9.5 -44t2.5 -39q0 -36 -18.5 -74t-63 -69t-119 -50.5t-186.5 -19.5q-44 0 -89.5 3t-88.5 8.5t-82.5 13.5t-71.5 18v157h368q31 0 53.5 3t37 9.5t21.5 17.5t7 28q0 9 -1 19.5t-3.5 23t-7 26t-10.5 29.5z" />
    <glyph glyph-name="Egrave" unicode="&#xc8;" horiz-adv-x="2005" 
d="M377 0v2859h1341v-207h-1100v-1057h967v-205h-967v-1182h1118v-208h-1359zM461 3432l139 205l598 -395l-108 -158z" />
    <glyph glyph-name="Eacute" unicode="&#xc9;" horiz-adv-x="2005" 
d="M377 0v2859h1341v-207h-1100v-1057h967v-205h-967v-1182h1118v-208h-1359zM1013 3086l-108 158l598 395l139 -205z" />
    <glyph glyph-name="Ecircumflex" unicode="&#xca;" horiz-adv-x="2005" 
d="M377 0v2859h1341v-207h-1100v-1057h967v-205h-967v-1182h1118v-208h-1359zM1029 3369l-377 -281l-106 144l489 391l492 -383l-115 -152z" />
    <glyph glyph-name="Edieresis" unicode="&#xcb;" horiz-adv-x="2005" 
d="M377 0v2859h1341v-207h-1100v-1057h967v-205h-967v-1182h1118v-208h-1359zM1433 3127q-33 0 -62.5 13.5t-52 36t-36 53t-13.5 65.5t13.5 66t36 54t52 36.5t62.5 13.5q34 0 64 -13.5t52 -36.5t35 -54t13 -66t-13 -65.5t-35 -53t-52 -36t-64 -13.5zM649 3127
q-33 0 -63 13.5t-52.5 36t-35.5 53t-13 65.5t13 66t35.5 54t52.5 36.5t63 13.5t63 -13.5t52.5 -36.5t35 -54t12.5 -66t-12.5 -65.5t-35 -53t-52.5 -36t-63 -13.5z" />
    <glyph glyph-name="Igrave" unicode="&#xcc;" horiz-adv-x="995" 
d="M377 0v2859h241v-2859h-241zM-12 3432l139 205l598 -395l-108 -158z" />
    <glyph glyph-name="Iacute" unicode="&#xcd;" horiz-adv-x="995" 
d="M377 0v2859h241v-2859h-241zM368 3086l-108 158l598 395l139 -205z" />
    <glyph glyph-name="Icircumflex" unicode="&#xce;" horiz-adv-x="995" 
d="M377 0v2859h241v-2859h-241zM491 3369l-377 -281l-106 144l489 391l492 -383l-115 -152z" />
    <glyph glyph-name="Idieresis" unicode="&#xcf;" horiz-adv-x="995" 
d="M377 0v2859h241v-2859h-241zM859 3127q-33 0 -63 13.5t-52.5 36.5t-35.5 53.5t-13 64.5t13 65t35.5 54.5t52.5 37t63 13.5q34 0 64 -13.5t52 -37t34.5 -54.5t12.5 -65t-12.5 -64.5t-34.5 -53.5t-52 -36.5t-64 -13.5zM140 3127q-33 0 -63 13.5t-52.5 36.5t-35.5 53.5
t-13 64.5t13 65t35.5 54.5t52.5 37t63 13.5q34 0 64 -13.5t52 -37t34.5 -54.5t12.5 -65t-12.5 -64.5t-34.5 -53.5t-52 -36.5t-64 -13.5z" />
    <glyph glyph-name="Eth" unicode="&#xd0;" horiz-adv-x="2591" 
d="M418 0v1364h-340v204h340v1291h747q198 0 364.5 -45.5t301 -131t236 -208t170 -277t102.5 -337.5t34 -390q0 -238 -36.5 -440t-108 -365.5t-177.5 -287.5t-245.5 -208t-311.5 -126.5t-374 -42.5h-702zM1143 208q243 0 425 75t302.5 228.5t180.5 389.5t60 559
q0 170 -24.5 324.5t-76.5 287t-130 239.5t-185 183t-243.5 117t-302.5 41h-490v-1084h557v-204h-557v-1156h484z" />
    <glyph glyph-name="Ntilde" unicode="&#xd1;" horiz-adv-x="2584" 
d="M1888 0l-1272 2556h-6v-2556h-233v2859h356l1235 -2476h6v2476h234v-2859h-320zM1910 3436q-30 -63 -72.5 -115t-94.5 -89t-110 -56.5t-118 -19.5q-58 0 -105 12t-82 30.5t-81.5 50.5t-68 45.5t-55 25.5t-73.5 12q-34 0 -67.5 -14t-65 -40.5t-58 -63t-47.5 -81.5
l-143 117q31 64 74 115.5t94.5 88.5t109.5 56.5t119 19.5q57 0 103.5 -12t81 -30.5t81.5 -50.5t68.5 -45.5t54.5 -25.5t72 -12q35 0 69 14t65 40t58 62.5t48 80.5z" />
    <glyph glyph-name="Ograve" unicode="&#xd2;" horiz-adv-x="2804" 
d="M1384 -41q-197 0 -359 50t-290 142t-223 222.5t-158 291t-94 348t-31 394.5q0 218 34 413t101.5 361t167.5 299t232 226.5t295.5 143.5t357.5 50t355 -50.5t289.5 -143.5t225 -224t160.5 -292t95.5 -347.5t31.5 -390.5q0 -219 -33.5 -415t-101 -362t-167 -298.5
t-232 -225.5t-297 -142.5t-359.5 -49.5zM1421 165q162 0 291.5 47.5t228 131.5t169 200t115.5 254t66 292.5t21 316.5q0 182 -23 348.5t-71 309.5t-123 259t-178.5 198t-237 126.5t-299.5 44.5q-159 0 -287 -46.5t-227 -130.5t-170 -199.5t-116.5 -253.5t-67 -293
t-21.5 -318q0 -184 23 -350.5t70.5 -310t122 -259t178 -197t237 -126t299.5 -44.5zM821 3432l139 205l598 -395l-108 -158z" />
    <glyph glyph-name="Oacute" unicode="&#xd3;" horiz-adv-x="2804" 
d="M1384 -41q-197 0 -359 50t-290 142t-223 222.5t-158 291t-94 348t-31 394.5q0 218 34 413t101.5 361t167.5 299t232 226.5t295.5 143.5t357.5 50t355 -50.5t289.5 -143.5t225 -224t160.5 -292t95.5 -347.5t31.5 -390.5q0 -219 -33.5 -415t-101 -362t-167 -298.5
t-232 -225.5t-297 -142.5t-359.5 -49.5zM1421 165q162 0 291.5 47.5t228 131.5t169 200t115.5 254t66 292.5t21 316.5q0 182 -23 348.5t-71 309.5t-123 259t-178.5 198t-237 126.5t-299.5 44.5q-159 0 -287 -46.5t-227 -130.5t-170 -199.5t-116.5 -253.5t-67 -293
t-21.5 -318q0 -184 23 -350.5t70.5 -310t122 -259t178 -197t237 -126t299.5 -44.5zM1349 3086l-108 158l598 395l139 -205z" />
    <glyph glyph-name="Ocircumflex" unicode="&#xd4;" horiz-adv-x="2804" 
d="M1384 -41q-197 0 -359 50t-290 142t-223 222.5t-158 291t-94 348t-31 394.5q0 218 34 413t101.5 361t167.5 299t232 226.5t295.5 143.5t357.5 50t355 -50.5t289.5 -143.5t225 -224t160.5 -292t95.5 -347.5t31.5 -390.5q0 -219 -33.5 -415t-101 -362t-167 -298.5
t-232 -225.5t-297 -142.5t-359.5 -49.5zM1421 165q162 0 291.5 47.5t228 131.5t169 200t115.5 254t66 292.5t21 316.5q0 182 -23 348.5t-71 309.5t-123 259t-178.5 198t-237 126.5t-299.5 44.5q-159 0 -287 -46.5t-227 -130.5t-170 -199.5t-116.5 -253.5t-67 -293
t-21.5 -318q0 -184 23 -350.5t70.5 -310t122 -259t178 -197t237 -126t299.5 -44.5zM1392 3369l-377 -281l-106 144l489 391l492 -383l-115 -152z" />
    <glyph glyph-name="Otilde" unicode="&#xd5;" horiz-adv-x="2804" 
d="M1384 -41q-197 0 -359 50t-290 142t-223 222.5t-158 291t-94 348t-31 394.5q0 218 34 413t101.5 361t167.5 299t232 226.5t295.5 143.5t357.5 50t355 -50.5t289.5 -143.5t225 -224t160.5 -292t95.5 -347.5t31.5 -390.5q0 -219 -33.5 -415t-101 -362t-167 -298.5
t-232 -225.5t-297 -142.5t-359.5 -49.5zM1421 165q162 0 291.5 47.5t228 131.5t169 200t115.5 254t66 292.5t21 316.5q0 182 -23 348.5t-71 309.5t-123 259t-178.5 198t-237 126.5t-299.5 44.5q-159 0 -287 -46.5t-227 -130.5t-170 -199.5t-116.5 -253.5t-67 -293
t-21.5 -318q0 -184 23 -350.5t70.5 -310t122 -259t178 -197t237 -126t299.5 -44.5zM1997 3436q-30 -63 -72.5 -115t-94.5 -89t-110 -56.5t-118 -19.5q-58 0 -105 12t-82 30.5t-81.5 50.5t-68 45.5t-55 25.5t-73.5 12q-34 0 -67.5 -14t-65 -40.5t-58 -63t-47.5 -81.5
l-143 117q31 64 74 115.5t94.5 88.5t109.5 56.5t119 19.5q57 0 103.5 -12t81 -30.5t81.5 -50.5t68.5 -45.5t54.5 -25.5t72 -12q35 0 69 14t65 40t58 62.5t48 80.5z" />
    <glyph glyph-name="Odieresis" unicode="&#xd6;" horiz-adv-x="2804" 
d="M1384 -41q-197 0 -359 50t-290 142t-223 222.5t-158 291t-94 348t-31 394.5q0 218 34 413t101.5 361t167.5 299t232 226.5t295.5 143.5t357.5 50t355 -50.5t289.5 -143.5t225 -224t160.5 -292t95.5 -347.5t31.5 -390.5q0 -219 -33.5 -415t-101 -362t-167 -298.5
t-232 -225.5t-297 -142.5t-359.5 -49.5zM1421 165q162 0 291.5 47.5t228 131.5t169 200t115.5 254t66 292.5t21 316.5q0 182 -23 348.5t-71 309.5t-123 259t-178.5 198t-237 126.5t-299.5 44.5q-159 0 -287 -46.5t-227 -130.5t-170 -199.5t-116.5 -253.5t-67 -293
t-21.5 -318q0 -184 23 -350.5t70.5 -310t122 -259t178 -197t237 -126t299.5 -44.5zM1793 3127q-33 0 -62.5 13.5t-52 36t-36 53t-13.5 65.5t13.5 66t36 54t52 36.5t62.5 13.5q34 0 64 -13.5t52 -36.5t35 -54t13 -66t-13 -65.5t-35 -53t-52 -36t-64 -13.5zM1009 3127
q-33 0 -63 13.5t-52.5 36t-35.5 53t-13 65.5t13 66t35.5 54t52.5 36.5t63 13.5t63 -13.5t52.5 -36.5t35 -54t12.5 -66t-12.5 -65.5t-35 -53t-52.5 -36t-63 -13.5z" />
    <glyph glyph-name="multiply" unicode="&#xd7;" 
d="M1687 399l-667 713l-664 -713l-157 150l675 721l-675 722l163 152l664 -713l661 709l160 -146l-674 -718l676 -725z" />
    <glyph glyph-name="Oslash" unicode="&#xd8;" horiz-adv-x="2802" 
d="M440 -260l228 446q-117 93 -200 220.5t-136.5 282t-79 331t-25.5 366.5q0 224 34 423.5t101 367.5t167.5 302t233.5 227.5t299 143.5t363 50q77 0 150.5 -8.5t142.5 -24.5t133 -40t123 -54l190 385l187 -97l-203 -407q74 -62 134 -140t107 -169t81.5 -193t57 -212.5
t33.5 -228t11 -239.5q0 -225 -33.5 -425t-100.5 -368t-167 -301.5t-233.5 -226.5t-300 -142.5t-365.5 -49.5q-75 0 -145.5 7.5t-137 22t-128.5 35.5t-118 48l-217 -429zM950 276q93 -54 211 -82.5t248 -28.5q165 0 296.5 47t231.5 131.5t171 201.5t115.5 257t65.5 298
t21 325q0 100 -6.5 198t-20.5 191t-36.5 180.5t-53 165t-71 145.5t-90.5 122zM1867 2570q-48 29 -103 52t-116 39t-126.5 24t-133.5 8q-163 0 -293 -46.5t-230 -130t-171 -200.5t-116.5 -257t-67 -299.5t-21.5 -328.5q0 -100 6.5 -199t21.5 -193.5t37.5 -183t55 -168
t75.5 -149t97 -125.5z" />
    <glyph glyph-name="Ugrave" unicode="&#xd9;" horiz-adv-x="2580" 
d="M1980 2859h232v-1811q0 -271 -66 -475t-187.5 -340t-293.5 -204t-383 -68q-204 0 -372 65.5t-288.5 196t-186.5 325t-66 451.5v1860h241v-1835q0 -143 21.5 -262t62.5 -214.5t100 -167t135 -119.5t168 -72t197 -24q158 0 285.5 53.5t216 161t136.5 269t48 377.5v1833z
M716 3432l139 205l598 -395l-108 -158z" />
    <glyph glyph-name="Uacute" unicode="&#xda;" horiz-adv-x="2580" 
d="M1980 2859h232v-1811q0 -271 -66 -475t-187.5 -340t-293.5 -204t-383 -68q-204 0 -372 65.5t-288.5 196t-186.5 325t-66 451.5v1860h241v-1835q0 -143 21.5 -262t62.5 -214.5t100 -167t135 -119.5t168 -72t197 -24q158 0 285.5 53.5t216 161t136.5 269t48 377.5v1833z
M1291 3086l-108 158l598 395l139 -205z" />
    <glyph glyph-name="Ucircumflex" unicode="&#xdb;" horiz-adv-x="2580" 
d="M1980 2859h232v-1811q0 -271 -66 -475t-187.5 -340t-293.5 -204t-383 -68q-204 0 -372 65.5t-288.5 196t-186.5 325t-66 451.5v1860h241v-1835q0 -143 21.5 -262t62.5 -214.5t100 -167t135 -119.5t168 -72t197 -24q158 0 285.5 53.5t216 161t136.5 269t48 377.5v1833z
M1298 3369l-377 -281l-106 144l489 391l492 -383l-115 -152z" />
    <glyph glyph-name="Udieresis" unicode="&#xdc;" horiz-adv-x="2580" 
d="M1980 2859h232v-1811q0 -271 -66 -475t-187.5 -340t-293.5 -204t-383 -68q-204 0 -372 65.5t-288.5 196t-186.5 325t-66 451.5v1860h241v-1835q0 -143 21.5 -262t62.5 -214.5t100 -167t135 -119.5t168 -72t197 -24q158 0 285.5 53.5t216 161t136.5 269t48 377.5v1833z
M1689 3127q-33 0 -62.5 13.5t-52 36t-36 53t-13.5 65.5t13.5 66t36 54t52 36.5t62.5 13.5q34 0 64 -13.5t52 -36.5t35 -54t13 -66t-13 -65.5t-35 -53t-52 -36t-64 -13.5zM905 3127q-33 0 -63 13.5t-52.5 36t-35.5 53t-13 65.5t13 66t35.5 54t52.5 36.5t63 13.5t63 -13.5
t52.5 -36.5t35 -54t12.5 -66t-12.5 -65.5t-35 -53t-52.5 -36t-63 -13.5z" />
    <glyph glyph-name="Yacute" unicode="&#xdd;" horiz-adv-x="2109" 
d="M936 0v1247q-131 195 -251.5 395t-233 402t-217 406t-202.5 409h275q53 -119 110.5 -239.5t119 -242t126 -242.5t132 -239.5t137.5 -233t143 -222.5q66 108 133 225t133 237.5t129.5 243.5t123 244.5t113.5 239t101 229.5h268q-62 -130 -126.5 -261t-133.5 -263.5
t-143 -267t-153 -270.5t-164.5 -273.5t-178.5 -276.5v-1247h-241zM1005 3086l-108 158l598 395l139 -205z" />
    <glyph glyph-name="Thorn" unicode="&#xde;" horiz-adv-x="2066" 
d="M377 0v2859h241v-502h352q43 0 89.5 -2t91.5 -6.5t87.5 -11t77.5 -15.5q126 -34 226.5 -105t171 -172.5t108 -230t37.5 -276.5q0 -199 -57.5 -361t-167 -277.5t-267.5 -179t-359 -63.5h-390v-657h-241zM1032 864q136 0 241.5 47t177.5 133t109 207t37 268
q0 113 -25.5 212t-74 178t-118 134t-156.5 78q-30 9 -62.5 14.5t-66 9t-65.5 4.5t-60 1h-351v-1286h414z" />
    <glyph glyph-name="germandbls" unicode="&#xdf;" horiz-adv-x="2086" 
d="M1028 225q84 -32 161.5 -47t159.5 -15q92 0 160.5 28t114 77t68 115t22.5 143q0 78 -20.5 140t-55.5 112.5t-82 92t-100 79.5t-108.5 74.5t-108.5 76.5t-100 87t-82 105.5t-55.5 131.5t-20.5 166t22.5 165t59 129t83.5 103t96 88.5t95.5 84.5t83.5 90.5t59.5 107
t22.5 133.5q0 52 -11 103t-33 97t-56 85t-81 67t-107.5 44t-135.5 16q-91 0 -163.5 -25.5t-129.5 -73.5t-98 -117.5t-68 -157t-40 -191.5t-13 -221v-2118h-235v2117q0 144 21.5 273.5t65 238.5t108 196.5t149.5 148.5t191 94t233 33q117 0 209.5 -26.5t163.5 -71t120.5 -103
t81.5 -123.5t46.5 -131.5t14.5 -126.5q0 -100 -22 -174.5t-58 -133.5t-81.5 -105.5t-94 -87.5t-94 -81.5t-81.5 -86.5t-58 -103t-22 -131q0 -73 20.5 -131t56 -105.5t82.5 -87.5t100 -77t109 -73.5t109.5 -78t100.5 -90.5t82 -110.5t56 -137.5t21 -172q0 -86 -20.5 -163.5
t-59 -143t-93.5 -118.5t-126 -90.5t-155.5 -57t-180.5 -19.5q-48 0 -92 3t-85 10t-81 18t-82 26z" />
    <glyph glyph-name="agrave" unicode="&#xe0;" horiz-adv-x="1954" 
d="M1442 0l-23 239q-66 -63 -133.5 -115t-141.5 -89.5t-156.5 -57.5t-178.5 -20q-149 0 -263.5 40t-193 116t-119.5 184t-41 245q0 160 63.5 278.5t175 196.5t263.5 116t330 38h370v191q0 138 -24.5 241.5t-80.5 171.5t-147 101.5t-223 33.5q-64 0 -131.5 -7.5t-136.5 -23
t-138 -38t-136 -51.5l-54 196q71 29 148.5 52.5t159.5 40t166.5 25.5t168.5 9q130 0 229.5 -26.5t173 -73.5t123.5 -110.5t81 -137t44 -153.5t13 -160v-1452h-188zM1394 979h-385q-140 0 -244.5 -29t-173.5 -84t-104 -134.5t-35 -178.5q0 -91 24 -164.5t72 -125t120 -80
t167 -28.5q85 0 158 22.5t140.5 61.5t131.5 92.5t129 116.5v531zM946 2412l-438 506l196 152l394 -531z" />
    <glyph glyph-name="aacute" unicode="&#xe1;" horiz-adv-x="1954" 
d="M1442 0l-23 239q-66 -63 -133.5 -115t-141.5 -89.5t-156.5 -57.5t-178.5 -20q-149 0 -263.5 40t-193 116t-119.5 184t-41 245q0 160 63.5 278.5t175 196.5t263.5 116t330 38h370v191q0 138 -24.5 241.5t-80.5 171.5t-147 101.5t-223 33.5q-64 0 -131.5 -7.5t-136.5 -23
t-138 -38t-136 -51.5l-54 196q71 29 148.5 52.5t159.5 40t166.5 25.5t168.5 9q130 0 229.5 -26.5t173 -73.5t123.5 -110.5t81 -137t44 -153.5t13 -160v-1452h-188zM1394 979h-385q-140 0 -244.5 -29t-173.5 -84t-104 -134.5t-35 -178.5q0 -91 24 -164.5t72 -125t120 -80
t167 -28.5q85 0 158 22.5t140.5 61.5t131.5 92.5t129 116.5v531zM798 2527l399 543l203 -148l-455 -510z" />
    <glyph glyph-name="acircumflex" unicode="&#xe2;" horiz-adv-x="1954" 
d="M1442 0l-23 239q-66 -63 -133.5 -115t-141.5 -89.5t-156.5 -57.5t-178.5 -20q-149 0 -263.5 40t-193 116t-119.5 184t-41 245q0 160 63.5 278.5t175 196.5t263.5 116t330 38h370v191q0 138 -24.5 241.5t-80.5 171.5t-147 101.5t-223 33.5q-64 0 -131.5 -7.5t-136.5 -23
t-138 -38t-136 -51.5l-54 196q71 29 148.5 52.5t159.5 40t166.5 25.5t168.5 9q130 0 229.5 -26.5t173 -73.5t123.5 -110.5t81 -137t44 -153.5t13 -160v-1452h-188zM1394 979h-385q-140 0 -244.5 -29t-173.5 -84t-104 -134.5t-35 -178.5q0 -91 24 -164.5t72 -125t120 -80
t167 -28.5q85 0 158 22.5t140.5 61.5t131.5 92.5t129 116.5v531zM948 2785l-364 -368l-117 128l489 539l492 -534l-127 -133z" />
    <glyph glyph-name="atilde" unicode="&#xe3;" horiz-adv-x="1954" 
d="M1442 0l-23 239q-66 -63 -133.5 -115t-141.5 -89.5t-156.5 -57.5t-178.5 -20q-149 0 -263.5 40t-193 116t-119.5 184t-41 245q0 160 63.5 278.5t175 196.5t263.5 116t330 38h370v191q0 138 -24.5 241.5t-80.5 171.5t-147 101.5t-223 33.5q-64 0 -131.5 -7.5t-136.5 -23
t-138 -38t-136 -51.5l-54 196q71 29 148.5 52.5t159.5 40t166.5 25.5t168.5 9q130 0 229.5 -26.5t173 -73.5t123.5 -110.5t81 -137t44 -153.5t13 -160v-1452h-188zM1394 979h-385q-140 0 -244.5 -29t-173.5 -84t-104 -134.5t-35 -178.5q0 -91 24 -164.5t72 -125t120 -80
t167 -28.5q85 0 158 22.5t140.5 61.5t131.5 92.5t129 116.5v531zM1556 2838q-30 -63 -71 -115t-91 -89t-106 -56.5t-115 -19.5q-57 0 -103 12t-80.5 30.5t-80.5 50.5t-67 45.5t-53.5 25.5t-71.5 12q-34 0 -68 -14t-65 -40.5t-58 -63.5t-47 -81l-131 117q30 64 71.5 115.5
t91 88.5t105.5 56.5t115 19.5q56 0 102 -12t80.5 -30.5t80.5 -50.5t66.5 -45.5t53.5 -25.5t71 -12q35 0 69 14t65 40.5t58 62.5t48 80z" />
    <glyph glyph-name="adieresis" unicode="&#xe4;" horiz-adv-x="1954" 
d="M1442 0l-23 239q-66 -63 -133.5 -115t-141.5 -89.5t-156.5 -57.5t-178.5 -20q-149 0 -263.5 40t-193 116t-119.5 184t-41 245q0 160 63.5 278.5t175 196.5t263.5 116t330 38h370v191q0 138 -24.5 241.5t-80.5 171.5t-147 101.5t-223 33.5q-64 0 -131.5 -7.5t-136.5 -23
t-138 -38t-136 -51.5l-54 196q71 29 148.5 52.5t159.5 40t166.5 25.5t168.5 9q130 0 229.5 -26.5t173 -73.5t123.5 -110.5t81 -137t44 -153.5t13 -160v-1452h-188zM1394 979h-385q-140 0 -244.5 -29t-173.5 -84t-104 -134.5t-35 -178.5q0 -91 24 -164.5t72 -125t120 -80
t167 -28.5q85 0 158 22.5t140.5 61.5t131.5 92.5t129 116.5v531zM1312 2595q-35 0 -64.5 12.5t-51.5 34.5t-34 52.5t-12 66.5q0 35 12 65.5t34 52.5t51.5 34.5t64.5 12.5q33 0 62.5 -12.5t51 -34.5t33.5 -52.5t12 -65.5q0 -36 -12 -66.5t-33.5 -52.5t-51 -34.5t-62.5 -12.5z
M626 2595q-35 0 -64 12.5t-50.5 34.5t-33.5 52.5t-12 66.5q0 35 12 65.5t33.5 52.5t50.5 34.5t64 12.5q34 0 63.5 -12.5t51.5 -34.5t34 -52.5t12 -65.5q0 -36 -12 -66.5t-34 -52.5t-51.5 -34.5t-63.5 -12.5z" />
    <glyph glyph-name="aring" unicode="&#xe5;" horiz-adv-x="1954" 
d="M1442 0l-23 239q-66 -63 -133.5 -115t-141.5 -89.5t-156.5 -57.5t-178.5 -20q-149 0 -263.5 40t-193 116t-119.5 184t-41 245q0 160 63.5 278.5t175 196.5t263.5 116t330 38h370v191q0 138 -24.5 241.5t-80.5 171.5t-147 101.5t-223 33.5q-64 0 -131.5 -7.5t-136.5 -23
t-138 -38t-136 -51.5l-54 196q71 29 148.5 52.5t159.5 40t166.5 25.5t168.5 9q130 0 229.5 -26.5t173 -73.5t123.5 -110.5t81 -137t44 -153.5t13 -160v-1452h-188zM1394 979h-385q-140 0 -244.5 -29t-173.5 -84t-104 -134.5t-35 -178.5q0 -91 24 -164.5t72 -125t120 -80
t167 -28.5q85 0 158 22.5t140.5 61.5t131.5 92.5t129 116.5v531zM950 2361q-95 0 -167 31t-119 86t-70 129t-23 160q0 88 26.5 164t77.5 132.5t125 87.5t166 31q87 0 157 -28.5t119 -81.5t75 -126.5t26 -162.5q0 -88 -27.5 -164.5t-79.5 -134.5t-125 -90.5t-161 -32.5z
M962 2515q47 0 84.5 19.5t63.5 54.5t39.5 80.5t13.5 97.5q0 53 -12 100t-37 83.5t-65 57.5t-93 21q-46 0 -84 -18.5t-64.5 -52t-40.5 -78.5t-14 -97q0 -59 11.5 -107.5t36 -84.5t65 -56t96.5 -20z" />
    <glyph glyph-name="ae" unicode="&#xe6;" horiz-adv-x="3172" 
d="M2959 1212v-43.5t-1 -53.5t-1.5 -56t-1.5 -52h-1323q0 -127 13.5 -239.5t44 -206.5t79.5 -168t121.5 -125.5t169 -79t221.5 -27.5q92 0 169.5 8t147.5 21.5t136 32t133 39.5l41 -194q-69 -24 -146.5 -44.5t-162 -34.5t-175.5 -22t-188 -8q-133 0 -244 26.5t-199.5 76
t-153.5 119.5t-105 157q-86 -96 -169.5 -167.5t-170.5 -118.5t-181.5 -70t-201.5 -23q-149 0 -264.5 39.5t-194 116t-119.5 187.5t-41 255q0 160 63.5 280t173.5 201t260 121.5t322 40.5h383v162q0 138 -24.5 241.5t-80.5 171.5t-147 101.5t-223 33.5q-64 0 -131.5 -7.5
t-136.5 -23t-138 -38t-136 -51.5l-54 196q71 29 148.5 52.5t159.5 40t166.5 25.5t168.5 9q126 0 223.5 -25t170.5 -71.5t123 -113.5t80 -150q55 94 126.5 161.5t156 112t181 65.5t203.5 21q127 0 230.5 -31.5t184.5 -90t140 -140.5t98 -182t57.5 -215.5t18.5 -241.5z
M2711 1200q7 168 -24 301t-95.5 225.5t-160.5 141.5t-219 49q-100 0 -181 -29.5t-145 -80.5t-111.5 -120.5t-78.5 -149t-47 -166t-17 -171.5h1079v0zM1394 1007h-385q-140 0 -244.5 -31.5t-173.5 -89.5t-104 -138.5t-35 -178.5q0 -97 25 -173.5t73 -129.5t119 -81t164 -28
q85 0 159 21t141.5 61t131.5 98.5t129 133.5v536z" />
    <glyph glyph-name="ccedilla" unicode="&#xe7;" horiz-adv-x="1698" 
d="M942 -29q-129 11 -234 50t-188 103.5t-143.5 154t-100 200.5t-59 243t-19.5 284q0 262 63.5 466.5t178 344.5t274.5 213t355 73q64 0 126.5 -6.5t122.5 -20t118 -34t114 -49.5l-61 -183q-50 21 -101 39t-103 30.5t-105.5 19.5t-108.5 7q-164 0 -281 -64.5t-191.5 -180
t-109.5 -276t-35 -351.5q0 -219 39.5 -381.5t117.5 -270.5t194 -161.5t270 -53.5q60 0 115.5 5.5t109 16.5t106 28.5t105.5 40.5l43 -186q-53 -24 -105.5 -41t-102.5 -29t-98 -19.5t-91 -11.5l84 -198q17 -39 28 -68.5t17.5 -53.5t9 -44t2.5 -39q0 -36 -18.5 -74t-63 -69
t-119 -50.5t-186.5 -19.5q-44 0 -89 3t-88 8.5t-83 13.5t-72 18v157h369q31 0 53 3t37 9.5t22 17.5t7 28q0 9 -1.5 19.5t-4 23t-7 26t-10.5 29.5z" />
    <glyph glyph-name="egrave" unicode="&#xe8;" horiz-adv-x="1999" 
d="M1734 68q-69 -24 -146 -44.5t-162 -34.5t-176 -22t-187 -8q-220 0 -381.5 68.5t-267.5 204.5t-158 336.5t-52 465.5q0 244 55.5 443.5t163.5 340.5t267 218t367 77q127 0 230 -31.5t184 -90t140.5 -140.5t98 -182t57.5 -215.5t19 -241.5q0 -13 -1 -34.5t-1.5 -46.5
t-1.5 -50t-1 -45h-1322q0 -135 13 -252.5t43.5 -214.5t79.5 -173t121 -128t169 -79.5t223 -27.5q90 0 167.5 8t148 21.5t136.5 32t133 39.5zM1538 1229q5 157 -26 284.5t-95.5 217t-160 138t-218.5 48.5q-99 0 -180 -29t-144.5 -79.5t-110 -118t-78 -143.5t-48 -157.5
t-18.5 -160.5h1079zM1048 2412l-438 506l196 152l394 -531z" />
    <glyph glyph-name="eacute" unicode="&#xe9;" horiz-adv-x="1999" 
d="M1734 68q-69 -24 -146 -44.5t-162 -34.5t-176 -22t-187 -8q-220 0 -381.5 68.5t-267.5 204.5t-158 336.5t-52 465.5q0 244 55.5 443.5t163.5 340.5t267 218t367 77q127 0 230 -31.5t184 -90t140.5 -140.5t98 -182t57.5 -215.5t19 -241.5q0 -13 -1 -34.5t-1.5 -46.5
t-1.5 -50t-1 -45h-1322q0 -135 13 -252.5t43.5 -214.5t79.5 -173t121 -128t169 -79.5t223 -27.5q90 0 167.5 8t148 21.5t136.5 32t133 39.5zM1538 1229q5 157 -26 284.5t-95.5 217t-160 138t-218.5 48.5q-99 0 -180 -29t-144.5 -79.5t-110 -118t-78 -143.5t-48 -157.5
t-18.5 -160.5h1079zM903 2527l399 543l203 -148l-455 -510z" />
    <glyph glyph-name="ecircumflex" unicode="&#xea;" horiz-adv-x="1999" 
d="M1734 68q-69 -24 -146 -44.5t-162 -34.5t-176 -22t-187 -8q-220 0 -381.5 68.5t-267.5 204.5t-158 336.5t-52 465.5q0 244 55.5 443.5t163.5 340.5t267 218t367 77q127 0 230 -31.5t184 -90t140.5 -140.5t98 -182t57.5 -215.5t19 -241.5q0 -13 -1 -34.5t-1.5 -46.5
t-1.5 -50t-1 -45h-1322q0 -135 13 -252.5t43.5 -214.5t79.5 -173t121 -128t169 -79.5t223 -27.5q90 0 167.5 8t148 21.5t136.5 32t133 39.5zM1538 1229q5 157 -26 284.5t-95.5 217t-160 138t-218.5 48.5q-99 0 -180 -29t-144.5 -79.5t-110 -118t-78 -143.5t-48 -157.5
t-18.5 -160.5h1079zM1034 2785l-364 -368l-117 128l489 539l492 -534l-127 -133z" />
    <glyph glyph-name="edieresis" unicode="&#xeb;" horiz-adv-x="1999" 
d="M1734 68q-69 -24 -146 -44.5t-162 -34.5t-176 -22t-187 -8q-220 0 -381.5 68.5t-267.5 204.5t-158 336.5t-52 465.5q0 244 55.5 443.5t163.5 340.5t267 218t367 77q127 0 230 -31.5t184 -90t140.5 -140.5t98 -182t57.5 -215.5t19 -241.5q0 -13 -1 -34.5t-1.5 -46.5
t-1.5 -50t-1 -45h-1322q0 -135 13 -252.5t43.5 -214.5t79.5 -173t121 -128t169 -79.5t223 -27.5q90 0 167.5 8t148 21.5t136.5 32t133 39.5zM1538 1229q5 157 -26 284.5t-95.5 217t-160 138t-218.5 48.5q-99 0 -180 -29t-144.5 -79.5t-110 -118t-78 -143.5t-48 -157.5
t-18.5 -160.5h1079zM1388 2595q-35 0 -64.5 12.5t-51.5 34.5t-34 52.5t-12 66.5q0 35 12 65.5t34 52.5t51.5 34.5t64.5 12.5q33 0 62.5 -12.5t51 -34.5t33.5 -52.5t12 -65.5q0 -36 -12 -66.5t-33.5 -52.5t-51 -34.5t-62.5 -12.5zM702 2595q-35 0 -64 12.5t-50.5 34.5
t-33.5 52.5t-12 66.5q0 35 12 65.5t33.5 52.5t50.5 34.5t64 12.5q34 0 63.5 -12.5t51.5 -34.5t34 -52.5t12 -65.5q0 -36 -12 -66.5t-34 -52.5t-51.5 -34.5t-63.5 -12.5z" />
    <glyph glyph-name="igrave" unicode="&#xec;" horiz-adv-x="985" 
d="M418 0v1884h-332v189h567v-2073h-235zM479 2412l-438 506l196 152l394 -531z" />
    <glyph glyph-name="iacute" unicode="&#xed;" horiz-adv-x="985" 
d="M418 0v1884h-332v189h567v-2073h-235zM268 2527l399 543l203 -148l-455 -510z" />
    <glyph glyph-name="icircumflex" unicode="&#xee;" horiz-adv-x="985" 
d="M418 0v1884h-332v189h567v-2073h-235zM481 2785l-364 -368l-117 128l489 539l492 -534l-127 -133z" />
    <glyph glyph-name="idieresis" unicode="&#xef;" horiz-adv-x="985" 
d="M418 0v1884h-332v189h567v-2073h-235zM829 2595q-35 0 -64.5 12.5t-51.5 34.5t-34 52.5t-12 66.5q0 35 12 65.5t34 52.5t51.5 34.5t64.5 12.5q33 0 62.5 -12.5t51 -34.5t33.5 -52.5t12 -65.5q0 -36 -12 -66.5t-33.5 -52.5t-51 -34.5t-62.5 -12.5zM184 2595
q-35 0 -64.5 12.5t-51.5 34.5t-34 52.5t-12 66.5q0 35 12 65.5t34 52.5t51.5 34.5t64.5 12.5q34 0 63 -12.5t50.5 -34.5t33.5 -52.5t12 -65.5q0 -36 -12 -66.5t-33.5 -52.5t-50.5 -34.5t-63 -12.5z" />
    <glyph glyph-name="eth" unicode="&#xf0;" horiz-adv-x="2208" 
d="M1421 2615q139 -184 239.5 -369t166.5 -371.5t98 -376t32 -382.5q0 -285 -63 -501.5t-180 -362.5t-283.5 -219.5t-373.5 -73.5q-138 0 -254 35.5t-210 101.5t-166 160.5t-120.5 211.5t-73 254.5t-24.5 291.5q0 157 27.5 298t80 261.5t130 216.5t177 164t220 104.5
t260.5 36.5q54 0 106.5 -6t105 -20.5t104.5 -38t106 -58.5q-29 68 -66.5 139t-80 141t-89 138.5t-94.5 132.5l-440 -190l-103 165l420 181q-38 45 -76.5 89.5t-78.5 88t-82 86.5t-85 86l244 86q37 -39 75 -80t76.5 -84t76.5 -88t75 -92l484 207l102 -166zM1626 1698
q-74 51 -146.5 89.5t-141.5 64t-135 38t-128 12.5q-106 0 -192.5 -33t-154.5 -91t-118 -138t-83 -174t-49 -198t-16 -209q0 -131 16 -248.5t48.5 -218t82.5 -181.5t118.5 -137.5t156 -87.5t195.5 -31q141 0 257 52t198.5 165t128 291.5t45.5 432.5q0 71 -5 145t-15 150
t-25.5 153t-36.5 154z" />
    <glyph glyph-name="ntilde" unicode="&#xf1;" horiz-adv-x="2177" 
d="M1618 0v1278q0 136 -21 252.5t-70 201.5t-129.5 132.5t-199.5 47.5q-93 0 -170.5 -25t-151 -76.5t-148 -130.5t-161.5 -185v-1495h-235v2073h188l37 -334q79 96 155 166.5t155.5 116.5t166.5 68.5t188 22.5q121 0 215 -30t163.5 -84.5t118 -128.5t78 -162.5t43 -187
t13.5 -199.5v-1321h-235zM1702 2838q-30 -63 -71 -115t-91 -89t-106 -56.5t-115 -19.5q-57 0 -103 12t-80.5 30.5t-80.5 50.5t-67 45.5t-53.5 25.5t-71.5 12q-34 0 -68 -14t-65 -40.5t-58 -63.5t-47 -81l-131 117q30 64 71.5 115.5t91 88.5t105.5 56.5t115 19.5
q56 0 102 -12t80.5 -30.5t80.5 -50.5t66.5 -45.5t53.5 -25.5t71 -12q35 0 69 14t65 40.5t58 62.5t48 80z" />
    <glyph glyph-name="ograve" unicode="&#xf2;" horiz-adv-x="2179" 
d="M1073 -41q-205 0 -367 73.5t-275 211.5t-173 333.5t-60 440.5q0 164 28 309t81 267t131 218.5t179 163t223.5 102t264.5 35.5q205 0 367 -73.5t275 -211t173 -333.5t60 -440q0 -165 -27.5 -310t-81 -267t-131.5 -218t-179 -163t-223 -102.5t-265 -35.5zM1095 161
q104 0 191 28.5t157 82t122.5 129.5t88 170.5t53 205.5t17.5 235q0 125 -16 241t-49.5 216t-85.5 181.5t-123 140t-162.5 90t-204.5 31.5q-156 0 -273.5 -63t-196.5 -176t-119 -269.5t-40 -342.5q0 -126 16 -242t49.5 -216t85.5 -181.5t123 -139.5t162.5 -89.5t204.5 -31.5z
M1093 2412l-438 506l196 152l394 -531z" />
    <glyph glyph-name="oacute" unicode="&#xf3;" horiz-adv-x="2179" 
d="M1073 -41q-205 0 -367 73.5t-275 211.5t-173 333.5t-60 440.5q0 164 28 309t81 267t131 218.5t179 163t223.5 102t264.5 35.5q205 0 367 -73.5t275 -211t173 -333.5t60 -440q0 -165 -27.5 -310t-81 -267t-131.5 -218t-179 -163t-223 -102.5t-265 -35.5zM1095 161
q104 0 191 28.5t157 82t122.5 129.5t88 170.5t53 205.5t17.5 235q0 125 -16 241t-49.5 216t-85.5 181.5t-123 140t-162.5 90t-204.5 31.5q-156 0 -273.5 -63t-196.5 -176t-119 -269.5t-40 -342.5q0 -126 16 -242t49.5 -216t85.5 -181.5t123 -139.5t162.5 -89.5t204.5 -31.5z
M923 2527l399 543l203 -148l-455 -510z" />
    <glyph glyph-name="ocircumflex" unicode="&#xf4;" horiz-adv-x="2179" 
d="M1073 -41q-205 0 -367 73.5t-275 211.5t-173 333.5t-60 440.5q0 164 28 309t81 267t131 218.5t179 163t223.5 102t264.5 35.5q205 0 367 -73.5t275 -211t173 -333.5t60 -440q0 -165 -27.5 -310t-81 -267t-131.5 -218t-179 -163t-223 -102.5t-265 -35.5zM1095 161
q104 0 191 28.5t157 82t122.5 129.5t88 170.5t53 205.5t17.5 235q0 125 -16 241t-49.5 216t-85.5 181.5t-123 140t-162.5 90t-204.5 31.5q-156 0 -273.5 -63t-196.5 -176t-119 -269.5t-40 -342.5q0 -126 16 -242t49.5 -216t85.5 -181.5t123 -139.5t162.5 -89.5t204.5 -31.5z
M1083 2785l-364 -368l-117 128l489 539l492 -534l-127 -133z" />
    <glyph glyph-name="otilde" unicode="&#xf5;" horiz-adv-x="2179" 
d="M1073 -41q-205 0 -367 73.5t-275 211.5t-173 333.5t-60 440.5q0 164 28 309t81 267t131 218.5t179 163t223.5 102t264.5 35.5q205 0 367 -73.5t275 -211t173 -333.5t60 -440q0 -165 -27.5 -310t-81 -267t-131.5 -218t-179 -163t-223 -102.5t-265 -35.5zM1095 161
q104 0 191 28.5t157 82t122.5 129.5t88 170.5t53 205.5t17.5 235q0 125 -16 241t-49.5 216t-85.5 181.5t-123 140t-162.5 90t-204.5 31.5q-156 0 -273.5 -63t-196.5 -176t-119 -269.5t-40 -342.5q0 -126 16 -242t49.5 -216t85.5 -181.5t123 -139.5t162.5 -89.5t204.5 -31.5z
M1697 2838q-30 -63 -71 -115t-91 -89t-106 -56.5t-115 -19.5q-57 0 -103 12t-80.5 30.5t-80.5 50.5t-67 45.5t-53.5 25.5t-71.5 12q-34 0 -68 -14t-65 -40.5t-58 -63.5t-47 -81l-131 117q30 64 71.5 115.5t91 88.5t105.5 56.5t115 19.5q56 0 102 -12t80.5 -30.5t80.5 -50.5
t66.5 -45.5t53.5 -25.5t71 -12q35 0 69 14t65 40.5t58 62.5t48 80z" />
    <glyph glyph-name="odieresis" unicode="&#xf6;" horiz-adv-x="2179" 
d="M1073 -41q-205 0 -367 73.5t-275 211.5t-173 333.5t-60 440.5q0 164 28 309t81 267t131 218.5t179 163t223.5 102t264.5 35.5q205 0 367 -73.5t275 -211t173 -333.5t60 -440q0 -165 -27.5 -310t-81 -267t-131.5 -218t-179 -163t-223 -102.5t-265 -35.5zM1095 161
q104 0 191 28.5t157 82t122.5 129.5t88 170.5t53 205.5t17.5 235q0 125 -16 241t-49.5 216t-85.5 181.5t-123 140t-162.5 90t-204.5 31.5q-156 0 -273.5 -63t-196.5 -176t-119 -269.5t-40 -342.5q0 -126 16 -242t49.5 -216t85.5 -181.5t123 -139.5t162.5 -89.5t204.5 -31.5z
M1435 2595q-35 0 -64.5 12.5t-51.5 34.5t-34 52.5t-12 66.5q0 35 12 65.5t34 52.5t51.5 34.5t64.5 12.5q33 0 62.5 -12.5t51 -34.5t33.5 -52.5t12 -65.5q0 -36 -12 -66.5t-33.5 -52.5t-51 -34.5t-62.5 -12.5zM749 2595q-35 0 -64 12.5t-50.5 34.5t-33.5 52.5t-12 66.5
q0 35 12 65.5t33.5 52.5t50.5 34.5t64 12.5q34 0 63.5 -12.5t51.5 -34.5t34 -52.5t12 -65.5q0 -36 -12 -66.5t-34 -52.5t-51.5 -34.5t-63.5 -12.5z" />
    <glyph glyph-name="divide" unicode="&#xf7;" 
d="M1014 1863q-43 0 -81 17t-66 45.5t-44.5 67.5t-16.5 84q0 44 16.5 82t44.5 66.5t66 45t81 16.5t80.5 -16.5t65.5 -45t44 -66.5t16 -82q0 -45 -16 -84t-44 -67.5t-65.5 -45.5t-80.5 -17zM163 1161v223h1700v-223h-1700zM1014 262q-43 0 -81 16.5t-66 45.5t-44.5 67.5
t-16.5 83.5q0 44 16.5 82.5t44.5 67t66 45t81 16.5t80.5 -16.5t65.5 -45t44 -67t16 -82.5q0 -45 -16 -83.5t-44 -67.5t-65.5 -45.5t-80.5 -16.5z" />
    <glyph glyph-name="oslash" unicode="&#xf8;" horiz-adv-x="2179" 
d="M362 -299l193 403q-96 68 -164 164t-110.5 213.5t-62.5 253.5t-20 285q0 164 28 309t81 266.5t131 217.5t179 163t223.5 102t264.5 35q50 0 99 -4t96 -12.5t90.5 -20.5t81.5 -28l195 403l164 -70l-201 -419q87 -64 152.5 -153t109.5 -202.5t66 -250.5t22 -295
q0 -162 -29 -306.5t-83.5 -266.5t-134 -219.5t-180.5 -166t-222 -105t-260 -36.5q-52 0 -100 4t-92.5 11.5t-86 19t-80.5 26.5l-186 -391zM809 219q28 -13 60.5 -23.5t69 -17.5t77 -11t83.5 -4q104 0 190.5 29.5t156 83.5t121.5 131t87 171t52.5 203.5t17.5 230.5
q0 93 -6.5 174t-18.5 151t-30 129.5t-40.5 109.5t-49.5 91.5t-57 75.5zM1376 1851q-59 31 -132 46t-157 15q-157 0 -275.5 -62.5t-198 -175.5t-119.5 -269t-40 -342q0 -78 5 -152t15 -143t26.5 -132t39.5 -119.5t53 -105t68 -87.5z" />
    <glyph glyph-name="ugrave" unicode="&#xf9;" horiz-adv-x="2177" 
d="M1656 0l-36 334q-79 -96 -155 -167t-156 -117t-166.5 -68.5t-188.5 -22.5q-120 0 -214 30t-164 84.5t-118.5 129t-78 162.5t-43 186t-13.5 200v1322h236v-1279q0 -91 9 -173.5t29.5 -153t52.5 -127.5t78.5 -97t108.5 -62t142 -22q93 0 170.5 25.5t150.5 77t148 130
t161 185.5v1496h236v-2073h-189zM1068 2412l-438 506l196 152l394 -531z" />
    <glyph glyph-name="uacute" unicode="&#xfa;" horiz-adv-x="2177" 
d="M1656 0l-36 334q-79 -96 -155 -167t-156 -117t-166.5 -68.5t-188.5 -22.5q-120 0 -214 30t-164 84.5t-118.5 129t-78 162.5t-43 186t-13.5 200v1322h236v-1279q0 -91 9 -173.5t29.5 -153t52.5 -127.5t78.5 -97t108.5 -62t142 -22q93 0 170.5 25.5t150.5 77t148 130
t161 185.5v1496h236v-2073h-189zM928 2527l399 543l203 -148l-455 -510z" />
    <glyph glyph-name="ucircumflex" unicode="&#xfb;" horiz-adv-x="2177" 
d="M1656 0l-36 334q-79 -96 -155 -167t-156 -117t-166.5 -68.5t-188.5 -22.5q-120 0 -214 30t-164 84.5t-118.5 129t-78 162.5t-43 186t-13.5 200v1322h236v-1279q0 -91 9 -173.5t29.5 -153t52.5 -127.5t78.5 -97t108.5 -62t142 -22q93 0 170.5 25.5t150.5 77t148 130
t161 185.5v1496h236v-2073h-189zM1085 2785l-364 -368l-117 128l489 539l492 -534l-127 -133z" />
    <glyph glyph-name="udieresis" unicode="&#xfc;" horiz-adv-x="2177" 
d="M1656 0l-36 334q-79 -96 -155 -167t-156 -117t-166.5 -68.5t-188.5 -22.5q-120 0 -214 30t-164 84.5t-118.5 129t-78 162.5t-43 186t-13.5 200v1322h236v-1279q0 -91 9 -173.5t29.5 -153t52.5 -127.5t78.5 -97t108.5 -62t142 -22q93 0 170.5 25.5t150.5 77t148 130
t161 185.5v1496h236v-2073h-189zM1470 2595q-35 0 -64.5 12.5t-51.5 34.5t-34 52.5t-12 66.5q0 35 12 65.5t34 52.5t51.5 34.5t64.5 12.5q33 0 62.5 -12.5t51 -34.5t33.5 -52.5t12 -65.5q0 -36 -12 -66.5t-33.5 -52.5t-51 -34.5t-62.5 -12.5zM784 2595q-35 0 -64 12.5
t-50.5 34.5t-33.5 52.5t-12 66.5q0 35 12 65.5t33.5 52.5t50.5 34.5t64 12.5q34 0 63.5 -12.5t51.5 -34.5t34 -52.5t12 -65.5q0 -36 -12 -66.5t-34 -52.5t-51.5 -34.5t-63.5 -12.5z" />
    <glyph glyph-name="yacute" unicode="&#xfd;" horiz-adv-x="1798" 
d="M122 -693h191q35 0 70 13t71.5 43.5t75.5 81.5t83.5 128.5t95.5 182.5t110 244q-57 147 -118 307t-124 329.5t-125.5 346.5t-122 358.5t-114 365t-101.5 366.5h254q53 -201 109 -392t115.5 -375.5t121 -363.5t125.5 -358q13 -37 26.5 -77.5t25.5 -81l24 -81t23 -78.5h6
q12 38 25 78t26 80.5t26 80t25 77.5q59 176 115.5 359t108.5 370.5t99 378.5t89 383h237q-88 -350 -173 -652.5t-167.5 -560.5t-161 -472t-153.5 -388q-76 -177 -140 -312.5t-122 -235.5t-111.5 -167.5t-107.5 -109t-111.5 -59t-121.5 -17.5q-30 0 -57.5 2.5t-54 7
t-51.5 10.5t-51 13zM794 2527l399 543l203 -148l-455 -510z" />
    <glyph glyph-name="thorn" unicode="&#xfe;" horiz-adv-x="2148" 
d="M332 -862v3934h235v-1321q71 89 144 156.5t153.5 113.5t172 69t200.5 23q127 0 229 -37t180 -103.5t134 -160t92 -205.5t52.5 -240.5t16.5 -264.5q0 -147 -23 -287.5t-71 -265.5t-122 -230t-176.5 -181t-233.5 -118.5t-293 -42.5q-113 0 -227.5 12t-227.5 35v-886h-235z
M567 256q52 -23 108 -40t116 -29t123 -18t130 -6q165 0 286 64.5t200.5 185t118.5 293.5t39 390q0 95 -9 193t-31 189t-58 171t-90 139.5t-127.5 94t-170.5 34.5q-54 0 -104 -9t-100 -29.5t-99.5 -54t-102.5 -81.5t-109.5 -112t-119.5 -147v-1228z" />
    <glyph glyph-name="ydieresis" unicode="&#xff;" horiz-adv-x="1798" 
d="M122 -693h191q35 0 70 13t71.5 43.5t75.5 81.5t83.5 128.5t95.5 182.5t110 244q-57 147 -118 307t-124 329.5t-125.5 346.5t-122 358.5t-114 365t-101.5 366.5h254q53 -201 109 -392t115.5 -375.5t121 -363.5t125.5 -358q13 -37 26.5 -77.5t25.5 -81l24 -81t23 -78.5h6
q12 38 25 78t26 80.5t26 80t25 77.5q59 176 115.5 359t108.5 370.5t99 378.5t89 383h237q-88 -350 -173 -652.5t-167.5 -560.5t-161 -472t-153.5 -388q-76 -177 -140 -312.5t-122 -235.5t-111.5 -167.5t-107.5 -109t-111.5 -59t-121.5 -17.5q-30 0 -57.5 2.5t-54 7
t-51.5 10.5t-51 13zM1268 2595q-35 0 -64.5 12.5t-51.5 34.5t-34 52.5t-12 66.5q0 35 12 65.5t34 52.5t51.5 34.5t64.5 12.5q33 0 62.5 -12.5t51 -34.5t33.5 -52.5t12 -65.5q0 -36 -12 -66.5t-33.5 -52.5t-51 -34.5t-62.5 -12.5zM582 2595q-35 0 -64 12.5t-50.5 34.5
t-33.5 52.5t-12 66.5q0 35 12 65.5t33.5 52.5t50.5 34.5t64 12.5q34 0 63.5 -12.5t51.5 -34.5t34 -52.5t12 -65.5q0 -36 -12 -66.5t-34 -52.5t-51.5 -34.5t-63.5 -12.5z" />
    <glyph glyph-name="Amacron" unicode="&#x100;" horiz-adv-x="2386" 
d="M1997 0q-27 100 -55 203t-56.5 207t-57.5 207t-59 204h-1161q-30 -99 -60 -203t-58.5 -208.5t-56.5 -208t-54 -201.5h-261q110 390 225.5 765.5t235.5 733.5t243.5 698.5t250.5 661.5h235q143 -358 273.5 -716t249 -716t227.5 -715t209 -712h-270zM1708 1026
q-47 149 -97 304.5t-102.5 313.5t-107 316.5t-109.5 312.5q-13 39 -27.5 81.5t-28 84.5t-26.5 83.5t-24 78.5h-4q-13 -38 -26.5 -79.5t-28 -84t-28.5 -84t-26 -78.5q-53 -151 -105 -308t-103.5 -315t-101 -315.5t-95.5 -310.5h1040zM626 3215v188h1106v-188h-1106z" />
    <glyph glyph-name="amacron" unicode="&#x101;" horiz-adv-x="1954" 
d="M1442 0l-23 239q-66 -63 -133.5 -115t-141.5 -89.5t-156.5 -57.5t-178.5 -20q-149 0 -263.5 40t-193 116t-119.5 184t-41 245q0 160 63.5 278.5t175 196.5t263.5 116t330 38h370v191q0 138 -24.5 241.5t-80.5 171.5t-147 101.5t-223 33.5q-64 0 -131.5 -7.5t-136.5 -23
t-138 -38t-136 -51.5l-54 196q71 29 148.5 52.5t159.5 40t166.5 25.5t168.5 9q130 0 229.5 -26.5t173 -73.5t123.5 -110.5t81 -137t44 -153.5t13 -160v-1452h-188zM1394 979h-385q-140 0 -244.5 -29t-173.5 -84t-104 -134.5t-35 -178.5q0 -91 24 -164.5t72 -125t120 -80
t167 -28.5q85 0 158 22.5t140.5 61.5t131.5 92.5t129 116.5v531zM471 2642v184h995v-184h-995z" />
    <glyph glyph-name="Abreve" unicode="&#x102;" horiz-adv-x="2386" 
d="M1997 0q-27 100 -55 203t-56.5 207t-57.5 207t-59 204h-1161q-30 -99 -60 -203t-58.5 -208.5t-56.5 -208t-54 -201.5h-261q110 390 225.5 765.5t235.5 733.5t243.5 698.5t250.5 661.5h235q143 -358 273.5 -716t249 -716t227.5 -715t209 -712h-270zM1708 1026
q-47 149 -97 304.5t-102.5 313.5t-107 316.5t-109.5 312.5q-13 39 -27.5 81.5t-28 84.5t-26.5 83.5t-24 78.5h-4q-13 -38 -26.5 -79.5t-28 -84t-28.5 -84t-26 -78.5q-53 -151 -105 -308t-103.5 -315t-101 -315.5t-95.5 -310.5h1040zM1679 3614q0 -67 -11 -132.5t-36 -124
t-64.5 -108t-95 -85.5t-129.5 -56t-168 -20q-95 0 -169 21t-129 58.5t-93 88.5t-61 109.5t-33 121.5t-10 127h182q0 -76 23 -138.5t65 -107.5t101 -69.5t132 -24.5q66 0 123.5 19.5t100 60.5t66.5 105.5t24 154.5h182z" />
    <glyph glyph-name="abreve" unicode="&#x103;" horiz-adv-x="1954" 
d="M1442 0l-23 239q-66 -63 -133.5 -115t-141.5 -89.5t-156.5 -57.5t-178.5 -20q-149 0 -263.5 40t-193 116t-119.5 184t-41 245q0 160 63.5 278.5t175 196.5t263.5 116t330 38h370v191q0 138 -24.5 241.5t-80.5 171.5t-147 101.5t-223 33.5q-64 0 -131.5 -7.5t-136.5 -23
t-138 -38t-136 -51.5l-54 196q71 29 148.5 52.5t159.5 40t166.5 25.5t168.5 9q130 0 229.5 -26.5t173 -73.5t123.5 -110.5t81 -137t44 -153.5t13 -160v-1452h-188zM1394 979h-385q-140 0 -244.5 -29t-173.5 -84t-104 -134.5t-35 -178.5q0 -91 24 -164.5t72 -125t120 -80
t167 -28.5q85 0 158 22.5t140.5 61.5t131.5 92.5t129 116.5v531zM1454 3012q0 -65 -8.5 -129t-28 -126.5t-54.5 -117t-88.5 -96.5t-128.5 -66t-171 -24q-98 0 -173.5 24.5t-127.5 68t-85.5 99t-52 117.5t-25.5 124.5t-7 125.5h170q0 -75 19.5 -142.5t58.5 -119.5t97.5 -82
t133.5 -30q70 0 126 24.5t95.5 72t59.5 118t20 159.5h170z" />
    <glyph glyph-name="Aogonek" unicode="&#x104;" horiz-adv-x="2386" 
d="M2410 -775q-27 -10 -60.5 -19t-70.5 -16t-76.5 -11.5t-79.5 -4.5q-112 0 -189 24.5t-125 68t-69.5 104t-21.5 131.5q0 61 19.5 125t58 128t96 126t133.5 119h-28q-27 100 -55 203t-56.5 207t-57.5 207t-59 204h-1161q-30 -99 -60 -203t-58.5 -208.5t-56.5 -208
t-54 -201.5h-261q110 390 225.5 765.5t236 733.5t244 698.5t249.5 661.5h235q143 -358 273.5 -716t249 -716t227.5 -715t209 -712q-87 -64 -146.5 -126t-96 -119.5t-52.5 -109.5t-16 -94q0 -48 10.5 -84.5t34.5 -60.5t64 -35.5t99 -11.5q49 0 104 9.5t110 31.5zM1708 1026
q-47 148 -97 303.5t-102.5 313.5t-107 317t-109.5 313q-13 39 -27.5 81.5t-28 84.5t-26.5 83.5t-24 78.5h-4q-13 -37 -26.5 -78.5t-28 -84.5t-28.5 -84.5t-26 -78.5q-53 -151 -105 -308t-103.5 -315t-101 -315.5t-95.5 -310.5h1040z" />
    <glyph glyph-name="aogonek" unicode="&#x105;" horiz-adv-x="1954" 
d="M1800 -773q-28 -10 -60 -19t-67.5 -16t-73 -11.5t-75.5 -4.5q-106 0 -178.5 24.5t-117 67.5t-64 103t-19.5 131q0 61 19.5 125t55.5 128t88.5 126t118.5 119l-8 254q-66 -64 -136.5 -118.5t-147.5 -94t-161.5 -62t-179.5 -22.5t-176.5 18t-148.5 52.5t-118.5 85
t-87 115.5t-53.5 144t-18 170q0 160 63.5 278.5t175 196.5t263.5 116t330 38h370v191q0 138 -24.5 241.5t-80.5 171.5t-147 101.5t-223 33.5q-64 0 -131.5 -7.5t-136.5 -23t-138 -38t-136 -51.5l-54 196q71 29 148.5 52.5t159.5 40t166.5 25.5t168.5 9q130 0 229.5 -26.5
t173 -73.5t123.5 -110.5t81 -137t44 -153.5t13 -160v-1452q-68 -64 -116.5 -126t-80 -119.5t-46.5 -109.5t-15 -94q0 -48 10.5 -84.5t33 -61t59 -36.5t90.5 -12q23 0 47.5 2.5t50.5 7.5t52 12.5t52 18.5zM1394 979h-385q-140 0 -244.5 -29t-173.5 -84t-104 -134.5
t-35 -178.5q0 -91 24 -164.5t70.5 -125t115.5 -80t159 -28.5q84 0 159.5 24.5t145.5 66.5t136.5 97.5t131.5 119.5v516z" />
    <glyph glyph-name="Cacute" unicode="&#x106;" horiz-adv-x="2158" 
d="M2052 135q-76 -38 -155.5 -68t-163 -51.5t-170.5 -33t-177 -11.5q-267 0 -481.5 95t-365 277t-231.5 447.5t-81 606.5q0 224 36 422t104.5 363.5t169 296.5t230 222t286.5 139t339 48q90 0 172.5 -9t162 -28t156.5 -47.5t155 -67.5l-89 -195q-66 32 -134.5 56t-139.5 41
t-146.5 25.5t-156.5 8.5q-140 0 -260 -40.5t-218 -117t-173 -187t-126 -249t-77.5 -303.5t-26.5 -350q0 -296 62.5 -525.5t182 -387t293 -240t394.5 -82.5q79 0 155 11.5t146.5 31t135 45t122.5 53.5l70 -196v0zM1193 3086l-108 158l598 395l139 -205z" />
    <glyph glyph-name="cacute" unicode="&#x107;" horiz-adv-x="1698" 
d="M1554 72q-73 -32 -142.5 -53t-134 -32.5t-124 -15.5t-111.5 -4q-224 0 -384 74.5t-262 211t-150 328t-48 425.5q0 262 63.5 466.5t178 344.5t274.5 213t355 73q64 0 126.5 -6.5t122.5 -20t118 -34t114 -49.5l-61 -183q-50 21 -101 39t-103 30.5t-105.5 19.5t-108.5 7
q-164 0 -281 -64.5t-191.5 -180t-109.5 -276t-35 -351.5q0 -219 39.5 -381.5t117.5 -270.5t194 -161.5t270 -53.5q60 0 115.5 5.5t109 16.5t106 28.5t105.5 40.5zM827 2527l399 543l203 -148l-455 -510z" />
    <glyph glyph-name="Ccircumflex" unicode="&#x108;" horiz-adv-x="2158" 
d="M2052 135q-76 -38 -155.5 -68t-163 -51.5t-170.5 -33t-177 -11.5q-267 0 -481.5 95t-365 277t-231.5 447.5t-81 606.5q0 224 36 422t104.5 363.5t169 296.5t230 222t286.5 139t339 48q90 0 172.5 -9t162 -28t156.5 -47.5t155 -67.5l-89 -195q-66 32 -134.5 56t-139.5 41
t-146.5 25.5t-156.5 8.5q-140 0 -260 -40.5t-218 -117t-173 -187t-126 -249t-77.5 -303.5t-26.5 -350q0 -296 62.5 -525.5t182 -387t293 -240t394.5 -82.5q79 0 155 11.5t146.5 31t135 45t122.5 53.5l70 -196v0zM1349 3369l-377 -281l-106 144l489 391l492 -383l-115 -152z
" />
    <glyph glyph-name="ccircumflex" unicode="&#x109;" horiz-adv-x="1698" 
d="M1554 72q-73 -32 -142.5 -53t-134 -32.5t-124 -15.5t-111.5 -4q-224 0 -384 74.5t-262 211t-150 328t-48 425.5q0 262 63.5 466.5t178 344.5t274.5 213t355 73q64 0 126.5 -6.5t122.5 -20t118 -34t114 -49.5l-61 -183q-50 21 -101 39t-103 30.5t-105.5 19.5t-108.5 7
q-164 0 -281 -64.5t-191.5 -180t-109.5 -276t-35 -351.5q0 -219 39.5 -381.5t117.5 -270.5t194 -161.5t270 -53.5q60 0 115.5 5.5t109 16.5t106 28.5t105.5 40.5zM1013 2785l-364 -368l-117 128l489 539l492 -534l-127 -133z" />
    <glyph glyph-name="Cdotaccent" unicode="&#x10a;" horiz-adv-x="2158" 
d="M2052 135q-76 -38 -155.5 -68t-163 -51.5t-170.5 -33t-177 -11.5q-267 0 -481.5 95t-365 277t-231.5 447.5t-81 606.5q0 224 36 422t104.5 363.5t169 296.5t230 222t286.5 139t339 48q90 0 172.5 -9t162 -28t156.5 -47.5t155 -67.5l-89 -195q-66 32 -134.5 56t-139.5 41
t-146.5 25.5t-156.5 8.5q-140 0 -260 -40.5t-218 -117t-173 -187t-126 -249t-77.5 -303.5t-26.5 -350q0 -296 62.5 -525.5t182 -387t293 -240t394.5 -82.5q79 0 155 11.5t146.5 31t135 45t122.5 53.5l70 -196v0zM1542 3285q0 -40 -14.5 -75t-40.5 -60.5t-60.5 -40.5
t-74.5 -15t-75 15t-60.5 40.5t-40.5 60.5t-15 75t15 74.5t40.5 60.5t60.5 40.5t75 14.5t74.5 -14.5t60.5 -40.5t40.5 -60.5t14.5 -74.5z" />
    <glyph glyph-name="cdotaccent" unicode="&#x10b;" horiz-adv-x="1698" 
d="M1554 72q-73 -32 -142.5 -53t-134 -32.5t-124 -15.5t-111.5 -4q-224 0 -384 74.5t-262 211t-150 328t-48 425.5q0 262 63.5 466.5t178 344.5t274.5 213t355 73q64 0 126.5 -6.5t122.5 -20t118 -34t114 -49.5l-61 -183q-50 21 -101 39t-103 30.5t-105.5 19.5t-108.5 7
q-164 0 -281 -64.5t-191.5 -180t-109.5 -276t-35 -351.5q0 -219 39.5 -381.5t117.5 -270.5t194 -161.5t270 -53.5q60 0 115.5 5.5t109 16.5t106 28.5t105.5 40.5zM1009 2564q-39 0 -73 14.5t-59 40t-39.5 60.5t-14.5 76q0 40 14.5 75t39.5 60.5t59 40t73 14.5q40 0 74 -14.5
t59 -40t39.5 -60.5t14.5 -75q0 -41 -14.5 -76t-39.5 -60.5t-59 -40t-74 -14.5z" />
    <glyph glyph-name="Ccaron" unicode="&#x10c;" horiz-adv-x="2158" 
d="M2052 135q-76 -38 -155.5 -68t-163 -51.5t-170.5 -33t-177 -11.5q-267 0 -481.5 95t-365 277t-231.5 447.5t-81 606.5q0 224 36 422t104.5 363.5t169 296.5t230 222t286.5 139t339 48q90 0 172.5 -9t162 -28t156.5 -47.5t155 -67.5l-89 -195q-66 32 -134.5 56t-139.5 41
t-146.5 25.5t-156.5 8.5q-140 0 -260 -40.5t-218 -117t-173 -187t-126 -249t-77.5 -303.5t-26.5 -350q0 -296 62.5 -525.5t182 -387t293 -240t394.5 -82.5q79 0 155 11.5t146.5 31t135 45t122.5 53.5l70 -196v0zM1339 3076l-491 383l114 151l383 -280l377 280l107 -143z" />
    <glyph glyph-name="ccaron" unicode="&#x10d;" horiz-adv-x="1698" 
d="M1554 72q-73 -32 -142.5 -53t-134 -32.5t-124 -15.5t-111.5 -4q-224 0 -384 74.5t-262 211t-150 328t-48 425.5q0 262 63.5 466.5t178 344.5t274.5 213t355 73q64 0 126.5 -6.5t122.5 -20t118 -34t114 -49.5l-61 -183q-50 21 -101 39t-103 30.5t-105.5 19.5t-108.5 7
q-164 0 -281 -64.5t-191.5 -180t-109.5 -276t-35 -351.5q0 -219 39.5 -381.5t117.5 -270.5t194 -161.5t270 -53.5q60 0 115.5 5.5t109 16.5t106 28.5t105.5 40.5zM493 2957l127 135l374 -370l365 370l119 -129l-494 -544z" />
    <glyph glyph-name="Dcaron" unicode="&#x10e;" horiz-adv-x="2550" 
d="M377 0v2859h747q198 0 364.5 -45.5t301 -131t236 -208t170 -277t102.5 -337.5t34 -390q0 -238 -36.5 -440t-108 -365.5t-177.5 -287.5t-245.5 -208t-311.5 -126.5t-374 -42.5h-702zM1102 208q243 0 425 75t302.5 228.5t180.5 389.5t60 559q0 170 -24.5 324.5t-76.5 287
t-130 239.5t-185 183t-243.5 117t-302.5 41h-490v-2444h484zM1187 3076l-491 383l114 151l383 -280l377 280l107 -143z" />
    <glyph glyph-name="dcaron" unicode="&#x10f;" horiz-adv-x="2336" 
d="M1628 0l-27 344q-79 -99 -157 -172t-160.5 -120.5t-173.5 -70t-199 -22.5q-127 0 -229 37t-180 103.5t-134 160t-92 206t-53 240.5t-17 265q0 146 23 287t71.5 265.5t122.5 229.5t176.5 181t233.5 118.5t293 42.5q60 0 117.5 -3t114 -9t112 -15.5t111.5 -21.5v1026h235
v-3072h-188zM1581 1816q-106 45 -225 68.5t-252 23.5q-165 0 -286 -64t-200 -184.5t-118 -293.5t-39 -389q0 -95 9 -193t30.5 -189.5t57.5 -171.5t90 -139.5t127.5 -94t170.5 -34.5q54 0 104.5 9t100 30t99 54t102.5 81t109 112t120 146v1229zM2027 2355l201 758l250 -57
l-254 -738z" />
    <glyph glyph-name="Dcroat" unicode="&#x110;" horiz-adv-x="2591" 
d="M418 0v1364h-340v204h340v1291h747q198 0 364.5 -45.5t301 -131t236 -208t170 -277t102.5 -337.5t34 -390q0 -238 -36.5 -440t-108 -365.5t-177.5 -287.5t-245.5 -208t-311.5 -126.5t-374 -42.5h-702zM1143 208q243 0 425 75t302.5 228.5t180.5 389.5t60 559
q0 170 -24.5 324.5t-76.5 287t-130 239.5t-185 183t-243.5 117t-302.5 41h-490v-1084h557v-204h-557v-1156h484z" />
    <glyph glyph-name="dcroat" unicode="&#x111;" horiz-adv-x="2148" 
d="M1628 0l-27 344q-79 -99 -157 -172t-160.5 -120.5t-173.5 -70t-199 -22.5q-127 0 -229 37t-180 103.5t-134 160t-92 206t-53 240.5t-17 265q0 146 23 287t71.5 265.5t122.5 229.5t176.5 181t233.5 118.5t293 42.5q60 0 117.5 -3t114 -9t112 -15.5t111.5 -21.5v403h-475
v189h475v434h235v-434h301v-189h-301v-2449h-188zM1581 1816q-106 45 -225 68.5t-252 23.5q-165 0 -286 -64t-200 -184.5t-118 -293.5t-39 -389q0 -95 9 -193t30.5 -189.5t57.5 -171.5t90 -139.5t127.5 -94t170.5 -34.5q54 0 104.5 9t100 30t99 54t102.5 81t109 112t120 146
v1229z" />
    <glyph glyph-name="Emacron" unicode="&#x112;" horiz-adv-x="2005" 
d="M377 0v2859h1341v-207h-1100v-1057h967v-205h-967v-1182h1118v-208h-1359zM493 3215v188h1106v-188h-1106z" />
    <glyph glyph-name="emacron" unicode="&#x113;" horiz-adv-x="1999" 
d="M1734 68q-69 -24 -146 -44.5t-162 -34.5t-176 -22t-187 -8q-220 0 -381.5 68.5t-267.5 204.5t-158 336.5t-52 465.5q0 244 55.5 443.5t163.5 340.5t267 218t367 77q127 0 230 -31.5t184 -90t140.5 -140.5t98 -182t57.5 -215.5t19 -241.5q0 -13 -1 -34.5t-1.5 -46.5
t-1.5 -50t-1 -45h-1322q0 -135 13 -252.5t43.5 -214.5t79.5 -173t121 -128t169 -79.5t223 -27.5q90 0 167.5 8t148 21.5t136.5 32t133 39.5zM1538 1229q5 157 -26 284.5t-95.5 217t-160 138t-218.5 48.5q-99 0 -180 -29t-144.5 -79.5t-110 -118t-78 -143.5t-48 -157.5
t-18.5 -160.5h1079zM526 2642v184h995v-184h-995z" />
    <glyph glyph-name="Ebreve" unicode="&#x114;" horiz-adv-x="2005" 
d="M377 0v2859h1341v-207h-1100v-1057h967v-205h-967v-1182h1118v-208h-1359zM1552 3614q0 -67 -11 -132.5t-36 -124t-64.5 -108t-95 -85.5t-129.5 -56t-168 -20q-95 0 -169 21t-129 58.5t-93 88.5t-61 109.5t-33 121.5t-10 127h182q0 -76 23 -138.5t65 -107.5t101 -69.5
t132 -24.5q66 0 123.5 19.5t100 60.5t66.5 105.5t24 154.5h182z" />
    <glyph glyph-name="ebreve" unicode="&#x115;" horiz-adv-x="1999" 
d="M1734 68q-69 -24 -146 -44.5t-162 -34.5t-176 -22t-187 -8q-220 0 -381.5 68.5t-267.5 204.5t-158 336.5t-52 465.5q0 244 55.5 443.5t163.5 340.5t267 218t367 77q127 0 230 -31.5t184 -90t140.5 -140.5t98 -182t57.5 -215.5t19 -241.5q0 -13 -1 -34.5t-1.5 -46.5
t-1.5 -50t-1 -45h-1322q0 -135 13 -252.5t43.5 -214.5t79.5 -173t121 -128t169 -79.5t223 -27.5q90 0 167.5 8t148 21.5t136.5 32t133 39.5zM1538 1229q5 157 -26 284.5t-95.5 217t-160 138t-218.5 48.5q-99 0 -180 -29t-144.5 -79.5t-110 -118t-78 -143.5t-48 -157.5
t-18.5 -160.5h1079zM1472 3012q0 -65 -8.5 -129t-28 -126.5t-54.5 -117t-88.5 -96.5t-128.5 -66t-171 -24q-98 0 -173.5 24.5t-127.5 68t-85.5 99t-52 117.5t-25.5 124.5t-7 125.5h170q0 -75 19.5 -142.5t58.5 -119.5t97.5 -82t133.5 -30q70 0 126 24.5t95.5 72t59.5 118
t20 159.5h170z" />
    <glyph glyph-name="Edotaccent" unicode="&#x116;" horiz-adv-x="2005" 
d="M377 0v2859h1341v-207h-1100v-1057h967v-205h-967v-1182h1118v-208h-1359zM1236 3285q0 -40 -14.5 -75t-40.5 -60.5t-60.5 -40.5t-74.5 -15t-75 15t-60.5 40.5t-40.5 60.5t-15 75t15 74.5t40.5 60.5t60.5 40.5t75 14.5t74.5 -14.5t60.5 -40.5t40.5 -60.5t14.5 -74.5z" />
    <glyph glyph-name="edotaccent" unicode="&#x117;" horiz-adv-x="1999" 
d="M1734 68q-69 -24 -146 -44.5t-162 -34.5t-176 -22t-187 -8q-220 0 -381.5 68.5t-267.5 204.5t-158 336.5t-52 465.5q0 244 55.5 443.5t163.5 340.5t267 218t367 77q127 0 230 -31.5t184 -90t140.5 -140.5t98 -182t57.5 -215.5t19 -241.5q0 -13 -1 -34.5t-1.5 -46.5
t-1.5 -50t-1 -45h-1322q0 -135 13 -252.5t43.5 -214.5t79.5 -173t121 -128t169 -79.5t223 -27.5q90 0 167.5 8t148 21.5t136.5 32t133 39.5zM1538 1229q5 157 -26 284.5t-95.5 217t-160 138t-218.5 48.5q-99 0 -180 -29t-144.5 -79.5t-110 -118t-78 -143.5t-48 -157.5
t-18.5 -160.5h1079zM1021 2564q-39 0 -73 14.5t-59 40t-39.5 60.5t-14.5 76q0 40 14.5 75t39.5 60.5t59 40t73 14.5q40 0 74 -14.5t59 -40t39.5 -60.5t14.5 -75q0 -41 -14.5 -76t-39.5 -60.5t-59 -40t-74 -14.5z" />
    <glyph glyph-name="Eogonek" unicode="&#x118;" horiz-adv-x="2005" 
d="M1892 -775q-28 -10 -61.5 -19t-70.5 -16t-76.5 -11.5t-78.5 -4.5q-112 0 -189.5 24.5t-125.5 68t-69 104t-21 131.5q0 61 19 125t56.5 128t93.5 126t130 119h-1122v2859h1341v-207h-1100v-1057h967v-205h-967v-1182h1118v-208q-84 -64 -141 -126t-92.5 -119.5
t-50.5 -109.5t-15 -94q0 -48 10.5 -84.5t35 -60.5t64.5 -35.5t99 -11.5q48 0 103.5 9.5t109.5 31.5z" />
    <glyph glyph-name="eogonek" unicode="&#x119;" horiz-adv-x="1999" 
d="M1726 -773q-28 -10 -60 -19t-67.5 -16t-73 -11.5t-75.5 -4.5q-106 0 -178.5 24.5t-117 67.5t-64 103t-19.5 131q0 58 18 120.5t52.5 125t83.5 122.5t110 114q-30 -7 -63 -11.5t-67 -7.5t-70 -4.5t-72 -1.5q-220 0 -381.5 68.5t-267.5 204.5t-158 336.5t-52 465.5
q0 244 55.5 443.5t163.5 340.5t267 218t367 77q127 0 230 -31.5t184 -90t140.5 -140.5t98 -182t57.5 -215.5t19 -241.5q0 -13 -1 -34.5t-1.5 -46.5t-1.5 -50t-1 -45h-1322q0 -135 13 -252.5t43.5 -214.5t79.5 -173t121 -128t169 -79.5t223 -27.5q90 0 167.5 8t148 21.5
t136.5 32t133 39.5l41 -194q-78 -28 -141 -68.5t-111 -87t-83 -97t-57.5 -98.5t-33 -90.5t-10.5 -75.5q0 -48 10.5 -84.5t33 -61t59 -36.5t90.5 -12q23 0 47.5 2.5t50.5 7.5t52 12.5t52 18.5zM1538 1229q5 157 -26 284.5t-95.5 217t-160 138t-218.5 48.5q-99 0 -180 -29
t-144.5 -79.5t-110 -118t-78 -143.5t-48 -157.5t-18.5 -160.5h1079z" />
    <glyph glyph-name="Ecaron" unicode="&#x11a;" horiz-adv-x="2005" 
d="M377 0v2859h1341v-207h-1100v-1057h967v-205h-967v-1182h1118v-208h-1359zM1046 3076l-491 383l114 151l383 -280l377 280l107 -143z" />
    <glyph glyph-name="ecaron" unicode="&#x11b;" horiz-adv-x="1999" 
d="M1734 68q-69 -24 -146 -44.5t-162 -34.5t-176 -22t-187 -8q-220 0 -381.5 68.5t-267.5 204.5t-158 336.5t-52 465.5q0 244 55.5 443.5t163.5 340.5t267 218t367 77q127 0 230 -31.5t184 -90t140.5 -140.5t98 -182t57.5 -215.5t19 -241.5q0 -13 -1 -34.5t-1.5 -46.5
t-1.5 -50t-1 -45h-1322q0 -135 13 -252.5t43.5 -214.5t79.5 -173t121 -128t169 -79.5t223 -27.5q90 0 167.5 8t148 21.5t136.5 32t133 39.5zM1538 1229q5 157 -26 284.5t-95.5 217t-160 138t-218.5 48.5q-99 0 -180 -29t-144.5 -79.5t-110 -118t-78 -143.5t-48 -157.5
t-18.5 -160.5h1079zM528 2957l127 135l374 -370l365 370l119 -129l-494 -544z" />
    <glyph glyph-name="Gcircumflex" unicode="&#x11c;" horiz-adv-x="2496" 
d="M1919 1462h242v-1351q-85 -35 -175.5 -62.5t-184 -46t-190 -28t-192.5 -9.5q-199 0 -364.5 47.5t-299 137t-233.5 217.5t-167 287.5t-100.5 347.5t-33.5 399q0 222 37.5 418.5t109 362t176 296.5t239.5 222t299 139.5t354 48.5q102 0 203 -16.5t197.5 -46t186.5 -72
t170 -93.5l-100 -197q-75 50 -157 89t-169 66.5t-176.5 42.5t-177.5 15q-159 0 -289.5 -44t-234 -124.5t-180.5 -194t-128 -252.5t-75.5 -300t-24.5 -336q0 -295 65 -526.5t188 -391.5t299.5 -244.5t398.5 -84.5q122 0 242.5 19t244.5 57v1208zM1363 3369l-377 -281
l-106 144l489 391l492 -383l-115 -152z" />
    <glyph glyph-name="gcircumflex" unicode="&#x11d;" horiz-adv-x="2148" 
d="M1581 342q-81 -97 -158.5 -166t-158 -112.5t-166.5 -63.5t-185 -20q-128 0 -230 36t-180.5 102t-134.5 158t-92 203t-53 238.5t-17 263.5q0 145 23 284.5t72 263.5t123 228t176 179t233.5 117t292.5 42q83 0 174 -7.5t181.5 -21.5t176 -33.5t158.5 -44.5v-1959
q0 -162 -17.5 -293.5t-58 -234.5t-106 -179t-161.5 -125.5t-224.5 -73.5t-294.5 -24q-47 0 -104.5 2t-122.5 7t-134.5 13t-140.5 21l9 178q58 -3 119 -5.5t122 -4t121.5 -2.5t118.5 -1q117 0 210 14t164 46.5t121 87t82 135.5t47 191.5t15 255.5v305zM1581 1816
q-53 22 -109 39.5t-115.5 29t-122.5 17.5t-130 6q-164 0 -285 -63.5t-200.5 -182.5t-118.5 -290t-39 -385q0 -95 9 -192t30 -187t57 -168.5t90 -137t128 -92.5t171 -34q82 0 155.5 21t148.5 71t155.5 133.5t175.5 206.5v1208zM1065 2785l-364 -368l-117 128l489 539
l492 -534l-127 -133z" />
    <glyph glyph-name="Gbreve" unicode="&#x11e;" horiz-adv-x="2496" 
d="M1919 1462h242v-1351q-85 -35 -175.5 -62.5t-184 -46t-190 -28t-192.5 -9.5q-199 0 -364.5 47.5t-299 137t-233.5 217.5t-167 287.5t-100.5 347.5t-33.5 399q0 222 37.5 418.5t109 362t176 296.5t239.5 222t299 139.5t354 48.5q102 0 203 -16.5t197.5 -46t186.5 -72
t170 -93.5l-100 -197q-75 50 -157 89t-169 66.5t-176.5 42.5t-177.5 15q-159 0 -289.5 -44t-234 -124.5t-180.5 -194t-128 -252.5t-75.5 -300t-24.5 -336q0 -295 65 -526.5t188 -391.5t299.5 -244.5t398.5 -84.5q122 0 242.5 19t244.5 57v1208zM1830 3635q0 -67 -11 -132.5
t-36 -124t-64.5 -108t-95 -85.5t-129.5 -56t-168 -20q-95 0 -169 21t-129 58.5t-93 88.5t-61 109.5t-33 121.5t-10 127h182q0 -76 23 -138.5t65 -107.5t101 -69.5t132 -24.5q66 0 123.5 19.5t100 60.5t66.5 105.5t24 154.5h182z" />
    <glyph glyph-name="gbreve" unicode="&#x11f;" horiz-adv-x="2148" 
d="M1581 342q-81 -97 -158.5 -166t-158 -112.5t-166.5 -63.5t-185 -20q-128 0 -230 36t-180.5 102t-134.5 158t-92 203t-53 238.5t-17 263.5q0 145 23 284.5t72 263.5t123 228t176 179t233.5 117t292.5 42q83 0 174 -7.5t181.5 -21.5t176 -33.5t158.5 -44.5v-1959
q0 -162 -17.5 -293.5t-58 -234.5t-106 -179t-161.5 -125.5t-224.5 -73.5t-294.5 -24q-47 0 -104.5 2t-122.5 7t-134.5 13t-140.5 21l9 178q58 -3 119 -5.5t122 -4t121.5 -2.5t118.5 -1q117 0 210 14t164 46.5t121 87t82 135.5t47 191.5t15 255.5v305zM1581 1816
q-53 22 -109 39.5t-115.5 29t-122.5 17.5t-130 6q-164 0 -285 -63.5t-200.5 -182.5t-118.5 -290t-39 -385q0 -95 9 -192t30 -187t57 -168.5t90 -137t128 -92.5t171 -34q82 0 155.5 21t148.5 71t155.5 133.5t175.5 206.5v1208zM1548 3012q0 -65 -8.5 -129t-28 -126.5
t-54.5 -117t-88.5 -96.5t-128.5 -66t-171 -24q-98 0 -173.5 24.5t-127.5 68t-85.5 99t-52 117.5t-25.5 124.5t-7 125.5h170q0 -75 19.5 -142.5t58.5 -119.5t97.5 -82t133.5 -30q70 0 126 24.5t95.5 72t59.5 118t20 159.5h170z" />
    <glyph glyph-name="Gdotaccent" unicode="&#x120;" horiz-adv-x="2496" 
d="M1919 1462h242v-1351q-85 -35 -175.5 -62.5t-184 -46t-190 -28t-192.5 -9.5q-199 0 -364.5 47.5t-299 137t-233.5 217.5t-167 287.5t-100.5 347.5t-33.5 399q0 222 37.5 418.5t109 362t176 296.5t239.5 222t299 139.5t354 48.5q102 0 203 -16.5t197.5 -46t186.5 -72
t170 -93.5l-100 -197q-75 50 -157 89t-169 66.5t-176.5 42.5t-177.5 15q-159 0 -289.5 -44t-234 -124.5t-180.5 -194t-128 -252.5t-75.5 -300t-24.5 -336q0 -295 65 -526.5t188 -391.5t299.5 -244.5t398.5 -84.5q122 0 242.5 19t244.5 57v1208zM1562 3285q0 -40 -14.5 -75
t-40.5 -60.5t-60.5 -40.5t-74.5 -15t-75 15t-60.5 40.5t-40.5 60.5t-15 75t15 74.5t40.5 60.5t60.5 40.5t75 14.5t74.5 -14.5t60.5 -40.5t40.5 -60.5t14.5 -74.5z" />
    <glyph glyph-name="gdotaccent" unicode="&#x121;" horiz-adv-x="2148" 
d="M1581 342q-81 -97 -158.5 -166t-158 -112.5t-166.5 -63.5t-185 -20q-128 0 -230 36t-180.5 102t-134.5 158t-92 203t-53 238.5t-17 263.5q0 145 23 284.5t72 263.5t123 228t176 179t233.5 117t292.5 42q83 0 174 -7.5t181.5 -21.5t176 -33.5t158.5 -44.5v-1959
q0 -162 -17.5 -293.5t-58 -234.5t-106 -179t-161.5 -125.5t-224.5 -73.5t-294.5 -24q-47 0 -104.5 2t-122.5 7t-134.5 13t-140.5 21l9 178q58 -3 119 -5.5t122 -4t121.5 -2.5t118.5 -1q117 0 210 14t164 46.5t121 87t82 135.5t47 191.5t15 255.5v305zM1581 1816
q-53 22 -109 39.5t-115.5 29t-122.5 17.5t-130 6q-164 0 -285 -63.5t-200.5 -182.5t-118.5 -290t-39 -385q0 -95 9 -192t30 -187t57 -168.5t90 -137t128 -92.5t171 -34q82 0 155.5 21t148.5 71t155.5 133.5t175.5 206.5v1208zM1072 2564q-39 0 -73 14.5t-59 40t-39.5 60.5
t-14.5 76q0 40 14.5 75t39.5 60.5t59 40t73 14.5q40 0 74 -14.5t59 -40t39.5 -60.5t14.5 -75q0 -41 -14.5 -76t-39.5 -60.5t-59 -40t-74 -14.5z" />
    <glyph glyph-name="Gcommaaccent" unicode="&#x122;" horiz-adv-x="2496" 
d="M1919 1462h242v-1351q-85 -35 -175.5 -62.5t-184 -46t-190 -28t-192.5 -9.5q-199 0 -364.5 47.5t-299 137t-233.5 217.5t-167 287.5t-100.5 347.5t-33.5 399q0 222 37.5 418.5t109 362t176 296.5t239.5 222t299 139.5t354 48.5q102 0 203 -16.5t197.5 -46t186.5 -72
t170 -93.5l-100 -197q-75 50 -157 89t-169 66.5t-176.5 42.5t-177.5 15q-159 0 -289.5 -44t-234 -124.5t-180.5 -194t-128 -252.5t-75.5 -300t-24.5 -336q0 -295 65 -526.5t188 -391.5t299.5 -244.5t398.5 -84.5q122 0 242.5 19t244.5 57v1208zM770 -707q103 0 171.5 13
t112 35t68 51t40.5 61.5t28.5 66t31.5 64.5q12 21 26 37t31 26.5t36.5 16.5t41.5 6q33 0 61 -11.5t49.5 -32t33.5 -48.5t12 -62q0 -56 -25.5 -105.5t-71.5 -91.5t-109 -74.5t-137 -55.5t-157 -35t-167 -12h-17.5h-19h-20h-19.5v151z" />
    <glyph glyph-name="gcommaaccent" unicode="&#x123;" horiz-adv-x="2148" 
d="M1581 342q-81 -97 -158.5 -166t-158 -112.5t-166.5 -63.5t-185 -20q-128 0 -230 36t-180.5 102t-134.5 158t-92 203t-53 238.5t-17 263.5q0 145 23 284.5t72 263.5t123 228t176 179t233.5 117t292.5 42q83 0 174 -7.5t181.5 -21.5t176 -33.5t158.5 -44.5v-1959
q0 -162 -17.5 -293.5t-58 -234.5t-106 -179t-161.5 -125.5t-224.5 -73.5t-294.5 -24q-47 0 -104.5 2t-122.5 7t-134.5 13t-140.5 21l9 178q58 -3 119 -5.5t122 -4t121.5 -2.5t118.5 -1q117 0 210 14t164 46.5t121 87t82 135.5t47 191.5t15 255.5v305zM1581 1816
q-53 22 -109 39.5t-115.5 29t-122.5 17.5t-130 6q-164 0 -285 -63.5t-200.5 -182.5t-118.5 -290t-39 -385q0 -95 9 -192t30 -187t57 -168.5t90 -137t128 -92.5t171 -34q82 0 155.5 21t148.5 71t155.5 133.5t175.5 206.5v1208zM1642 2820q-79 0 -137 -7.5t-100 -21.5
t-70.5 -32.5t-48 -40.5t-32 -46t-22.5 -48.5t-19.5 -48.5t-23.5 -46q-11 -21 -25.5 -37.5t-31.5 -27t-37 -16t-41 -5.5q-33 0 -61 11.5t-49 32t-33 49t-12 61.5q0 56 25.5 105.5t71.5 91.5t109 75t137 56t156.5 35t167.5 12h17.5h19h20h19.5v-152z" />
    <glyph glyph-name="Hcircumflex" unicode="&#x124;" horiz-adv-x="2519" 
d="M1901 0v1392h-1283v-1392h-241v2859h241v-1258h1283v1258h241v-2859h-241zM1253 3369l-377 -281l-106 144l489 391l492 -383l-115 -152z" />
    <glyph glyph-name="hcircumflex" unicode="&#x125;" horiz-adv-x="2177" 
d="M1618 0v1278q0 91 -9 173.5t-29 153t-52.5 127.5t-79 97t-109 61.5t-141.5 21.5q-93 0 -170.5 -25t-151 -76.5t-148 -130.5t-161.5 -185v-1495h-235v3072h235v-1323q75 91 148.5 159t152.5 113.5t166 68.5t188 23q121 0 215 -30t163.5 -84.5t118 -128.5t78 -162.5
t43 -187t13.5 -199.5v-1321h-235zM1081 3533l-377 -281l-106 144l489 391l492 -383l-115 -152z" />
    <glyph glyph-name="Hbar" unicode="&#x126;" horiz-adv-x="2601" 
d="M1941 0v1347h-1282v-1347h-241v2171h-377v206h377v482h241v-482h1282v482h242v-482h377v-206h-377v-2171h-242zM1941 2171h-1282v-615h1282v615z" />
    <glyph glyph-name="hbar" unicode="&#x127;" horiz-adv-x="2177" 
d="M1618 0v1278q0 91 -9 173.5t-29 153t-52.5 127.5t-79 97t-109 61.5t-141.5 21.5q-93 0 -170.5 -25t-151 -76.5t-148 -130.5t-161.5 -185v-1495h-235v2490h-332v189h332v393h235v-393h598v-189h-598v-741q75 91 148.5 159t152.5 113.5t166 68.5t188 23q121 0 215 -30
t163.5 -84.5t118 -128.5t78 -162.5t43 -187t13.5 -199.5v-1321h-235z" />
    <glyph glyph-name="Itilde" unicode="&#x128;" horiz-adv-x="995" 
d="M377 0v2859h241v-2859h-241zM1119 3436q-30 -63 -72.5 -115t-94.5 -89t-110 -56.5t-118 -19.5q-58 0 -105 12t-82 30.5t-81.5 50.5t-68 45.5t-55 25.5t-73.5 12q-34 0 -67.5 -14t-65 -40.5t-58 -63t-47.5 -81.5l-143 117q31 64 74 115.5t94.5 88.5t109.5 56.5t119 19.5
q57 0 103.5 -12t81 -30.5t81.5 -50.5t68.5 -45.5t54.5 -25.5t72 -12q35 0 69 14t65 40t58 62.5t48 80.5z" />
    <glyph glyph-name="itilde" unicode="&#x129;" horiz-adv-x="985" 
d="M418 0v1884h-332v189h567v-2073h-235zM1098 2838q-30 -63 -71 -115t-91 -89t-106 -56.5t-115 -19.5q-57 0 -103 12t-80.5 30.5t-80.5 50.5t-67 45.5t-53.5 25.5t-71.5 12q-34 0 -68 -14t-65 -40.5t-58 -63.5t-47 -81l-131 117q30 64 71.5 115.5t91 88.5t105.5 56.5
t115 19.5q56 0 102 -12t80.5 -30.5t80.5 -50.5t66.5 -45.5t53.5 -25.5t71 -12q35 0 69 14t65 40.5t58 62.5t48 80z" />
    <glyph glyph-name="Imacron" unicode="&#x12a;" horiz-adv-x="995" 
d="M377 0v2859h241v-2859h-241zM-55 3215v188h1106v-188h-1106z" />
    <glyph glyph-name="imacron" unicode="&#x12b;" horiz-adv-x="985" 
d="M418 0v1884h-332v189h567v-2073h-235zM-11 2642v184h995v-184h-995z" />
    <glyph glyph-name="Ibreve" unicode="&#x12c;" horiz-adv-x="995" 
d="M377 0v2859h241v-2859h-241zM998 3614q0 -67 -11 -132.5t-36 -124t-64.5 -108t-95 -85.5t-129.5 -56t-168 -20q-95 0 -169 21t-129 58.5t-93 88.5t-61 109.5t-33 121.5t-10 127h182q0 -76 23 -138.5t65 -107.5t101 -69.5t132 -24.5q66 0 123.5 19.5t100 60.5t66.5 105.5
t24 154.5h182z" />
    <glyph glyph-name="ibreve" unicode="&#x12d;" horiz-adv-x="985" 
d="M418 0v1884h-332v189h567v-2073h-235zM966 3012q0 -65 -8.5 -129t-28 -126.5t-54.5 -117t-88.5 -96.5t-128.5 -66t-171 -24q-98 0 -173.5 24.5t-127.5 68t-85.5 99t-52 117.5t-25.5 124.5t-7 125.5h170q0 -75 19.5 -142.5t58.5 -119.5t97.5 -82t133.5 -30q70 0 126 24.5
t95.5 72t59.5 118t20 159.5h170z" />
    <glyph glyph-name="Iogonek" unicode="&#x12e;" horiz-adv-x="995" 
d="M795 -775q-28 -10 -61.5 -19t-70.5 -16t-76.5 -11.5t-78.5 -4.5q-113 0 -190 24.5t-125 68t-69.5 104t-21.5 131.5q0 61 18 124.5t53 127.5t86.5 126t117.5 120v0v2859h241v-2859q-78 -64 -131 -126t-86 -119.5t-47 -109.5t-14 -94q0 -48 10.5 -84.5t34.5 -60.5t64 -35.5
t99 -11.5q49 0 104 9.5t110 31.5z" />
    <glyph glyph-name="iogonek" unicode="&#x12f;" horiz-adv-x="985" 
d="M512 2562q-40 0 -74 14.5t-59 40t-39 60.5t-14 76q0 40 14 75t39 60.5t59 40t74 14.5t74 -14.5t58.5 -40t39 -60.5t14.5 -75q0 -41 -14.5 -76t-39 -60.5t-58.5 -40t-74 -14.5zM823 -773q-27 -10 -59.5 -19t-68 -16t-73 -11.5t-76.5 -4.5q-105 0 -177.5 24.5t-117 67.5
t-64 103t-19.5 131q0 61 19.5 125t56 128t88.5 126t118 119h-32v1884h-332v189h567v-2073q-67 -64 -116 -126t-80.5 -119.5t-46.5 -109.5t-15 -94q0 -48 10 -84.5t33 -61t59.5 -36.5t89.5 -12q23 0 48 2.5t50.5 7.5t52 12.5t52.5 18.5z" />
    <glyph glyph-name="Idotaccent" unicode="&#x130;" horiz-adv-x="995" 
d="M377 0v2859h241v-2859h-241zM688 3285q0 -40 -14.5 -75t-40.5 -60.5t-60.5 -40.5t-74.5 -15t-75 15t-60.5 40.5t-40.5 60.5t-15 75t15 74.5t40.5 60.5t60.5 40.5t75 14.5t74.5 -14.5t60.5 -40.5t40.5 -60.5t14.5 -74.5z" />
    <glyph glyph-name="dotlessi" unicode="&#x131;" horiz-adv-x="985" 
d="M418 0v1884h-332v189h567v-2073h-235z" />
    <glyph glyph-name="IJ" unicode="&#x132;" horiz-adv-x="2205" 
d="M377 0v2859h241v-2859h-241zM1083 178h182q63 0 111 12t84.5 40t61 72.5t40 109.5t22.5 151.5t7 198.5v2097h242v-2063q0 -123 -8 -232.5t-29 -201t-57.5 -164t-93.5 -123t-138 -77.5t-191 -27q-28 0 -59.5 1.5t-62.5 3.5t-60 6t-51 10v186z" />
    <glyph glyph-name="ij" unicode="&#x133;" horiz-adv-x="1868" 
d="M512 2562q-40 0 -74 14.5t-59 40t-39 60.5t-14 76q0 40 14 75t39 60.5t59 40t74 14.5t74 -14.5t58.5 -40t39 -60.5t14.5 -75q0 -41 -14.5 -76t-39 -60.5t-58.5 -40t-74 -14.5zM418 0v1884h-332v189h567v-2073h-235zM1417 2562q-40 0 -74 14.5t-59 40t-39 60.5t-14 76
q0 40 14 75t39 60.5t59 40t74 14.5t74 -14.5t59 -40t39.5 -60.5t14.5 -75q0 -41 -14.5 -76t-39.5 -60.5t-59 -40t-74 -14.5zM832 -691h192q72 0 124 30t85.5 94.5t50 166t16.5 244.5v2229h236v-2186q0 -169 -18.5 -292.5t-51 -211t-78.5 -142t-101.5 -85.5t-119.5 -42
t-133 -11q-29 0 -58 2t-56 6t-51.5 10t-45.5 13z" />
    <glyph glyph-name="Jcircumflex" unicode="&#x134;" horiz-adv-x="1210" 
d="M88 178h182q63 0 111 12t84.5 40t61 72.5t40 109.5t22.5 151.5t7 198.5v2097h242v-2063q0 -123 -8 -232.5t-29 -201t-57.5 -164t-93.5 -123t-138 -77.5t-191 -27q-28 0 -59.5 1.5t-62.5 3.5t-60 6t-51 10v186zM712 3369l-377 -281l-106 144l489 391l492 -383l-115 -152z
" />
    <glyph glyph-name="jcircumflex" unicode="&#x135;" horiz-adv-x="942" 
d="M-94 -691h192q72 0 124 30t85.5 94.5t50 166t16.5 244.5v2229h236v-2186q0 -169 -18.5 -292.5t-51 -211t-78.5 -142t-101.5 -85.5t-119.5 -42t-133 -11q-29 0 -58 2t-56 6t-51.5 10t-45.5 13zM487 2785l-364 -368l-117 128l489 539l492 -534l-127 -133z" />
    <glyph glyph-name="Kcommaaccent" unicode="&#x136;" horiz-adv-x="2179" 
d="M1773 0l-978 1499l-177 -186v-1313h-241v2859h241v-1272q141 156 282.5 314.5t283.5 318t282 320t278 319.5h326l-1112 -1192l1118 -1667h-303zM526 -707q103 0 171.5 13t112 35t68 51t40.5 61.5t28.5 66t31.5 64.5q12 21 26 37t31 26.5t36.5 16.5t41.5 6q33 0 61 -11.5
t49.5 -32t33.5 -48.5t12 -62q0 -56 -25.5 -105.5t-71.5 -91.5t-109 -74.5t-137 -55.5t-157 -35t-167 -12h-17.5h-19h-20h-19.5v151z" />
    <glyph glyph-name="kcommaaccent" unicode="&#x137;" horiz-adv-x="1894" 
d="M1511 0l-792 1122l-152 -143v-979h-235v3072h235v-1854q206 208 414.5 423t410.5 432h318l-824 -795l931 -1278h-306zM393 -707q103 0 171.5 13t112 35t68 51t40.5 61.5t28.5 66t31.5 64.5q12 21 26 37t31 26.5t36.5 16.5t41.5 6q33 0 61 -11.5t49.5 -32t33.5 -48.5
t12 -62q0 -56 -25.5 -105.5t-71.5 -91.5t-109 -74.5t-137 -55.5t-157 -35t-167 -12h-17.5h-19h-20h-19.5v151z" />
    <glyph glyph-name="kgreenlandic" unicode="&#x138;" horiz-adv-x="1873" 
d="M1491 0l-772 1083l-152 -145v-938h-235v2073h235v-892q106 107 213 218t214 223.5t213 225.5t208 225h323l-852 -834l910 -1239h-305z" />
    <glyph glyph-name="Lacute" unicode="&#x139;" horiz-adv-x="1706" 
d="M377 0v2859h241v-2648h1032v-211h-1273zM681 3086l-108 158l598 395l139 -205z" />
    <glyph glyph-name="lacute" unicode="&#x13a;" horiz-adv-x="983" 
d="M889 -2q-17 -4 -38.5 -7.5t-45.5 -5.5t-48 -3.5t-46 -1.5q-82 0 -151 20.5t-120 66.5t-79.5 120.5t-28.5 182.5v2702h235v-2648q0 -54 8 -98.5t26.5 -76.5t49.5 -49.5t78 -17.5h160v-184zM366 3270l-108 158l598 395l139 -205z" />
    <glyph glyph-name="Lcommaaccent" unicode="&#x13b;" horiz-adv-x="1706" 
d="M377 0v2859h241v-2648h1032v-211h-1273zM438 -707q103 0 171.5 13t112 35t68 51t40.5 61.5t28.5 66t31.5 64.5q12 21 26 37t31 26.5t36.5 16.5t41.5 6q33 0 61 -11.5t49.5 -32t33.5 -48.5t12 -62q0 -56 -25.5 -105.5t-71.5 -91.5t-109 -74.5t-137 -55.5t-157 -35
t-167 -12h-17.5h-19h-20h-19.5v151z" />
    <glyph glyph-name="lcommaaccent" unicode="&#x13c;" horiz-adv-x="983" 
d="M889 -2q-17 -4 -38.5 -7.5t-45.5 -5.5t-48 -3.5t-46 -1.5q-82 0 -151 20.5t-120 66.5t-79.5 120.5t-28.5 182.5v2702h235v-2648q0 -54 8 -98.5t26.5 -76.5t49.5 -49.5t78 -17.5h160v-184zM41 -707q103 0 171.5 13t112 35t68 51t40.5 61.5t28.5 66t31.5 64.5q12 21 26 37
t31 26.5t36.5 16.5t41.5 6q33 0 61 -11.5t49.5 -32t33.5 -48.5t12 -62q0 -56 -25.5 -105.5t-71.5 -91.5t-109 -74.5t-137 -55.5t-157 -35t-167 -12h-17.5h-19h-20h-19.5v151z" />
    <glyph glyph-name="Lcaron" unicode="&#x13d;" horiz-adv-x="1746" 
d="M377 0v2859h241v-2648h1032v-211h-1273zM1134 2355l201 758l250 -57l-254 -738z" />
    <glyph glyph-name="lcaron" unicode="&#x13e;" horiz-adv-x="1087" 
d="M889 -2q-17 -4 -38.5 -7.5t-45.5 -5.5t-48 -3.5t-46 -1.5q-82 0 -151 20.5t-120 66.5t-79.5 120.5t-28.5 182.5v2702h235v-2648q0 -54 8 -98.5t26.5 -76.5t49.5 -49.5t78 -17.5h160v-184zM778 2355l201 758l250 -57l-254 -738z" />
    <glyph glyph-name="Ldot" unicode="&#x13f;" horiz-adv-x="2017" 
d="M377 0v2859h241v-2648h1032v-211h-1273zM1621 1216q-45 0 -83.5 17t-67 46.5t-44.5 69t-16 85.5q0 45 16 84.5t44.5 69.5t67 47t83.5 17q46 0 84.5 -17t66.5 -47t44 -69.5t16 -84.5q0 -46 -16 -85.5t-44 -69t-66.5 -46.5t-84.5 -17z" />
    <glyph glyph-name="ldot" unicode="&#x140;" horiz-adv-x="1771" 
d="M889 -2q-17 -4 -38.5 -7.5t-45.5 -5.5t-48 -3.5t-46 -1.5q-82 0 -151 20.5t-120 66.5t-79.5 120.5t-28.5 182.5v2702h235v-2648q0 -54 8 -98.5t26.5 -76.5t49.5 -49.5t78 -17.5h160v-184zM1273 1052q-45 0 -83.5 17t-67 46.5t-44.5 69t-16 85.5q0 45 16 84.5t44.5 69.5
t67 47t83.5 17q46 0 84.5 -17t66.5 -47t44 -69.5t16 -84.5q0 -46 -16 -85.5t-44 -69t-66.5 -46.5t-84.5 -17z" />
    <glyph glyph-name="Lslash" unicode="&#x141;" horiz-adv-x="1742" 
d="M414 0v1562l-293 -203l-82 167l375 256v1077h241v-914l490 336l82 -166l-572 -391v-1513h1032v-211h-1273z" />
    <glyph glyph-name="lslash" unicode="&#x142;" horiz-adv-x="1046" 
d="M925 -2q-16 -4 -38 -7.5t-45.5 -5.5t-47.5 -3.5t-47 -1.5q-81 0 -150.5 20.5t-120 66.5t-79 120.5t-28.5 182.5v1416l-242 -166l-82 166l324 221v1065h235v-904l254 177l82 -166l-336 -231v-1524q0 -54 7.5 -98.5t26.5 -76.5t50 -49.5t78 -17.5h159v-184z" />
    <glyph glyph-name="Nacute" unicode="&#x143;" horiz-adv-x="2584" 
d="M1888 0l-1272 2556h-6v-2556h-233v2859h356l1235 -2476h6v2476h234v-2859h-320zM1234 3086l-108 158l598 395l139 -205z" />
    <glyph glyph-name="nacute" unicode="&#x144;" horiz-adv-x="2177" 
d="M1618 0v1278q0 136 -21 252.5t-70 201.5t-129.5 132.5t-199.5 47.5q-93 0 -170.5 -25t-151 -76.5t-148 -130.5t-161.5 -185v-1495h-235v2073h188l37 -334q79 96 155 166.5t155.5 116.5t166.5 68.5t188 22.5q121 0 215 -30t163.5 -84.5t118 -128.5t78 -162.5t43 -187
t13.5 -199.5v-1321h-235zM983 2527l399 543l203 -148l-455 -510z" />
    <glyph glyph-name="Ncommaaccent" unicode="&#x145;" horiz-adv-x="2584" 
d="M1888 0l-1272 2556h-6v-2556h-233v2859h356l1235 -2476h6v2476h234v-2859h-320zM710 -707q103 0 171.5 13t112 35t68 51t40.5 61.5t28.5 66t31.5 64.5q12 21 26 37t31 26.5t36.5 16.5t41.5 6q33 0 61 -11.5t49.5 -32t33.5 -48.5t12 -62q0 -56 -25.5 -105.5t-71.5 -91.5
t-109 -74.5t-137 -55.5t-157 -35t-167 -12h-17.5h-19h-20h-19.5v151z" />
    <glyph glyph-name="ncommaaccent" unicode="&#x146;" horiz-adv-x="2177" 
d="M1618 0v1278q0 136 -21 252.5t-70 201.5t-129.5 132.5t-199.5 47.5q-93 0 -170.5 -25t-151 -76.5t-148 -130.5t-161.5 -185v-1495h-235v2073h188l37 -334q79 96 155 166.5t155.5 116.5t166.5 68.5t188 22.5q121 0 215 -30t163.5 -84.5t118 -128.5t78 -162.5t43 -187
t13.5 -199.5v-1321h-235zM479 -707q103 0 171.5 13t112 35t68 51t40.5 61.5t28.5 66t31.5 64.5q12 21 26 37t31 26.5t36.5 16.5t41.5 6q33 0 61 -11.5t49.5 -32t33.5 -48.5t12 -62q0 -56 -25.5 -105.5t-71.5 -91.5t-109 -74.5t-137 -55.5t-157 -35t-167 -12h-17.5h-19h-20
h-19.5v151z" />
    <glyph glyph-name="Ncaron" unicode="&#x147;" horiz-adv-x="2584" 
d="M1888 0l-1272 2556h-6v-2556h-233v2859h356l1235 -2476h6v2476h234v-2859h-320zM1292 3076l-491 383l114 151l383 -280l377 280l107 -143z" />
    <glyph glyph-name="ncaron" unicode="&#x148;" horiz-adv-x="2177" 
d="M1618 0v1278q0 136 -21 252.5t-70 201.5t-129.5 132.5t-199.5 47.5q-93 0 -170.5 -25t-151 -76.5t-148 -130.5t-161.5 -185v-1495h-235v2073h188l37 -334q79 96 155 166.5t155.5 116.5t166.5 68.5t188 22.5q121 0 215 -30t163.5 -84.5t118 -128.5t78 -162.5t43 -187
t13.5 -199.5v-1321h-235zM606 2957l127 135l374 -370l365 370l119 -129l-494 -544z" />
    <glyph glyph-name="napostrophe" unicode="&#x149;" horiz-adv-x="2382" 
d="M0 2316q59 79 96.5 142.5t59.5 113.5t30 88.5t8 67.5q0 21 -4 39t-10 33.5t-12.5 30t-12.5 28.5t-10 29t-4 32q0 36 10.5 68t31.5 56t52 38t74 14q30 0 59 -12.5t51.5 -38t36 -63t13.5 -88.5q0 -55 -18 -123.5t-60 -151t-110 -179.5t-169 -208zM1823 0v1278
q0 136 -21 252.5t-70 201.5t-129.5 132.5t-199.5 47.5q-93 0 -170.5 -25t-151 -76.5t-148 -130.5t-161.5 -185v-1495h-235v2073h188l37 -334q79 96 155 166.5t155.5 116.5t166.5 68.5t188 22.5q121 0 215 -30t163.5 -84.5t118 -128.5t78 -162.5t43 -187t13.5 -199.5v-1321
h-235z" />
    <glyph glyph-name="Eng" unicode="&#x14a;" horiz-adv-x="2584" 
d="M1458 -695h182q63 0 111 12t84.5 39.5t61 71.5t40 108.5t22.5 150.5t7 198v115h-78l-1272 2556h-6v-2556h-233v2859h356l1235 -2476h6v2476h234v-2939q0 -124 -8 -233t-29 -200.5t-57 -163.5t-93.5 -121.5t-138.5 -76t-191 -26.5q-27 0 -59 1t-63 3.5t-60 6t-51 9.5v186z
" />
    <glyph glyph-name="eng" unicode="&#x14b;" horiz-adv-x="2177" 
d="M1149 -691h192q72 0 124 30t86 94.5t50.5 166t16.5 244.5v1434q0 136 -21 252.5t-70 201.5t-129.5 132.5t-199.5 47.5q-93 0 -170.5 -25t-151 -76.5t-148 -130.5t-161.5 -185v-1495h-235v2073h188l37 -334q79 96 155 166.5t155.5 116.5t166.5 68.5t188 22.5
q121 0 215 -30t163.5 -84.5t118 -128.5t78 -162.5t43 -187t13.5 -199.5v-1434q0 -169 -18.5 -292.5t-51 -211t-78.5 -142t-101.5 -85.5t-119.5 -42t-132 -11q-30 0 -59 2t-56 6t-51.5 10t-44.5 13z" />
    <glyph glyph-name="Omacron" unicode="&#x14c;" horiz-adv-x="2804" 
d="M1384 -41q-197 0 -359 50t-290 142t-223 222.5t-158 291t-94 348t-31 394.5q0 218 34 413t101.5 361t167.5 299t232 226.5t295.5 143.5t357.5 50t355 -50.5t289.5 -143.5t225 -224t160.5 -292t95.5 -347.5t31.5 -390.5q0 -219 -33.5 -415t-101 -362t-167 -298.5
t-232 -225.5t-297 -142.5t-359.5 -49.5zM1421 165q162 0 291.5 47.5t228 131.5t169 200t115.5 254t66 292.5t21 316.5q0 182 -23 348.5t-71 309.5t-123 259t-178.5 198t-237 126.5t-299.5 44.5q-159 0 -287 -46.5t-227 -130.5t-170 -199.5t-116.5 -253.5t-67 -293
t-21.5 -318q0 -184 23 -350.5t70.5 -310t122 -259t178 -197t237 -126t299.5 -44.5zM848 3215v188h1106v-188h-1106z" />
    <glyph glyph-name="omacron" unicode="&#x14d;" horiz-adv-x="2179" 
d="M1073 -41q-205 0 -367 73.5t-275 211.5t-173 333.5t-60 440.5q0 164 28 309t81 267t131 218.5t179 163t223.5 102t264.5 35.5q205 0 367 -73.5t275 -211t173 -333.5t60 -440q0 -165 -27.5 -310t-81 -267t-131.5 -218t-179 -163t-223 -102.5t-265 -35.5zM1095 161
q104 0 191 28.5t157 82t122.5 129.5t88 170.5t53 205.5t17.5 235q0 125 -16 241t-49.5 216t-85.5 181.5t-123 140t-162.5 90t-204.5 31.5q-156 0 -273.5 -63t-196.5 -176t-119 -269.5t-40 -342.5q0 -126 16 -242t49.5 -216t85.5 -181.5t123 -139.5t162.5 -89.5t204.5 -31.5z
M592 2642v184h995v-184h-995z" />
    <glyph glyph-name="Obreve" unicode="&#x14e;" horiz-adv-x="2804" 
d="M1384 -41q-197 0 -359 50t-290 142t-223 222.5t-158 291t-94 348t-31 394.5q0 218 34 413t101.5 361t167.5 299t232 226.5t295.5 143.5t357.5 50t355 -50.5t289.5 -143.5t225 -224t160.5 -292t95.5 -347.5t31.5 -390.5q0 -219 -33.5 -415t-101 -362t-167 -298.5
t-232 -225.5t-297 -142.5t-359.5 -49.5zM1421 165q162 0 291.5 47.5t228 131.5t169 200t115.5 254t66 292.5t21 316.5q0 182 -23 348.5t-71 309.5t-123 259t-178.5 198t-237 126.5t-299.5 44.5q-159 0 -287 -46.5t-227 -130.5t-170 -199.5t-116.5 -253.5t-67 -293
t-21.5 -318q0 -184 23 -350.5t70.5 -310t122 -259t178 -197t237 -126t299.5 -44.5zM1900 3635q0 -67 -11 -132.5t-36 -124t-64.5 -108t-95 -85.5t-129.5 -56t-168 -20q-95 0 -169 21t-129 58.5t-93 88.5t-61 109.5t-33 121.5t-10 127h182q0 -76 23 -138.5t65 -107.5
t101 -69.5t132 -24.5q66 0 123.5 19.5t100 60.5t66.5 105.5t24 154.5h182z" />
    <glyph glyph-name="obreve" unicode="&#x14f;" horiz-adv-x="2179" 
d="M1073 -41q-205 0 -367 73.5t-275 211.5t-173 333.5t-60 440.5q0 164 28 309t81 267t131 218.5t179 163t223.5 102t264.5 35.5q205 0 367 -73.5t275 -211t173 -333.5t60 -440q0 -165 -27.5 -310t-81 -267t-131.5 -218t-179 -163t-223 -102.5t-265 -35.5zM1095 161
q104 0 191 28.5t157 82t122.5 129.5t88 170.5t53 205.5t17.5 235q0 125 -16 241t-49.5 216t-85.5 181.5t-123 140t-162.5 90t-204.5 31.5q-156 0 -273.5 -63t-196.5 -176t-119 -269.5t-40 -342.5q0 -126 16 -242t49.5 -216t85.5 -181.5t123 -139.5t162.5 -89.5t204.5 -31.5z
M1564 3012q0 -65 -8.5 -129t-28 -126.5t-54.5 -117t-88.5 -96.5t-128.5 -66t-171 -24q-98 0 -173.5 24.5t-127.5 68t-85.5 99t-52 117.5t-25.5 124.5t-7 125.5h170q0 -75 19.5 -142.5t58.5 -119.5t97.5 -82t133.5 -30q70 0 126 24.5t95.5 72t59.5 118t20 159.5h170z" />
    <glyph glyph-name="Ohungarumlaut" unicode="&#x150;" horiz-adv-x="2804" 
d="M1384 -41q-197 0 -359 50t-290 142t-223 222.5t-158 291t-94 348t-31 394.5q0 218 34 413t101.5 361t167.5 299t232 226.5t295.5 143.5t357.5 50t355 -50.5t289.5 -143.5t225 -224t160.5 -292t95.5 -347.5t31.5 -390.5q0 -219 -33.5 -415t-101 -362t-167 -298.5
t-232 -225.5t-297 -142.5t-359.5 -49.5zM1421 165q162 0 291.5 47.5t228 131.5t169 200t115.5 254t66 292.5t21 316.5q0 182 -23 348.5t-71 309.5t-123 259t-178.5 198t-237 126.5t-299.5 44.5q-159 0 -287 -46.5t-227 -130.5t-170 -199.5t-116.5 -253.5t-67 -293
t-21.5 -318q0 -184 23 -350.5t70.5 -310t122 -259t178 -197t237 -126t299.5 -44.5zM1791 3068l-141 124l500 554l180 -172zM1023 3068l-143 126l469 552l182 -170z" />
    <glyph glyph-name="ohungarumlaut" unicode="&#x151;" horiz-adv-x="2179" 
d="M1073 -41q-205 0 -367 73.5t-275 211.5t-173 333.5t-60 440.5q0 164 28 309t81 267t131 218.5t179 163t223.5 102t264.5 35.5q205 0 367 -73.5t275 -211t173 -333.5t60 -440q0 -165 -27.5 -310t-81 -267t-131.5 -218t-179 -163t-223 -102.5t-265 -35.5zM1095 161
q104 0 191 28.5t157 82t122.5 129.5t88 170.5t53 205.5t17.5 235q0 125 -16 241t-49.5 216t-85.5 181.5t-123 140t-162.5 90t-204.5 31.5q-156 0 -273.5 -63t-196.5 -176t-119 -269.5t-40 -342.5q0 -126 16 -242t49.5 -216t85.5 -181.5t123 -139.5t162.5 -89.5t204.5 -31.5z
M1355 2537l402 533l202 -152l-455 -506zM661 2535l389 535l204 -152l-446 -504z" />
    <glyph glyph-name="OE" unicode="&#x152;" horiz-adv-x="3401" 
d="M1773 0q-49 -9 -101.5 -15.5t-103.5 -11.5t-98.5 -7.5t-87.5 -2.5q-195 0 -356 48.5t-289 139t-223.5 219.5t-158.5 289.5t-94.5 349t-31.5 398.5q0 218 34 413t101 360.5t167 298t232 225t296 142.5t360 50q38 0 83 -3t92 -7.5t93 -11.5t86 -15h1342v-207h-1100v-1057
h966v-205h-966v-1182h1118v-208h-1360zM1773 2625q-86 30 -185.5 47t-205.5 17q-160 0 -288.5 -46.5t-227.5 -130t-170 -198.5t-116.5 -252.5t-67 -292t-21.5 -317.5q0 -184 23 -351t71 -309.5t122.5 -257.5t178.5 -196t238 -124.5t301 -43.5q50 0 97 4.5t90.5 12.5t84 19
t76.5 23v2396z" />
    <glyph glyph-name="oe" unicode="&#x153;" horiz-adv-x="3516" 
d="M3252 68q-69 -24 -146.5 -44.5t-162 -34.5t-175.5 -22t-188 -8q-143 0 -259 28t-208.5 84.5t-163 142t-120.5 200.5q-59 -109 -138 -194t-175 -143t-208 -88t-237 -30q-145 0 -266 34.5t-218 100t-170 159t-121.5 211.5t-73 257t-24.5 297q0 164 28 309t81 267t131 218.5
t179 163t223.5 102t264.5 35.5q129 0 241 -29.5t206.5 -87t169.5 -142t129 -193.5q48 104 117 188t159.5 142.5t202 90t244.5 31.5q127 0 230.5 -31.5t184.5 -90t140 -140.5t98 -182t57.5 -215.5t18.5 -241.5q0 -13 -0.5 -34.5t-1.5 -46.5t-1.5 -50t-0.5 -45h-1323
q0 -203 31 -365t105.5 -275t199.5 -174t313 -61q91 0 168.5 8t147.5 21.5t136.5 32t133.5 39.5zM3055 1229q6 157 -25.5 284.5t-95.5 217t-159.5 138t-218.5 48.5q-100 0 -180.5 -29t-144 -79.5t-110.5 -118t-78.5 -143.5t-47.5 -157.5t-19 -160.5h1079zM1099 161
q104 0 190.5 29.5t156 83.5t121.5 131t87 171.5t52.5 204.5t17.5 231q0 126 -16 242t-49.5 216t-85 181.5t-122.5 139.5t-161.5 89.5t-202.5 31.5q-157 0 -275.5 -63t-198 -176t-119.5 -269.5t-40 -342.5q0 -132 16 -250t49 -218t85 -179.5t123.5 -136t164 -86.5t207.5 -30z
" />
    <glyph glyph-name="Racute" unicode="&#x154;" horiz-adv-x="2095" 
d="M1646 0l-684 1349h-344v-1349h-241v2859h595q140 0 254 -25.5t204.5 -72.5t157 -113t110 -147.5t65 -176.5t21.5 -198q0 -106 -21.5 -195.5t-60 -164.5t-91.5 -135.5t-116.5 -108.5t-136 -82.5t-148.5 -57.5l731 -1382h-295zM950 1554q150 0 258 43t177.5 117t103 173
t33.5 212q0 68 -12.5 135.5t-40 129t-72 114t-108 91.5t-148 61t-193.5 22h-330v-1098h332zM880 3086l-108 158l598 395l139 -205z" />
    <glyph glyph-name="racute" unicode="&#x155;" horiz-adv-x="1395" 
d="M332 0v2073h188l29 -414q80 119 147 205t128 141.5t121 81.5t128 26q32 0 62 -2t60 -7t61 -12.5t67 -19.5l-50 -213q-21 8 -46.5 14.5t-51 11.5t-50.5 8t-46 3q-35 0 -68.5 -12t-68.5 -37.5t-74 -65.5t-84.5 -95.5t-98.5 -127.5t-118 -162v-1396h-235zM630 2527l399 543
l203 -148l-455 -510z" />
    <glyph glyph-name="Rcommaaccent" unicode="&#x156;" horiz-adv-x="2095" 
d="M1646 0l-684 1349h-344v-1349h-241v2859h595q140 0 254 -25.5t204.5 -72.5t157 -113t110 -147.5t65 -176.5t21.5 -198q0 -106 -21.5 -195.5t-60 -164.5t-91.5 -135.5t-116.5 -108.5t-136 -82.5t-148.5 -57.5l731 -1382h-295zM950 1554q150 0 258 43t177.5 117t103 173
t33.5 212q0 68 -12.5 135.5t-40 129t-72 114t-108 91.5t-148 61t-193.5 22h-330v-1098h332zM497 -707q103 0 171.5 13t112 35t68 51t40.5 61.5t28.5 66t31.5 64.5q12 21 26 37t31 26.5t36.5 16.5t41.5 6q33 0 61 -11.5t49.5 -32t33.5 -48.5t12 -62q0 -56 -25.5 -105.5
t-71.5 -91.5t-109 -74.5t-137 -55.5t-157 -35t-167 -12h-17.5h-19h-20h-19.5v151z" />
    <glyph glyph-name="rcommaaccent" unicode="&#x157;" horiz-adv-x="1395" 
d="M332 0v2073h188l29 -414q80 119 147 205t128 141.5t121 81.5t128 26q32 0 62 -2t60 -7t61 -12.5t67 -19.5l-50 -213q-21 8 -46.5 14.5t-51 11.5t-50.5 8t-46 3q-35 0 -68.5 -12t-68.5 -37.5t-74 -65.5t-84.5 -95.5t-98.5 -127.5t-118 -162v-1396h-235zM-112 -707
q103 0 171.5 13t112 35t68 51t40.5 61.5t28.5 66t31.5 64.5q12 21 26 37t31 26.5t36.5 16.5t41.5 6q33 0 61 -11.5t49.5 -32t33.5 -48.5t12 -62q0 -56 -25.5 -105.5t-71.5 -91.5t-109 -74.5t-137 -55.5t-157 -35t-167 -12h-17.5h-19h-20h-19.5v151z" />
    <glyph glyph-name="Rcaron" unicode="&#x158;" horiz-adv-x="2095" 
d="M1646 0l-684 1349h-344v-1349h-241v2859h595q140 0 254 -25.5t204.5 -72.5t157 -113t110 -147.5t65 -176.5t21.5 -198q0 -106 -21.5 -195.5t-60 -164.5t-91.5 -135.5t-116.5 -108.5t-136 -82.5t-148.5 -57.5l731 -1382h-295zM950 1554q150 0 258 43t177.5 117t103 173
t33.5 212q0 68 -12.5 135.5t-40 129t-72 114t-108 91.5t-148 61t-193.5 22h-330v-1098h332zM952 3076l-491 383l114 151l383 -280l377 280l107 -143z" />
    <glyph glyph-name="rcaron" unicode="&#x159;" horiz-adv-x="1395" 
d="M332 0v2073h188l29 -414q80 119 147 205t128 141.5t121 81.5t128 26q32 0 62 -2t60 -7t61 -12.5t67 -19.5l-50 -213q-21 8 -46.5 14.5t-51 11.5t-50.5 8t-46 3q-35 0 -68.5 -12t-68.5 -37.5t-74 -65.5t-84.5 -95.5t-98.5 -127.5t-118 -162v-1396h-235zM294 2957l127 135
l374 -370l365 370l119 -129l-494 -544z" />
    <glyph glyph-name="Sacute" unicode="&#x15a;" horiz-adv-x="1792" 
d="M245 262q66 -22 131 -38.5t131.5 -28t135 -17.5t139.5 -6q138 0 243 40.5t177 113.5t108.5 175t36.5 224q0 83 -18.5 151t-52.5 125.5t-83 107.5t-110.5 96.5t-134 92t-154.5 94.5q-91 55 -169 108.5t-141 110t-111.5 117.5t-81.5 130.5t-49.5 148.5t-16.5 172
q0 104 25.5 198.5t74 174.5t118 144.5t158 109.5t195 69.5t228.5 24.5q50 0 106.5 -4.5t113 -13t109.5 -20t95 -26.5l-48 -207q-46 15 -96 26.5t-101.5 19.5t-103.5 12t-102 4q-131 0 -227.5 -40.5t-160 -108t-95 -156t-31.5 -185.5q0 -81 18.5 -148.5t52 -124.5t82 -107
t108.5 -95.5t130 -90t148 -91.5q97 -58 179 -115t147.5 -115.5t115 -120.5t82.5 -131.5t49.5 -147.5t16.5 -169q0 -120 -27 -224.5t-79 -192t-128 -156.5t-174 -116t-218 -72t-259 -25q-43 0 -86.5 2.5t-87.5 7t-88.5 11t-89 15.5t-88.5 20t-87 24zM808 3086l-108 158
l598 395l139 -205z" />
    <glyph glyph-name="sacute" unicode="&#x15b;" horiz-adv-x="1575" 
d="M250 258q57 -22 117.5 -39.5t122 -30t121 -19t114.5 -6.5q101 0 178.5 24t130.5 68t80 106.5t27 139.5q0 75 -25.5 134t-68.5 107t-101 87.5t-122.5 76t-133.5 72.5t-133.5 77t-122.5 89.5t-101 109.5t-68.5 137.5t-25.5 174.5q0 82 21 154t61 133t97 109t130 82
t160 51.5t187 17.5q40 0 86.5 -3.5t95.5 -10.5t99 -18.5t100 -26.5l-37 -205q-46 15 -94 27t-95 20t-91.5 12t-84.5 4q-96 0 -168 -25t-120 -69.5t-72.5 -104.5t-24.5 -130q0 -75 25.5 -133.5t69 -106t101 -86.5t122.5 -74.5t133.5 -71.5t133.5 -76.5t123 -89t101.5 -110.5
t68.5 -140t25 -177q0 -128 -48.5 -231.5t-139 -176.5t-218 -112t-284.5 -39q-63 0 -126.5 6t-126 17t-123 27.5t-116.5 37.5zM664 2527l399 543l203 -148l-455 -510z" />
    <glyph glyph-name="Scircumflex" unicode="&#x15c;" horiz-adv-x="1792" 
d="M245 262q66 -22 131 -38.5t131.5 -28t135 -17.5t139.5 -6q138 0 243 40.5t177 113.5t108.5 175t36.5 224q0 83 -18.5 151t-52.5 125.5t-83 107.5t-110.5 96.5t-134 92t-154.5 94.5q-91 55 -169 108.5t-141 110t-111.5 117.5t-81.5 130.5t-49.5 148.5t-16.5 172
q0 104 25.5 198.5t74 174.5t118 144.5t158 109.5t195 69.5t228.5 24.5q50 0 106.5 -4.5t113 -13t109.5 -20t95 -26.5l-48 -207q-46 15 -96 26.5t-101.5 19.5t-103.5 12t-102 4q-131 0 -227.5 -40.5t-160 -108t-95 -156t-31.5 -185.5q0 -81 18.5 -148.5t52 -124.5t82 -107
t108.5 -95.5t130 -90t148 -91.5q97 -58 179 -115t147.5 -115.5t115 -120.5t82.5 -131.5t49.5 -147.5t16.5 -169q0 -120 -27 -224.5t-79 -192t-128 -156.5t-174 -116t-218 -72t-259 -25q-43 0 -86.5 2.5t-87.5 7t-88.5 11t-89 15.5t-88.5 20t-87 24zM919 3369l-377 -281
l-106 144l489 391l492 -383l-115 -152z" />
    <glyph glyph-name="scircumflex" unicode="&#x15d;" horiz-adv-x="1575" 
d="M250 258q57 -22 117.5 -39.5t122 -30t121 -19t114.5 -6.5q101 0 178.5 24t130.5 68t80 106.5t27 139.5q0 75 -25.5 134t-68.5 107t-101 87.5t-122.5 76t-133.5 72.5t-133.5 77t-122.5 89.5t-101 109.5t-68.5 137.5t-25.5 174.5q0 82 21 154t61 133t97 109t130 82
t160 51.5t187 17.5q40 0 86.5 -3.5t95.5 -10.5t99 -18.5t100 -26.5l-37 -205q-46 15 -94 27t-95 20t-91.5 12t-84.5 4q-96 0 -168 -25t-120 -69.5t-72.5 -104.5t-24.5 -130q0 -75 25.5 -133.5t69 -106t101 -86.5t122.5 -74.5t133.5 -71.5t133.5 -76.5t123 -89t101.5 -110.5
t68.5 -140t25 -177q0 -128 -48.5 -231.5t-139 -176.5t-218 -112t-284.5 -39q-63 0 -126.5 6t-126 17t-123 27.5t-116.5 37.5zM792 2785l-364 -368l-117 128l489 539l492 -534l-127 -133z" />
    <glyph glyph-name="Scedilla" unicode="&#x15e;" horiz-adv-x="1792" 
d="M764 -41h-37q-64 0 -130 5.5t-132.5 15.5t-133 25t-131.5 34l45 223q66 -22 131 -38.5t131.5 -28t135 -17.5t139.5 -6q138 0 243 40.5t177 113.5t108.5 175t36.5 224q0 83 -18.5 151t-52.5 125.5t-83 107.5t-110.5 96.5t-134 92t-154.5 94.5q-91 55 -169 108.5t-141 110
t-111.5 117.5t-81.5 130.5t-49.5 148.5t-16.5 172q0 104 25.5 198.5t74 174.5t118 144.5t158 109.5t195 69.5t228.5 24.5q50 0 106.5 -4.5t113 -13t109.5 -20t95 -26.5l-48 -207q-46 15 -96 26.5t-101.5 19.5t-103.5 12t-102 4q-131 0 -227.5 -40.5t-160 -108t-95 -156
t-31.5 -185.5q0 -81 18.5 -148.5t52 -124.5t82 -107t108.5 -95.5t130 -90t148 -91.5q97 -58 179 -115t147.5 -115.5t115 -120.5t82.5 -131.5t49.5 -147.5t16.5 -169q0 -94 -17.5 -181.5t-52.5 -165.5t-87.5 -144.5t-123.5 -120.5t-160 -92.5t-196 -58.5l79 -203
q15 -38 26 -67.5t18 -54.5t10.5 -46.5t3.5 -44.5q0 -39 -21 -76t-68 -66t-122.5 -47t-183.5 -18q-49 0 -94 3t-86 9.5t-78.5 15t-71.5 19.5v154h375q33 0 55.5 2.5t36.5 9.5t20.5 18t6.5 27q0 19 -6 42.5t-17 53.5z" />
    <glyph glyph-name="Scedilla" unicode="&#xf6c1;" horiz-adv-x="1792" 
d="M764 -41h-37q-64 0 -130 5.5t-132.5 15.5t-133 25t-131.5 34l45 223q66 -22 131 -38.5t131.5 -28t135 -17.5t139.5 -6q138 0 243 40.5t177 113.5t108.5 175t36.5 224q0 83 -18.5 151t-52.5 125.5t-83 107.5t-110.5 96.5t-134 92t-154.5 94.5q-91 55 -169 108.5t-141 110
t-111.5 117.5t-81.5 130.5t-49.5 148.5t-16.5 172q0 104 25.5 198.5t74 174.5t118 144.5t158 109.5t195 69.5t228.5 24.5q50 0 106.5 -4.5t113 -13t109.5 -20t95 -26.5l-48 -207q-46 15 -96 26.5t-101.5 19.5t-103.5 12t-102 4q-131 0 -227.5 -40.5t-160 -108t-95 -156
t-31.5 -185.5q0 -81 18.5 -148.5t52 -124.5t82 -107t108.5 -95.5t130 -90t148 -91.5q97 -58 179 -115t147.5 -115.5t115 -120.5t82.5 -131.5t49.5 -147.5t16.5 -169q0 -94 -17.5 -181.5t-52.5 -165.5t-87.5 -144.5t-123.5 -120.5t-160 -92.5t-196 -58.5l79 -203
q15 -38 26 -67.5t18 -54.5t10.5 -46.5t3.5 -44.5q0 -39 -21 -76t-68 -66t-122.5 -47t-183.5 -18q-49 0 -94 3t-86 9.5t-78.5 15t-71.5 19.5v154h375q33 0 55.5 2.5t36.5 9.5t20.5 18t6.5 27q0 19 -6 42.5t-17 53.5z" />
    <glyph glyph-name="scedilla" unicode="&#x15f;" horiz-adv-x="1575" 
d="M250 258q57 -22 117.5 -39.5t122 -30t121 -19t114.5 -6.5q101 0 178.5 24t130.5 68t80 106.5t27 139.5q0 75 -25.5 134t-68.5 107t-101 87.5t-122.5 76t-133.5 72.5t-133.5 77t-122.5 89.5t-101 109.5t-68.5 137.5t-25.5 174.5q0 82 21 154t61 133t97 109t130 82
t160 51.5t187 17.5q40 0 86.5 -3.5t95.5 -10.5t99 -18.5t100 -26.5l-37 -205q-46 15 -94 27t-95 20t-91.5 12t-84.5 4q-96 0 -168 -25t-120 -69.5t-72.5 -104.5t-24.5 -130q0 -75 25.5 -133.5t69 -106t101 -86.5t122.5 -74.5t133.5 -71.5t133.5 -76.5t123 -89t101.5 -110.5
t68.5 -140t25 -177q0 -115 -38.5 -208.5t-108 -163.5t-166 -114t-211.5 -61l86 -198q17 -39 28 -68.5t17.5 -53.5t9.5 -44t3 -39q0 -36 -18.5 -74t-63 -69t-119 -50.5t-186.5 -19.5q-44 0 -89.5 3t-88.5 8.5t-82.5 13.5t-71.5 18v157h368q31 0 53.5 3t37 9.5t21.5 17.5t7 28
q0 9 -1 19.5t-4 23t-7.5 26t-10.5 29.5l-98 248q-60 2 -120 9.5t-116.5 19t-110 26.5t-102.5 33z" />
    <glyph glyph-name="scedilla" unicode="&#xf6c2;" horiz-adv-x="1575" 
d="M250 258q57 -22 117.5 -39.5t122 -30t121 -19t114.5 -6.5q101 0 178.5 24t130.5 68t80 106.5t27 139.5q0 75 -25.5 134t-68.5 107t-101 87.5t-122.5 76t-133.5 72.5t-133.5 77t-122.5 89.5t-101 109.5t-68.5 137.5t-25.5 174.5q0 82 21 154t61 133t97 109t130 82
t160 51.5t187 17.5q40 0 86.5 -3.5t95.5 -10.5t99 -18.5t100 -26.5l-37 -205q-46 15 -94 27t-95 20t-91.5 12t-84.5 4q-96 0 -168 -25t-120 -69.5t-72.5 -104.5t-24.5 -130q0 -75 25.5 -133.5t69 -106t101 -86.5t122.5 -74.5t133.5 -71.5t133.5 -76.5t123 -89t101.5 -110.5
t68.5 -140t25 -177q0 -115 -38.5 -208.5t-108 -163.5t-166 -114t-211.5 -61l86 -198q17 -39 28 -68.5t17.5 -53.5t9.5 -44t3 -39q0 -36 -18.5 -74t-63 -69t-119 -50.5t-186.5 -19.5q-44 0 -89.5 3t-88.5 8.5t-82.5 13.5t-71.5 18v157h368q31 0 53.5 3t37 9.5t21.5 17.5t7 28
q0 9 -1 19.5t-4 23t-7.5 26t-10.5 29.5l-98 248q-60 2 -120 9.5t-116.5 19t-110 26.5t-102.5 33z" />
    <glyph glyph-name="Scaron" unicode="&#x160;" horiz-adv-x="1792" 
d="M245 262q66 -22 131 -38.5t131.5 -28t135 -17.5t139.5 -6q138 0 243 40.5t177 113.5t108.5 175t36.5 224q0 83 -18.5 151t-52.5 125.5t-83 107.5t-110.5 96.5t-134 92t-154.5 94.5q-91 55 -169 108.5t-141 110t-111.5 117.5t-81.5 130.5t-49.5 148.5t-16.5 172
q0 104 25.5 198.5t74 174.5t118 144.5t158 109.5t195 69.5t228.5 24.5q50 0 106.5 -4.5t113 -13t109.5 -20t95 -26.5l-48 -207q-46 15 -96 26.5t-101.5 19.5t-103.5 12t-102 4q-131 0 -227.5 -40.5t-160 -108t-95 -156t-31.5 -185.5q0 -81 18.5 -148.5t52 -124.5t82 -107
t108.5 -95.5t130 -90t148 -91.5q97 -58 179 -115t147.5 -115.5t115 -120.5t82.5 -131.5t49.5 -147.5t16.5 -169q0 -120 -27 -224.5t-79 -192t-128 -156.5t-174 -116t-218 -72t-259 -25q-43 0 -86.5 2.5t-87.5 7t-88.5 11t-89 15.5t-88.5 20t-87 24zM905 3076l-491 383
l114 151l383 -280l377 280l107 -143z" />
    <glyph glyph-name="scaron" unicode="&#x161;" horiz-adv-x="1575" 
d="M250 258q57 -22 117.5 -39.5t122 -30t121 -19t114.5 -6.5q101 0 178.5 24t130.5 68t80 106.5t27 139.5q0 75 -25.5 134t-68.5 107t-101 87.5t-122.5 76t-133.5 72.5t-133.5 77t-122.5 89.5t-101 109.5t-68.5 137.5t-25.5 174.5q0 82 21 154t61 133t97 109t130 82
t160 51.5t187 17.5q40 0 86.5 -3.5t95.5 -10.5t99 -18.5t100 -26.5l-37 -205q-46 15 -94 27t-95 20t-91.5 12t-84.5 4q-96 0 -168 -25t-120 -69.5t-72.5 -104.5t-24.5 -130q0 -75 25.5 -133.5t69 -106t101 -86.5t122.5 -74.5t133.5 -71.5t133.5 -76.5t123 -89t101.5 -110.5
t68.5 -140t25 -177q0 -128 -48.5 -231.5t-139 -176.5t-218 -112t-284.5 -39q-63 0 -126.5 6t-126 17t-123 27.5t-116.5 37.5zM309 2957l127 135l374 -370l365 370l119 -129l-494 -544z" />
    <glyph glyph-name="uni0162" unicode="&#x162;" horiz-adv-x="1951" 
d="M854 0v2652h-807v207h1857v-207h-806v-2652h-244zM344 -707q103 0 171.5 13t112 35t68 51t40.5 61.5t28.5 66t31.5 64.5q12 21 26 37t31 26.5t36.5 16.5t41.5 6q33 0 61 -11.5t49.5 -32t33.5 -48.5t12 -62q0 -56 -25.5 -105.5t-71.5 -91.5t-109 -74.5t-137 -55.5
t-157 -35t-167 -12h-17.5h-19h-20h-19.5v151z" />
    <glyph glyph-name="uni0163" unicode="&#x163;" horiz-adv-x="1286" 
d="M1130 4q-26 -6 -56.5 -10.5t-62.5 -8t-66 -6t-69 -2.5q-71 0 -133 10t-114.5 33.5t-94 61.5t-70 95t-44 134t-15.5 178v1395h-309v189h305l56 606h184v-606h489v-189h-489v-1370q0 -78 9.5 -133.5t28 -92.5t45.5 -59t62 -33t78.5 -14.5t93.5 -3.5h172v-174zM164 -707
q103 0 171.5 13t112 35t68 51t40.5 61.5t28.5 66t31.5 64.5q12 21 26 37t31 26.5t36.5 16.5t41.5 6q33 0 61 -11.5t49.5 -32t33.5 -48.5t12 -62q0 -56 -25.5 -105.5t-71.5 -91.5t-109 -74.5t-137 -55.5t-157 -35t-167 -12h-17.5h-19h-20h-19.5v151z" />
    <glyph glyph-name="Tcaron" unicode="&#x164;" horiz-adv-x="1951" 
d="M854 0v2652h-807v207h1857v-207h-806v-2652h-244zM974 3076l-491 383l114 151l383 -280l377 280l107 -143z" />
    <glyph glyph-name="tcaron" unicode="&#x165;" horiz-adv-x="1286" 
d="M1130 4q-26 -6 -56.5 -10.5t-62.5 -8t-66 -6t-69 -2.5q-71 0 -133 10t-114.5 33.5t-94 61.5t-70 95t-44 134t-15.5 178v1395h-309v189h305l56 606h184v-606h489v-189h-489v-1370q0 -78 9.5 -133.5t28 -92.5t45.5 -59t62 -33t78.5 -14.5t93.5 -3.5h172v-174zM892 2355
l201 758l250 -57l-254 -738z" />
    <glyph glyph-name="Tbar" unicode="&#x166;" horiz-adv-x="1951" 
d="M854 0v1392h-467v203h467v1057h-807v207h1857v-207h-806v-1057h466v-203h-466v-1392h-244z" />
    <glyph glyph-name="tbar" unicode="&#x167;" horiz-adv-x="1286" 
d="M1130 4q-26 -6 -56.5 -10.5t-62.5 -8t-66 -6t-69 -2.5q-71 0 -133 10t-114.5 33.5t-94 61.5t-70 95t-44 134t-15.5 178v553h-274v183h274v659h-309v189h305l56 606h184v-606h489v-189h-489v-659h450v-183h-450v-528q0 -78 9.5 -133.5t28 -92.5t45.5 -59t62 -33
t78.5 -14.5t93.5 -3.5h172v-174z" />
    <glyph glyph-name="Utilde" unicode="&#x168;" horiz-adv-x="2580" 
d="M1980 2859h232v-1811q0 -271 -66 -475t-187.5 -340t-293.5 -204t-383 -68q-204 0 -372 65.5t-288.5 196t-186.5 325t-66 451.5v1860h241v-1835q0 -143 21.5 -262t62.5 -214.5t100 -167t135 -119.5t168 -72t197 -24q158 0 285.5 53.5t216 161t136.5 269t48 377.5v1833z
M1910 3436q-30 -63 -72.5 -115t-94.5 -89t-110 -56.5t-118 -19.5q-58 0 -105 12t-82 30.5t-81.5 50.5t-68 45.5t-55 25.5t-73.5 12q-34 0 -67.5 -14t-65 -40.5t-58 -63t-47.5 -81.5l-143 117q31 64 74 115.5t94.5 88.5t109.5 56.5t119 19.5q57 0 103.5 -12t81 -30.5
t81.5 -50.5t68.5 -45.5t54.5 -25.5t72 -12q35 0 69 14t65 40t58 62.5t48 80.5z" />
    <glyph glyph-name="utilde" unicode="&#x169;" horiz-adv-x="2177" 
d="M1656 0l-36 334q-79 -96 -155 -167t-156 -117t-166.5 -68.5t-188.5 -22.5q-120 0 -214 30t-164 84.5t-118.5 129t-78 162.5t-43 186t-13.5 200v1322h236v-1279q0 -91 9 -173.5t29.5 -153t52.5 -127.5t78.5 -97t108.5 -62t142 -22q93 0 170.5 25.5t150.5 77t148 130
t161 185.5v1496h236v-2073h-189zM1693 2838q-30 -63 -71 -115t-91 -89t-106 -56.5t-115 -19.5q-57 0 -103 12t-80.5 30.5t-80.5 50.5t-67 45.5t-53.5 25.5t-71.5 12q-34 0 -68 -14t-65 -40.5t-58 -63.5t-47 -81l-131 117q30 64 71.5 115.5t91 88.5t105.5 56.5t115 19.5
q56 0 102 -12t80.5 -30.5t80.5 -50.5t66.5 -45.5t53.5 -25.5t71 -12q35 0 69 14t65 40.5t58 62.5t48 80z" />
    <glyph glyph-name="Umacron" unicode="&#x16a;" horiz-adv-x="2580" 
d="M1980 2859h232v-1811q0 -271 -66 -475t-187.5 -340t-293.5 -204t-383 -68q-204 0 -372 65.5t-288.5 196t-186.5 325t-66 451.5v1860h241v-1835q0 -143 21.5 -262t62.5 -214.5t100 -167t135 -119.5t168 -72t197 -24q158 0 285.5 53.5t216 161t136.5 269t48 377.5v1833z
M737 3215v188h1106v-188h-1106z" />
    <glyph glyph-name="umacron" unicode="&#x16b;" horiz-adv-x="2177" 
d="M1656 0l-36 334q-79 -96 -155 -167t-156 -117t-166.5 -68.5t-188.5 -22.5q-120 0 -214 30t-164 84.5t-118.5 129t-78 162.5t-43 186t-13.5 200v1322h236v-1279q0 -91 9 -173.5t29.5 -153t52.5 -127.5t78.5 -97t108.5 -62t142 -22q93 0 170.5 25.5t150.5 77t148 130
t161 185.5v1496h236v-2073h-189zM590 2642v184h995v-184h-995z" />
    <glyph glyph-name="Ubreve" unicode="&#x16c;" horiz-adv-x="2580" 
d="M1980 2859h232v-1811q0 -271 -66 -475t-187.5 -340t-293.5 -204t-383 -68q-204 0 -372 65.5t-288.5 196t-186.5 325t-66 451.5v1860h241v-1835q0 -143 21.5 -262t62.5 -214.5t100 -167t135 -119.5t168 -72t197 -24q158 0 285.5 53.5t216 161t136.5 269t48 377.5v1833z
M1789 3614q0 -67 -11 -132.5t-36 -124t-64.5 -108t-95 -85.5t-129.5 -56t-168 -20q-95 0 -169 21t-129 58.5t-93 88.5t-61 109.5t-33 121.5t-10 127h182q0 -76 23 -138.5t65 -107.5t101 -69.5t132 -24.5q66 0 123.5 19.5t100 60.5t66.5 105.5t24 154.5h182z" />
    <glyph glyph-name="ubreve" unicode="&#x16d;" horiz-adv-x="2177" 
d="M1656 0l-36 334q-79 -96 -155 -167t-156 -117t-166.5 -68.5t-188.5 -22.5q-120 0 -214 30t-164 84.5t-118.5 129t-78 162.5t-43 186t-13.5 200v1322h236v-1279q0 -91 9 -173.5t29.5 -153t52.5 -127.5t78.5 -97t108.5 -62t142 -22q93 0 170.5 25.5t150.5 77t148 130
t161 185.5v1496h236v-2073h-189zM1564 3012q0 -65 -8.5 -129t-28 -126.5t-54.5 -117t-88.5 -96.5t-128.5 -66t-171 -24q-98 0 -173.5 24.5t-127.5 68t-85.5 99t-52 117.5t-25.5 124.5t-7 125.5h170q0 -75 19.5 -142.5t58.5 -119.5t97.5 -82t133.5 -30q70 0 126 24.5t95.5 72
t59.5 118t20 159.5h170z" />
    <glyph glyph-name="Uring" unicode="&#x16e;" horiz-adv-x="2580" 
d="M1980 2859h232v-1811q0 -271 -66 -475t-187.5 -340t-293.5 -204t-383 -68q-204 0 -372 65.5t-288.5 196t-186.5 325t-66 451.5v1860h241v-1835q0 -143 21.5 -262t62.5 -214.5t100 -167t135 -119.5t168 -72t197 -24q158 0 285.5 53.5t216 161t136.5 269t48 377.5v1833z
M1281 3021q-95 0 -168 30t-120.5 84.5t-71 127.5t-23.5 159q0 88 27 163.5t78.5 131t126.5 86t167 30.5q87 0 158 -28t121 -80t76 -125t26 -162q0 -87 -28 -163t-80.5 -133.5t-126 -89t-162.5 -31.5zM1293 3174q48 0 86 19t64.5 53.5t40.5 80t14 97.5t-12.5 98t-38.5 81.5
t-66.5 56t-93.5 20.5q-47 0 -85.5 -18t-65.5 -51.5t-41.5 -79t-14.5 -99.5q0 -56 12.5 -102.5t38 -81.5t66 -54.5t96.5 -19.5z" />
    <glyph glyph-name="uring" unicode="&#x16f;" horiz-adv-x="2177" 
d="M1656 0l-36 334q-79 -96 -155 -167t-156 -117t-166.5 -68.5t-188.5 -22.5q-120 0 -214 30t-164 84.5t-118.5 129t-78 162.5t-43 186t-13.5 200v1322h236v-1279q0 -91 9 -173.5t29.5 -153t52.5 -127.5t78.5 -97t108.5 -62t142 -22q93 0 170.5 25.5t150.5 77t148 130
t161 185.5v1496h236v-2073h-189zM1077 2361q-95 0 -167 31t-119 86t-70 129t-23 160q0 88 26.5 164t77.5 132.5t125 87.5t166 31q87 0 157 -28.5t119 -81.5t75 -126.5t26 -162.5q0 -88 -27.5 -164.5t-79.5 -134.5t-125 -90.5t-161 -32.5zM1089 2515q47 0 84.5 19.5
t63.5 54.5t39.5 80.5t13.5 97.5q0 53 -12 100t-37 83.5t-65 57.5t-93 21q-46 0 -84 -18.5t-64.5 -52t-40.5 -78.5t-14 -97q0 -59 11.5 -107.5t36 -84.5t65 -56t96.5 -20z" />
    <glyph glyph-name="Uhungarumlaut" unicode="&#x170;" horiz-adv-x="2580" 
d="M1980 2859h232v-1811q0 -271 -66 -475t-187.5 -340t-293.5 -204t-383 -68q-204 0 -372 65.5t-288.5 196t-186.5 325t-66 451.5v1860h241v-1835q0 -143 21.5 -262t62.5 -214.5t100 -167t135 -119.5t168 -72t197 -24q158 0 285.5 53.5t216 161t136.5 269t48 377.5v1833z
M1656 3068l-141 124l500 554l180 -172zM888 3068l-143 126l469 552l182 -170z" />
    <glyph glyph-name="uhungarumlaut" unicode="&#x171;" horiz-adv-x="2177" 
d="M1656 0l-36 334q-79 -96 -155 -167t-156 -117t-166.5 -68.5t-188.5 -22.5q-120 0 -214 30t-164 84.5t-118.5 129t-78 162.5t-43 186t-13.5 200v1322h236v-1279q0 -91 9 -173.5t29.5 -153t52.5 -127.5t78.5 -97t108.5 -62t142 -22q93 0 170.5 25.5t150.5 77t148 130
t161 185.5v1496h236v-2073h-189zM1249 2537l402 533l202 -152l-455 -506zM555 2535l389 535l204 -152l-446 -504z" />
    <glyph glyph-name="Uogonek" unicode="&#x172;" horiz-adv-x="2580" 
d="M1835 -775q-28 -10 -61.5 -19t-70.5 -16t-76.5 -11.5t-78.5 -4.5q-112 0 -189.5 24.5t-125.5 68t-69 104t-21 131.5q0 61 18 123t52 122t83 116.5t111 107.5q-14 -2 -30 -4t-32.5 -3.5t-32.5 -2t-30 -0.5q-204 0 -372 65.5t-288.5 195.5t-186.5 323.5t-66 449.5v1864h241
v-1835q0 -143 21.5 -262t62.5 -214.5t100 -167t135 -119.5t168 -72t197 -24q158 0 285.5 53.5t216 161t136.5 269t48 377.5v1833h232v-1815q0 -125 -15.5 -243.5t-49.5 -225t-87.5 -200.5t-128.5 -169q-38 -38 -81 -71t-88 -65t-89.5 -66t-85.5 -74q-61 -60 -101.5 -113
t-63.5 -100t-32.5 -88.5t-9.5 -77.5q0 -48 10.5 -84.5t35 -60.5t64 -35.5t99.5 -11.5q48 0 103.5 9.5t109.5 31.5z" />
    <glyph glyph-name="uogonek" unicode="&#x173;" horiz-adv-x="2177" 
d="M2015 -773q-28 -10 -60 -19t-67.5 -16t-73 -11.5t-75.5 -4.5q-106 0 -178.5 24.5t-117 67.5t-64 103t-19.5 131q0 61 19.5 125t55.5 128t88.5 126t118.5 119l-22 334q-79 -96 -155 -167t-156 -117t-166.5 -68.5t-188.5 -22.5q-120 0 -214 30t-164 84.5t-118.5 129
t-78 162.5t-43 186t-13.5 200v1322h236v-1279q0 -91 9 -173.5t29.5 -153t52.5 -127.5t78.5 -97t108.5 -62t142 -22q93 0 170.5 25.5t150.5 77t148 130t161 185.5v1496h236v-2073q-68 -64 -116.5 -126t-80 -119.5t-46.5 -109.5t-15 -94q0 -48 10.5 -84.5t33 -61t59 -36.5
t90.5 -12q23 0 47.5 2.5t50.5 7.5t52 12.5t52 18.5z" />
    <glyph glyph-name="Wcircumflex" unicode="&#x174;" horiz-adv-x="3696" 
d="M2459 0l-538 2200l-80 389h-8l-76 -387l-524 -2202h-287q-121 357 -231.5 714t-211.5 714.5t-193 715t-175 715.5h268q40 -192 84 -383.5t91 -382.5t96.5 -381t101.5 -378.5t106 -375t109 -369.5q11 -37 23 -81.5t24 -89.5t23.5 -88.5t19.5 -77.5h6l93 436l509 2171h314
l534 -2169l92 -438h7q9 37 20.5 82t23.5 91t23.5 91t22.5 82q52 181 104.5 365.5t103.5 371.5t99.5 376t95 379.5t90 382.5t82.5 386h260q-84 -360 -176.5 -718t-194 -715.5t-211.5 -714t-229 -711.5h-291zM1847 3369l-377 -281l-106 144l489 391l492 -383l-115 -152z" />
    <glyph glyph-name="wcircumflex" unicode="&#x175;" horiz-adv-x="2928" 
d="M1926 0l-416 1513l-72 303h-6l-72 -303l-397 -1513h-270q-91 263 -172 524t-153.5 519.5t-137.5 515.5t-123 514h248q38 -186 81.5 -372.5t90.5 -371.5t97 -368.5t101 -362.5q25 -88 51.5 -186.5t51.5 -192.5h6l92 374l397 1480h256l406 -1484l92 -370h6q25 93 49 190
t49 186q52 179 102 363t97 370t89.5 373t78.5 372h233q-61 -258 -129.5 -517.5t-143.5 -519t-157 -519t-172 -517.5h-253zM1466 2785l-364 -368l-117 128l489 539l492 -534l-127 -133z" />
    <glyph glyph-name="Ycircumflex" unicode="&#x176;" horiz-adv-x="2109" 
d="M936 0v1247q-131 195 -251.5 395t-233 402t-217 406t-202.5 409h275q53 -119 110.5 -239.5t119 -242t126 -242.5t132 -239.5t137.5 -233t143 -222.5q66 108 133 225t133 237.5t129.5 243.5t123 244.5t113.5 239t101 229.5h268q-62 -130 -126.5 -261t-133.5 -263.5
t-143 -267t-153 -270.5t-164.5 -273.5t-178.5 -276.5v-1247h-241zM1048 3369l-377 -281l-106 144l489 391l492 -383l-115 -152z" />
    <glyph glyph-name="ycircumflex" unicode="&#x177;" horiz-adv-x="1798" 
d="M122 -693h191q35 0 70 13t71.5 43.5t75.5 81.5t83.5 128.5t95.5 182.5t110 244q-57 147 -118 307t-124 329.5t-125.5 346.5t-122 358.5t-114 365t-101.5 366.5h254q53 -201 109 -392t115.5 -375.5t121 -363.5t125.5 -358q13 -37 26.5 -77.5t25.5 -81l24 -81t23 -78.5h6
q12 38 25 78t26 80.5t26 80t25 77.5q59 176 115.5 359t108.5 370.5t99 378.5t89 383h237q-88 -350 -173 -652.5t-167.5 -560.5t-161 -472t-153.5 -388q-76 -177 -140 -312.5t-122 -235.5t-111.5 -167.5t-107.5 -109t-111.5 -59t-121.5 -17.5q-30 0 -57.5 2.5t-54 7
t-51.5 10.5t-51 13zM905 2785l-364 -368l-117 128l489 539l492 -534l-127 -133z" />
    <glyph glyph-name="Ydieresis" unicode="&#x178;" horiz-adv-x="2109" 
d="M936 0v1247q-131 195 -251.5 395t-233 402t-217 406t-202.5 409h275q53 -119 110.5 -239.5t119 -242t126 -242.5t132 -239.5t137.5 -233t143 -222.5q66 108 133 225t133 237.5t129.5 243.5t123 244.5t113.5 239t101 229.5h268q-62 -130 -126.5 -261t-133.5 -263.5
t-143 -267t-153 -270.5t-164.5 -273.5t-178.5 -276.5v-1247h-241zM1447 3127q-33 0 -62.5 13.5t-52 36t-36 53t-13.5 65.5t13.5 66t36 54t52 36.5t62.5 13.5q34 0 64 -13.5t52 -36.5t35 -54t13 -66t-13 -65.5t-35 -53t-52 -36t-64 -13.5zM663 3127q-33 0 -63 13.5t-52.5 36
t-35.5 53t-13 65.5t13 66t35.5 54t52.5 36.5t63 13.5t63 -13.5t52.5 -36.5t35 -54t12.5 -66t-12.5 -65.5t-35 -53t-52.5 -36t-63 -13.5z" />
    <glyph glyph-name="Zacute" unicode="&#x179;" horiz-adv-x="1888" 
d="M125 0v208l1362 2444h-1322v207h1577v-207l-1359 -2444h1378v-208h-1636zM880 3086l-108 158l598 395l139 -205z" />
    <glyph glyph-name="zacute" unicode="&#x17a;" horiz-adv-x="1706" 
d="M190 0v204l1037 1665h-977v204h1228v-204l-1038 -1667h1104v-202h-1354zM719 2527l399 543l203 -148l-455 -510z" />
    <glyph glyph-name="Zdotaccent" unicode="&#x17b;" horiz-adv-x="1888" 
d="M125 0v208l1362 2444h-1322v207h1577v-207l-1359 -2444h1378v-208h-1636zM1132 3285q0 -40 -14.5 -75t-40.5 -60.5t-60.5 -40.5t-74.5 -15t-75 15t-60.5 40.5t-40.5 60.5t-15 75t15 74.5t40.5 60.5t60.5 40.5t75 14.5t74.5 -14.5t60.5 -40.5t40.5 -60.5t14.5 -74.5z" />
    <glyph glyph-name="zdotaccent" unicode="&#x17c;" horiz-adv-x="1706" 
d="M190 0v204l1037 1665h-977v204h1228v-204l-1038 -1667h1104v-202h-1354zM853 2564q-39 0 -73 14.5t-59 40t-39.5 60.5t-14.5 76q0 40 14.5 75t39.5 60.5t59 40t73 14.5q40 0 74 -14.5t59 -40t39.5 -60.5t14.5 -75q0 -41 -14.5 -76t-39.5 -60.5t-59 -40t-74 -14.5z" />
    <glyph glyph-name="Zcaron" unicode="&#x17d;" horiz-adv-x="1888" 
d="M125 0v208l1362 2444h-1322v207h1577v-207l-1359 -2444h1378v-208h-1636zM970 3076l-491 383l114 151l383 -280l377 280l107 -143z" />
    <glyph glyph-name="zcaron" unicode="&#x17e;" horiz-adv-x="1706" 
d="M190 0v204l1037 1665h-977v204h1228v-204l-1038 -1667h1104v-202h-1354zM374 2957l127 135l374 -370l365 370l119 -129l-494 -544z" />
    <glyph glyph-name="longs" unicode="&#x17f;" horiz-adv-x="913" 
d="M332 0v2302q0 122 10 229t35 196.5t67.5 160t108 120t155 75.5t209.5 26q35 0 63 -1t53.5 -3t49 -6.5t47.5 -10.5v-180h-184q-92 0 -156 -22t-106 -61.5t-65.5 -95t-35 -122t-14 -142t-2.5 -155.5v-2310h-235z" />
    <glyph glyph-name="florin" unicode="&#x192;" 
d="M75 -316h191q97 0 169 22t124 62.5t86 96.5t55.5 124t33.5 145.5t19 160.5l99 1085h-526v189h542l45 466q11 108 28 214.5t48 203t81 179t127.5 143t187 95t259.5 34.5q23 0 47.5 -1.5t50 -4t51.5 -6t52 -6.5l-16 -183h-191q-97 0 -169 -22.5t-123.5 -64.5t-85 -99
t-55 -126t-33.5 -147t-19 -161l-49 -514h600v-189h-615l-90 -991q-10 -117 -26.5 -229.5t-49 -213.5t-84.5 -186t-134 -147t-197.5 -96.5t-274.5 -34.5q-19 0 -39 1t-41.5 3t-44 5t-47.5 7z" />
    <glyph glyph-name="Gcaron" unicode="&#x1e6;" horiz-adv-x="2496" 
d="M1919 1462h242v-1351q-85 -35 -175.5 -62.5t-184 -46t-190 -28t-192.5 -9.5q-199 0 -364.5 47.5t-299 137t-233.5 217.5t-167 287.5t-100.5 347.5t-33.5 399q0 222 37.5 418.5t109 362t176 296.5t239.5 222t299 139.5t354 48.5q102 0 203 -16.5t197.5 -46t186.5 -72
t170 -93.5l-100 -197q-75 50 -157 89t-169 66.5t-176.5 42.5t-177.5 15q-159 0 -289.5 -44t-234 -124.5t-180.5 -194t-128 -252.5t-75.5 -300t-24.5 -336q0 -295 65 -526.5t188 -391.5t299.5 -244.5t398.5 -84.5q122 0 242.5 19t244.5 57v1208zM1351 3076l-491 383l114 151
l383 -280l377 280l107 -143z" />
    <glyph glyph-name="gcaron" unicode="&#x1e7;" horiz-adv-x="2148" 
d="M1581 342q-81 -97 -158.5 -166t-158 -112.5t-166.5 -63.5t-185 -20q-128 0 -230 36t-180.5 102t-134.5 158t-92 203t-53 238.5t-17 263.5q0 145 23 284.5t72 263.5t123 228t176 179t233.5 117t292.5 42q83 0 174 -7.5t181.5 -21.5t176 -33.5t158.5 -44.5v-1959
q0 -162 -17.5 -293.5t-58 -234.5t-106 -179t-161.5 -125.5t-224.5 -73.5t-294.5 -24q-47 0 -104.5 2t-122.5 7t-134.5 13t-140.5 21l9 178q58 -3 119 -5.5t122 -4t121.5 -2.5t118.5 -1q117 0 210 14t164 46.5t121 87t82 135.5t47 191.5t15 255.5v305zM1581 1816
q-53 22 -109 39.5t-115.5 29t-122.5 17.5t-130 6q-164 0 -285 -63.5t-200.5 -182.5t-118.5 -290t-39 -385q0 -95 9 -192t30 -187t57 -168.5t90 -137t128 -92.5t171 -34q82 0 155.5 21t148.5 71t155.5 133.5t175.5 206.5v1208zM608 2957l127 135l374 -370l365 370l119 -129
l-494 -544z" />
    <glyph glyph-name="Aringacute" unicode="&#x1fa;" horiz-adv-x="2386" 
d="M1997 0q-27 100 -55 203t-56.5 207t-57.5 207t-59 204h-1161q-30 -99 -60 -203t-58.5 -208.5t-56.5 -208t-54 -201.5h-261q110 390 225.5 765.5t235.5 733.5t243.5 698.5t250.5 661.5h235q143 -358 273.5 -716t249 -716t227.5 -715t209 -712h-270zM1708 1026
q-47 149 -97 304.5t-102.5 313.5t-107 316.5t-109.5 312.5q-13 39 -27.5 81.5t-28 84.5t-26.5 83.5t-24 78.5h-4q-13 -38 -26.5 -79.5t-28 -84t-28.5 -84t-26 -78.5q-53 -151 -105 -308t-103.5 -315t-101 -315.5t-95.5 -310.5h1040zM1185 2939q-88 0 -153.5 26t-108.5 71.5
t-63.5 107t-20.5 131.5q0 74 25 137.5t72 110t114.5 72.5t150.5 26q53 0 99.5 -10.5t85 -30t68.5 -48t51 -64.5t31.5 -79t10.5 -92q0 -73 -25.5 -138t-73 -114t-114.5 -77.5t-149 -28.5zM1197 3086q42 0 75.5 14.5t57 40t35.5 60.5t12 76t-10.5 77t-33 62.5t-58 41.5
t-84.5 15q-43 0 -77 -13.5t-57.5 -38.5t-35.5 -60t-12 -76q0 -45 10.5 -81.5t33.5 -63t58.5 -40.5t85.5 -14zM1035 3664l-40 149l659 197l49 -203z" />
    <glyph glyph-name="aringacute" unicode="&#x1fb;" horiz-adv-x="1954" 
d="M1442 0l-23 239q-66 -63 -133.5 -115t-141.5 -89.5t-156.5 -57.5t-178.5 -20q-149 0 -263.5 40t-193 116t-119.5 184t-41 245q0 160 63.5 278.5t175 196.5t263.5 116t330 38h370v191q0 138 -24.5 241.5t-80.5 171.5t-147 101.5t-223 33.5q-64 0 -131.5 -7.5t-136.5 -23
t-138 -38t-136 -51.5l-54 196q71 29 148.5 52.5t159.5 40t166.5 25.5t168.5 9q130 0 229.5 -26.5t173 -73.5t123.5 -110.5t81 -137t44 -153.5t13 -160v-1452h-188zM1394 979h-385q-140 0 -244.5 -29t-173.5 -84t-104 -134.5t-35 -178.5q0 -91 24 -164.5t72 -125t120 -80
t167 -28.5q85 0 158 22.5t140.5 61.5t131.5 92.5t129 116.5v531zM962 2324q-88 0 -153 29t-107 79t-62 117t-20 144q0 80 23.5 149.5t69.5 120.5t112.5 80t152.5 29q80 0 143.5 -26.5t107.5 -74t67.5 -114.5t23.5 -148q0 -79 -25 -149.5t-72 -122.5t-113 -82.5t-148 -30.5z
M974 2474q43 0 76 17t55 46.5t33.5 69.5t11.5 86q0 45 -10.5 86.5t-32 73.5t-56.5 50.5t-83 18.5q-43 0 -76 -16t-55.5 -44.5t-34.5 -67.5t-12 -85q0 -51 9.5 -94t31.5 -74.5t57 -49t86 -17.5zM820 3219l-69 152l600 286l86 -208z" />
    <glyph glyph-name="AEacute" unicode="&#x1fc;" horiz-adv-x="3199" 
d="M1571 0v708h-1006q-45 -97 -88 -191t-83.5 -183t-79 -173t-73.5 -161h-251q172 377 349 739.5t360.5 716.5t375.5 703t395 700h1413v-206l-1071 -1v-1057h967v-205h-967v-1182h1118v-208h-1359zM1571 2639h-8q-68 -124 -140.5 -258t-146.5 -275.5t-150 -288.5t-152 -297
t-151 -302.5t-147 -304.5h895v1726zM1879 3086l-108 158l598 395l139 -205z" />
    <glyph glyph-name="aeacute" unicode="&#x1fd;" horiz-adv-x="3172" 
d="M2959 1212v-43.5t-1 -53.5t-1.5 -56t-1.5 -52h-1323q0 -127 13.5 -239.5t44 -206.5t79.5 -168t121.5 -125.5t169 -79t221.5 -27.5q92 0 169.5 8t147.5 21.5t136 32t133 39.5l41 -194q-69 -24 -146.5 -44.5t-162 -34.5t-175.5 -22t-188 -8q-133 0 -244 26.5t-199.5 76
t-153.5 119.5t-105 157q-86 -96 -169.5 -167.5t-170.5 -118.5t-181.5 -70t-201.5 -23q-149 0 -264.5 39.5t-194 116t-119.5 187.5t-41 255q0 160 63.5 280t173.5 201t260 121.5t322 40.5h383v162q0 138 -24.5 241.5t-80.5 171.5t-147 101.5t-223 33.5q-64 0 -131.5 -7.5
t-136.5 -23t-138 -38t-136 -51.5l-54 196q71 29 148.5 52.5t159.5 40t166.5 25.5t168.5 9q126 0 223.5 -25t170.5 -71.5t123 -113.5t80 -150q55 94 126.5 161.5t156 112t181 65.5t203.5 21q127 0 230.5 -31.5t184.5 -90t140 -140.5t98 -182t57.5 -215.5t18.5 -241.5z
M2711 1200q7 168 -24 301t-95.5 225.5t-160.5 141.5t-219 49q-100 0 -181 -29.5t-145 -80.5t-111.5 -120.5t-78.5 -149t-47 -166t-17 -171.5h1079v0zM1394 1007h-385q-140 0 -244.5 -31.5t-173.5 -89.5t-104 -138.5t-35 -178.5q0 -97 25 -173.5t73 -129.5t119 -81t164 -28
q85 0 159 21t141.5 61t131.5 98.5t129 133.5v536zM1511 2527l399 543l203 -148l-455 -510z" />
    <glyph glyph-name="Oslashacute" unicode="&#x1fe;" horiz-adv-x="2802" 
d="M440 -260l228 446q-117 93 -200 220.5t-136.5 282t-79 331t-25.5 366.5q0 224 34 423.5t101 367.5t167.5 302t233.5 227.5t299 143.5t363 50q77 0 150.5 -8.5t142.5 -24.5t133 -40t123 -54l190 385l187 -97l-203 -407q74 -62 134 -140t107 -169t81.5 -193t57 -212.5
t33.5 -228t11 -239.5q0 -225 -33.5 -425t-100.5 -368t-167 -301.5t-233.5 -226.5t-300 -142.5t-365.5 -49.5q-75 0 -145.5 7.5t-137 22t-128.5 35.5t-118 48l-217 -429zM950 276q93 -54 211 -82.5t248 -28.5q165 0 296.5 47t231.5 131.5t171 201.5t115.5 257t65.5 298
t21 325q0 100 -6.5 198t-20.5 191t-36.5 180.5t-53 165t-71 145.5t-90.5 122zM1867 2570q-48 29 -103 52t-116 39t-126.5 24t-133.5 8q-163 0 -293 -46.5t-230 -130t-171 -200.5t-116.5 -257t-67 -299.5t-21.5 -328.5q0 -100 6.5 -199t21.5 -193.5t37.5 -183t55 -168
t75.5 -149t97 -125.5zM1412 3086l-108 158l598 395l139 -205z" />
    <glyph glyph-name="oslashacute" unicode="&#x1ff;" horiz-adv-x="2179" 
d="M362 -299l193 403q-96 68 -164 164t-110.5 213.5t-62.5 253.5t-20 285q0 164 28 309t81 266.5t131 217.5t179 163t223.5 102t264.5 35q50 0 99 -4t96 -12.5t90.5 -20.5t81.5 -28l195 403l164 -70l-201 -419q87 -64 152.5 -153t109.5 -202.5t66 -250.5t22 -295
q0 -162 -29 -306.5t-83.5 -266.5t-134 -219.5t-180.5 -166t-222 -105t-260 -36.5q-52 0 -100 4t-92.5 11.5t-86 19t-80.5 26.5l-186 -391zM809 219q28 -13 60.5 -23.5t69 -17.5t77 -11t83.5 -4q104 0 190.5 29.5t156 83.5t121.5 131t87 171t52.5 203.5t17.5 230.5
q0 93 -6.5 174t-18.5 151t-30 129.5t-40.5 109.5t-49.5 91.5t-57 75.5zM1376 1851q-59 31 -132 46t-157 15q-157 0 -275.5 -62.5t-198 -175.5t-119.5 -269t-40 -342q0 -78 5 -152t15 -143t26.5 -132t39.5 -119.5t53 -105t68 -87.5zM1032 2527l399 543l203 -148l-455 -510z
" />
    <glyph glyph-name="Scommaaccent" unicode="&#x218;" horiz-adv-x="1792" 
d="M245 262q66 -22 131 -38.5t131.5 -28t135 -17.5t139.5 -6q138 0 243 40.5t177 113.5t108.5 175t36.5 224q0 83 -18.5 151t-52.5 125.5t-83 107.5t-110.5 96.5t-134 92t-154.5 94.5q-91 55 -169 108.5t-141 110t-111.5 117.5t-81.5 130.5t-49.5 148.5t-16.5 172
q0 104 25.5 198.5t74 174.5t118 144.5t158 109.5t195 69.5t228.5 24.5q50 0 106.5 -4.5t113 -13t109.5 -20t95 -26.5l-48 -207q-46 15 -96 26.5t-101.5 19.5t-103.5 12t-102 4q-131 0 -227.5 -40.5t-160 -108t-95 -156t-31.5 -185.5q0 -81 18.5 -148.5t52 -124.5t82 -107
t108.5 -95.5t130 -90t148 -91.5q97 -58 179 -115t147.5 -115.5t115 -120.5t82.5 -131.5t49.5 -147.5t16.5 -169q0 -120 -27 -224.5t-79 -192t-128 -156.5t-174 -116t-218 -72t-259 -25q-43 0 -86.5 2.5t-87.5 7t-88.5 11t-89 15.5t-88.5 20t-87 24zM283 -707q103 0 171.5 13
t112 35t68 51t40.5 61.5t28.5 66t31.5 64.5q12 21 26 37t31 26.5t36.5 16.5t41.5 6q33 0 61 -11.5t49.5 -32t33.5 -48.5t12 -62q0 -56 -25.5 -105.5t-71.5 -91.5t-109 -74.5t-137 -55.5t-157 -35t-167 -12h-17.5h-19h-20h-19.5v151z" />
    <glyph glyph-name="scommaaccent" unicode="&#x219;" horiz-adv-x="1575" 
d="M250 258q57 -22 117.5 -39.5t122 -30t121 -19t114.5 -6.5q101 0 178.5 24t130.5 68t80 106.5t27 139.5q0 75 -25.5 134t-68.5 107t-101 87.5t-122.5 76t-133.5 72.5t-133.5 77t-122.5 89.5t-101 109.5t-68.5 137.5t-25.5 174.5q0 82 21 154t61 133t97 109t130 82
t160 51.5t187 17.5q40 0 86.5 -3.5t95.5 -10.5t99 -18.5t100 -26.5l-37 -205q-46 15 -94 27t-95 20t-91.5 12t-84.5 4q-96 0 -168 -25t-120 -69.5t-72.5 -104.5t-24.5 -130q0 -75 25.5 -133.5t69 -106t101 -86.5t122.5 -74.5t133.5 -71.5t133.5 -76.5t123 -89t101.5 -110.5
t68.5 -140t25 -177q0 -128 -48.5 -231.5t-139 -176.5t-218 -112t-284.5 -39q-63 0 -126.5 6t-126 17t-123 27.5t-116.5 37.5zM189 -707q103 0 171.5 13t112 35t68 51t40.5 61.5t28.5 66t31.5 64.5q12 21 26 37t31 26.5t36.5 16.5t41.5 6q33 0 61 -11.5t49.5 -32t33.5 -48.5
t12 -62q0 -56 -25.5 -105.5t-71.5 -91.5t-109 -74.5t-137 -55.5t-157 -35t-167 -12h-17.5h-19h-20h-19.5v151z" />
    <glyph glyph-name="Tcommaaccent" unicode="&#x21a;" horiz-adv-x="1951" 
d="M854 0v2652h-807v207h1857v-207h-806v-2652h-244zM344 -707q103 0 171.5 13t112 35t68 51t40.5 61.5t28.5 66t31.5 64.5q12 21 26 37t31 26.5t36.5 16.5t41.5 6q33 0 61 -11.5t49.5 -32t33.5 -48.5t12 -62q0 -56 -25.5 -105.5t-71.5 -91.5t-109 -74.5t-137 -55.5
t-157 -35t-167 -12h-17.5h-19h-20h-19.5v151z" />
    <glyph glyph-name="tcommaaccent" unicode="&#x21b;" horiz-adv-x="1286" 
d="M1130 4q-26 -6 -56.5 -10.5t-62.5 -8t-66 -6t-69 -2.5q-71 0 -133 10t-114.5 33.5t-94 61.5t-70 95t-44 134t-15.5 178v1395h-309v189h305l56 606h184v-606h489v-189h-489v-1370q0 -78 9.5 -133.5t28 -92.5t45.5 -59t62 -33t78.5 -14.5t93.5 -3.5h172v-174zM164 -707
q103 0 171.5 13t112 35t68 51t40.5 61.5t28.5 66t31.5 64.5q12 21 26 37t31 26.5t36.5 16.5t41.5 6q33 0 61 -11.5t49.5 -32t33.5 -48.5t12 -62q0 -56 -25.5 -105.5t-71.5 -91.5t-109 -74.5t-137 -55.5t-157 -35t-167 -12h-17.5h-19h-20h-19.5v151z" />
    <glyph glyph-name="dotlessj" unicode="&#x237;" horiz-adv-x="942" 
d="M-94 -691h192q72 0 124 30t85.5 94.5t50 166t16.5 244.5v2229h236v-2186q0 -169 -18.5 -292.5t-51 -211t-78.5 -142t-101.5 -85.5t-119.5 -42t-133 -11q-29 0 -58 2t-56 6t-51.5 10t-45.5 13z" />
    <glyph glyph-name="dotlessj" unicode="&#xf6be;" horiz-adv-x="942" 
d="M-94 -691h192q72 0 124 30t85.5 94.5t50 166t16.5 244.5v2229h236v-2186q0 -169 -18.5 -292.5t-51 -211t-78.5 -142t-101.5 -85.5t-119.5 -42t-133 -11q-29 0 -58 2t-56 6t-51.5 10t-45.5 13z" />
    <glyph glyph-name="apostrophe" unicode="&#x2bc;" horiz-adv-x="205" 
d="M0 2316q59 79 96.5 142.5t59.5 113.5t30 88.5t8 67.5q0 21 -4 39t-10 33.5t-12.5 30t-12.5 28.5t-10 29t-4 32q0 36 10.5 68t31.5 56t52 38t74 14q30 0 59 -12.5t51.5 -38t36 -63t13.5 -88.5q0 -55 -18 -123.5t-60 -151t-110 -179.5t-169 -208z" />
    <glyph glyph-name="circumflex" unicode="&#x2c6;" horiz-adv-x="1290" 
d="M481 2785l-364 -368l-117 128l489 539l492 -534l-127 -133z" />
    <glyph glyph-name="caron" unicode="&#x2c7;" horiz-adv-x="1290" 
d="M0 2957l127 135l374 -370l365 370l119 -129l-494 -544z" />
    <glyph glyph-name="breve" unicode="&#x2d8;" horiz-adv-x="999" 
d="M950 3012q0 -65 -8.5 -129t-28 -126.5t-54.5 -117t-88.5 -96.5t-128.5 -66t-171 -24q-98 0 -173.5 24.5t-127.5 68t-85.5 99t-52 117.5t-25.5 124.5t-7 125.5h170q0 -75 19.5 -142.5t58.5 -119.5t97.5 -82t133.5 -30q70 0 126 24.5t95.5 72t59.5 118t20 159.5h170z" />
    <glyph glyph-name="dotaccent" unicode="&#x2d9;" horiz-adv-x="995" 
d="M497 2564q-39 0 -73 14.5t-59 40t-39.5 60.5t-14.5 76q0 40 14.5 75t39.5 60.5t59 40t73 14.5q40 0 74 -14.5t59 -40t39.5 -60.5t14.5 -75q0 -41 -14.5 -76t-39.5 -60.5t-59 -40t-74 -14.5z" />
    <glyph glyph-name="ring" unicode="&#x2da;" horiz-adv-x="921" 
d="M342 2361q-95 0 -167 31t-119 86t-70 129t-23 160q0 88 26.5 164t77.5 132.5t125 87.5t166 31q87 0 157 -28.5t119 -81.5t75 -126.5t26 -162.5q0 -88 -27.5 -164.5t-79.5 -134.5t-125 -90.5t-161 -32.5zM354 2515q47 0 84.5 19.5t63.5 54.5t39.5 80.5t13.5 97.5
q0 53 -12 100t-37 83.5t-65 57.5t-93 21q-46 0 -84 -18.5t-64.5 -52t-40.5 -78.5t-14 -97q0 -59 11.5 -107.5t36 -84.5t65 -56t96.5 -20z" />
    <glyph glyph-name="ogonek" unicode="&#x2db;" horiz-adv-x="1024" 
d="M907 -773q-28 -10 -60 -19t-67.5 -16t-73 -11.5t-75.5 -4.5q-106 0 -178.5 24.5t-117 67.5t-64 103t-19.5 131q0 61 19.5 125t55.5 128t88.5 126t118.5 119h203q-68 -64 -116.5 -126t-80 -119.5t-46.5 -109.5t-15 -94q0 -48 10.5 -84.5t33 -61t59 -36.5t90.5 -12
q23 0 47.5 2.5t50.5 7.5t52 12.5t52 18.5z" />
    <glyph glyph-name="tilde" unicode="&#x2dc;" horiz-adv-x="1474" 
d="M1208 2838q-30 -63 -71 -115t-91 -89t-106 -56.5t-115 -19.5q-57 0 -103 12t-80.5 30.5t-80.5 50.5t-67 45.5t-53.5 25.5t-71.5 12q-34 0 -68 -14t-65 -40.5t-58 -63.5t-47 -81l-131 117q30 64 71.5 115.5t91 88.5t105.5 56.5t115 19.5q56 0 102 -12t80.5 -30.5
t80.5 -50.5t66.5 -45.5t53.5 -25.5t71 -12q35 0 69 14t65 40.5t58 62.5t48 80z" />
    <glyph glyph-name="hungarumlaut" unicode="&#x2dd;" horiz-adv-x="1327" 
d="M696 2537l402 533l202 -152l-455 -506zM2 2535l389 535l204 -152l-446 -504z" />
    <glyph glyph-name="uni0312" unicode="&#x312;" horiz-adv-x="1667" 
d="M1411 2820q-79 0 -137 -7.5t-100 -21.5t-70.5 -32.5t-48 -40.5t-32 -46t-22.5 -48.5t-19.5 -48.5t-23.5 -46q-11 -21 -25.5 -37.5t-31.5 -27t-37 -16t-41 -5.5q-33 0 -61 11.5t-49 32t-33 49t-12 61.5q0 56 25.5 105.5t71.5 91.5t109 75t137 56t156.5 35t167.5 12h17.5
h19h20h19.5v-152z" />
    <glyph glyph-name="uni0315" unicode="&#x315;" horiz-adv-x="1434" 
d="M614 2355l201 758l250 -57l-254 -738z" />
    <glyph glyph-name="uni0326" unicode="&#x326;" horiz-adv-x="1667" 
d="M303 -707q103 0 171.5 13t112 35t68 51t40.5 61.5t28.5 66t31.5 64.5q12 21 26 37t31 26.5t36.5 16.5t41.5 6q33 0 61 -11.5t49.5 -32t33.5 -48.5t12 -62q0 -56 -25.5 -105.5t-71.5 -91.5t-109 -74.5t-137 -55.5t-157 -35t-167 -12h-17.5h-19h-20h-19.5v151z" />
    <glyph glyph-name="tonos" unicode="&#x384;" horiz-adv-x="565" 
d="M108 2433l107 633l235 -29l-157 -629z" />
    <glyph glyph-name="dieresistonos" unicode="&#x385;" horiz-adv-x="1290" 
d="M915 2595q-34 0 -64 12.5t-51.5 34.5t-34 52.5t-12.5 66.5q0 35 12.5 65.5t34 52.5t51.5 34.5t64 12.5t63 -12.5t50.5 -34.5t34 -52.5t12.5 -65.5q0 -36 -12.5 -66.5t-34 -52.5t-50.5 -34.5t-63 -12.5zM151 2595q-34 0 -63.5 12.5t-50.5 34.5t-33 52.5t-12 66.5
q0 35 12 65.5t33 52.5t50.5 34.5t63.5 12.5q35 0 64.5 -12.5t51.5 -34.5t34 -52.5t12 -65.5q0 -36 -12 -66.5t-34 -52.5t-51.5 -34.5t-64.5 -12.5zM368 2433l107 633l235 -29l-157 -629z" />
    <glyph glyph-name="Alphatonos" unicode="&#x386;" horiz-adv-x="2386" 
d="M1997 0q-27 100 -55 203t-56.5 207t-57.5 207t-59 204h-1161q-30 -99 -60 -203t-58.5 -208.5t-56.5 -208t-54 -201.5h-261q110 390 225.5 765.5t235.5 733.5t243.5 698.5t250.5 661.5h235q143 -358 273.5 -716t249 -716t227.5 -715t209 -712h-270zM1708 1026
q-47 149 -97 304.5t-102.5 313.5t-107 316.5t-109.5 312.5q-13 39 -27.5 81.5t-28 84.5t-26.5 83.5t-24 78.5h-4q-13 -38 -26.5 -79.5t-28 -84t-28.5 -84t-26 -78.5q-53 -151 -105 -308t-103.5 -315t-101 -315.5t-95.5 -310.5h1040zM395 2433l107 633l235 -29l-157 -629z
" />
    <glyph glyph-name="anoteleia" unicode="&#x387;" horiz-adv-x="995" 
d="M497 1875q-45 0 -83.5 17t-67 46.5t-44.5 69t-16 85.5q0 45 16 84.5t44.5 69.5t67 47t83.5 17q46 0 84.5 -17t66.5 -47t44 -69.5t16 -84.5q0 -46 -16 -85.5t-44 -69t-66.5 -46.5t-84.5 -17z" />
    <glyph glyph-name="Epsilontonos" unicode="&#x388;" horiz-adv-x="2005" 
d="M377 0v2859h1341v-207h-1100v-1057h967v-205h-967v-1182h1118v-208h-1359zM-190 2433l107 633l235 -29l-157 -629z" />
    <glyph glyph-name="Etatonos" unicode="&#x389;" horiz-adv-x="2519" 
d="M1901 0v1392h-1283v-1392h-241v2859h241v-1258h1283v1258h241v-2859h-241zM-190 2433l107 633l235 -29l-157 -629z" />
    <glyph glyph-name="Iotatonos" unicode="&#x38a;" horiz-adv-x="995" 
d="M377 0v2859h241v-2859h-241zM-190 2433l107 633l235 -29l-157 -629z" />
    <glyph glyph-name="Omicrontonos" unicode="&#x38c;" horiz-adv-x="2804" 
d="M1384 -41q-197 0 -359 50t-290 142t-223 222.5t-158 291t-94 348t-31 394.5q0 218 34 413t101.5 361t167.5 299t232 226.5t295.5 143.5t357.5 50t355 -50.5t289.5 -143.5t225 -224t160.5 -292t95.5 -347.5t31.5 -390.5q0 -219 -33.5 -415t-101 -362t-167 -298.5
t-232 -225.5t-297 -142.5t-359.5 -49.5zM1421 165q162 0 291.5 47.5t228 131.5t169 200t115.5 254t66 292.5t21 316.5q0 182 -23 348.5t-71 309.5t-123 259t-178.5 198t-237 126.5t-299.5 44.5q-159 0 -287 -46.5t-227 -130.5t-170 -199.5t-116.5 -253.5t-67 -293
t-21.5 -318q0 -184 23 -350.5t70.5 -310t122 -259t178 -197t237 -126t299.5 -44.5zM-10 2433l107 633l235 -29l-157 -629z" />
    <glyph glyph-name="Upsilontonos" unicode="&#x38e;" horiz-adv-x="2109" 
d="M936 0v1247q-131 195 -251.5 395t-233 402t-217 406t-202.5 409h275q53 -119 110.5 -239.5t119 -242t126 -242.5t132 -239.5t137.5 -233t143 -222.5q66 108 133 225t133 237.5t129.5 243.5t123 244.5t113.5 239t101 229.5h268q-62 -130 -126.5 -261t-133.5 -263.5
t-143 -267t-153 -270.5t-164.5 -273.5t-178.5 -276.5v-1247h-241zM-434 2433l107 633l235 -29l-157 -629z" />
    <glyph glyph-name="Omegatonos" unicode="&#x38f;" horiz-adv-x="2816" 
d="M1673 0v204q94 62 178 143t154 179t125.5 212t94 240.5t59 266t20.5 289.5q0 159 -22.5 306.5t-69.5 276.5t-119 235t-171 182t-226 117.5t-283 41.5t-282 -43.5t-224.5 -121.5t-170 -186t-118 -237t-68.5 -274t-22 -297q0 -147 19 -284.5t56.5 -264t91.5 -241
t123.5 -213t153.5 -181.5t181 -146v-204h-969v204h692q-79 57 -154.5 136t-143.5 176.5t-125 212t-98.5 243.5t-65 270t-23.5 292q0 191 33.5 366t100 327t165 276t228.5 212.5t290 136.5t350 48q182 0 336.5 -44.5t280.5 -126.5t223 -200t162 -264.5t99 -320t34 -367.5
q0 -141 -23 -281t-64.5 -272.5t-99.5 -255t-128 -228t-150.5 -191.5t-167.5 -145h707v-204h-969zM10 2433l107 633l235 -29l-157 -629z" />
    <glyph glyph-name="iotadieresistonos" unicode="&#x390;" horiz-adv-x="1149" 
d="M1061 0q-25 -5 -51 -9t-53 -7t-54.5 -5t-55.5 -2q-90 0 -168.5 23.5t-136.5 81.5t-91 157t-33 250v1395h-332v189h567v-1559q0 -78 9.5 -133.5t26.5 -92.5t41.5 -59t55.5 -33t67 -14.5t76 -3.5h132v-178zM941 2595q-34 0 -64 12.5t-51.5 34.5t-34 52.5t-12.5 66.5
q0 35 12.5 65.5t34 52.5t51.5 34.5t64 12.5t63 -12.5t50.5 -34.5t34 -52.5t12.5 -65.5q0 -36 -12.5 -66.5t-34 -52.5t-50.5 -34.5t-63 -12.5zM177 2595q-34 0 -63.5 12.5t-50.5 34.5t-33 52.5t-12 66.5q0 35 12 65.5t33 52.5t50.5 34.5t63.5 12.5q35 0 64.5 -12.5
t51.5 -34.5t34 -52.5t12 -65.5q0 -36 -12 -66.5t-34 -52.5t-51.5 -34.5t-64.5 -12.5zM394 2433l107 633l235 -29l-157 -629z" />
    <glyph glyph-name="Alpha" unicode="&#x391;" horiz-adv-x="2386" 
d="M1997 0q-27 100 -55 203t-56.5 207t-57.5 207t-59 204h-1161q-30 -99 -60 -203t-58.5 -208.5t-56.5 -208t-54 -201.5h-261q110 390 225.5 765.5t235.5 733.5t243.5 698.5t250.5 661.5h235q143 -358 273.5 -716t249 -716t227.5 -715t209 -712h-270zM1708 1026
q-47 149 -97 304.5t-102.5 313.5t-107 316.5t-109.5 312.5q-13 39 -27.5 81.5t-28 84.5t-26.5 83.5t-24 78.5h-4q-13 -38 -26.5 -79.5t-28 -84t-28.5 -84t-26 -78.5q-53 -151 -105 -308t-103.5 -315t-101 -315.5t-95.5 -310.5h1040z" />
    <glyph glyph-name="Beta" unicode="&#x392;" horiz-adv-x="2109" 
d="M377 0v2859h614q128 0 234 -23t190 -66.5t146.5 -105.5t103.5 -140t61.5 -171t20.5 -197q0 -113 -22.5 -211.5t-64 -179t-102.5 -142t-139 -101.5q106 -26 196 -88t156 -153t104 -208.5t38 -253.5q0 -129 -27 -239.5t-78 -201.5t-125 -161.5t-167.5 -118.5t-205.5 -73
t-239 -25h-694zM1030 1589q129 0 217 40.5t141.5 112t77 170.5t23.5 216q0 76 -12.5 144.5t-38.5 127t-67.5 105t-100.5 79.5t-136 50.5t-174 17.5h-342v-1063h412zM1089 208q82 0 155.5 16.5t136.5 49.5t113 81.5t86 112.5t55 143.5t19 174.5q0 138 -37.5 249t-115 188.5
t-197 119t-282.5 41.5h-404v-1176h471z" />
    <glyph glyph-name="Gamma" unicode="&#x393;" horiz-adv-x="1706" 
d="M377 0v2859h1237v-207h-996v-2652h-241z" />
    <glyph glyph-name="Delta" unicode="&#x394;" horiz-adv-x="2328" 
d="M153 0l5 208q56 194 110 376.5t107.5 355.5t106 337.5t106 324.5t108 316.5t111 312t116 312t121.5 316.5h236q69 -179 133.5 -349t124.5 -334.5t116.5 -324.5t110.5 -319.5t105.5 -319t102.5 -323.5t101 -333.5t101 -347.5v-208h-2022zM1910 208q-53 196 -111 393.5
t-119 396.5t-125 398t-130 397.5t-134 395t-136 391.5h-4q-68 -195 -134.5 -392t-131 -395.5t-126.5 -397.5t-121.5 -397.5t-116 -396t-109.5 -393.5h1498z" />
    <glyph glyph-name="Delta" unicode="&#x2206;" horiz-adv-x="2328" 
d="M153 0l5 208q56 194 110 376.5t107.5 355.5t106 337.5t106 324.5t108 316.5t111 312t116 312t121.5 316.5h236q69 -179 133.5 -349t124.5 -334.5t116.5 -324.5t110.5 -319.5t105.5 -319t102.5 -323.5t101 -333.5t101 -347.5v-208h-2022zM1910 208q-53 196 -111 393.5
t-119 396.5t-125 398t-130 397.5t-134 395t-136 391.5h-4q-68 -195 -134.5 -392t-131 -395.5t-126.5 -397.5t-121.5 -397.5t-116 -396t-109.5 -393.5h1498z" />
    <glyph glyph-name="Epsilon" unicode="&#x395;" horiz-adv-x="2005" 
d="M377 0v2859h1341v-207h-1100v-1057h967v-205h-967v-1182h1118v-208h-1359z" />
    <glyph glyph-name="Zeta" unicode="&#x396;" horiz-adv-x="1888" 
d="M125 0v208l1362 2444h-1322v207h1577v-207l-1359 -2444h1378v-208h-1636z" />
    <glyph glyph-name="Eta" unicode="&#x397;" horiz-adv-x="2519" 
d="M1901 0v1392h-1283v-1392h-241v2859h241v-1258h1283v1258h241v-2859h-241z" />
    <glyph glyph-name="Theta" unicode="&#x398;" horiz-adv-x="2804" 
d="M1384 -41q-193 0 -355.5 49t-291 141t-224 222t-158.5 291.5t-94.5 349t-31.5 395.5q0 218 34 413.5t102 362t168 299t232.5 226t296 143t355.5 49.5q190 0 352 -49.5t291 -142.5t225.5 -223.5t160.5 -292.5t96 -348.5t32 -391.5q0 -220 -33.5 -415.5t-101 -362.5
t-167.5 -299t-233 -225t-297.5 -142t-357.5 -49zM1421 165q159 0 288.5 46t228.5 130.5t170 199.5t116 253.5t66.5 293t21.5 319.5q0 186 -23.5 351.5t-72 309t-123.5 259t-178.5 197.5t-237.5 125.5t-297 43.5q-156 0 -284.5 -45.5t-227.5 -129.5t-170.5 -198.5t-117 -253
t-67.5 -293.5t-22 -321q0 -187 23 -353.5t71 -309.5t123 -258t178.5 -197t237.5 -125.5t297 -43.5zM890 1317v204h1022v-204h-1022z" />
    <glyph glyph-name="Iota" unicode="&#x399;" horiz-adv-x="995" 
d="M377 0v2859h241v-2859h-241z" />
    <glyph glyph-name="Kappa" unicode="&#x39a;" horiz-adv-x="2179" 
d="M1773 0l-978 1499l-177 -186v-1313h-241v2859h241v-1272q141 156 282.5 314.5t283.5 318t282 320t278 319.5h326l-1112 -1192l1118 -1667h-303z" />
    <glyph glyph-name="Lambda" unicode="&#x39b;" horiz-adv-x="2394" 
d="M2005 0q-49 189 -101.5 380.5t-109 382t-116 379.5t-121.5 377t-126 374t-133 380l-106 328h-4l-109 -324q-100 -291 -191.5 -570t-180.5 -564.5t-171.5 -574t-154.5 -568.5h-263q103 364 213 721.5t230 715t249.5 714t268.5 708.5h236q140 -351 270.5 -708t249.5 -713.5
t227.5 -713t212.5 -724.5h-270z" />
    <glyph glyph-name="Mu" unicode="&#x39c;" horiz-adv-x="3326" 
d="M2740 0q-4 221 -10 438.5t-16 431t-23.5 424t-31 419.5t-40 416.5t-49.5 415.5h-4l-795 -2545h-237l-797 2545h-6q-21 -205 -40.5 -412t-35 -416.5t-28.5 -421.5t-22.5 -426.5t-16 -432t-9.5 -436.5h-239q3 236 10.5 473t20.5 475t31 476t41 477t51.5 478t62.5 480h344
l766 -2462h8l760 2462h342q33 -245 60.5 -483t49.5 -473.5t39 -469.5t29.5 -470t21 -476t13.5 -487h-250z" />
    <glyph glyph-name="Nu" unicode="&#x39d;" horiz-adv-x="2584" 
d="M1888 0l-1272 2556h-6v-2556h-233v2859h356l1235 -2476h6v2476h234v-2859h-320z" />
    <glyph glyph-name="Xi" unicode="&#x39e;" horiz-adv-x="1872" 
d="M174 2646v213h1524v-213h-1524zM326 1384v213h1220v-213h-1220zM174 0v213h1524v-213h-1524z" />
    <glyph glyph-name="Omicron" unicode="&#x39f;" horiz-adv-x="2804" 
d="M1384 -41q-197 0 -359 50t-290 142t-223 222.5t-158 291t-94 348t-31 394.5q0 218 34 413t101.5 361t167.5 299t232 226.5t295.5 143.5t357.5 50t355 -50.5t289.5 -143.5t225 -224t160.5 -292t95.5 -347.5t31.5 -390.5q0 -219 -33.5 -415t-101 -362t-167 -298.5
t-232 -225.5t-297 -142.5t-359.5 -49.5zM1421 165q162 0 291.5 47.5t228 131.5t169 200t115.5 254t66 292.5t21 316.5q0 182 -23 348.5t-71 309.5t-123 259t-178.5 198t-237 126.5t-299.5 44.5q-159 0 -287 -46.5t-227 -130.5t-170 -199.5t-116.5 -253.5t-67 -293
t-21.5 -318q0 -184 23 -350.5t70.5 -310t122 -259t178 -197t237 -126t299.5 -44.5z" />
    <glyph glyph-name="Pi" unicode="&#x3a0;" horiz-adv-x="2519" 
d="M1901 0v2652h-1283v-2652h-241v2859h1765v-2859h-241z" />
    <glyph glyph-name="Rho" unicode="&#x3a1;" horiz-adv-x="2066" 
d="M377 0v2859h618q87 0 168.5 -8t152.5 -27q126 -34 226.5 -105.5t171 -172.5t108 -229.5t37.5 -276.5q0 -199 -57.5 -360.5t-167 -277t-267.5 -178.5t-359 -63h-390v-1161h-241zM1032 1368q136 0 241.5 46.5t177.5 132.5t109 206.5t37 267.5q0 113 -25.5 212t-74 178
t-118 134t-156.5 78q-30 9 -62.5 14.5t-66 8.5t-65.5 4.5t-60 1.5h-351v-1284h414z" />
    <glyph glyph-name="Sigma" unicode="&#x3a3;" horiz-adv-x="1806" 
d="M139 0v208l829 1271l-811 1171v209h1506v-209h-1210l806 -1157l-844 -1285h1248v-208h-1524z" />
    <glyph glyph-name="Tau" unicode="&#x3a4;" horiz-adv-x="1951" 
d="M854 0v2652h-807v207h1857v-207h-806v-2652h-244z" />
    <glyph glyph-name="Upsilon" unicode="&#x3a5;" horiz-adv-x="2109" 
d="M936 0v1247q-131 195 -251.5 395t-233 402t-217 406t-202.5 409h275q53 -119 110.5 -239.5t119 -242t126 -242.5t132 -239.5t137.5 -233t143 -222.5q66 108 133 225t133 237.5t129.5 243.5t123 244.5t113.5 239t101 229.5h268q-62 -130 -126.5 -261t-133.5 -263.5
t-143 -267t-153 -270.5t-164.5 -273.5t-178.5 -276.5v-1247h-241z" />
    <glyph glyph-name="Phi" unicode="&#x3a6;" horiz-adv-x="2928" 
d="M1343 -438v438q-183 7 -336.5 57t-277 138t-217.5 211.5t-156.5 277t-94.5 335t-32 386.5q0 216 37 403t105.5 343.5t167 280.5t222.5 213.5t270.5 143.5t311.5 70v426h242v-426q137 -5 258 -35t224.5 -82t191 -125t157.5 -165t123 -202t88.5 -236t53.5 -266.5t18 -293.5
q0 -216 -36.5 -403.5t-105 -344t-167 -280.5t-222.5 -213.5t-271 -143.5t-312 -69v-438h-242zM1343 2650q-140 -14 -258 -63t-212.5 -128.5t-166 -186t-119.5 -235t-72 -276t-24 -309.5q0 -182 23.5 -342t71 -295t118.5 -243t165.5 -185.5t213 -123t260.5 -55.5v2442z
M1585 208q140 14 258 63.5t212.5 129t166 186t119.5 235t72 276t24 309.5q0 181 -23.5 341.5t-71 295.5t-118.5 242.5t-165.5 185.5t-213 123.5t-260.5 54.5v-2442z" />
    <glyph glyph-name="Chi" unicode="&#x3a7;" horiz-adv-x="2214" 
d="M1857 0l-759 1294l-756 -1294h-285l917 1481l-835 1378h295l684 -1172l682 1172h278l-837 -1358l915 -1501h-299z" />
    <glyph glyph-name="Psi" unicode="&#x3a8;" horiz-adv-x="2810" 
d="M1284 0v702q-194 6 -343.5 44.5t-257.5 103t-181 151t-115.5 189.5t-61 218t-18.5 241v1210h242v-1194q0 -104 12.5 -196t43.5 -173.5t85 -149.5t135.5 -119t195 -82t263.5 -38v1952h241v-1952q128 7 231.5 31t185.5 67t142 109t99 157t58.5 210t19.5 270v1108h241v-1092
q0 -184 -31 -333t-90.5 -265.5t-145 -201.5t-194 -141.5t-238.5 -87t-278 -36.5v-702h-241z" />
    <glyph glyph-name="Omega" unicode="&#x3a9;" horiz-adv-x="2816" 
d="M1673 0v204q94 62 178 143t154 179t125.5 212t94 240.5t59 266t20.5 289.5q0 159 -22.5 306.5t-69.5 276.5t-119 235t-171 182t-226 117.5t-283 41.5t-282 -43.5t-224.5 -121.5t-170 -186t-118 -237t-68.5 -274t-22 -297q0 -147 19 -284.5t56.5 -264t91.5 -241
t123.5 -213t153.5 -181.5t181 -146v-204h-969v204h692q-79 57 -154.5 136t-143.5 176.5t-125 212t-98.5 243.5t-65 270t-23.5 292q0 191 33.5 366t100 327t165 276t228.5 212.5t290 136.5t350 48q182 0 336.5 -44.5t280.5 -126.5t223 -200t162 -264.5t99 -320t34 -367.5
q0 -141 -23 -281t-64.5 -272.5t-99.5 -255t-128 -228t-150.5 -191.5t-167.5 -145h707v-204h-969z" />
    <glyph glyph-name="Omega" unicode="&#x2126;" horiz-adv-x="2816" 
d="M1673 0v204q94 62 178 143t154 179t125.5 212t94 240.5t59 266t20.5 289.5q0 159 -22.5 306.5t-69.5 276.5t-119 235t-171 182t-226 117.5t-283 41.5t-282 -43.5t-224.5 -121.5t-170 -186t-118 -237t-68.5 -274t-22 -297q0 -147 19 -284.5t56.5 -264t91.5 -241
t123.5 -213t153.5 -181.5t181 -146v-204h-969v204h692q-79 57 -154.5 136t-143.5 176.5t-125 212t-98.5 243.5t-65 270t-23.5 292q0 191 33.5 366t100 327t165 276t228.5 212.5t290 136.5t350 48q182 0 336.5 -44.5t280.5 -126.5t223 -200t162 -264.5t99 -320t34 -367.5
q0 -141 -23 -281t-64.5 -272.5t-99.5 -255t-128 -228t-150.5 -191.5t-167.5 -145h707v-204h-969z" />
    <glyph glyph-name="Iotadieresis" unicode="&#x3aa;" horiz-adv-x="995" 
d="M377 0v2859h241v-2859h-241zM859 3127q-33 0 -63 13.5t-52.5 36.5t-35.5 53.5t-13 64.5t13 65t35.5 54.5t52.5 37t63 13.5q34 0 64 -13.5t52 -37t34.5 -54.5t12.5 -65t-12.5 -64.5t-34.5 -53.5t-52 -36.5t-64 -13.5zM140 3127q-33 0 -63 13.5t-52.5 36.5t-35.5 53.5
t-13 64.5t13 65t35.5 54.5t52.5 37t63 13.5q34 0 64 -13.5t52 -37t34.5 -54.5t12.5 -65t-12.5 -64.5t-34.5 -53.5t-52 -36.5t-64 -13.5z" />
    <glyph glyph-name="Upsilondieresis" unicode="&#x3ab;" horiz-adv-x="2109" 
d="M936 0v1247q-131 195 -251.5 395t-233 402t-217 406t-202.5 409h275q53 -119 110.5 -239.5t119 -242t126 -242.5t132 -239.5t137.5 -233t143 -222.5q66 108 133 225t133 237.5t129.5 243.5t123 244.5t113.5 239t101 229.5h268q-62 -130 -126.5 -261t-133.5 -263.5
t-143 -267t-153 -270.5t-164.5 -273.5t-178.5 -276.5v-1247h-241zM1447 3127q-33 0 -62.5 13.5t-52 36t-36 53t-13.5 65.5t13.5 66t36 54t52 36.5t62.5 13.5q34 0 64 -13.5t52 -36.5t35 -54t13 -66t-13 -65.5t-35 -53t-52 -36t-64 -13.5zM663 3127q-33 0 -63 13.5t-52.5 36
t-35.5 53t-13 65.5t13 66t35.5 54t52.5 36.5t63 13.5t63 -13.5t52.5 -36.5t35 -54t12.5 -66t-12.5 -65.5t-35 -53t-52.5 -36t-63 -13.5z" />
    <glyph glyph-name="alphatonos" unicode="&#x3ac;" horiz-adv-x="2361" 
d="M2181 -2q-12 -4 -29.5 -7.5t-37.5 -6.5t-40 -5t-39 -2q-65 0 -110.5 18t-79.5 67t-61 134.5t-54 220.5q-22 -57 -56 -113t-79 -107t-102.5 -94.5t-127.5 -75.5t-152.5 -50t-178.5 -18q-191 0 -345 73.5t-263.5 211.5t-168.5 333.5t-59 440.5q0 164 28 309t81 267
t129 218.5t173 163t213.5 102t250.5 35.5q99 0 182.5 -20t152 -55t123.5 -82.5t97 -103t72.5 -116.5t50.5 -122q4 39 7.5 74t6.5 69.5t5.5 69t5 72t5 80.5t4.5 94h238q-12 -156 -25 -300.5t-27.5 -284t-30.5 -276.5t-33 -278q19 -177 36.5 -301.5t34 -208.5t32.5 -133
t33.5 -74t36 -32t41.5 -7h60v-180zM1063 161q140 0 253.5 58.5t193 168t122.5 267t43 355.5q0 132 -17 250.5t-51.5 218.5t-86 180.5t-120.5 136.5t-154.5 86t-188.5 30q-145 0 -257 -63t-189 -176t-117 -269.5t-40 -342.5q0 -129 17 -246t50.5 -217t83.5 -180.5
t117.5 -137.5t152.5 -88t188 -31zM945 2433l107 633l235 -29l-157 -629z" />
    <glyph glyph-name="epsilontonos" unicode="&#x3ad;" horiz-adv-x="1689" 
d="M1554 71q-65 -24 -139.5 -45t-156.5 -36t-171.5 -23t-183.5 -8q-97 0 -187 15.5t-169.5 47t-145.5 78.5t-113 111.5t-73.5 145.5t-26.5 179q0 102 32.5 189.5t89 156.5t133 116t163.5 67q-76 29 -136 74t-101 105t-63 133.5t-22 158.5q0 129 50 235t142.5 182.5
t223.5 118t293 41.5q61 0 117.5 -4t108.5 -11.5t99.5 -18t91 -24t83 -29t75.5 -32.5l-59 -202q-55 24 -116 46t-127.5 38.5t-140 26t-154.5 9.5q-101 0 -182 -26t-138 -73.5t-88 -114.5t-31 -148q0 -76 24 -147t77 -124.5t138.5 -85.5t209.5 -32h344v-195h-349
q-136 0 -236.5 -29.5t-167 -83.5t-99.5 -128t-33 -162q0 -99 34.5 -174.5t97.5 -126.5t153 -77t200 -26q80 0 156 8t148.5 23t142 36t137.5 46zM870 2433l107 633l235 -29l-157 -629z" />
    <glyph glyph-name="etatonos" unicode="&#x3ae;" horiz-adv-x="2177" 
d="M1618 -862v2140q0 136 -21 252.5t-70 201.5t-129.5 132.5t-199.5 47.5q-93 0 -170.5 -25t-151 -76.5t-148 -130.5t-161.5 -185v-1495h-235v2073h188l37 -334q79 96 155 166.5t155.5 116.5t166.5 68.5t188 22.5q121 0 215 -30t163.5 -84.5t118 -128.5t78 -162.5t43 -187
t13.5 -199.5v-2183h-235zM978 2433l107 633l235 -29l-157 -629z" />
    <glyph glyph-name="iotatonos" unicode="&#x3af;" horiz-adv-x="1149" 
d="M1061 0q-25 -5 -51 -9t-53 -7t-54.5 -5t-55.5 -2q-90 0 -168.5 23.5t-136.5 81.5t-91 157t-33 250v1395h-332v189h567v-1559q0 -78 9.5 -133.5t26.5 -92.5t41.5 -59t55.5 -33t67 -14.5t76 -3.5h132v-178zM392 2433l107 633l235 -29l-157 -629z" />
    <glyph glyph-name="upsilondieresistonos" unicode="&#x3b0;" horiz-adv-x="2130" 
d="M323 2073h236v-1279q0 -161 26.5 -280.5t85.5 -198t153 -117.5t228 -39q95 0 175 24t144 74t112 128t80 186t48.5 247t16.5 312q0 87 -2 167t-6 157t-9.5 152t-12.5 151t-15.5 154t-18.5 162h236q9 -78 17.5 -152.5t15.5 -148.5t12.5 -148.5t9.5 -152.5t6 -160.5
t2 -172.5q0 -213 -25.5 -383t-75.5 -301t-122 -225t-165 -154t-205.5 -88t-241.5 -28q-179 0 -311 48.5t-219.5 146.5t-131 247t-43.5 350v1322zM1460 2595q-34 0 -64 12.5t-51.5 34.5t-34 52.5t-12.5 66.5q0 35 12.5 65.5t34 52.5t51.5 34.5t64 12.5t63 -12.5t50.5 -34.5
t34 -52.5t12.5 -65.5q0 -36 -12.5 -66.5t-34 -52.5t-50.5 -34.5t-63 -12.5zM696 2595q-34 0 -63.5 12.5t-50.5 34.5t-33 52.5t-12 66.5q0 35 12 65.5t33 52.5t50.5 34.5t63.5 12.5q35 0 64.5 -12.5t51.5 -34.5t34 -52.5t12 -65.5q0 -36 -12 -66.5t-34 -52.5t-51.5 -34.5
t-64.5 -12.5zM913 2433l107 633l235 -29l-157 -629z" />
    <glyph glyph-name="alpha" unicode="&#x3b1;" horiz-adv-x="2361" 
d="M2181 -2q-12 -4 -29.5 -7.5t-37.5 -6.5t-40 -5t-39 -2q-65 0 -110.5 18t-79.5 67t-61 134.5t-54 220.5q-22 -57 -56 -113t-79 -107t-102.5 -94.5t-127.5 -75.5t-152.5 -50t-178.5 -18q-191 0 -345 73.5t-263.5 211.5t-168.5 333.5t-59 440.5q0 164 28 309t81 267
t129 218.5t173 163t213.5 102t250.5 35.5q99 0 182.5 -20t152 -55t123.5 -82.5t97 -103t72.5 -116.5t50.5 -122q4 39 7.5 74t6.5 69.5t5.5 69t5 72t5 80.5t4.5 94h238q-12 -156 -25 -300.5t-27.5 -284t-30.5 -276.5t-33 -278q19 -177 36.5 -301.5t34 -208.5t32.5 -133
t33.5 -74t36 -32t41.5 -7h60v-180zM1063 161q140 0 253.5 58.5t193 168t122.5 267t43 355.5q0 132 -17 250.5t-51.5 218.5t-86 180.5t-120.5 136.5t-154.5 86t-188.5 30q-145 0 -257 -63t-189 -176t-117 -269.5t-40 -342.5q0 -129 17 -246t50.5 -217t83.5 -180.5
t117.5 -137.5t152.5 -88t188 -31z" />
    <glyph glyph-name="beta" unicode="&#x3b2;" horiz-adv-x="2068" 
d="M332 -862v3084q0 131 22.5 247t65.5 213t106.5 173.5t145 129.5t180.5 81t215 28q177 0 305.5 -52t211.5 -145t123 -222t40 -283q0 -123 -26 -237.5t-75.5 -211t-121.5 -170.5t-164 -116q84 -21 157 -55t133 -82.5t106.5 -110t78.5 -137.5t48.5 -165t16.5 -192
q0 -212 -60 -387t-174 -300t-277.5 -193t-368.5 -68q-73 0 -137 8.5t-120 23t-105 35t-93 44.5l2 -940h-235zM880 1513v203h72q90 0 165.5 24.5t136.5 69t107.5 105.5t77.5 134t46.5 155t15.5 168q0 115 -24 210.5t-78 164t-139 106.5t-208 38q-83 0 -151.5 -20.5t-122 -59
t-93.5 -94t-66 -125.5t-39 -153.5t-13 -177.5v-1954q60 -36 116 -61.5t111.5 -42.5t113 -25t120.5 -8q96 0 180 23t153.5 67t123 107.5t90.5 144t56 177.5t19 208q0 142 -41 256.5t-125.5 194.5t-212.5 122.5t-301 42.5h-90z" />
    <glyph glyph-name="gamma" unicode="&#x3b3;" horiz-adv-x="1794" 
d="M702 -862l-32 561q-10 156 -33 319t-59.5 339t-85.5 367t-111.5 402.5t-137 446.5t-161.5 500h245q68 -212 121.5 -385t96 -316t75.5 -259.5t59.5 -215t47 -183.5t39.5 -164q9 -39 17 -73.5t14.5 -67.5t13 -66.5t12.5 -70.5h6q82 131 156.5 266t138.5 276t116 289
t88.5 304t56.5 322t20 344h241q0 -192 -24.5 -372.5t-71.5 -354t-114.5 -342t-153 -335t-187.5 -333t-219 -336.5q8 -112 16 -221t15 -216.5t13 -213.5t12 -211h-230z" />
    <glyph glyph-name="delta" unicode="&#x3b4;" horiz-adv-x="2066" 
d="M1009 1919q-97 -42 -176.5 -100t-142 -129.5t-107.5 -154t-74.5 -172.5t-44 -186.5t-14.5 -195.5q0 -117 16 -223t48 -197.5t81 -165t116 -125.5t152 -80.5t189 -28.5q142 0 252 57.5t185 161.5t114 249.5t39 322.5q0 119 -17 220.5t-51.5 190t-87 164.5t-123 144
t-159 129t-195.5 119zM1673 2783q-39 16 -79.5 31t-82 28t-86 23t-92.5 17t-100.5 11t-110.5 4q-101 0 -174 -22.5t-120 -62.5t-69 -95t-22 -119q0 -55 12.5 -102t39 -89.5t66.5 -82.5t95.5 -82t126.5 -87.5t158 -98.5q97 -60 184.5 -124t161 -136.5t132.5 -155.5t100 -181
t63 -213t22 -251q0 -159 -27.5 -298t-79.5 -254t-127.5 -205t-172 -152t-212.5 -94.5t-249 -32.5q-127 0 -238.5 29.5t-204.5 87t-166 142t-123.5 193t-77 241t-26.5 286.5q0 108 15 215.5t47.5 210.5t82.5 198.5t120 181.5t160 160.5t204 135.5q-72 52 -131.5 107.5
t-103 119.5t-67.5 140t-24 169q0 112 42 207.5t123.5 166t201.5 111t276 40.5q89 0 170.5 -8.5t155.5 -23.5t143 -36t134 -45z" />
    <glyph glyph-name="epsilon" unicode="&#x3b5;" horiz-adv-x="1689" 
d="M1554 71q-65 -24 -139.5 -45t-156.5 -36t-171.5 -23t-183.5 -8q-97 0 -187 15.5t-169.5 47t-145.5 78.5t-113 111.5t-73.5 145.5t-26.5 179q0 102 32.5 189.5t89 156.5t133 116t163.5 67q-76 29 -136 74t-101 105t-63 133.5t-22 158.5q0 129 50 235t142.5 182.5
t223.5 118t293 41.5q61 0 117.5 -4t108.5 -11.5t99.5 -18t91 -24t83 -29t75.5 -32.5l-59 -202q-55 24 -116 46t-127.5 38.5t-140 26t-154.5 9.5q-101 0 -182 -26t-138 -73.5t-88 -114.5t-31 -148q0 -76 24 -147t77 -124.5t138.5 -85.5t209.5 -32h344v-195h-349
q-136 0 -236.5 -29.5t-167 -83.5t-99.5 -128t-33 -162q0 -99 34.5 -174.5t97.5 -126.5t153 -77t200 -26q80 0 156 8t148.5 23t142 36t137.5 46z" />
    <glyph glyph-name="zeta" unicode="&#x3b6;" horiz-adv-x="1407" 
d="M987 -809q48 78 87.5 143t67.5 125t43 119.5t15 126.5q0 58 -25 103t-80.5 82.5t-144.5 70.5t-217 66q-100 25 -179 61t-139 84t-102 110.5t-68.5 143t-38.5 181t-12 224.5q0 132 23.5 275.5t64 291.5t97 296.5t122.5 290t139 273t147.5 245.5t148.5 206.5t141 157.5
h-832v205h1131v-185q-92 -75 -181.5 -177.5t-172 -223.5t-157.5 -256.5t-139 -278t-115.5 -286.5t-88 -282.5t-56.5 -266.5t-20 -237q0 -106 6.5 -188.5t22.5 -147.5t44.5 -114t72.5 -86.5t106 -66t145 -51.5q158 -44 270.5 -89.5t184.5 -102t105.5 -128t33.5 -167.5
q0 -97 -21 -181.5t-57.5 -162t-83.5 -151t-100 -146.5z" />
    </font>
</defs>
</svg>
